<svg width="35" height="33" viewBox="0 0 35 33" fill="none" xmlns="http://www.w3.org/2000/svg">
<path d="M21.0425 1.47559C25.7304 2.90234 29.1274 7.38641 29.1274 12.5499V13.2972L32.9321 20.0913H29.4671V25.7304C29.4671 27.1571 28.3121 28.3121 26.8854 28.3121H25.9342" stroke="white" stroke-width="1.5" stroke-miterlimit="10"/>
<path d="M4.39703 32.9321V30.4862C4.39703 28.9236 4.19321 27.293 3.78556 25.7983L1.47558 16.2866C1.13588 14.9958 1 13.6369 1 12.2781C1 9.15287 2.29087 6.3673 4.32909 4.32909C6.3673 2.29087 9.22081 1 12.3461 1C18.5966 1 23.5563 6.29936 23.5563 12.5499V13.2972L27.3609 20.0913H23.896V25.7304C23.896 27.1571 22.741 28.38 21.3142 28.38H19.8195V33" stroke="white" stroke-width="1.5" stroke-miterlimit="10"/>
<path d="M19.7517 32.9321V28.3121H21.2464C22.6731 28.3121 23.8281 27.1571 23.8281 25.6624V20.0234H27.2931L23.4884 13.2293V12.482C23.4884 7.18262 19.8876 2.56266 14.9958 1.27179" stroke="white" stroke-width="1.5" stroke-miterlimit="10"/>
<path d="M19.7517 28.312H15.879C14.9958 28.312 14.3164 27.6326 14.3164 26.7494" stroke="white" stroke-width="1.5" stroke-miterlimit="10"/>
<path d="M10.3758 22.1975H14.2484V17.2378C16.2866 16.4225 17.7134 14.5202 17.7134 12.2102C17.7134 9.22081 15.2675 6.8429 12.3461 6.8429C9.35668 6.8429 6.97876 9.28875 6.97876 12.2102C6.97876 14.5202 8.40551 16.4905 10.4437 17.2378V22.1975H10.3758Z" stroke="white" stroke-width="1.5" stroke-miterlimit="10"/>
<path d="M19.1401 12.1422H20.6348" stroke="white" stroke-width="1.5" stroke-miterlimit="10"/>
<path d="M3.98926 12.1422H5.48395" stroke="white" stroke-width="1.5" stroke-miterlimit="10"/>
<path d="M12.2781 3.78552V5.28021" stroke="white" stroke-width="1.5" stroke-miterlimit="10"/>
<path d="M17.2378 17.0339L18.3248 18.121" stroke="white" stroke-width="1.5" stroke-miterlimit="10"/>
<path d="M6.29956 6.16345L7.38661 7.18256" stroke="white" stroke-width="1.5" stroke-miterlimit="10"/>
<path d="M7.38661 17.0339L6.29956 18.121" stroke="white" stroke-width="1.5" stroke-miterlimit="10"/>
<path d="M18.3248 6.16345L17.2378 7.18256" stroke="white" stroke-width="1.5" stroke-miterlimit="10"/>
<path d="M8.40552 19.7516H16.1507" stroke="white" stroke-width="1.5" stroke-miterlimit="10"/>
<path d="M12.2103 13.4331C12.9232 13.4331 13.5012 12.8551 13.5012 12.1422C13.5012 11.4293 12.9232 10.8513 12.2103 10.8513C11.4974 10.8513 10.9194 11.4293 10.9194 12.1422C10.9194 12.8551 11.4974 13.4331 12.2103 13.4331Z" stroke="white" stroke-width="1.5" stroke-miterlimit="10"/>
<path d="M12.2103 13.4331C12.9232 13.4331 13.5012 12.8551 13.5012 12.1422C13.5012 11.4293 12.9232 10.8513 12.2103 10.8513C11.4974 10.8513 10.9194 11.4293 10.9194 12.1422C10.9194 12.8551 11.4974 13.4331 12.2103 13.4331Z" stroke="white" stroke-width="1.5" stroke-miterlimit="10"/>
</svg>
