<svg width="30" height="32" viewBox="0 0 30 32" fill="none" xmlns="http://www.w3.org/2000/svg">
<path d="M0.516128 11.355C0.379242 11.355 0.247963 11.4094 0.15117 11.5062C0.0543776 11.603 0 11.7343 0 11.8712V13.9357C0 14.0726 0.0543776 14.2038 0.15117 14.3006C0.247963 14.3974 0.379242 14.4518 0.516128 14.4518H1.64148C1.80334 15.1532 2.07174 15.8257 2.43735 16.4458L1.18342 17.6997C1.13549 17.7477 1.09747 17.8046 1.07153 17.8672C1.04559 17.9298 1.03224 17.9969 1.03224 18.0647C1.03224 18.1325 1.04559 18.1996 1.07153 18.2622C1.09747 18.3248 1.13549 18.3817 1.18342 18.4297L2.7318 19.9781C2.77973 20.026 2.83663 20.064 2.89925 20.0899C2.96187 20.1159 3.02899 20.1292 3.09677 20.1292C3.16455 20.1292 3.23167 20.1159 3.29429 20.0899C3.35691 20.064 3.41381 20.026 3.46174 19.9781L4.71567 18.7241C5.33577 19.0897 6.00824 19.3581 6.70967 19.52V21.1615C6.70967 21.2984 6.76404 21.4296 6.86084 21.5264C6.95763 21.6232 7.08891 21.6776 7.22579 21.6776H9.03547C9.36605 22.9598 10.0002 24.1437 10.8845 25.1292C11.7688 26.1148 12.8772 26.8732 14.1162 27.3403C15.3552 27.8075 16.6884 27.9697 18.0033 27.8133C19.3182 27.6569 20.5761 27.1864 21.6709 26.4417L26.776 31.5467C26.9198 31.6905 27.0905 31.8045 27.2784 31.8823C27.4662 31.9601 27.6676 32.0002 27.8709 32.0002C28.0743 32.0002 28.2756 31.9601 28.4635 31.8823C28.6513 31.8045 28.822 31.6905 28.9658 31.5467C29.1096 31.4029 29.2237 31.2322 29.3015 31.0443C29.3793 30.8565 29.4193 30.6551 29.4193 30.4518C29.4193 30.2484 29.3793 30.0471 29.3015 29.8592C29.2237 29.6714 29.1096 29.5007 28.9658 29.3569L23.8607 24.2518C24.9925 22.5895 25.4777 20.5709 25.2248 18.5758C24.972 16.5808 23.9987 14.747 22.488 13.4195H23.2258C23.3627 13.4195 23.4939 13.3652 23.5907 13.2684C23.6875 13.1716 23.7419 13.0403 23.7419 12.9034V10.9331C23.8436 10.6634 25.2903 6.82111 25.2903 6.70988C25.2903 5.57492 24.9702 4.67943 24.3391 4.04821C23.7079 3.41698 22.8123 3.09698 21.6774 3.09698C20.5424 3.09698 19.6469 3.41705 19.0157 4.04821C18.3845 4.67937 18.0645 5.57492 18.0645 6.70988C18.0645 6.77175 19.6129 10.9325 19.6129 10.9325V11.7684C18.7802 11.494 17.909 11.3544 17.0322 11.355H14.8746C14.7128 10.6536 14.4444 9.98114 14.0787 9.36104L15.3327 8.1071C15.3806 8.05918 15.4186 8.00228 15.4446 7.93966C15.4705 7.87704 15.4839 7.80992 15.4839 7.74214C15.4839 7.67436 15.4705 7.60724 15.4446 7.54462C15.4186 7.482 15.3806 7.4251 15.3327 7.37717L13.7843 5.82879C13.7364 5.78086 13.6795 5.74284 13.6169 5.7169C13.5542 5.69096 13.4871 5.67761 13.4193 5.67761C13.3516 5.67761 13.2844 5.69096 13.2218 5.7169C13.1592 5.74284 13.1023 5.78086 13.0544 5.82879L11.8004 7.08272C11.1803 6.71711 10.5079 6.4487 9.80643 6.28685V4.64537C9.80643 4.50848 9.75206 4.3772 9.65526 4.28041C9.55847 4.18362 9.42719 4.12924 9.29031 4.12924H7.22579C7.08891 4.12924 6.95763 4.18362 6.86084 4.28041C6.76404 4.3772 6.70967 4.50848 6.70967 4.64537V6.28685C6.00824 6.4487 5.33577 6.71711 4.71567 7.08272L3.46174 5.82879C3.41381 5.78086 3.35691 5.74284 3.29429 5.7169C3.23167 5.69096 3.16455 5.67761 3.09677 5.67761C3.02899 5.67761 2.96187 5.69096 2.89925 5.7169C2.83663 5.74284 2.77973 5.78086 2.7318 5.82879L1.18342 7.37717C1.13549 7.4251 1.09747 7.482 1.07153 7.54462C1.04559 7.60724 1.03224 7.67436 1.03224 7.74214C1.03224 7.80992 1.04559 7.87704 1.07153 7.93966C1.09747 8.00228 1.13549 8.05918 1.18342 8.1071L2.43735 9.36104C2.07174 9.98114 1.80334 10.6536 1.64148 11.355H0.516128ZM28.2359 30.0869C28.285 30.1345 28.3241 30.1915 28.3509 30.2544C28.3778 30.3173 28.3919 30.3849 28.3924 30.4534C28.3929 30.5218 28.3798 30.5896 28.3538 30.6529C28.3279 30.7162 28.2896 30.7737 28.2412 30.8221C28.1928 30.8705 28.1353 30.9087 28.072 30.9347C28.0087 30.9606 27.9409 30.9737 27.8725 30.9732C27.8041 30.9727 27.7364 30.9586 27.6735 30.9317C27.6106 30.9049 27.5537 30.8658 27.506 30.8167L22.4921 25.8029C22.7502 25.5749 22.994 25.3311 23.222 25.073L28.2359 30.0869ZM19.0976 6.61853C19.1282 4.96659 19.9958 4.12924 21.6774 4.12924C23.3612 4.12924 24.2287 4.96859 24.2572 6.62453C24.1122 7.02304 23.4068 8.89717 22.8689 10.3228H20.4866L19.0976 6.61853ZM20.6451 11.355H22.7096V12.3873H21.0263C20.9012 12.3179 20.7742 12.2516 20.6451 12.1884V11.355ZM24.258 19.6131C24.258 21.042 23.8344 22.4388 23.0406 23.627C22.2468 24.8152 21.1186 25.7413 19.7986 26.2884C18.4785 26.8354 17.0259 26.9788 15.6244 26.7004C14.2228 26.422 12.9353 25.7343 11.9246 24.7242C10.9138 23.7142 10.2253 22.4271 9.94588 21.0258C9.66651 19.6245 9.8089 18.1718 10.355 16.8513C10.9012 15.5309 11.8266 14.402 13.0142 13.6075C14.2018 12.8129 15.5983 12.3883 17.0273 12.3873H17.0322C18.948 12.3895 20.7846 13.1514 22.1392 14.5061C23.4939 15.8607 24.2559 17.6974 24.258 19.6131ZM8.25805 15.4841C7.74765 15.4841 7.24871 15.3327 6.82432 15.0491C6.39994 14.7656 6.06917 14.3625 5.87385 13.891C5.67853 13.4194 5.62742 12.9006 5.727 12.4C5.82657 11.8994 6.07235 11.4395 6.43326 11.0786C6.79417 10.7177 7.254 10.4719 7.75459 10.3724C8.25519 10.2728 8.77407 10.3239 9.24562 10.5192C9.71717 10.7145 10.1202 11.0453 10.4038 11.4697C10.6873 11.8941 10.8387 12.393 10.8387 12.9034C10.8379 13.5876 10.5658 14.2436 10.082 14.7274C9.59819 15.2112 8.94224 15.4833 8.25805 15.4841ZM2.57361 11.9561C2.71543 11.1074 3.03815 10.2991 3.51986 9.58613C3.58932 9.48675 3.62157 9.36608 3.61095 9.24529C3.60034 9.1245 3.54753 9.0113 3.4618 8.92556L2.27825 7.74214L3.09677 6.92362L4.28019 8.1071C4.36593 8.19284 4.47913 8.24564 4.59992 8.25626C4.72071 8.26688 4.84138 8.23463 4.94077 8.16517C5.65377 7.68345 6.46205 7.36074 7.31076 7.21891C7.43124 7.1988 7.54068 7.13662 7.61963 7.04342C7.69858 6.95021 7.74191 6.83203 7.74192 6.70988V5.1615H8.77418V6.70988C8.77418 6.83204 8.8175 6.95024 8.89645 7.04345C8.9754 7.13667 9.08485 7.19887 9.20534 7.21898C10.0541 7.3608 10.8623 7.68352 11.5753 8.16523C11.6747 8.23469 11.7954 8.26694 11.9162 8.25632C12.037 8.24571 12.1502 8.1929 12.2359 8.10717L13.4193 6.92362L14.2378 7.74214L13.0544 8.92556C12.9686 9.0113 12.9158 9.1245 12.9052 9.24529C12.8946 9.36608 12.9268 9.48675 12.9963 9.58613C13.4778 10.2988 13.8004 11.1067 13.9424 11.955C13.1917 12.2593 12.4898 12.6724 11.8592 13.1808C11.8662 13.089 11.8709 12.9966 11.8709 12.9031C11.8713 12.1356 11.6273 11.3879 11.1743 10.7683C10.7213 10.1488 10.0829 9.68946 9.35147 9.45696C8.62004 9.22445 7.83358 9.2308 7.106 9.4751C6.37842 9.7194 5.74749 10.189 5.30459 10.8158C4.86169 11.4426 4.62982 12.1941 4.64255 12.9615C4.65529 13.7289 4.91196 14.4723 5.37541 15.0841C5.83886 15.6959 6.48502 16.1443 7.22031 16.3643C7.95559 16.5843 8.74183 16.5646 9.46515 16.3079C9.00831 17.3499 8.77301 18.4754 8.77418 19.6131C8.77423 19.9582 8.79578 20.3029 8.83869 20.6453H7.74192V19.097C7.74192 18.9748 7.6986 18.8566 7.61965 18.7634C7.5407 18.6702 7.43125 18.608 7.31076 18.5879C6.46205 18.446 5.65377 18.1233 4.94077 17.6416C4.84138 17.5721 4.72071 17.5399 4.59992 17.5505C4.47913 17.5611 4.36593 17.6139 4.28019 17.6997L3.09677 18.8832L2.27825 18.0647L3.46174 16.8813C3.54747 16.7955 3.60027 16.6823 3.61089 16.5616C3.62151 16.4408 3.58926 16.3201 3.5198 16.2207C3.03809 15.5077 2.71537 14.6994 2.57354 13.8507C2.55344 13.7302 2.49125 13.6208 2.39805 13.5418C2.30484 13.4629 2.18666 13.4196 2.06451 13.4195H1.03226V12.3873H2.06451C2.18667 12.3873 2.30487 12.344 2.39809 12.265C2.4913 12.1861 2.5535 12.0766 2.57361 11.9561Z" fill="white"/>
<path d="M16.0545 2.86608C15.9933 2.98851 15.9832 3.13024 16.0265 3.2601C16.0698 3.38996 16.1628 3.4973 16.2853 3.55853L17.3175 4.07466C17.3782 4.1056 17.4444 4.12422 17.5123 4.12945C17.5803 4.13468 17.6485 4.12642 17.7132 4.10513C17.7779 4.08385 17.8378 4.04996 17.8893 4.00543C17.9409 3.96091 17.9831 3.90662 18.0136 3.84569C18.0441 3.78477 18.0622 3.71841 18.0669 3.65046C18.0716 3.5825 18.0628 3.51429 18.041 3.44975C18.0192 3.38521 17.9848 3.32563 17.9399 3.27443C17.895 3.22323 17.8404 3.18142 17.7792 3.15143L16.7469 2.63531C16.6245 2.57409 16.4828 2.56401 16.3529 2.60729C16.2231 2.65057 16.1157 2.74366 16.0545 2.86608Z" fill="white"/>
<path d="M21.1614 0.516128V1.54838C21.1614 1.68527 21.2158 1.81655 21.3125 1.91334C21.4093 2.01014 21.5406 2.06451 21.6775 2.06451C21.8144 2.06451 21.9457 2.01014 22.0425 1.91334C22.1393 1.81655 22.1936 1.68527 22.1936 1.54838V0.516128C22.1936 0.379242 22.1393 0.247963 22.0425 0.15117C21.9457 0.0543776 21.8144 0 21.6775 0C21.5406 0 21.4093 0.0543776 21.3125 0.15117C21.2158 0.247963 21.1614 0.379242 21.1614 0.516128Z" fill="white"/>
<path d="M18.35 0.57067C18.2275 0.631895 18.1345 0.739244 18.0912 0.869102C18.0479 0.998961 18.058 1.14069 18.1192 1.26312L18.6353 2.29538C18.6653 2.35654 18.7071 2.41116 18.7583 2.45608C18.8095 2.50101 18.8691 2.53536 18.9336 2.55715C18.9982 2.57894 19.0664 2.58774 19.1343 2.58304C19.2023 2.57834 19.2687 2.56023 19.3296 2.52976C19.3905 2.4993 19.4448 2.45707 19.4893 2.40552C19.5338 2.35397 19.5677 2.29412 19.589 2.22941C19.6103 2.16471 19.6186 2.09643 19.6133 2.02851C19.6081 1.96059 19.5895 1.89439 19.5585 1.8337L19.0424 0.801444C18.9812 0.679019 18.8738 0.58593 18.744 0.542652C18.6141 0.499374 18.4724 0.509452 18.35 0.57067Z" fill="white"/>
<path d="M24.3124 0.801279L23.7963 1.83354C23.7654 1.89422 23.7467 1.96043 23.7415 2.02835C23.7363 2.09626 23.7445 2.16454 23.7658 2.22925C23.7871 2.29396 23.821 2.35381 23.8655 2.40536C23.9101 2.45691 23.9643 2.49913 24.0253 2.5296C24.0862 2.56007 24.1525 2.57817 24.2205 2.58287C24.2885 2.58757 24.3567 2.57877 24.4212 2.55698C24.4858 2.5352 24.5453 2.50085 24.5965 2.45592C24.6477 2.41099 24.6895 2.35637 24.7195 2.29521L25.2357 1.26296C25.2666 1.20227 25.2852 1.13606 25.2904 1.06815C25.2957 1.00023 25.2874 0.931949 25.2661 0.867242C25.2448 0.802535 25.211 0.742682 25.1664 0.691133C25.1219 0.639584 25.0676 0.597359 25.0067 0.566892C24.9458 0.536426 24.8794 0.51832 24.8115 0.51362C24.7435 0.50892 24.6753 0.517718 24.6108 0.539507C24.5462 0.561296 24.4866 0.595644 24.4354 0.640573C24.3842 0.685501 24.3424 0.740119 24.3124 0.801279Z" fill="white"/>
<path d="M26.608 2.63499L25.5758 3.15112C25.5146 3.18111 25.46 3.22291 25.415 3.27411C25.3701 3.32531 25.3358 3.3849 25.314 3.44944C25.2922 3.51397 25.2834 3.58219 25.2881 3.65014C25.2928 3.7181 25.3109 3.78445 25.3414 3.84538C25.3718 3.9063 25.4141 3.96059 25.4656 4.00512C25.5172 4.04965 25.577 4.08353 25.6417 4.10481C25.7064 4.1261 25.7747 4.13437 25.8426 4.12914C25.9105 4.12391 25.9767 4.10528 26.0374 4.07434L27.0697 3.55821C27.1308 3.52822 27.1855 3.48642 27.2304 3.43522C27.2753 3.38402 27.3097 3.32444 27.3315 3.2599C27.3532 3.19536 27.362 3.12714 27.3573 3.05919C27.3526 2.99123 27.3345 2.92488 27.3041 2.86396C27.2736 2.80303 27.2314 2.74874 27.1798 2.70421C27.1283 2.65969 27.0684 2.6258 27.0037 2.60452C26.939 2.58323 26.8707 2.57497 26.8028 2.5802C26.7349 2.58543 26.6687 2.60405 26.608 2.63499Z" fill="white"/>
<path d="M10.8386 19.6132C10.8386 20.8382 11.2019 22.0356 11.8824 23.0542C12.563 24.0727 13.5303 24.8665 14.662 25.3353C15.7937 25.8041 17.039 25.9267 18.2405 25.6877C19.4419 25.4488 20.5455 24.8589 21.4117 23.9927C22.2778 23.1265 22.8677 22.0229 23.1067 20.8215C23.3457 19.6201 23.223 18.3748 22.7542 17.2431C22.2855 16.1113 21.4916 15.144 20.4731 14.4635C19.4546 13.7829 18.2571 13.4197 17.0322 13.4197C15.3901 13.4215 13.8158 14.0746 12.6547 15.2358C11.4936 16.3969 10.8405 17.9712 10.8386 19.6132ZM22.1934 19.6132C22.1934 20.634 21.8907 21.6319 21.3236 22.4807C20.7565 23.3294 19.9504 23.991 19.0073 24.3816C18.0642 24.7723 17.0264 24.8745 16.0252 24.6753C15.0241 24.4762 14.1044 23.9846 13.3826 23.2628C12.6608 22.541 12.1692 21.6213 11.9701 20.6201C11.7709 19.6189 11.8731 18.5812 12.2638 17.6381C12.6544 16.695 13.3159 15.8889 14.1647 15.3218C15.0135 14.7546 16.0114 14.4519 17.0322 14.4519C18.4005 14.4535 19.7124 14.9978 20.68 15.9654C21.6476 16.9329 22.1919 18.2448 22.1934 19.6132Z" fill="white"/>
<path d="M13.9356 19.6126C13.9356 19.4757 13.8812 19.3444 13.7844 19.2476C13.6876 19.1508 13.5563 19.0964 13.4194 19.0964C13.2826 19.0964 13.1513 19.1508 13.0545 19.2476C12.9577 19.3444 12.9033 19.4757 12.9033 19.6126C12.9045 20.7073 13.34 21.7568 14.114 22.5309C14.8881 23.3049 15.9376 23.7404 17.0323 23.7416C17.1692 23.7416 17.3005 23.6872 17.3973 23.5904C17.4941 23.4936 17.5485 23.3623 17.5485 23.2255C17.5485 23.0886 17.4941 22.9573 17.3973 22.8605C17.3005 22.7637 17.1692 22.7093 17.0323 22.7093C16.2113 22.7084 15.4242 22.3819 14.8436 21.8013C14.263 21.2207 13.9365 20.4336 13.9356 19.6126Z" fill="white"/>
</svg>
