<svg width="33" height="32" viewBox="0 0 33 32" fill="none" xmlns="http://www.w3.org/2000/svg">
<path d="M21.619 25.1464C18.1419 25.1464 15.3198 22.3244 15.3198 18.8472C15.3198 15.37 18.1419 12.548 21.619 12.548C25.0962 12.548 27.9183 15.37 27.9183 18.8472C27.9183 22.3244 25.0962 25.1464 21.619 25.1464ZM21.619 13.5558C18.6962 13.5558 16.3277 15.9244 16.3277 18.8472C16.3277 21.77 18.6962 24.1385 21.619 24.1385C24.5419 24.1385 26.9104 21.77 26.9104 18.8472C26.9104 15.9244 24.5419 13.5558 21.619 13.5558Z" fill="white"/>
<path d="M25.1468 16.9826C24.9957 16.9826 24.8445 16.8819 24.7437 16.7307C24.1894 15.9244 23.3831 15.37 22.4256 15.1685C21.4681 14.9669 20.4602 15.1685 19.6035 15.7228C19.3516 15.874 19.0492 15.8236 18.898 15.5716C18.7468 15.3197 18.7972 15.0173 19.0492 14.8661C20.1075 14.1606 21.3673 13.9086 22.6272 14.1606C23.8366 14.4126 24.8949 15.1181 25.6004 16.1763C25.7516 16.4283 25.7012 16.7307 25.4492 16.8819C25.3484 16.9323 25.2476 16.9826 25.1468 16.9826Z" fill="white"/>
<path d="M29.0772 32C28.926 32 28.7749 32 28.6741 31.9497C28.1701 31.8489 27.7166 31.5465 27.4142 31.093L23.5339 24.4914C23.3827 24.2394 23.4835 23.9371 23.7355 23.7859C23.9875 23.6347 24.2898 23.7355 24.441 23.9875L28.3213 30.589C28.4725 30.7906 28.6741 30.9418 28.926 30.9922C29.178 31.0426 29.43 30.9922 29.682 30.841C29.8835 30.6898 30.0347 30.4882 30.0851 30.2363C30.1355 29.9843 30.0851 29.6819 29.8835 29.4804L25.0961 23.5339C24.9449 23.3323 24.9449 22.9796 25.1969 22.8284C25.3985 22.6772 25.7512 22.6772 25.9024 22.9292L30.6898 28.8756C31.0426 29.3292 31.1434 29.8835 31.093 30.4378C30.9922 30.9922 30.6898 31.4457 30.2363 31.7481C29.8331 31.8993 29.43 32 29.0772 32Z" fill="white"/>
<path d="M30.3371 19.7543H27.4143C27.1119 19.7543 26.9103 19.5528 26.9103 19.2504C26.9103 18.948 27.1119 18.7465 27.4143 18.7465H29.8332V2.3685C29.8332 1.66299 29.1781 1.00787 28.4726 1.00787H3.77964C3.02373 1.00787 2.41901 1.6126 2.41901 2.3685V18.6961H15.8237C16.1261 18.6961 16.3277 18.8976 16.3277 19.2C16.3277 19.5024 16.1261 19.7039 15.8237 19.7039H1.91507C1.61271 19.7039 1.41113 19.5024 1.41113 19.2V2.3685C1.41113 1.05827 2.4694 0 3.77964 0H28.4726C29.7324 0 30.8411 1.10866 30.8411 2.3685V19.2504C30.8411 19.5528 30.6395 19.7543 30.3371 19.7543Z" fill="white"/>
<path d="M17.6378 23.5338H2.72126C1.20945 23.5338 0 22.3244 0 20.8126V19.2C0 18.8976 0.201575 18.696 0.503937 18.696H15.8236C16.126 18.696 16.3276 18.8976 16.3276 19.2C16.3276 19.5023 16.126 19.7039 15.8236 19.7039H1.00787V20.8126C1.00787 21.7197 1.81417 22.526 2.72126 22.526H17.6378C17.9402 22.526 18.1417 22.7275 18.1417 23.0299C18.1417 23.3323 17.9402 23.5338 17.6378 23.5338Z" fill="white"/>
<path d="M29.5312 23.5338H25.6509C25.3485 23.5338 25.147 23.3323 25.147 23.0299C25.147 22.7275 25.3485 22.526 25.6509 22.526H29.5312C30.4383 22.526 31.2446 21.7197 31.2446 20.8126V19.7039H27.4147C27.1123 19.7039 26.9108 19.5023 26.9108 19.2C26.9108 18.8976 27.1123 18.696 27.4147 18.696H31.7485C32.0509 18.696 32.2525 18.8976 32.2525 19.2V20.8126C32.2525 22.3244 31.043 23.5338 29.5312 23.5338Z" fill="white"/>
<path d="M17.0332 2.57001H15.219C14.9167 2.57001 14.7151 2.36843 14.7151 2.06607C14.7151 1.76371 14.9167 1.56213 15.219 1.56213H17.0332C17.3356 1.56213 17.5371 1.76371 17.5371 2.06607C17.5371 2.36843 17.3356 2.57001 17.0332 2.57001Z" fill="white"/>
<path d="M8.06323 11.0865H6.24905C5.94669 11.0865 5.74512 10.885 5.74512 10.5826V4.63614C5.74512 4.33378 5.94669 4.1322 6.24905 4.1322H8.06323C8.36559 4.1322 8.56716 4.33378 8.56716 4.63614V10.5826C8.56716 10.885 8.36559 11.0865 8.06323 11.0865ZM6.75299 10.0787H7.55929V5.14008H6.75299V10.0787Z" fill="white"/>
<path d="M15.9246 11.0361H14.1104C13.808 11.0361 13.6064 10.8345 13.6064 10.5322V8.5668C13.6064 8.26444 13.808 8.06287 14.1104 8.06287H15.9246C16.2269 8.06287 16.4285 8.26444 16.4285 8.5668V10.5322C16.4285 10.8345 16.2269 11.0361 15.9246 11.0361ZM14.6143 10.0282H15.4206V9.07074H14.6143V10.0282Z" fill="white"/>
<path d="M11.9936 11.0362H10.1795C9.87711 11.0362 9.67554 10.8346 9.67554 10.5322V6.75272C9.67554 6.45035 9.87711 6.24878 10.1795 6.24878H11.9936C12.296 6.24878 12.4976 6.45035 12.4976 6.75272V10.5322C12.4976 10.8346 12.296 11.0362 11.9936 11.0362ZM10.6834 10.0283H11.4897V7.25665H10.6834V10.0283Z" fill="white"/>
<path d="M24.9452 6.65204H20.9641C20.6618 6.65204 20.4602 6.45046 20.4602 6.1481C20.4602 5.84574 20.6618 5.64417 20.9641 5.64417H24.9452C25.2476 5.64417 25.4492 5.84574 25.4492 6.1481C25.4492 6.45046 25.2476 6.65204 24.9452 6.65204Z" fill="white"/>
<path d="M26.6582 8.66779H19.6031C19.3007 8.66779 19.0991 8.46621 19.0991 8.16385C19.0991 7.86149 19.3007 7.65991 19.6031 7.65991H26.6582C26.9605 7.65991 27.1621 7.86149 27.1621 8.16385C27.1621 8.46621 26.9605 8.66779 26.6582 8.66779Z" fill="white"/>
<path d="M12.246 14.5637H6.09793C5.79557 14.5637 5.59399 14.3621 5.59399 14.0597C5.59399 13.7574 5.79557 13.5558 6.09793 13.5558H12.246C12.5483 13.5558 12.7499 13.7574 12.7499 14.0597C12.7499 14.3621 12.5483 14.5637 12.246 14.5637Z" fill="white"/>
<path d="M12.246 16.5794H6.09793C5.79557 16.5794 5.59399 16.3778 5.59399 16.0755C5.59399 15.7731 5.79557 15.5715 6.09793 15.5715H12.246C12.5483 15.5715 12.7499 15.7731 12.7499 16.0755C12.7499 16.3778 12.5483 16.5794 12.246 16.5794Z" fill="white"/>
<path d="M26.6582 10.5825H19.6031C19.3007 10.5825 19.0991 10.3809 19.0991 10.0785C19.0991 9.77616 19.3007 9.57458 19.6031 9.57458H26.6582C26.9605 9.57458 27.1621 9.77616 27.1621 10.0785C27.1621 10.3809 26.9605 10.5825 26.6582 10.5825Z" fill="white"/>
</svg>
