<svg width="35" height="30" viewBox="0 0 35 30" fill="none" xmlns="http://www.w3.org/2000/svg">
<path d="M17.0668 4.72947C17.435 4.72947 17.7335 4.43093 17.7335 4.06278V0.666686C17.7335 0.298542 17.435 0 17.0668 0C16.6986 0 16.4001 0.298475 16.4001 0.666686V4.06278C16.4002 4.43093 16.6987 4.72947 17.0668 4.72947Z" fill="white"/>
<path d="M12.0546 5.82456C12.1813 6.0257 12.3978 6.13583 12.6192 6.13583C12.7407 6.13583 12.8637 6.10263 12.974 6.0331C13.2855 5.83683 13.3788 5.42515 13.1826 5.1136L11.4062 2.29519C11.2099 1.98371 10.7982 1.89031 10.4868 2.08665C10.1753 2.28292 10.082 2.6946 10.2783 3.00614L12.0546 5.82456Z" fill="white"/>
<path d="M21.1621 6.03343C21.2725 6.10283 21.3954 6.13596 21.5167 6.13596C21.7382 6.13596 21.9548 6.02569 22.0815 5.82442L23.856 3.00601C24.0521 2.6944 23.9586 2.28285 23.647 2.08658C23.3352 1.89051 22.9238 1.98411 22.7276 2.29559L20.9531 5.114C20.757 5.42568 20.8506 5.83722 21.1621 6.03343Z" fill="white"/>
<path d="M33.9194 15.6955L32.761 13.6492C32.5796 13.3286 32.1728 13.2159 31.8525 13.3974C31.5321 13.5788 31.4194 13.9856 31.6008 14.3059L32.7586 16.3514C32.8166 16.4542 32.8016 16.5534 32.7874 16.6033C32.7738 16.6514 32.7364 16.7401 32.6384 16.7942L30.8531 17.7831C30.6945 17.8707 30.4875 17.8154 30.401 17.6629L29.9475 16.8606C29.9456 16.857 29.9435 16.8536 29.9416 16.8501L25.2528 8.55694C25.1948 8.45487 25.2095 8.357 25.2234 8.30773C25.2368 8.26006 25.274 8.17199 25.372 8.11779L27.1593 7.1287C27.32 7.03976 27.5219 7.09376 27.6097 7.24937L28.6547 9.09562C28.8361 9.4161 29.2429 9.5287 29.5632 9.34743C29.8837 9.16609 29.9964 8.75928 29.815 8.43887L28.7705 6.59341C28.325 5.80366 27.3129 5.52038 26.5141 5.96193L24.7267 6.95103C24.34 7.16476 24.0606 7.51804 23.9401 7.94599C23.8263 8.34947 23.867 8.77068 24.0532 9.14035L23.0686 9.4257C22.6492 9.54703 22.3947 9.61284 22.2534 9.61284C22.2528 9.61284 22.2523 9.61284 22.2517 9.61284C22.1545 9.6125 22.0484 9.57537 21.7457 9.4607C21.6083 9.4087 21.4373 9.34389 21.2271 9.27056L19.4827 8.66074C18.518 8.3238 18.0828 8.34193 17.4524 8.39947L14.4779 8.66567C13.1219 8.78581 12.2575 9.09169 11.7802 9.62217L10.0851 9.13102C10.2675 8.76294 10.3067 8.3458 10.194 7.94599C10.0735 7.51831 9.79425 7.1651 9.4079 6.95136L7.62158 5.9618C6.82209 5.51985 5.80933 5.80326 5.36379 6.59281L0.216705 15.6946C-0.0036351 16.0826 -0.05817 16.5338 0.0633002 16.9652C0.18397 17.3936 0.463312 17.7472 0.849323 17.9607L2.63564 18.9501C2.89105 19.0913 3.16852 19.1584 3.44233 19.1584C4.02401 19.1584 4.5895 18.8558 4.89344 18.3192L5.08218 17.9853C5.59726 18.212 6.02974 18.5414 6.32448 18.9314C6.03661 19.2678 5.85527 19.683 5.8044 20.1345C5.7372 20.7317 5.90587 21.3176 6.27935 21.7846C6.64962 22.2476 7.1791 22.5397 7.77119 22.6085C7.70852 23.2006 7.87786 23.7808 8.24847 24.2426C8.63155 24.7215 9.17296 25.0009 9.73931 25.0669C9.67691 25.6581 9.84565 26.2377 10.2151 26.6998C10.5852 27.1638 11.1148 27.4566 11.7075 27.5254C11.6448 28.1179 11.8141 28.6984 12.1847 29.1603C12.6265 29.7125 13.2786 30.0001 13.937 30C14.4284 30 14.9234 29.8398 15.3366 29.5097L16.7325 28.3928C16.8434 28.3043 16.9441 28.2065 17.0347 28.1012L17.8321 28.7381C18.2444 29.0672 18.7382 29.2271 19.2291 29.227C19.8877 29.2269 20.541 28.9391 20.9833 28.3862C21.2164 28.0948 21.364 27.7621 21.4307 27.4187C21.6639 27.4994 21.91 27.541 22.1609 27.541C22.2451 27.541 22.3297 27.5363 22.4147 27.5269C23.012 27.4606 23.5462 27.1668 23.9173 26.7013C24.2886 26.2388 24.4579 25.6587 24.3953 25.0667C24.9613 25.0006 25.503 24.7213 25.8872 24.2425C26.2699 23.764 26.4235 23.175 26.3633 22.6084C26.9551 22.5395 27.4843 22.2474 27.8537 21.7855C28.2274 21.3197 28.3968 20.7347 28.3306 20.138C28.2804 19.6851 28.0989 19.2685 27.8105 18.9312C28.1044 18.5413 28.536 18.2115 29.0514 17.9849L29.2405 18.3194C29.5443 18.8558 30.1095 19.1583 30.6913 19.1583C30.9653 19.1582 31.243 19.0912 31.4987 18.9498L33.284 17.9609C33.6699 17.7475 33.9491 17.3945 34.0702 16.9668C34.1923 16.5358 34.1389 16.0846 33.9194 15.6955ZM3.73301 17.6625C3.64634 17.8156 3.4392 17.8708 3.28126 17.7834L1.49501 16.794C1.39747 16.74 1.36027 16.6516 1.34667 16.6037C1.33274 16.554 1.31787 16.4554 1.37667 16.3521L6.52455 7.2485C6.58349 7.14403 6.69456 7.0855 6.80989 7.0855C6.86603 7.0855 6.9231 7.0993 6.97577 7.12843L8.76155 8.11766C8.76175 8.11779 8.76195 8.11793 8.76215 8.11799C8.85989 8.17206 8.89702 8.26013 8.91049 8.3078C8.92435 8.35707 8.93902 8.45493 8.88042 8.55814L3.73301 17.6625ZM8.59808 21.0933C8.41007 21.2439 8.17267 21.312 7.93006 21.285C7.68732 21.258 7.47098 21.1398 7.32071 20.9519C7.1701 20.7636 7.10224 20.5262 7.1295 20.2837C7.15664 20.0421 7.27497 19.8269 7.46391 19.6765L9.95985 17.6814C10.3516 17.3687 10.925 17.433 11.2381 17.824C11.3886 18.0122 11.4566 18.2492 11.4294 18.491C11.4023 18.732 11.2839 18.947 11.096 19.0965C11.0919 19.0998 11.0884 19.1034 11.0844 19.1068L8.59868 21.0928C8.59848 21.093 8.59828 21.0932 8.59808 21.0933ZM9.28903 23.409C9.13856 23.2214 9.07056 22.9851 9.09743 22.7435C9.12429 22.5017 9.24276 22.2854 9.4309 22.1345L9.4311 22.1344C9.43124 22.1343 9.43137 22.1342 9.4315 22.1341C9.43157 22.1341 9.43157 22.1341 9.43164 22.134L13.0268 19.2616C13.4185 18.9488 13.992 19.0127 14.305 19.4043C14.4554 19.5922 14.5233 19.8289 14.4964 20.0706C14.4695 20.3126 14.3507 20.5289 14.1621 20.6796L10.5679 23.5508C10.1757 23.8638 9.60237 23.8006 9.28903 23.409ZM11.8663 26.2017C11.6236 26.1748 11.4075 26.0564 11.257 25.8677C11.1067 25.6798 11.0387 25.4431 11.0656 25.2014C11.0926 24.9595 11.2112 24.7435 11.3995 24.5928C11.3996 24.5927 11.3998 24.5925 11.4 24.5924L13.8879 22.6049C13.8908 22.6026 13.894 22.6007 13.897 22.5983C14.2876 22.2856 14.861 22.3493 15.1743 22.7398C15.3249 22.9281 15.3929 23.1654 15.3656 23.408C15.3384 23.6495 15.2201 23.8648 15.0312 24.0151L12.5353 26.0102C12.3467 26.1608 12.109 26.2285 11.8663 26.2017ZM16.2343 26.7429C16.2073 26.9847 16.0888 27.2005 15.9002 27.3512L14.5042 28.4684C14.112 28.7814 13.5386 28.7184 13.2254 28.3266C13.0749 28.1392 13.0069 27.9027 13.0337 27.6606C13.0606 27.4186 13.1789 27.2026 13.3667 27.0526C13.3669 27.0525 13.3672 27.0523 13.3674 27.0521L14.7631 25.9365C14.7638 25.9359 14.7646 25.9354 14.7653 25.9349C15.1571 25.6222 15.7306 25.6863 16.0436 26.0775C16.1936 26.2651 16.2614 26.5013 16.2343 26.7429ZM26.8131 20.9518C26.6629 21.1397 26.4465 21.258 26.2038 21.285C25.9613 21.3122 25.7238 21.244 25.5358 21.0933C25.5357 21.0932 25.5356 21.0932 25.5354 21.0931C25.5354 21.093 25.5352 21.093 25.5352 21.0929L23.7512 19.6676C23.4635 19.4377 23.044 19.4847 22.8143 19.7723C22.5845 20.0599 22.6313 20.4794 22.919 20.7092L24.7023 22.1341C25.0935 22.4473 25.158 23.0196 24.8466 23.4089C24.5325 23.8004 23.9591 23.864 23.5676 23.5505L21.6325 22.0063C21.3448 21.7767 20.9253 21.8239 20.6956 22.1116C20.466 22.3993 20.5131 22.8188 20.8009 23.0485L22.735 24.5919C22.9235 24.7429 23.0421 24.9593 23.069 25.2014C23.0959 25.443 23.0279 25.6794 22.8762 25.8684C22.7262 26.0564 22.5101 26.1747 22.2675 26.2017C22.0246 26.2284 21.7869 26.1606 21.5991 26.0107L20.6362 25.2407C20.6346 25.2394 20.6331 25.238 20.6314 25.2366L19.8179 24.5863L19.6659 24.4647C19.3782 24.2347 18.9587 24.2814 18.7288 24.5689C18.7001 24.6049 18.6756 24.6429 18.6555 24.6823C18.559 24.871 18.5606 25.0923 18.6512 25.2778C18.6931 25.3638 18.7535 25.4422 18.8331 25.5059L19.8012 26.2801C20.1898 26.5939 20.2533 27.1643 19.9422 27.5533C19.6291 27.9447 19.0556 28.0086 18.664 27.6963L17.5657 26.8188C17.6114 26.2482 17.4423 25.6917 17.0847 25.2446C16.8625 24.9667 16.5868 24.7563 16.284 24.6152C16.5059 24.3074 16.6468 23.9458 16.6905 23.557C16.7577 22.9599 16.589 22.374 16.2149 21.9062C15.9926 21.6291 15.7172 21.4192 15.4151 21.2784C15.6373 20.9696 15.7782 20.6073 15.8216 20.2179C15.8879 19.6222 15.7191 19.0374 15.3463 18.5712C14.7048 17.7692 13.62 17.5254 12.7171 17.9086C12.6448 17.5767 12.4971 17.2637 12.2791 16.991C11.5072 16.0265 10.0937 15.8687 9.12763 16.6395L7.34251 18.0664C6.93883 17.5513 6.39008 17.1241 5.74126 16.8194L9.4133 10.3245L11.3684 10.8909C11.3774 10.9955 11.3943 11.1055 11.4226 11.2221C11.8959 13.168 13.6876 14.0747 16.0985 13.5889C18.1299 13.1801 18.9662 13.789 20.6318 15.0019C20.8046 15.1277 20.9841 15.2585 21.172 15.3931C22.3699 16.2524 23.6499 17.2625 24.5081 17.9471L26.6722 19.6767C26.8602 19.8267 26.9785 20.0427 27.0054 20.2849C27.0323 20.527 26.9643 20.7636 26.8131 20.9518ZM26.7924 18.066L25.3402 16.9054C24.4701 16.2113 23.172 15.1871 21.9489 14.3096C21.7636 14.1768 21.5869 14.0481 21.4167 13.9242C19.6896 12.6665 18.4414 11.7578 15.8354 12.2819C15.0378 12.4427 13.1375 12.6306 12.7183 10.9073C12.6593 10.6641 12.7193 10.5805 12.7448 10.5448C12.8339 10.4205 13.1926 10.118 14.5959 9.99378L17.5735 9.7273C18.0588 9.68304 18.3022 9.66077 19.0427 9.91944L20.7873 10.5293C20.9812 10.5971 21.1363 10.6557 21.2732 10.7076C22.1132 11.0258 22.3358 11.0257 23.4394 10.7063L24.7255 10.3337L28.3927 16.8198C27.7436 17.1243 27.1954 17.5511 26.7924 18.066Z" fill="white"/>
<path d="M30.7057 12.0399C31.0739 12.0399 31.3724 11.7405 31.3724 11.3723C31.3724 11.004 31.0739 10.7056 30.7057 10.7056C30.3376 10.7056 30.0391 11.0041 30.0391 11.3723V11.3741C30.0391 11.7423 30.3376 12.0399 30.7057 12.0399Z" fill="white"/>
</svg>
