<svg width="50" height="50" viewBox="0 0 50 50" fill="none" xmlns="http://www.w3.org/2000/svg">
<circle cx="25" cy="25" r="24.25" stroke="#D9D9D9" stroke-width="1.5" stroke-dasharray="3 3"/>
<path d="M31.1238 27.2502C31.7009 26.144 32.0018 24.9096 32 23.6563C32 19.4278 28.6422 16 24.5 16C20.3578 16 17 19.4278 17 23.6563C16.997 25.4624 17.6224 27.2109 18.7647 28.5901L18.7735 28.6013C18.7766 28.604 18.7793 28.6077 18.7815 28.6104H18.7647L23.2153 33.4338C23.3803 33.6126 23.5793 33.755 23.8002 33.8524C24.0211 33.9498 24.2592 34 24.4998 34C24.7404 34 24.9784 33.9498 25.1993 33.8524C25.4202 33.755 25.6193 33.6126 25.7843 33.4338L30.2353 28.6104H30.2185L30.2256 28.6018L30.2265 28.6009C30.2582 28.5622 30.29 28.5234 30.3213 28.4838C30.6273 28.0999 30.8962 27.6866 31.1243 27.2498L31.1238 27.2502ZM24.5018 26.5837C23.7997 26.5837 23.1264 26.299 22.63 25.7922C22.1336 25.2855 21.8547 24.5981 21.8547 23.8815C21.8547 23.1648 22.1336 22.4775 22.63 21.9707C23.1264 21.4639 23.7997 21.1793 24.5018 21.1793C25.2038 21.1793 25.8771 21.4639 26.3735 21.9707C26.8699 22.4775 27.1488 23.1648 27.1488 23.8815C27.1488 24.5981 26.8699 25.2855 26.3735 25.7922C25.8771 26.299 25.2038 26.5837 24.5018 26.5837Z" fill="#D9D9D9"/>
</svg>
