<svg width="50" height="50" viewBox="0 0 50 50" fill="none" xmlns="http://www.w3.org/2000/svg">
<circle cx="25" cy="25" r="24.25" stroke="#BD0324" stroke-width="1.5" stroke-dasharray="3 3"/>
<path fill-rule="evenodd" clip-rule="evenodd" d="M24.1374 32.8834C24.1612 32.8973 24.1799 32.9079 24.1931 32.9154L24.2151 32.9277C24.3907 33.0244 24.6085 33.0237 24.7843 32.928L24.8069 32.9154C24.8201 32.9079 24.8388 32.8973 24.8626 32.8834C24.9102 32.8558 24.9782 32.8155 25.0637 32.7627C25.2347 32.6571 25.476 32.5014 25.7642 32.2972C26.3398 31.8894 27.1077 31.2844 27.8773 30.4942C29.409 28.9213 31 26.5581 31 23.519C31 19.9186 28.0899 17 24.5 17C20.9101 17 18 19.9186 18 23.519C18 26.5581 19.591 28.9213 21.1227 30.4942C21.8923 31.2844 22.6602 31.8894 23.2358 32.2972C23.524 32.5014 23.7653 32.6571 23.9363 32.7627C24.0218 32.8155 24.0898 32.8558 24.1374 32.8834ZM24.5 25.8895C25.8054 25.8895 26.8636 24.8282 26.8636 23.519C26.8636 22.2098 25.8054 21.1484 24.5 21.1484C23.1946 21.1484 22.1364 22.2098 22.1364 23.519C22.1364 24.8282 23.1946 25.8895 24.5 25.8895Z" fill="#BD0324"/>
</svg>
