<svg width="64" height="64" viewBox="0 0 64 64" fill="none" xmlns="http://www.w3.org/2000/svg">
<circle cx="32" cy="32" r="32" fill="white"/>
<path d="M26.1154 30.625C26.1154 30.9817 25.8226 31.2708 25.4615 31.2708C25.1004 31.2708 24.8077 30.9817 24.8077 30.625C24.8077 30.2683 25.1004 29.9792 25.4615 29.9792C25.8226 29.9792 26.1154 30.2683 26.1154 30.625ZM26.1154 30.625H25.4615M32.6538 30.625C32.6538 30.9817 32.3611 31.2708 32 31.2708C31.6389 31.2708 31.3462 30.9817 31.3462 30.625C31.3462 30.2683 31.6389 29.9792 32 29.9792C32.3611 29.9792 32.6538 30.2683 32.6538 30.625ZM32.6538 30.625H32M39.1923 30.625C39.1923 30.9817 38.8996 31.2708 38.5385 31.2708C38.1774 31.2708 37.8846 30.9817 37.8846 30.625C37.8846 30.2683 38.1774 29.9792 38.5385 29.9792C38.8996 29.9792 39.1923 30.2683 39.1923 30.625ZM39.1923 30.625H38.5385M15 35.8078C15 38.5652 16.9588 40.9653 19.7207 41.3664C21.6144 41.6415 23.5288 41.8539 25.4615 42.0014V50L32.7558 42.7951C33.1163 42.4391 33.6029 42.2367 34.1125 42.2242C37.5571 42.1399 40.95 41.8501 44.2792 41.3666C47.0412 40.9656 49 38.5654 49 35.808V25.4421C49 22.6846 47.0412 20.2845 44.2792 19.8834C40.2717 19.3014 36.1717 19 32.0005 19C27.8289 19 23.7286 19.3015 19.7207 19.8835C16.9588 20.2847 15 22.6848 15 25.4422V35.8078Z" stroke="#BD0324" stroke-width="1.5" stroke-linecap="round" stroke-linejoin="round"/>
</svg>
