<svg width="64" height="64" viewBox="0 0 64 64" fill="none" xmlns="http://www.w3.org/2000/svg">
<circle cx="32" cy="32" r="32" fill="white"/>
<path d="M36 29.125V21.25M36 29.125L43.875 29.125M36 29.125L46.5 18.625M41.25 50.125C26.7525 50.125 15 38.3725 15 23.875V19.9375C15 17.7629 16.7629 16 18.9375 16H21.3378C22.2412 16 23.0287 16.6148 23.2478 17.4913L25.183 25.2318C25.3751 26.0003 25.0879 26.8091 24.4542 27.2843L22.1904 28.9822C21.5334 29.475 21.2428 30.3272 21.5253 31.0984C23.6453 36.8856 28.2394 41.4797 34.0266 43.5997C34.7978 43.8822 35.65 43.5916 36.1428 42.9346L37.8407 40.6708C38.3159 40.0371 39.1247 39.7499 39.8932 39.942L47.6337 41.8772C48.5102 42.0963 49.125 42.8838 49.125 43.7872V46.1875C49.125 48.3621 47.3621 50.125 45.1875 50.125H41.25Z" stroke="#BD0324" stroke-width="1.5" stroke-linecap="round" stroke-linejoin="round"/>
</svg>
