<svg width="50" height="50" viewBox="0 0 50 50" fill="none" xmlns="http://www.w3.org/2000/svg">
<g clip-path="url(#clip0_2802_925)">
<path d="M41.7942 37.6276C41.6607 37.5712 41.5132 37.557 41.3714 37.5874C41.2297 37.6179 41.1006 37.691 41.0019 37.7974L32.9941 45.8282C32.8856 45.9318 32.8113 46.0664 32.7809 46.2134C32.7506 46.3605 32.7655 46.5131 32.8241 46.6513C32.8856 46.7816 32.9815 46.8927 33.1011 46.9727C33.2208 47.0527 33.3599 47.0983 33.5035 47.1051H41.5113C41.7065 47.1051 41.8936 47.0273 42.0315 46.8889C42.1695 46.7505 42.2471 46.5629 42.2471 46.3672V38.3086C42.2471 38.163 42.204 38.0204 42.1234 37.8992C42.0429 37.778 41.9283 37.6837 41.7942 37.6276ZM35.2859 45.6294L40.9452 39.954V45.6294H35.2859Z" fill="#BD0324"/>
<path d="M49.5472 23.5241C49.4145 23.4633 49.2658 23.4477 49.1231 23.4783C48.9804 23.509 48.8512 23.5845 48.7549 23.6945L46.548 25.8796V10.8965C46.548 10.7008 46.4704 10.5132 46.3325 10.3748C46.1945 10.2365 46.0074 10.1587 45.8123 10.1587H40.153L42.1902 8.11563L44.1708 6.12939C44.5856 5.70504 44.8181 5.13434 44.8181 4.54012C44.8181 3.94591 44.5856 3.37521 44.1708 2.95085L41.879 0.681261C41.6739 0.466925 41.4279 0.295989 41.1557 0.178985C40.8835 0.0619812 40.5904 0.00133129 40.2942 0.000244141C39.6971 0.00877319 39.1278 0.253532 38.7098 0.681261L36.7572 2.6391L34.352 5.05141L29.2588 10.1587H6.62161V2.89474C6.62161 2.69906 6.54404 2.51143 6.40607 2.37306C6.2681 2.2347 6.08099 2.15691 5.88587 2.15691C4.38493 2.15691 2.9452 2.75459 1.88387 3.81892C0.822546 4.88326 0.226562 6.32708 0.226562 7.83228V39.2449C0.338433 40.5987 0.930703 41.8674 1.89596 42.8205C2.94242 43.8174 4.32918 44.3759 5.77258 44.3813H28.2115L23.9954 48.6378C23.8857 48.7344 23.8101 48.864 23.7795 49.0071C23.7489 49.1502 23.7652 49.2993 23.8258 49.4325C23.8783 49.5692 23.9719 49.6865 24.0935 49.7678C24.2151 49.8491 24.3588 49.8902 24.5049 49.8863H49.4906C49.6857 49.8863 49.8728 49.8085 50.0108 49.6701C50.1488 49.5317 50.2263 49.3441 50.2263 49.1484V24.0922C50.1942 23.9343 50.1097 23.7921 49.9863 23.689C49.8628 23.5858 49.7079 23.5273 49.5472 23.5241ZM39.7851 1.70244C39.9361 1.56485 40.1327 1.48906 40.3367 1.48906C40.5407 1.48906 40.7377 1.56485 40.8887 1.70244L43.1522 4.00113C43.2259 4.07016 43.2847 4.15363 43.3249 4.24638C43.3651 4.33913 43.3857 4.439 43.3857 4.54012C43.3857 4.64124 43.3651 4.74112 43.3249 4.83387C43.2847 4.92662 43.2259 5.01009 43.1522 5.07912L41.7091 6.55477L38.3419 3.17809L39.7851 1.70244ZM37.295 4.19996L40.6621 7.57664L39.3322 8.93867L35.9368 5.56199L37.295 4.19996ZM48.6136 32.5768H47.2554C47.0603 32.5768 46.8732 32.6546 46.7352 32.793C46.5972 32.9313 46.5197 33.119 46.5197 33.3146C46.5197 33.5103 46.5972 33.6979 46.7352 33.8363C46.8732 33.9747 47.0603 34.0525 47.2554 34.0525H48.6136V36.2659H47.2554C47.0603 36.2659 46.8732 36.343 46.7352 36.4814C46.5972 36.6198 46.5197 36.8074 46.5197 37.0031C46.5197 37.1987 46.5972 37.3871 46.7352 37.5254C46.8732 37.6638 47.0603 37.7409 47.2554 37.7409H48.6136V39.9828H47.2554C47.1487 39.9615 47.0387 39.9646 46.9331 39.9911C46.8276 40.0176 46.7292 40.0674 46.6451 40.1366C46.561 40.2058 46.4933 40.2922 46.4468 40.3908C46.4003 40.4895 46.376 40.5976 46.376 40.7067C46.376 40.8158 46.4003 40.9233 46.4468 41.022C46.4933 41.1206 46.561 41.2077 46.6451 41.2769C46.7292 41.3461 46.8276 41.3959 46.9331 41.4224C47.0387 41.4489 47.1487 41.4513 47.2554 41.43H48.6136V43.6719H47.2554C47.1487 43.6506 47.0387 43.653 46.9331 43.6795C46.8276 43.706 46.7292 43.7558 46.6451 43.825C46.561 43.8942 46.4933 43.9813 46.4468 44.08C46.4003 44.1786 46.376 44.2868 46.376 44.3959C46.376 44.505 46.4003 44.6125 46.4468 44.7111C46.4933 44.8097 46.561 44.8968 46.6451 44.966C46.7292 45.0352 46.8276 45.085 46.9331 45.1115C47.0387 45.138 47.1487 45.1404 47.2554 45.1191H48.6136V48.6378H26.146L33.5596 41.2035C33.8426 40.9197 37.7192 37.372 37.4079 37.0883L36.6159 36.3505C36.3329 36.1518 32.7673 39.9262 32.5127 40.1532L29.683 43.1613H5.77258C4.71122 43.1617 3.69147 42.747 2.93049 42.005C2.1695 41.2631 1.72717 40.2521 1.69769 39.1881C1.6837 39.0466 1.6837 38.9043 1.69769 38.7628C1.69769 38.7628 1.69769 38.6207 1.69769 38.5639C1.69769 38.5639 1.69769 38.5645 1.69769 38.3942V37.8545V37.6848C1.98369 37.0875 2.40307 36.5642 2.92323 36.1558C3.4434 35.7473 4.05054 35.4645 4.69729 35.3293H5.57431C5.76943 35.3293 5.95688 35.2515 6.09485 35.1131C6.23282 34.9748 6.31004 34.7871 6.31004 34.5914V28.8309C6.31004 23.7514 5.91415 25.7375 5.518 25.7375C5.12185 25.7375 4.86721 24.4041 4.83891 28.8309V33.4844C3.59408 33.6447 2.43339 34.2019 1.52809 35.0736L1.27352 35.3861V7.97361C1.27192 6.95642 1.62871 5.9716 2.2811 5.19274C2.9335 4.41387 3.83955 3.89108 4.83891 3.71708V25.9932C4.83891 28.8309 5.14986 26.731 5.57431 26.731C5.99875 26.731 6.33834 28.6322 6.31004 25.9932V11.8048H27.6174L23.5712 15.8625C23.26 16.1746 20.7413 19.211 21.1374 19.4948C21.5336 19.7785 24.3069 17.1965 24.5898 16.9127L29.9096 11.5775L34.7199 6.782L38.0874 10.1587L37.6912 10.5563L22.8921 25.3974L19.5247 22.0207L22.3543 19.183C24.2228 17.2103 25.9354 15.0946 27.4762 12.855C25.2833 14.4472 23.2204 16.2118 21.3074 18.1327L17.8836 21.5662L16.4404 25.6246L15.4781 28.4623H13.0163C12.8212 28.4623 12.6341 28.5394 12.4961 28.6778C12.3581 28.8161 12.2809 29.0038 12.2809 29.1994C12.2809 29.2963 12.2999 29.3926 12.3369 29.4821C12.3738 29.5716 12.4278 29.6533 12.4961 29.7218C12.5644 29.7903 12.6455 29.8441 12.7348 29.8811C12.8241 29.9182 12.9197 29.9373 13.0163 29.9373H33.3617C33.4583 29.9373 33.554 29.9182 33.6432 29.8811C33.7325 29.8441 33.8136 29.7903 33.8819 29.7218C33.9502 29.6533 34.0045 29.5716 34.0415 29.4821C34.0785 29.3926 34.0974 29.2963 34.0974 29.1994C34.0974 29.0038 34.0199 28.8161 33.8819 28.6778C33.7439 28.5394 33.5568 28.4623 33.3617 28.4623H18.7606L23.2317 26.873H23.4579L38.5682 11.7195H44.9349V27.4404L34.437 37.9681C34.3037 38.1102 34.2294 38.2982 34.2294 38.4933C34.2294 38.6884 34.3037 38.8763 34.437 39.0184C34.5655 39.1228 34.7245 39.182 34.8898 39.1881C35.0649 39.1883 35.2345 39.1287 35.3707 39.0184L48.274 26.0784L48.6136 32.5768ZM21.8168 26.0784L19.7226 26.8162L18.3361 25.3974L19.0718 23.2975L21.8168 26.0784Z" fill="#BD0324"/>
</g>
<defs>
<clipPath id="clip0_2802_925">
<rect width="50" height="50" fill="white"/>
</clipPath>
</defs>
</svg>
