<svg width="50" height="50" viewBox="0 0 50 50" fill="none" xmlns="http://www.w3.org/2000/svg">
<g clip-path="url(#clip0_2802_911)">
<path d="M46.7625 12.0914H45.7307C46.6642 11.0485 47.2761 9.75762 47.4921 8.37469C47.7081 6.99176 47.519 5.57632 46.9479 4.29845C46.3767 3.02058 45.4479 1.93508 44.2735 1.17359C43.0991 0.412103 41.7295 0.00675129 40.3298 0.00675129C38.9301 0.00675129 37.5602 0.412103 36.3858 1.17359C35.2114 1.93508 34.2826 3.02058 33.7114 4.29845C33.1403 5.57632 32.9512 6.99176 33.1672 8.37469C33.3832 9.75762 33.9951 11.0485 34.9287 12.0914H25.0144V4.04032C25.0144 3.82754 24.9298 3.62345 24.7793 3.47299C24.6289 3.32253 24.4251 3.23794 24.2124 3.23794H20.9745C20.8681 3.23392 20.7617 3.25151 20.6625 3.29041C20.5634 3.3293 20.4734 3.38858 20.3981 3.46389C20.3228 3.53921 20.2638 3.62916 20.225 3.72832C20.1861 3.82748 20.1681 3.93388 20.1721 4.04032V12.0914H19.3698V0.802132C19.3626 0.591622 19.276 0.392136 19.127 0.243197C18.9781 0.0942581 18.7779 0.00689789 18.5674 -0.000244141H15.3295C15.1168 -0.000244141 14.9127 0.0843434 14.7622 0.234802C14.6118 0.385261 14.5275 0.589351 14.5275 0.802132V12.0914H13.7251V6.3607C13.718 6.15019 13.631 5.95071 13.4821 5.80177C13.3331 5.65283 13.1333 5.56617 12.9228 5.55903H9.68493C9.57958 5.55903 9.47517 5.57957 9.37783 5.61989C9.2805 5.66021 9.1921 5.71887 9.1176 5.79337C9.04311 5.86787 8.98409 5.95696 8.94377 6.0543C8.90345 6.15164 8.88256 6.25534 8.88256 6.3607V12.0914H3.1519C2.29549 12.0988 1.47628 12.4427 0.870688 13.0483C0.265092 13.6539 -0.0784575 14.4731 -0.0859375 15.3295V39.5128C-0.0783819 40.3665 0.266044 41.1831 0.872437 41.7842C1.47883 42.3852 2.29812 42.7223 3.1519 42.7223H19.771L18.6821 45.9597H16.0459C15.8354 45.9669 15.6355 46.0536 15.4866 46.2025C15.3377 46.3514 15.251 46.5516 15.2439 46.7621V48.3669H7.19211C7.07208 48.3443 6.94869 48.3482 6.83045 48.3788C6.7122 48.4094 6.60197 48.4659 6.50796 48.5439C6.41395 48.6218 6.33849 48.7194 6.28655 48.83C6.23462 48.9405 6.2075 49.0611 6.2075 49.1832C6.2075 49.3054 6.23462 49.426 6.28655 49.5365C6.33849 49.6471 6.41395 49.7447 6.50796 49.8226C6.60197 49.9006 6.7122 49.9571 6.83045 49.9877C6.94869 50.0183 7.07208 50.0222 7.19211 49.9996H42.6649C42.8553 49.9638 43.0271 49.8626 43.1507 49.7135C43.2744 49.5644 43.3421 49.377 43.3421 49.1832C43.3421 48.9895 43.2744 48.8021 43.1507 48.653C43.0271 48.5039 42.8553 48.4027 42.6649 48.3669H34.5848V46.7621C34.5848 46.5493 34.5002 46.3453 34.3498 46.1948C34.1993 46.0443 33.9952 45.9597 33.7825 45.9597H31.2036L30.1147 42.7223H46.7338C47.1576 42.726 47.5779 42.6454 47.9706 42.4858C48.3633 42.3262 48.7203 42.0909 49.0213 41.7926C49.3223 41.4942 49.5613 41.1387 49.7243 40.7475C49.8874 40.3562 49.9717 39.9366 49.9716 39.5128V15.3295C49.9717 14.4758 49.6342 13.6561 49.0332 13.0497C48.4322 12.4433 47.6162 12.0989 46.7625 12.0914ZM41.0318 1.66187C42.2341 1.84825 43.3457 2.41264 44.206 3.27292C45.0663 4.1332 45.6303 5.24449 45.8167 6.44675H41.0318V1.66187ZM40.5733 8.0515H45.8167C45.5829 9.52337 44.785 10.8462 43.5921 11.7395C42.3993 12.6328 40.9052 13.0262 39.4271 12.8364C38.4907 12.7103 37.6025 12.3455 36.8482 11.7766L40.5733 8.0515ZM34.5848 7.24912C34.6023 5.89597 35.098 4.59287 35.9843 3.57022C36.8706 2.54758 38.0901 1.87151 39.4271 1.66187V6.93433L35.7307 10.63C35.016 9.64977 34.6435 8.46193 34.6705 7.24912H34.5848ZM21.6908 4.84269H23.2952V20.2578H21.6908V4.84269ZM19.2837 13.6961H20.0861V20.2578H19.2837V13.6961ZM16.0459 1.60451H17.6506V20.2578H16.0459V1.60451ZM13.6391 13.6961H14.4415V20.2578H13.6391V13.6961ZM10.4013 7.24912H12.006V20.2578H10.4013V7.24912ZM32.9801 47.5645V48.3669H16.8769V47.5645H32.9801ZM20.4012 45.9597L21.4614 42.7223H28.3383L29.4271 45.9597H20.4012ZM48.3095 39.5128C48.302 39.9409 48.1267 40.3494 47.8212 40.6495C47.5158 40.9496 47.1047 41.1176 46.6764 41.1175H3.1519C2.72634 41.1175 2.31816 40.9483 2.01724 40.6474C1.71632 40.3465 1.5475 39.9383 1.5475 39.5128V37.908H48.3956L48.3095 39.5128ZM48.3095 36.2753H1.5475V15.3295C1.54743 14.9013 1.71537 14.4899 2.01549 14.1844C2.31561 13.8789 2.72372 13.7036 3.1519 13.6961H8.88256V20.2578H8.08053V15.4156C8.08053 15.3102 8.05964 15.2058 8.01932 15.1085C7.979 15.0112 7.91998 14.9228 7.84548 14.8483C7.77099 14.7738 7.68259 14.7144 7.58525 14.6741C7.48792 14.6338 7.38351 14.6132 7.27816 14.6132H4.04032C3.93496 14.6132 3.83056 14.6338 3.73322 14.6741C3.63588 14.7144 3.54749 14.7738 3.47299 14.8483C3.39849 14.9228 3.33947 15.0112 3.29915 15.1085C3.25883 15.2058 3.23794 15.3102 3.23794 15.4156V21.1462C3.24508 21.3568 3.3321 21.5562 3.48103 21.7052C3.62997 21.8541 3.82981 21.9415 4.04032 21.9486H29.8283C30.0438 21.9488 30.2507 21.8647 30.4058 21.715C30.5608 21.5653 30.6519 21.3616 30.6593 21.1462V15.4156C30.6594 15.3078 30.6374 15.2008 30.5953 15.1015C30.5532 15.0022 30.4917 14.9127 30.4142 14.8378C30.3366 14.7629 30.2448 14.7043 30.1441 14.6657C30.0435 14.6271 29.936 14.6094 29.8283 14.6132H26.6191C26.5127 14.6092 26.4066 14.6268 26.3075 14.6657C26.2083 14.7046 26.118 14.7639 26.0427 14.8392C25.9674 14.9145 25.9085 15.0044 25.8696 15.1036C25.8307 15.2028 25.8127 15.3092 25.8168 15.4156V20.2578H25.0144V13.7822H36.9342C37.9547 14.3192 39.0906 14.5999 40.2438 14.5999C41.3969 14.5999 42.5329 14.3192 43.5533 13.7822H46.6764C47.1073 13.7895 47.5183 13.9643 47.823 14.269C48.1277 14.5737 48.3022 14.9847 48.3095 15.4156V36.2753ZM6.36105 16.218V20.2578H4.75665V16.218H6.36105ZM27.3355 20.2578V16.218H28.9399V20.2578H27.3355Z" fill="#BD0324"/>
<path d="M8.8829 38.7104H4.04066C3.82788 38.7104 3.62379 38.795 3.47333 38.9455C3.32287 39.096 3.23828 39.3 3.23828 39.5128C3.24542 39.7233 3.33243 39.9235 3.48137 40.0725C3.63031 40.2214 3.83015 40.3081 4.04066 40.3152H8.8829C9.09341 40.3081 9.29359 40.2214 9.44253 40.0725C9.59147 39.9235 9.67813 39.7233 9.68527 39.5128C9.68527 39.3 9.60068 39.096 9.45023 38.9455C9.29977 38.795 9.09568 38.7104 8.8829 38.7104Z" fill="#BD0324"/>
<path d="M12.0917 38.7102H11.2897C11.0769 38.7102 10.8728 38.7948 10.7224 38.9453C10.5719 39.0957 10.4873 39.2998 10.4873 39.5126C10.4944 39.7231 10.5811 39.9233 10.73 40.0722C10.879 40.2212 11.0792 40.3078 11.2897 40.315H12.0917C12.3072 40.3151 12.5145 40.2317 12.6695 40.082C12.8246 39.9323 12.9153 39.728 12.9228 39.5126C12.9228 39.4048 12.9012 39.2985 12.8591 39.1992C12.817 39.1 12.7555 39.0097 12.6779 38.9348C12.6004 38.8599 12.5082 38.8013 12.4076 38.7627C12.3069 38.7241 12.1995 38.7064 12.0917 38.7102Z" fill="#BD0324"/>
<path d="M33.8688 20.2579C33.9776 20.2613 34.0857 20.2396 34.185 20.1949C34.2843 20.1502 34.3721 20.0834 34.4417 19.9997L37.307 17.1344H44.2412C44.3466 17.1344 44.4507 17.1139 44.548 17.0735C44.6453 17.0332 44.7341 16.9739 44.8086 16.8994C44.8831 16.8249 44.9421 16.7365 44.9824 16.6391C45.0227 16.5418 45.0433 16.4374 45.0433 16.332C45.0473 16.2256 45.0293 16.1199 44.9905 16.0207C44.9516 15.9216 44.8926 15.8316 44.8173 15.7563C44.742 15.681 44.652 15.6217 44.5529 15.5828C44.4537 15.5439 44.3477 15.5263 44.2412 15.5303H36.9919C36.886 15.5288 36.7807 15.5484 36.6823 15.5877C36.584 15.6271 36.4943 15.6849 36.4186 15.7591L33.1808 18.9686C33.0701 19.0846 32.9955 19.2302 32.9657 19.3876C32.9358 19.5451 32.9523 19.7079 33.0129 19.8563C33.0734 20.0047 33.1755 20.1319 33.307 20.2236C33.4385 20.3152 33.5939 20.3671 33.754 20.3726L33.8688 20.2579Z" fill="#BD0324"/>
<path d="M44.3555 29.0259C43.9317 29.0246 43.5153 29.135 43.1481 29.3463C42.7808 29.5576 42.4757 29.8622 42.2638 30.2291L33.8113 25.3008C33.7502 24.9879 33.6269 24.6907 33.4485 24.4264C33.2702 24.1621 33.0404 23.9363 32.7731 23.7625C32.5058 23.5888 32.2063 23.4706 31.8924 23.4149C31.5785 23.3592 31.2567 23.3674 30.9459 23.4387C30.4752 23.5335 30.0433 23.7667 29.7063 24.1088C29.3693 24.4509 29.1424 24.8861 29.0547 25.3582L20.4587 31.7478C20.2259 31.3954 19.9054 31.1093 19.5287 30.9182C19.152 30.727 18.732 30.637 18.3101 30.6572C17.8881 30.6775 17.4786 30.8073 17.1219 31.0336C16.7652 31.2599 16.4735 31.5755 16.2755 31.9486L7.87989 28.453C7.80908 28.1478 7.6787 27.8591 7.49619 27.6044C7.31368 27.3498 7.08283 27.1343 6.81658 26.9692C6.55033 26.8042 6.25382 26.6928 5.9446 26.6426C5.63539 26.5923 5.31938 26.6039 5.01456 26.6761C4.70601 26.7495 4.41495 26.8827 4.15797 27.0686C3.90099 27.2544 3.68313 27.4897 3.51684 27.7597C3.35054 28.0298 3.23904 28.3294 3.18875 28.6426C3.13846 28.9557 3.15036 29.2756 3.22373 29.5841C3.2971 29.8927 3.43066 30.1841 3.61652 30.4411C3.80239 30.6981 4.03691 30.9163 4.30697 31.0826C4.57703 31.2489 4.87735 31.3597 5.1905 31.4099C5.50364 31.4602 5.82353 31.4483 6.13208 31.375C6.47263 31.2882 6.79139 31.1318 7.06772 30.9147C7.34405 30.6976 7.572 30.4248 7.73683 30.1144L16.1034 33.61C16.223 34.1517 16.524 34.6365 16.9565 34.9839C17.3889 35.3313 17.9271 35.5205 18.4818 35.5205C19.0365 35.5205 19.5744 35.3313 20.0068 34.9839C20.4393 34.6365 20.7403 34.1517 20.8599 33.61L29.4559 27.2204C29.6247 27.4924 29.8467 27.7274 30.1086 27.9115C30.3704 28.0957 30.6665 28.2252 30.9795 28.2921C31.2925 28.359 31.616 28.3622 31.9302 28.3012C32.2444 28.2401 32.5433 28.116 32.8085 27.9367C33.1217 27.7289 33.3855 27.455 33.5818 27.1343L42.0061 32.0633C42.088 32.5202 42.2985 32.9436 42.6133 33.2847C42.928 33.6258 43.3337 33.8702 43.7826 33.9885C44.2314 34.1067 44.7047 34.0938 45.1467 33.9521C45.5886 33.8104 45.981 33.546 46.2775 33.1889C46.5739 32.8317 46.7621 32.3972 46.82 31.9367C46.8778 31.4762 46.8027 31.0087 46.6038 30.5894C46.4049 30.17 46.0904 29.816 45.6972 29.5694C45.304 29.3229 44.8483 29.1944 44.3842 29.198L44.3555 29.0259ZM6.44723 29.0259C6.45125 29.1323 6.43331 29.238 6.39441 29.3372C6.35551 29.4364 6.29659 29.527 6.22127 29.6023C6.14596 29.6776 6.056 29.7362 5.95685 29.7751C5.85769 29.814 5.75129 29.8323 5.64485 29.8283C5.48617 29.8283 5.33118 29.7807 5.19924 29.6926C5.0673 29.6044 4.96441 29.4796 4.90368 29.333C4.84296 29.1864 4.82726 29.0248 4.85821 28.8692C4.88917 28.7136 4.96532 28.5708 5.07752 28.4586C5.18972 28.3464 5.33287 28.2699 5.4885 28.2389C5.64413 28.208 5.80535 28.2237 5.95195 28.2844C6.09855 28.3451 6.22406 28.4484 6.31221 28.5803C6.40037 28.7122 6.44723 28.8672 6.44723 29.0259ZM18.5675 33.8681C18.352 33.8683 18.1451 33.7849 17.99 33.6352C17.835 33.4855 17.7442 33.2811 17.7368 33.0658C17.7726 32.8754 17.8738 32.7033 18.0229 32.5796C18.172 32.4559 18.3594 32.3886 18.5532 32.3886C18.7469 32.3886 18.9347 32.4559 19.0838 32.5796C19.2329 32.7033 19.3341 32.8754 19.3699 33.0658C19.3627 33.2763 19.2761 33.4765 19.1271 33.6254C18.9782 33.7743 18.778 33.861 18.5675 33.8681ZM31.4615 26.6188C31.2711 26.583 31.0993 26.4818 30.9757 26.3327C30.852 26.1836 30.7843 25.9961 30.7843 25.8024C30.7843 25.6087 30.852 25.4206 30.9757 25.2715C31.0993 25.1223 31.2711 25.0212 31.4615 24.9853C31.6519 25.0212 31.824 25.1223 31.9477 25.2715C32.0714 25.4206 32.139 25.6087 32.139 25.8024C32.139 25.9961 32.0714 26.1836 31.9477 26.3327C31.824 26.4818 31.6519 26.583 31.4615 26.6188ZM44.3555 32.3494C44.19 32.3551 44.0268 32.3113 43.8864 32.2235C43.7461 32.1357 43.6351 32.0082 43.5678 31.857C43.5005 31.7057 43.4799 31.538 43.5087 31.375C43.5374 31.2119 43.614 31.061 43.729 30.942C43.844 30.8229 43.9921 30.7407 44.154 30.7062C44.3159 30.6718 44.4846 30.6862 44.6381 30.7482C44.7916 30.8101 44.9229 30.9167 45.0155 31.0539C45.1081 31.1911 45.1578 31.3528 45.1579 31.5184C45.1433 31.7211 45.0525 31.9111 44.9036 32.0493C44.7547 32.1876 44.5587 32.2639 44.3555 32.2634V32.3494Z" fill="#BD0324"/>
<path d="M37.9087 33.8682H32.178C31.9652 33.8682 31.7611 33.9528 31.6107 34.1032C31.4602 34.2537 31.376 34.4578 31.376 34.6705C31.376 34.8833 31.4602 35.0874 31.6107 35.2379C31.7611 35.3883 31.9652 35.4729 32.178 35.4729H37.9087C38.1214 35.4729 38.3255 35.3883 38.476 35.2379C38.6265 35.0874 38.711 34.8833 38.711 34.6705C38.711 34.4578 38.6265 34.2537 38.476 34.1032C38.3255 33.9528 38.1214 33.8682 37.9087 33.8682Z" fill="#BD0324"/>
<path d="M37.9085 31.4324H35.4731C35.2827 31.4682 35.1109 31.5694 34.9872 31.7185C34.8635 31.8676 34.7959 32.0557 34.7959 32.2494C34.7959 32.4432 34.8635 32.6306 34.9872 32.7797C35.1109 32.9288 35.2827 33.03 35.4731 33.0658H37.9085C38.0989 33.03 38.271 32.9288 38.3947 32.7797C38.5184 32.6306 38.586 32.4432 38.586 32.2494C38.586 32.0557 38.5184 31.8676 38.3947 31.7185C38.271 31.5694 38.0989 31.4682 37.9085 31.4324Z" fill="#BD0324"/>
<path d="M4.04066 24.1836H12.9231C13.0285 24.1836 13.1329 24.1624 13.2302 24.122C13.3275 24.0817 13.4159 24.0231 13.4904 23.9486C13.5649 23.8741 13.624 23.7857 13.6643 23.6883C13.7046 23.591 13.7255 23.4866 13.7255 23.3812C13.7183 23.1707 13.6313 22.9705 13.4824 22.8216C13.3335 22.6727 13.1336 22.586 12.9231 22.5789H4.04066C3.83015 22.586 3.63031 22.6727 3.48137 22.8216C3.33243 22.9705 3.24542 23.1707 3.23828 23.3812C3.23828 23.4866 3.25917 23.591 3.29949 23.6883C3.33981 23.7857 3.39883 23.8741 3.47333 23.9486C3.54783 24.0231 3.63622 24.0817 3.73356 24.122C3.8309 24.1624 3.9353 24.1836 4.04066 24.1836Z" fill="#BD0324"/>
<path d="M15.3289 24.1836H16.1313C16.2378 24.1876 16.3438 24.1693 16.443 24.1304C16.5421 24.0915 16.6324 24.0323 16.7077 23.957C16.7831 23.8816 16.842 23.7917 16.8809 23.6925C16.9198 23.5934 16.9377 23.4877 16.9337 23.3812C16.9337 23.1685 16.8491 22.9644 16.6987 22.8139C16.5482 22.6634 16.3441 22.5789 16.1313 22.5789H15.3289C15.1162 22.5789 14.9121 22.6634 14.7616 22.8139C14.6112 22.9644 14.5269 23.1685 14.5269 23.3812C14.5229 23.4877 14.5408 23.5934 14.5797 23.6925C14.6186 23.7917 14.6776 23.8816 14.7529 23.957C14.8282 24.0323 14.9181 24.0915 15.0173 24.1304C15.1165 24.1693 15.2225 24.1876 15.3289 24.1836Z" fill="#BD0324"/>
</g>
<defs>
<clipPath id="clip0_2802_911">
<rect width="50" height="50" fill="white"/>
</clipPath>
</defs>
</svg>
