<svg width="50" height="50" viewBox="0 0 50 50" fill="none" xmlns="http://www.w3.org/2000/svg">
<g clip-path="url(#clip0_2802_921)">
<path d="M14.9867 14.6965H13.1201C12.915 14.6965 12.7183 14.7751 12.5732 14.9148C12.4282 15.0546 12.3467 15.2441 12.3467 15.4418V17.2402C12.3467 19.4004 13.2373 21.4725 14.8226 23C16.4079 24.5274 18.5582 25.3855 20.8001 25.3855H22.3467L23.4935 26.4902V31.6289C22.524 31.7439 21.5915 32.0584 20.7588 32.5504C19.9261 33.0424 19.2126 33.7008 18.6667 34.4812L17.2533 36.5362C17.1849 36.6497 17.148 36.7782 17.1455 36.9094C17.1431 37.0407 17.1752 37.1707 17.2393 37.2864C17.3034 37.4022 17.3973 37.5001 17.5117 37.5712C17.6262 37.6424 17.7573 37.6844 17.8932 37.6929H20.5599C25.4132 37.6929 27.5732 37.3588 27.5732 36.9477C25.2672 36.4741 22.9176 36.2244 20.5599 36.2025H19.2799L19.8932 35.303C20.2913 34.7274 20.8089 34.238 21.4131 33.8646C22.0173 33.4912 22.6951 33.2418 23.404 33.1332C24.1129 33.0246 24.8376 33.0591 25.5322 33.2335C26.2268 33.408 26.8764 33.7187 27.4401 34.1469C27.8507 34.4742 28.3746 34.6393 28.9066 34.6092C29.4308 34.5926 29.947 34.739 30.3789 35.0257C30.8108 35.3124 31.1359 35.7246 31.3066 36.2025H24.1602C20.3468 36.2025 19.2533 36.5366 19.2533 36.9477C19.2533 37.3588 23.7335 37.6929 24.1602 37.6929H32.1602C32.3653 37.6929 32.562 37.6144 32.707 37.4746C32.8521 37.3349 32.9333 37.1453 32.9333 36.9477C32.9333 35.9368 32.5184 34.967 31.779 34.2497C31.0396 33.5325 30.0358 33.1262 28.9867 33.1194H28.8001C28.7333 33.1493 28.6603 33.1645 28.5866 33.1645C28.5129 33.1645 28.4402 33.1493 28.3734 33.1194C27.3844 32.3764 26.2046 31.9056 24.96 31.7575V26.6188L26.1068 25.5141H27.6533C29.8977 25.5141 32.0508 24.6565 33.6403 23.1298C35.2298 21.6031 36.1264 19.5313 36.1335 17.3688V15.5703C36.1335 15.3727 36.0519 15.1832 35.9069 15.0434C35.7619 14.9037 35.5651 14.8251 35.36 14.8251H33.4935C31.2491 14.8251 29.0961 15.6827 27.5065 17.2095C25.917 18.7362 25.0204 20.8079 25.0133 22.9705V24.4603L24.1868 25.2569L23.36 24.4603V22.9705C23.36 20.8103 22.4694 18.7382 20.8841 17.2107C19.2988 15.6832 17.1485 14.8251 14.9066 14.8251L14.9867 14.6965ZM20.8001 23.9208C18.9659 23.914 17.2092 23.207 15.9147 21.9549C14.6202 20.7028 13.8932 19.0075 13.8932 17.2402V16.187H14.9867C16.8209 16.187 18.5804 16.8874 19.8799 18.1347C21.1794 19.382 21.9129 21.0746 21.9199 22.8419L17.6533 18.7306C17.5072 18.5965 17.3125 18.5231 17.1107 18.5255C16.9089 18.5279 16.716 18.6057 16.5732 18.7432C16.4305 18.8807 16.3491 19.0669 16.3467 19.2613C16.3442 19.4558 16.4207 19.6436 16.5599 19.7845L20.8268 23.8951L20.8001 23.9208ZM26.64 22.8419C26.64 21.9658 26.8195 21.0985 27.1683 20.2894C27.5171 19.4804 28.0284 18.7455 28.6725 18.1272C29.3167 17.5089 30.0812 17.0192 30.9222 16.6863C31.7632 16.3534 32.664 16.1836 33.5732 16.187H34.6667V17.2402C34.6596 19.0098 33.927 20.7054 32.6283 21.9568C31.3295 23.2081 29.5701 23.914 27.7334 23.9208L32 19.8096C32.1387 19.6667 32.2158 19.4789 32.2158 19.2833C32.2158 19.0877 32.1387 18.8992 32 18.7563C31.9301 18.684 31.8457 18.6264 31.7516 18.587C31.6576 18.5475 31.556 18.5268 31.4534 18.5268C31.3509 18.5268 31.2493 18.5475 31.1553 18.587C31.0612 18.6264 30.9765 18.684 30.9066 18.7563L26.64 22.8676V22.8419Z" fill="#BD0324"/>
<path d="M44.5603 10.4828C41.2592 6.54488 36.7515 3.71254 31.6804 2.38953L32.0805 1.00197C32.1173 0.876791 32.1194 0.744288 32.0867 0.618072C32.0539 0.491856 31.9872 0.376251 31.8936 0.282473C31.8002 0.194058 31.6858 0.12887 31.5603 0.0930318C31.4348 0.0571935 31.3022 0.0515998 31.1739 0.0767223L20.6938 2.13235C20.5582 2.17035 20.4342 2.23917 20.3321 2.33308C20.23 2.42699 20.1529 2.54314 20.1072 2.67181C20.0775 2.80542 20.084 2.94404 20.126 3.07453C20.1681 3.20502 20.2441 3.3231 20.3471 3.41703L28.3471 10.2513C28.447 10.3371 28.5684 10.3968 28.6993 10.4238C28.8302 10.4509 28.9662 10.4444 29.0938 10.4057C29.2198 10.3744 29.334 10.3096 29.4236 10.2187C29.5132 10.1279 29.5744 10.0147 29.6003 9.8919L30.0538 8.27287C32.7249 8.96457 35.2002 10.2272 37.296 11.9663C39.3918 13.7055 41.0545 15.8769 42.1605 18.3195C42.3205 18.6792 43.5737 21.1201 43.9737 20.8889C44.3737 20.6577 43.7336 18.0369 43.5736 17.6772C42.3194 14.9121 40.409 12.4696 37.9958 10.5462C35.5827 8.6227 32.7344 7.27187 29.6804 6.60303C29.4863 6.56379 29.284 6.59796 29.1153 6.69838C28.9466 6.7988 28.8243 6.9577 28.7738 7.1425L28.4538 8.29859L22.5339 3.15984L30.267 1.64432L30.0004 2.62038C29.9233 2.80148 29.9233 3.00446 30.0004 3.18556C30.0498 3.27193 30.1186 3.34674 30.2016 3.40449C30.2846 3.46224 30.3799 3.50183 30.4805 3.51991C35.2772 4.5934 39.5932 7.11258 42.8018 10.7118C46.0104 14.311 47.9443 18.8022 48.322 23.5329C48.6997 28.2636 47.5016 32.9874 44.9021 37.0171C42.3025 41.0468 38.437 44.1726 33.8673 45.9403L32.7738 43.0108C36.4358 41.5739 39.5696 39.1167 41.7738 35.9539C43.9781 32.791 45.1526 29.0665 45.1472 25.2567C45.1487 23.8563 44.9876 22.4599 44.6671 21.094C42.9071 15.2615 42.4537 15.9553 42.0004 15.9553C42.1694 17.7815 42.5542 19.5833 43.1472 21.3255C43.4369 22.591 43.5798 23.8836 43.5736 25.1796C43.5681 28.8087 42.4068 32.3487 40.2465 35.3215C38.0862 38.2944 35.0313 40.5568 31.4939 41.8033C31.3976 41.8347 31.3087 41.8846 31.2331 41.9501C31.1576 42.0157 31.0969 42.0957 31.0544 42.1847C31.012 42.2737 30.9888 42.3703 30.9864 42.4682C30.984 42.5662 31.0024 42.6634 31.0404 42.7543L32.6671 47.0964C32.7213 47.2387 32.8193 47.3617 32.948 47.4489C33.0766 47.5361 33.2298 47.5833 33.3871 47.5844H33.6537C37.3305 46.2762 40.6311 44.1438 43.2829 41.363C45.9347 38.5821 47.8614 35.2328 48.9037 31.5923C49.946 27.9519 50.0741 24.1247 49.2771 20.4272C48.4801 16.7297 46.781 13.268 44.3204 10.3285L44.5603 10.4828Z" fill="#BD0324"/>
<path d="M29.6532 46.6345L21.6532 39.7996C21.5532 39.7138 21.4319 39.6547 21.301 39.6277C21.1701 39.6007 21.0341 39.6071 20.9065 39.6459C20.7844 39.6843 20.6743 39.7513 20.5858 39.841C20.4974 39.9307 20.4335 40.0402 20.4 40.1596L19.9465 41.778C16.1711 40.8059 12.8159 38.6994 10.3681 35.7642C7.92023 32.8291 6.50731 29.2183 6.33485 25.4566C6.16239 21.695 7.23939 17.9783 9.40907 14.8467C11.5788 11.715 14.7282 9.33159 18.4 8.04246C18.4963 8.01109 18.5848 7.96122 18.6604 7.89568C18.7359 7.83013 18.797 7.75008 18.8394 7.66107C18.8819 7.57206 18.905 7.47546 18.9074 7.37754C18.9098 7.27961 18.8914 7.18234 18.8534 7.09149L17.2265 2.77512C17.1551 2.58609 17.0125 2.43024 16.8267 2.33853C16.6369 2.27388 16.4296 2.27388 16.2398 2.33853C15.1248 2.74127 14.0381 3.21281 12.9865 3.75118C12.6132 3.95673 8.37312 6.91181 8.55979 7.27153C8.74645 7.63124 13.3333 5.26714 13.7066 5.06159C14.4799 4.67618 15.2533 4.3167 16.0533 4.00837L17.1467 6.93781C14.2644 8.06131 11.6956 9.81981 9.64637 12.0728C7.59711 14.3258 6.12443 17.0103 5.34657 19.9108C4.56871 22.8113 4.50726 25.8468 5.16721 28.7743C5.82716 31.7018 7.19012 34.4397 9.1467 36.7679C11.9528 40.1357 15.8649 42.4829 20.2398 43.4228C20.4373 43.4629 20.6435 43.4294 20.8166 43.3293C20.9897 43.2292 21.1172 43.0701 21.1734 42.8833L21.4934 41.7266L27.4133 46.8653L19.6532 48.4072L19.9198 47.4305C19.9985 47.2408 19.9985 47.0293 19.9198 46.8396C19.8031 46.6797 19.6343 46.5624 19.44 46.5059C15.1465 45.544 11.2273 43.4208 8.14345 40.3861C5.05956 37.3513 2.939 33.5309 2.03147 29.3747C1.12393 25.2184 1.46709 20.899 3.0204 16.9242C4.57371 12.9495 7.2728 9.48512 10.8 6.93781C13.0934 5.44757 13.4667 4.98473 13.1734 4.65072C12.8801 4.3167 12.3201 4.29083 9.86675 5.75537C6.86225 7.93927 4.40968 10.7507 2.69325 13.9779C1.02262 17.1371 0.106021 20.6156 0.0103076 24.16C-0.0854059 27.7045 0.642321 31.2252 2.14019 34.4639C3.63806 37.7025 5.86812 40.5776 8.66753 42.8789C11.4669 45.1803 14.7647 46.8495 18.3199 47.7649L17.9198 49.1782C17.8824 49.2992 17.8801 49.4279 17.913 49.5501C17.9459 49.6724 18.013 49.7836 18.1067 49.8719C18.1974 49.9649 18.3107 50.0342 18.4364 50.0745C18.5621 50.1149 18.6962 50.1247 18.8267 50.1028L29.3065 48.0221C29.4457 47.9924 29.5737 47.926 29.6763 47.8307C29.779 47.7354 29.8524 47.6149 29.8882 47.482C29.9241 47.349 29.9212 47.2088 29.8798 47.0774C29.8383 46.946 29.7598 46.8286 29.6532 46.7374V46.6345Z" fill="#BD0324"/>
</g>
<defs>
<clipPath id="clip0_2802_921">
<rect width="50" height="50" fill="white"/>
</clipPath>
</defs>
</svg>
