<svg width="50" height="50" viewBox="0 0 50 50" fill="none" xmlns="http://www.w3.org/2000/svg">
<g clip-path="url(#clip0_2802_928)">
<path fill-rule="evenodd" clip-rule="evenodd" d="M24.7604 10.1527H28.6196V12.7833H24.7604V10.1527ZM24.1408 13.9991H29.211C29.291 14.003 29.3712 13.9907 29.4462 13.9625C29.5213 13.9344 29.5898 13.891 29.6477 13.8355C29.7057 13.78 29.7517 13.7134 29.7832 13.6394C29.8147 13.5655 29.8311 13.4858 29.831 13.4054V9.53059C29.8311 9.45016 29.8147 9.37049 29.7832 9.29653C29.7517 9.22257 29.7057 9.15598 29.6477 9.10044C29.5898 9.04491 29.5213 9.00153 29.4462 8.9734C29.3712 8.94528 29.291 8.93298 29.211 8.93681H24.1408C23.9839 8.93681 23.8333 8.99942 23.7223 9.1108C23.6114 9.22218 23.549 9.37308 23.549 9.53059V13.4054C23.5451 13.5412 23.588 13.6743 23.6701 13.7823C23.7521 13.8904 23.8684 13.9668 23.9998 13.9991H24.1408ZM31.4647 12.755C31.4645 12.5947 31.5261 12.4407 31.6363 12.3248C31.7465 12.2089 31.8967 12.1402 32.0561 12.1329H35.4084C35.5728 12.1329 35.7303 12.1985 35.8465 12.3151C35.9627 12.4318 36.028 12.5899 36.028 12.755C36.028 12.92 35.9627 13.0781 35.8465 13.1948C35.7303 13.3115 35.5728 13.377 35.4084 13.377H32.0561C31.9658 13.3938 31.8732 13.3904 31.7845 13.3667C31.6957 13.343 31.6132 13.2999 31.5431 13.2403C31.473 13.1808 31.417 13.1061 31.3791 13.0222C31.3411 12.9382 31.3222 12.8471 31.3237 12.755H31.4647ZM31.4647 10.181C31.4645 10.0208 31.5261 9.86674 31.6363 9.75084C31.7465 9.63494 31.8967 9.56618 32.0561 9.5589H39.7184C39.8827 9.5589 40.0402 9.6245 40.1564 9.74118C40.2726 9.85785 40.338 10.016 40.338 10.181C40.338 10.346 40.2726 10.5048 40.1564 10.6215C40.0402 10.7382 39.8827 10.8031 39.7184 10.8031H32.0561C31.9658 10.8198 31.8732 10.8164 31.7845 10.7927C31.6957 10.7691 31.6132 10.7259 31.5431 10.6664C31.473 10.6068 31.417 10.5328 31.3791 10.4489C31.3411 10.3649 31.3222 10.2731 31.3237 10.181H31.4647ZM24.7604 3.36563H28.6196V5.99552H24.7604V3.36563ZM24.1408 7.21208H29.211C29.3754 7.21208 29.5332 7.14649 29.6494 7.02981C29.7657 6.91313 29.831 6.75431 29.831 6.5893V2.74354C29.831 2.57853 29.7657 2.4204 29.6494 2.30372C29.5332 2.18704 29.3754 2.12145 29.211 2.12145H24.1408C24.0607 2.12136 23.9813 2.13749 23.9077 2.16909C23.834 2.20069 23.7673 2.24693 23.712 2.30511C23.6567 2.36328 23.6138 2.43205 23.5858 2.5074C23.5578 2.58276 23.5452 2.6632 23.549 2.74354V6.5893C23.5515 6.72029 23.5971 6.84741 23.6787 6.94971C23.7602 7.05201 23.8731 7.1243 23.9998 7.15547L24.1408 7.21208ZM31.4647 5.96721C31.4645 5.80699 31.5261 5.65297 31.6363 5.53707C31.7465 5.42117 31.8967 5.35241 32.0561 5.34513H35.4084C35.5678 5.35241 35.7184 5.42117 35.8286 5.53707C35.9388 5.65297 36 5.80699 35.9998 5.96721C35.9998 6.12472 35.9375 6.27632 35.8265 6.38769C35.7156 6.49907 35.5653 6.561 35.4084 6.561H32.0561C31.9627 6.58481 31.8651 6.58586 31.7714 6.56307C31.6777 6.54027 31.5909 6.49462 31.5187 6.4305C31.4465 6.36638 31.391 6.28563 31.3571 6.19506C31.3231 6.10449 31.3116 6.0066 31.3237 5.9106L31.4647 5.96721ZM31.4647 3.39393C31.4645 3.23371 31.5261 3.07969 31.6363 2.96379C31.7465 2.84789 31.8967 2.77913 32.0561 2.77184H39.7184C39.8827 2.77184 40.0402 2.83744 40.1564 2.95412C40.2726 3.0708 40.338 3.22892 40.338 3.39393C40.3381 3.47436 40.3217 3.55403 40.2902 3.62799C40.2587 3.70196 40.2127 3.76855 40.1547 3.82408C40.0968 3.87961 40.0283 3.92299 39.9532 3.95112C39.8782 3.97925 39.7984 3.99154 39.7184 3.98771H32.0561C31.9652 4.01039 31.8702 4.01117 31.779 3.98979C31.6877 3.9684 31.6029 3.92557 31.5314 3.86482C31.4599 3.80407 31.4038 3.7272 31.3677 3.64042C31.3316 3.55364 31.3165 3.45939 31.3237 3.36563L31.4647 3.39393ZM8.00001 1.3012V8.56949C7.97257 8.68094 7.97257 8.79706 8.00001 8.9085L12.2254 14.7911C11.2907 15.3479 10.243 15.6863 9.1602 15.7812C8.07743 15.876 6.9872 15.7245 5.97055 15.3386C4.95391 14.9527 4.03682 14.3421 3.28741 13.5517C2.538 12.7614 1.97563 11.8118 1.6417 10.7734C1.30777 9.73498 1.21075 8.63424 1.35836 7.55316C1.50596 6.47208 1.89419 5.43823 2.49413 4.52833C3.09407 3.61844 3.89052 2.85623 4.82412 2.29751C5.75772 1.73879 6.80465 1.39822 7.88723 1.3012H8.00001ZM9.21109 1.3012V7.9474H15.8307C15.6926 6.20162 14.9338 4.5637 13.6926 3.33317C12.4514 2.10264 10.8109 1.36127 9.07045 1.24458L9.21109 1.3012ZM13.3237 14.0841C14.7674 12.8354 15.6672 11.0693 15.8307 9.16327H9.80253L13.3237 14.0841ZM8.61965 17.0537C10.291 17.0537 11.925 16.556 13.3147 15.6237C14.7044 14.6915 15.7874 13.3662 16.427 11.816C17.0666 10.2657 17.2341 8.55958 16.9081 6.91381C16.582 5.26804 15.7771 3.75677 14.5952 2.57024C13.4134 1.3837 11.9074 0.575639 10.2681 0.248276C8.62884 -0.0790876 6.92981 0.0887492 5.38565 0.730895C3.84148 1.37304 2.52179 2.46063 1.59321 3.85584C0.664638 5.25105 0.168945 6.89148 0.168945 8.56949C0.183355 10.7855 1.06087 12.9075 2.61379 14.4824C4.16671 16.0574 6.27162 16.9602 8.47867 16.997L8.61965 17.0537ZM19.521 18.0714C19.9445 18.0714 20.3584 18.1977 20.7105 18.4339C21.0625 18.67 21.3369 19.0057 21.4989 19.3984C21.661 19.7911 21.7033 20.2229 21.6207 20.6398C21.538 21.0567 21.3341 21.4398 21.0347 21.7404C20.7353 22.041 20.3538 22.2457 19.9385 22.3286C19.5232 22.4116 19.0928 22.3691 18.7016 22.2064C18.3104 22.0438 17.9761 21.7686 17.7409 21.4152C17.5056 21.0617 17.3802 20.6458 17.3802 20.2207C17.3644 19.6647 17.5639 19.1242 17.9369 18.7128C18.3099 18.3014 18.8272 18.0511 19.3801 18.0148L19.521 18.0714ZM8.45047 32.4381C8.02705 32.4381 7.61312 32.3118 7.26106 32.0756C6.909 31.8395 6.63462 31.5038 6.47259 31.1111C6.31055 30.7183 6.26826 30.2866 6.35086 29.8697C6.43347 29.4527 6.6374 29.0697 6.9368 28.7691C7.2362 28.4685 7.61774 28.2638 8.03302 28.1808C8.44831 28.0979 8.8787 28.1404 9.26989 28.303C9.66108 28.4657 9.99539 28.7408 10.2306 29.0943C10.4659 29.4477 10.5913 29.8637 10.5913 30.2888C10.5844 30.5785 10.5191 30.8639 10.3995 31.1276C10.2798 31.3914 10.1082 31.6281 9.89503 31.8236C9.68188 32.0191 9.43163 32.1696 9.15917 32.2655C8.88671 32.3614 8.59791 32.4006 8.30983 32.3815L8.45047 32.4381ZM30.5913 24.7742C31.0159 24.7742 31.4311 24.9006 31.7838 25.1381C32.1364 25.3755 32.4107 25.713 32.5719 26.1074C32.7331 26.5018 32.7737 26.9353 32.6888 27.353C32.6039 27.7707 32.3972 28.1534 32.095 28.4529C31.7927 28.7523 31.4086 28.9552 30.9915 29.0349C30.5744 29.1146 30.1433 29.068 29.7526 28.901C29.3619 28.7339 29.0295 28.4538 28.7977 28.0966C28.5659 27.7394 28.4452 27.3215 28.4507 26.8952C28.4582 26.3301 28.6869 25.7905 29.0876 25.3935C29.4883 24.9965 30.0283 24.7741 30.5913 24.7742ZM41.6618 14.3381C42.0865 14.3382 42.5014 14.4653 42.854 14.7027C43.2067 14.9401 43.481 15.2777 43.6421 15.6721C43.8033 16.0665 43.8443 16.5 43.7594 16.9176C43.6745 17.3353 43.4678 17.7181 43.1656 18.0175C42.8633 18.3169 42.4792 18.5192 42.0621 18.5989C41.645 18.6786 41.2135 18.6326 40.8228 18.4656C40.4322 18.2986 40.0997 18.0184 39.8679 17.6612C39.6361 17.3041 39.5154 16.8854 39.521 16.4592C39.5172 16.1746 39.5698 15.8926 39.6757 15.6286C39.7816 15.3645 39.9387 15.1242 40.1379 14.9216C40.337 14.719 40.5743 14.5577 40.8359 14.4479C41.0975 14.3381 41.3783 14.2822 41.6618 14.2822V14.3381ZM16.6759 22.0028C16.3354 21.4722 16.1588 20.8519 16.1688 20.2207C16.1688 19.3282 16.5222 18.4726 17.1508 17.8415C17.7795 17.2103 18.632 16.8555 19.521 16.8555C20.4101 16.8555 21.2626 17.2103 21.8913 17.8415C22.5199 18.4726 22.873 19.3282 22.873 20.2207C22.8718 20.6272 22.7955 21.0298 22.6478 21.4083L28.0845 24.6893C28.3941 24.3255 28.7782 24.0333 29.211 23.8331C29.6438 23.6329 30.1147 23.5291 30.5913 23.5293C31.3054 23.5291 31.9995 23.7686 32.5633 24.2087L38.8449 18.2978C38.4959 17.7487 38.3104 17.1106 38.3099 16.4592C38.3409 15.7154 38.6186 15.0039 39.0991 14.4369C39.5795 13.8699 40.2348 13.4801 40.9611 13.3301C41.6873 13.1801 42.4428 13.2784 43.1071 13.609C43.7714 13.9397 44.3064 14.4838 44.6273 15.1549C44.9482 15.826 45.0366 16.5854 44.878 17.3126C44.7194 18.0398 44.323 18.6927 43.7522 19.1678C43.1813 19.6429 42.4687 19.9132 41.7275 19.9349C40.9864 19.9565 40.2594 19.7282 39.662 19.2872L33.4082 25.1981C33.7535 25.7385 33.9393 26.3665 33.9436 27.0085C33.9436 27.901 33.5905 28.7566 32.9618 29.3877C32.3332 30.0189 31.4803 30.3737 30.5913 30.3737C29.7022 30.3737 28.8497 30.0189 28.221 29.3877C27.5924 28.7566 27.2393 27.901 27.2393 27.0085C27.2476 26.6143 27.3139 26.2231 27.4364 25.8485L22.0281 22.5682C21.7148 22.9254 21.3289 23.2106 20.8965 23.4057C20.4641 23.6008 19.9951 23.701 19.521 23.6992C18.7897 23.6992 18.0781 23.461 17.493 23.0205L11.2956 28.6766C11.6828 29.3136 11.8482 30.0622 11.7656 30.8038C11.6831 31.5455 11.3573 32.2382 10.8396 32.7737C10.3219 33.3092 9.64166 33.6567 8.90574 33.7617C8.16982 33.8667 7.41992 33.7232 6.77415 33.3536C6.12838 32.9841 5.62356 32.4093 5.33854 31.72C5.05351 31.0308 5.00446 30.2666 5.19962 29.5465C5.39478 28.8265 5.82297 28.1916 6.41654 27.7424C7.0101 27.2932 7.73542 27.0545 8.47867 27.0644C9.2155 27.0595 9.93151 27.3091 10.5068 27.7714L16.6759 22.0028ZM5.60537 38.688H11.2392V48.841H5.60537V38.688ZM16.6759 30.9392V48.841H22.3097V30.9392H16.6759ZM27.7465 35.8599H33.3803V48.841H27.7465V35.8599ZM38.8167 27.0368V48.841H44.4506V27.0368H38.8167ZM49.5211 48.841H45.9154V26.414C45.9155 26.3336 45.8994 26.2539 45.8679 26.1799C45.8365 26.106 45.7901 26.0394 45.7321 25.9838C45.6742 25.9283 45.6057 25.8856 45.5306 25.8575C45.4556 25.8294 45.3758 25.8164 45.2958 25.8202H38.3941C38.3141 25.8164 38.2343 25.8294 38.1593 25.8575C38.0842 25.8856 38.0157 25.9283 37.9578 25.9838C37.8998 26.0394 37.8534 26.106 37.822 26.1799C37.7905 26.2539 37.7744 26.3336 37.7745 26.414V48.841H34.9576V35.2379C34.9576 35.0728 34.8923 34.9147 34.7761 34.798C34.6598 34.6814 34.5023 34.6158 34.338 34.6158H27.4082C27.2487 34.623 27.0985 34.6918 26.9883 34.8077C26.8781 34.9236 26.8166 35.0776 26.8167 35.2379V48.841H23.9998V30.3454C23.9998 30.1804 23.9345 30.0222 23.8183 29.9056C23.702 29.7889 23.5445 29.7233 23.3802 29.7233H16.4507C16.3706 29.7232 16.2913 29.7393 16.2176 29.7709C16.1439 29.8025 16.0772 29.8488 16.0219 29.9069C15.9666 29.9651 15.9237 30.0339 15.8957 30.1092C15.8677 30.1846 15.8551 30.265 15.8589 30.3454V48.841H13.042V38.0942C13.042 37.9292 12.9767 37.7711 12.8605 37.6544C12.7443 37.5377 12.5868 37.4721 12.4224 37.4721H5.04213C4.96202 37.472 4.88266 37.4882 4.80899 37.5198C4.73532 37.5514 4.669 37.5976 4.61368 37.6558C4.55836 37.714 4.51515 37.7827 4.48714 37.8581C4.45912 37.9334 4.44688 38.0139 4.45069 38.0942V48.841H0.816778C0.736666 48.8409 0.657311 48.857 0.583641 48.8886C0.509971 48.9202 0.443643 48.9664 0.388328 49.0246C0.333013 49.0828 0.289803 49.1516 0.261788 49.2269C0.233772 49.3023 0.221523 49.3827 0.225338 49.463C0.225338 49.6206 0.287707 49.7715 0.398644 49.8828C0.509581 49.9942 0.659889 50.0568 0.816778 50.0568H49.4083C49.4883 50.0607 49.5685 50.0484 49.6435 50.0202C49.7186 49.9921 49.7871 49.9487 49.845 49.8932C49.903 49.8377 49.949 49.7711 49.9805 49.6971C50.012 49.6231 50.0281 49.5435 50.028 49.463C50.028 49.298 49.9626 49.1399 49.8464 49.0232C49.7302 48.9066 49.5727 48.841 49.4083 48.841H49.5211Z" fill="#BD0324"/>
</g>
<defs>
<clipPath id="clip0_2802_928">
<rect width="50" height="50" fill="white"/>
</clipPath>
</defs>
</svg>
