<svg width="50" height="50" viewBox="0 0 50 50" fill="none" xmlns="http://www.w3.org/2000/svg">
<g clip-path="url(#clip0_2802_930)">
<path d="M2.41903 39.9718H19.211C21.7362 41.6401 24.7066 42.506 27.7327 42.4557C30.7588 42.4054 33.6989 41.441 36.1673 39.6897L37.9757 41.4981C37.8964 41.7778 37.8938 42.0738 37.9682 42.3548C38.0426 42.6357 38.191 42.8917 38.3982 43.0956L44.293 48.9904C44.5898 49.3462 44.9574 49.636 45.3724 49.8418C45.7875 50.0477 46.2409 50.1649 46.7038 50.1858C47.1666 50.2067 47.6287 50.131 48.0606 49.9634C48.4926 49.7958 48.8849 49.5399 49.2125 49.2122C49.5401 48.8846 49.7958 48.4923 49.9634 48.0604C50.131 47.6284 50.2068 47.1666 50.1858 46.7038C50.1649 46.2409 50.0477 45.7874 49.8418 45.3724C49.636 44.9573 49.3459 44.59 48.9901 44.2933L44.4341 39.7368C44.8764 39.5345 45.2448 39.1999 45.4888 38.7792C45.7328 38.3586 45.8402 37.8725 45.7961 37.3882V2.41902C45.8154 2.09896 45.769 1.77837 45.6597 1.47697C45.5503 1.17557 45.3803 0.899456 45.1603 0.666227C44.9402 0.432997 44.6747 0.247689 44.3802 0.120952C44.0857 -0.00578428 43.7682 -0.0711305 43.4476 -0.0705528H2.46604C2.14541 -0.0711305 1.82798 -0.00578428 1.53346 0.120952C1.23893 0.247689 0.973417 0.432997 0.75339 0.666227C0.533362 0.899456 0.363365 1.17557 0.253985 1.47697C0.144606 1.77837 0.0982847 2.09896 0.117523 2.41902V37.3882C0.104565 38.0305 0.342585 38.6528 0.781198 39.1221C1.21981 39.5914 1.8244 39.8708 2.46604 39.9013L2.41903 39.9718ZM2.41903 38.3045C2.20934 38.2865 2.01443 38.1888 1.87461 38.0316C1.7348 37.8743 1.66085 37.6691 1.66763 37.4588V27.8302L10.0047 19.4928L13.2692 22.757C12.3958 25.394 12.2714 28.2217 12.91 30.9252C13.5485 33.6287 14.925 36.1019 16.886 38.0694L17.1443 38.3045H2.41903ZM18.0603 36.8951C16.1918 35.0353 14.9172 32.6625 14.3984 30.0778C13.8796 27.493 14.1398 24.8125 15.1458 22.3757C16.1519 19.9389 17.8587 17.8557 20.0498 16.3897C22.241 14.9238 24.818 14.1415 27.4543 14.1415C30.0906 14.1415 32.6677 14.9238 34.8588 16.3897C37.05 17.8557 38.7565 19.9389 39.7626 22.3757C40.7686 24.8125 41.0288 27.493 40.5099 30.0778C39.9911 32.6625 38.7169 35.0353 36.8484 36.8951C34.3499 39.3734 30.9734 40.7642 27.4543 40.7642C23.9352 40.7642 20.5587 39.3734 18.0603 36.8951ZM41.5455 37.9754L39.7135 36.1434C41.0786 34.2268 41.9724 32.0154 42.3221 29.6885C42.6718 27.3615 42.4677 24.9851 41.7264 22.7518C40.985 20.5186 39.7272 18.4916 38.0554 16.8358C36.3835 15.18 34.3446 13.9417 32.1044 13.2219L35.8384 9.48808L44.1758 17.8254V37.4588C44.1771 37.6676 44.101 37.8697 43.9622 38.0258C43.8234 38.1819 43.6317 38.2813 43.4241 38.3045H43.025C42.8239 38.1332 42.584 38.0137 42.3261 37.9564C42.0682 37.8991 41.8002 37.9054 41.5455 37.9754ZM38.1164 37.9754L38.68 37.3647L40.1831 38.8681L39.0089 40.0659L37.4826 38.539C37.6939 38.3511 37.9051 38.1867 38.1164 37.9754ZM48.3327 46.5243C48.3264 46.9717 48.1499 47.4 47.8393 47.7221C47.5188 48.0158 47.0998 48.1785 46.6651 48.1785C46.2303 48.1785 45.8113 48.0158 45.4908 47.7221L39.596 41.8273L41.9445 39.4787L47.8393 45.35C48.1444 45.6662 48.3205 46.0851 48.3327 46.5243ZM2.44254 1.5733H43.4241C43.6297 1.59098 43.8213 1.68534 43.9605 1.83762C44.0997 1.9899 44.1765 2.18918 44.1758 2.39551V15.3829L36.4256 7.63266C36.349 7.55455 36.2577 7.49269 36.1569 7.45033C36.0561 7.40797 35.9478 7.38611 35.8384 7.38611C35.7291 7.38611 35.6207 7.40797 35.5199 7.45033C35.4191 7.49269 35.3278 7.55455 35.2513 7.63266L30.2254 12.6582C26.9753 12.0456 23.6138 12.5327 20.6711 14.0424C17.7284 15.552 15.3721 17.9983 13.9739 20.9956L10.6153 17.6374C10.5388 17.5593 10.4475 17.4974 10.3467 17.455C10.2459 17.4127 10.1376 17.3908 10.0282 17.3908C9.91885 17.3908 9.81052 17.4127 9.7097 17.455C9.60889 17.4974 9.51761 17.5593 9.44108 17.6374L1.69085 25.3641V2.39551C1.68438 2.1876 1.75949 1.9854 1.89984 1.83189C2.0402 1.67837 2.23488 1.58543 2.44254 1.5733Z" fill="#BD0324"/>
<path d="M35.7215 19.2342C34.0887 17.5685 31.9967 16.4267 29.7126 15.9546C27.4284 15.4824 25.0554 15.7012 22.8961 16.583C20.7367 17.4648 18.8888 18.97 17.5881 20.9062C16.2874 22.8423 15.5928 25.1216 15.5928 27.4541C15.5928 29.7865 16.2874 32.0664 17.5881 34.0025C18.8888 35.9386 20.7367 37.4433 22.8961 38.3251C25.0554 39.2069 27.4284 39.4257 29.7126 38.9535C31.9967 38.4814 34.0887 37.3396 35.7215 35.6739C37.9014 33.4938 39.1259 30.537 39.1259 27.4541C39.1259 24.3711 37.9014 21.4143 35.7215 19.2342ZM34.5472 34.5466C33.1527 35.946 31.3742 36.9 29.4371 37.2879C27.5 37.6758 25.4914 37.4804 23.6655 36.726C21.8397 35.9716 20.2786 34.6923 19.1803 33.0501C18.0821 31.408 17.4958 29.4766 17.4958 27.5011C17.4958 25.5255 18.0821 23.5942 19.1803 21.952C20.2786 20.3099 21.8397 19.0306 23.6655 18.2761C25.4914 17.5217 27.5 17.3263 29.4371 17.7142C31.3742 18.1022 33.1527 19.0562 34.5472 20.4555C36.4116 22.3263 37.4582 24.8599 37.4582 27.5011C37.4582 30.1423 36.4116 32.6758 34.5472 34.5466Z" fill="#BD0324"/>
<path fill-rule="evenodd" clip-rule="evenodd" d="M27.4781 19.1404C26.3928 19.1248 25.3151 19.3244 24.3073 19.7275C23.2996 20.1306 22.3819 20.7292 21.6068 21.4889C21.5001 21.594 21.4223 21.725 21.3812 21.869C21.34 22.013 21.3367 22.1655 21.3717 22.3111C21.4075 22.456 21.4824 22.5884 21.5878 22.6941C21.6933 22.7998 21.8254 22.8752 21.9703 22.9114C22.1152 22.9476 22.2673 22.9436 22.4101 22.8999C22.5529 22.8563 22.6812 22.7742 22.781 22.6631C24.0264 21.4164 25.7159 20.7156 27.4781 20.7143C27.5993 20.7347 27.7233 20.7284 27.8419 20.6959C27.9604 20.6634 28.0705 20.6056 28.1644 20.5262C28.2582 20.4468 28.3337 20.3476 28.3854 20.2361C28.4372 20.1246 28.464 20.0035 28.464 19.8806C28.464 19.7577 28.4372 19.636 28.3854 19.5245C28.3337 19.413 28.2582 19.3143 28.1644 19.235C28.0705 19.1556 27.9604 19.0977 27.8419 19.0652C27.7233 19.0327 27.5993 19.0265 27.4781 19.0469V19.1404Z" fill="#BD0324"/>
<path d="M9.15952 14.1616C10.1499 14.1662 11.1192 13.8765 11.9449 13.3296C12.7707 12.7828 13.4156 12.0037 13.7978 11.09C14.18 10.1764 14.2826 9.16988 14.0922 8.19797C13.9019 7.22607 13.4271 6.33237 12.7285 5.63043C12.0298 4.92848 11.1385 4.44984 10.1675 4.25491C9.1965 4.05998 8.18971 4.15737 7.27428 4.53529C6.35885 4.91321 5.57595 5.55439 5.02524 6.37753C4.47453 7.20066 4.18067 8.16857 4.18066 9.15894C4.18065 10.4816 4.70455 11.7506 5.6376 12.688C6.57064 13.6255 7.83688 14.1554 9.15952 14.1616ZM9.15952 5.82422C9.82008 5.81957 10.4672 6.01105 11.0187 6.37466C11.5702 6.73826 12.0011 7.25762 12.2571 7.86657C12.5132 8.47551 12.5827 9.14693 12.4567 9.79538C12.3307 10.4438 12.0148 11.0399 11.5493 11.5086C11.0839 11.9774 10.4899 12.2977 9.8424 12.4283C9.19486 12.5589 8.52289 12.4942 7.91215 12.2425C7.30141 11.9908 6.77942 11.5633 6.41193 11.0144C6.04444 10.4654 5.84804 9.81952 5.84802 9.15894C5.84802 8.2807 6.19687 7.43888 6.81788 6.81787C7.43889 6.19686 8.28127 5.84773 9.15952 5.84773V5.82422Z" fill="#BD0324"/>
</g>
<defs>
<clipPath id="clip0_2802_930">
<rect width="50" height="50" fill="white"/>
</clipPath>
</defs>
</svg>
