<svg width="28" height="28" viewBox="0 0 28 28" fill="none" xmlns="http://www.w3.org/2000/svg">
<path d="M2.73682 15.2769C2.73682 15.0277 2.9419 14.8256 3.19487 14.8256H18.9417C19.1947 14.8256 19.3997 15.0277 19.3997 15.2769C19.3997 15.5261 19.1947 15.7282 18.9417 15.7282H3.19487C2.9419 15.7282 2.73682 15.5261 2.73682 15.2769ZM28 21.7721C28 25.2061 25.1642 28 21.6785 28C21.5441 28 21.4109 27.9954 21.2786 27.9872C21.2265 27.9954 21.1749 28 21.1247 28H1.0135C0.454666 28 0 27.552 0 27.0015V0.998559C0 0.447937 0.454724 0 1.0135 0H18.011C18.2849 0 18.5322 0.101047 18.7262 0.292246L21.8399 3.35978C22.0339 3.55098 22.1365 3.79462 22.1365 4.06452V15.5606C25.4092 15.7926 28 18.4897 28 21.7721ZM18.698 1.54066V3.38756H20.5727L18.698 1.54066ZM18.4037 27.0975C17.6228 26.6296 16.9524 25.9998 16.4409 25.2557H3.19487C2.9419 25.2557 2.73682 25.0537 2.73682 24.8044C2.73682 24.5552 2.9419 24.3532 3.19487 24.3532H15.926C15.7101 23.888 15.5505 23.3924 15.4562 22.8747H3.19487C2.9419 22.8747 2.73682 22.6726 2.73682 22.4234C2.73682 22.1742 2.9419 21.9721 3.19487 21.9721H15.3606C15.3584 21.9057 15.357 21.8391 15.357 21.7721C15.357 21.3334 15.4035 20.9053 15.4915 20.492H3.19487C2.9419 20.492 2.73682 20.2899 2.73682 20.0407C2.73682 19.7915 2.9419 19.5895 3.19487 19.5895H15.758C15.9604 19.0585 16.2343 18.5619 16.5681 18.1109H3.19487C2.9419 18.1109 2.73682 17.9089 2.73682 17.6597C2.73682 17.4104 2.9419 17.2084 3.19487 17.2084H17.382C18.4057 16.2723 19.7435 15.6654 21.2205 15.5607V4.29009H18.5178C18.1121 4.29009 17.782 3.96488 17.782 3.56515V0.902479H1.0135C0.960673 0.902479 0.916094 0.946398 0.916094 0.998502V27.0014C0.916094 27.0535 0.960673 27.0974 1.0135 27.0974L18.4037 27.0975ZM27.0839 21.7721C27.0839 18.8356 24.6591 16.4467 21.6785 16.4467C18.6979 16.4467 16.2731 18.8356 16.2731 21.7721C16.2731 24.7085 18.6979 27.0975 21.6785 27.0975C24.6591 27.0975 27.0839 24.7085 27.0839 21.7721ZM25.3181 20.9671C24.8723 21.41 24.4287 21.8531 23.985 22.2963C23.2869 22.9936 22.5651 23.7146 21.8497 24.4194C21.5908 24.6744 21.2509 24.8018 20.911 24.8018C20.571 24.8018 20.2311 24.6743 19.9723 24.4194L18.0445 22.5217C17.7937 22.2746 17.6556 21.9462 17.6556 21.5968C17.6556 21.2475 17.7937 20.919 18.0444 20.6721C18.295 20.4251 18.6284 20.289 18.983 20.289C19.3376 20.289 19.671 20.4251 19.9217 20.6721L20.9066 21.6413L23.4335 19.1263C23.684 18.8782 24.0168 18.7416 24.3711 18.7407C24.7247 18.7383 25.0591 18.8747 25.31 19.1207C25.8274 19.6256 25.8313 20.4542 25.3181 20.9671ZM24.6647 19.7612C24.5868 19.6848 24.4842 19.6432 24.3749 19.6432C24.3745 19.6432 24.3741 19.6432 24.3737 19.6432C24.2638 19.6435 24.1609 19.6858 24.0837 19.7621L21.2341 22.5983C21.1484 22.6837 21.0317 22.7318 20.9098 22.7322C20.9094 22.7322 20.909 22.7322 20.9086 22.7322C20.7872 22.7322 20.6708 22.6847 20.5849 22.6002L19.2742 21.3104C19.1964 21.2337 19.093 21.1915 18.9831 21.1915C18.8732 21.1915 18.7699 21.2337 18.6923 21.3102C18.6146 21.3867 18.5718 21.4886 18.5718 21.5968C18.5718 21.7051 18.6146 21.8069 18.6923 21.8833L20.6201 23.7811C20.7806 23.9392 21.0416 23.9392 21.202 23.7812C21.9151 23.0786 22.6359 22.3587 23.3328 21.6625C23.7771 21.2188 24.2213 20.7751 24.6667 20.3325C24.8252 20.1741 24.8247 19.9174 24.6647 19.7612ZM3.52663 6.51911C3.23022 5.94213 3.35284 5.25721 3.83198 4.81514C3.91288 4.7404 3.98554 4.67407 4.05068 4.61457C4.2985 4.38826 4.4229 4.27468 4.48031 4.17668C4.53778 4.07846 4.57812 3.90442 4.65123 3.58847C4.67077 3.50424 4.69249 3.41048 4.71741 3.30542C4.86507 2.67741 5.40529 2.22992 6.06136 2.19289C6.17252 2.1869 6.27061 2.18211 6.35874 2.17782C6.6866 2.1619 6.86721 2.15315 6.97516 2.11448C7.08305 2.07581 7.21834 1.97476 7.48793 1.77335C7.55823 1.7209 7.63645 1.66248 7.72469 1.59739C8.25006 1.20912 8.9565 1.20889 9.48233 1.59739C9.57051 1.66242 9.64867 1.7209 9.71892 1.77335C9.98851 1.97471 10.1238 2.07581 10.2317 2.11448C10.3397 2.1532 10.5203 2.1619 10.8482 2.17782C10.9363 2.18205 11.0344 2.18685 11.1446 2.19283C11.8018 2.22992 12.3419 2.67746 12.4898 3.30655C12.5145 3.41048 12.5362 3.50424 12.5557 3.58847C12.6288 3.90442 12.6692 4.07846 12.7266 4.17668C12.7841 4.27463 12.9085 4.38826 13.1563 4.61457C13.2215 4.67407 13.2941 4.7404 13.3753 4.81537C13.8538 5.2589 13.976 5.94359 13.68 6.51962C13.6304 6.61626 13.5857 6.70207 13.5454 6.77923C13.3954 7.06719 13.3128 7.22576 13.2928 7.33725C13.2727 7.4484 13.2938 7.61392 13.3356 7.94376C13.3466 8.03081 13.3589 8.1279 13.3722 8.23713C13.4484 8.86763 13.1085 9.45907 12.525 9.721L13.5249 12.0101C13.5923 12.1645 13.567 12.3431 13.4593 12.4735C13.3515 12.6039 13.1793 12.6646 13.0119 12.6305L11.6876 12.3626L10.9741 13.4954C10.8902 13.6286 10.7426 13.7087 10.585 13.7087C10.5737 13.7087 10.5624 13.7082 10.551 13.7074C10.3808 13.695 10.2318 13.5904 10.1643 13.436L9.2654 11.3807C9.24477 11.3744 9.2246 11.3683 9.20506 11.3624C8.88115 11.2641 8.71859 11.2148 8.60342 11.2148C8.52504 11.2148 8.42459 11.2377 8.26645 11.2833L7.00467 13.955C6.93264 14.1075 6.78057 14.2079 6.61 14.2154C6.60312 14.2158 6.59619 14.216 6.58931 14.216C6.42658 14.216 6.27537 14.1307 6.1932 13.9912L5.51404 12.8379L4.18196 13.0683C4.0139 13.0973 3.84321 13.0318 3.73938 12.8985C3.6355 12.7651 3.6155 12.5858 3.68752 12.4333L4.92088 9.82318C4.85682 9.79659 4.78749 9.76774 4.71209 9.73602C4.10959 9.48193 3.75709 8.8796 3.83473 8.23719C3.84768 8.1301 3.85977 8.0347 3.87059 7.94901C3.91128 7.62763 3.93374 7.45055 3.9138 7.33878C3.89392 7.22734 3.81679 7.07888 3.663 6.78302C3.62238 6.70483 3.57705 6.61762 3.52663 6.51911ZM7.15204 11.5038C6.71921 11.4638 6.31915 11.2344 6.06812 10.8561C6.00824 10.7658 5.95536 10.6851 5.90786 10.6126C5.82294 10.483 5.75767 10.3835 5.70318 10.3063L4.8888 12.0298L5.6707 11.8945C5.85984 11.862 6.04967 11.9489 6.14605 12.1125L6.54485 12.7897L7.15204 11.5038ZM12.3366 11.5726L11.6917 10.0963C11.682 10.1032 11.6727 10.1101 11.6643 10.1171C11.5761 10.1901 11.4779 10.34 11.2996 10.6122C11.252 10.6848 11.199 10.7657 11.1391 10.856C10.9358 11.1622 10.6349 11.371 10.298 11.4608L10.6586 12.2851L11.0779 11.6193C11.1791 11.4587 11.371 11.3772 11.5592 11.4153L12.3366 11.5726ZM4.34417 6.1121C4.39391 6.20931 4.43848 6.29489 4.47836 6.37172C4.86937 7.12392 4.88627 7.2187 4.77964 8.06078C4.76893 8.14501 4.75707 8.23866 4.7444 8.34388C4.71478 8.58905 4.84353 8.80977 5.07244 8.9063C5.17174 8.94813 5.26061 8.98499 5.34048 9.01802C6.13464 9.34713 6.20965 9.40911 6.67749 10.1233C6.72419 10.1945 6.77616 10.2738 6.83489 10.3623C6.97149 10.5682 7.21461 10.6551 7.45435 10.5837C7.55789 10.5529 7.64974 10.525 7.73231 10.5C8.55489 10.2504 8.65264 10.2505 9.47494 10.5C9.55745 10.525 9.64936 10.553 9.75272 10.5836C9.99235 10.6551 10.2357 10.5682 10.3724 10.3623C10.4311 10.2736 10.4832 10.1942 10.5299 10.1228C10.9975 9.40905 11.0724 9.34713 11.8655 9.01802C11.9451 8.98494 12.0338 8.94819 12.1331 8.9063C12.363 8.80938 12.4924 8.58865 12.4628 8.34394C12.4498 8.23663 12.4377 8.14128 12.4269 8.05581C12.3204 7.21679 12.3374 7.12212 12.7308 6.3672C12.7703 6.29144 12.8142 6.20711 12.863 6.11216C12.9756 5.89296 12.9306 5.6422 12.7483 5.47325C12.6691 5.40014 12.5978 5.33505 12.5338 5.27663C11.9035 4.70105 11.8546 4.61768 11.6628 3.78937C11.6436 3.70656 11.6223 3.61449 11.5978 3.5113C11.5415 3.27155 11.3435 3.10813 11.0934 3.09401C10.9863 3.0882 10.8899 3.08351 10.8034 3.07934C9.94307 3.03767 9.85128 3.00476 9.1657 2.49259C9.09671 2.44105 9.01993 2.38369 8.93329 2.31973C8.93324 2.31968 8.93318 2.31962 8.93306 2.31956C8.83302 2.24561 8.71836 2.20869 8.60371 2.20869C8.48905 2.20869 8.3744 2.24561 8.27436 2.31956C8.18743 2.38369 8.11065 2.44105 8.04166 2.49259C7.35608 3.00465 7.26429 3.03756 6.40401 3.07928C6.31743 3.08346 6.22111 3.08814 6.11293 3.09401C5.86379 3.10807 5.66594 3.27149 5.60979 3.51017C5.58503 3.61443 5.56372 3.7065 5.54452 3.78926C5.35269 4.61756 5.30387 4.70089 4.67352 5.27651C4.60952 5.33494 4.53824 5.40003 4.45854 5.4737C4.27604 5.64192 4.23135 5.89239 4.34417 6.1121ZM5.32581 6.40869C5.32581 4.62812 6.79622 3.17954 8.60354 3.17954C10.4109 3.17954 11.8812 4.62812 11.8812 6.40869C11.8812 8.18926 10.4109 9.63785 8.60354 9.63785C6.79622 9.63785 5.32581 8.18926 5.32581 6.40869ZM6.24196 6.40869C6.24196 7.69165 7.30136 8.73531 8.6036 8.73531C9.90583 8.73531 10.9652 7.69165 10.9652 6.40869C10.9652 5.12573 9.90577 4.08213 8.60354 4.08213C7.30131 4.08213 6.24196 5.12579 6.24196 6.40869ZM8.03507 7.72405C8.14509 7.72405 8.25533 7.68522 8.34283 7.60697L10.2756 5.87884C10.463 5.7113 10.477 5.426 10.307 5.2414C10.1369 5.05675 9.84732 5.04309 9.66001 5.21047L8.05032 6.64974L7.56299 6.16962C7.38416 5.99344 7.09406 5.99344 6.91523 6.16962C6.73634 6.34586 6.73634 6.63156 6.91523 6.8078L7.71111 7.5919C7.80038 7.67974 7.91767 7.72405 8.03507 7.72405Z" fill="white"/>
</svg>
