<svg width="55" height="55" viewBox="0 0 55 55" fill="none" xmlns="http://www.w3.org/2000/svg">
<circle cx="27.5" cy="27.5" r="27.5" fill="#D9D9D9"/>
<path d="M15.7368 29.2769C15.7368 29.0277 15.9419 28.8256 16.1949 28.8256H31.9417C32.1947 28.8256 32.3997 29.0277 32.3997 29.2769C32.3997 29.5261 32.1947 29.7282 31.9417 29.7282H16.1949C15.9419 29.7282 15.7368 29.5261 15.7368 29.2769ZM41 35.7721C41 39.2061 38.1642 42 34.6785 42C34.5441 42 34.4109 41.9954 34.2786 41.9872C34.2265 41.9954 34.1749 42 34.1247 42H14.0135C13.4547 42 13 41.552 13 41.0015V14.9986C13 14.4479 13.4547 14 14.0135 14H31.011C31.2849 14 31.5322 14.101 31.7262 14.2922L34.8399 17.3598C35.0339 17.551 35.1365 17.7946 35.1365 18.0645V29.5606C38.4092 29.7926 41 32.4897 41 35.7721ZM31.698 15.5407V17.3876H33.5727L31.698 15.5407ZM31.4037 41.0975C30.6228 40.6296 29.9524 39.9998 29.4409 39.2557H16.1949C15.9419 39.2557 15.7368 39.0537 15.7368 38.8044C15.7368 38.5552 15.9419 38.3532 16.1949 38.3532H28.926C28.7101 37.888 28.5505 37.3924 28.4562 36.8747H16.1949C15.9419 36.8747 15.7368 36.6726 15.7368 36.4234C15.7368 36.1742 15.9419 35.9721 16.1949 35.9721H28.3606C28.3584 35.9057 28.357 35.8391 28.357 35.7721C28.357 35.3334 28.4035 34.9053 28.4915 34.492H16.1949C15.9419 34.492 15.7368 34.2899 15.7368 34.0407C15.7368 33.7915 15.9419 33.5895 16.1949 33.5895H28.758C28.9604 33.0585 29.2343 32.5619 29.5681 32.1109H16.1949C15.9419 32.1109 15.7368 31.9089 15.7368 31.6597C15.7368 31.4104 15.9419 31.2084 16.1949 31.2084H30.382C31.4057 30.2723 32.7435 29.6654 34.2205 29.5607V18.2901H31.5178C31.1121 18.2901 30.782 17.9649 30.782 17.5652V14.9025H14.0135C13.9607 14.9025 13.9161 14.9464 13.9161 14.9985V41.0014C13.9161 41.0535 13.9607 41.0974 14.0135 41.0974L31.4037 41.0975ZM40.0839 35.7721C40.0839 32.8356 37.6591 30.4467 34.6785 30.4467C31.6979 30.4467 29.2731 32.8356 29.2731 35.7721C29.2731 38.7085 31.6979 41.0975 34.6785 41.0975C37.6591 41.0975 40.0839 38.7085 40.0839 35.7721ZM38.3181 34.9671C37.8723 35.41 37.4287 35.8531 36.985 36.2963C36.2869 36.9936 35.5651 37.7146 34.8497 38.4194C34.5908 38.6744 34.2509 38.8018 33.911 38.8018C33.571 38.8018 33.2311 38.6743 32.9723 38.4194L31.0445 36.5217C30.7937 36.2746 30.6556 35.9462 30.6556 35.5968C30.6556 35.2475 30.7937 34.919 31.0444 34.6721C31.295 34.4251 31.6284 34.289 31.983 34.289C32.3376 34.289 32.671 34.4251 32.9217 34.6721L33.9066 35.6413L36.4335 33.1263C36.684 32.8782 37.0168 32.7416 37.3711 32.7407C37.7247 32.7383 38.0591 32.8747 38.31 33.1207C38.8274 33.6256 38.8313 34.4542 38.3181 34.9671ZM37.6647 33.7612C37.5868 33.6848 37.4842 33.6432 37.3749 33.6432C37.3745 33.6432 37.3741 33.6432 37.3737 33.6432C37.2638 33.6435 37.1609 33.6858 37.0837 33.7621L34.2341 36.5983C34.1484 36.6837 34.0317 36.7318 33.9098 36.7322C33.9094 36.7322 33.909 36.7322 33.9086 36.7322C33.7872 36.7322 33.6708 36.6847 33.5849 36.6002L32.2742 35.3104C32.1964 35.2337 32.093 35.1915 31.9831 35.1915C31.8732 35.1915 31.7699 35.2337 31.6923 35.3102C31.6146 35.3867 31.5718 35.4886 31.5718 35.5968C31.5718 35.7051 31.6146 35.8069 31.6923 35.8833L33.6201 37.7811C33.7806 37.9392 34.0416 37.9392 34.202 37.7812C34.9151 37.0786 35.6359 36.3587 36.3328 35.6625C36.7771 35.2188 37.2213 34.7751 37.6667 34.3325C37.8252 34.1741 37.8247 33.9174 37.6647 33.7612ZM16.5266 20.5191C16.2302 19.9421 16.3528 19.2572 16.832 18.8151C16.9129 18.7404 16.9855 18.6741 17.0507 18.6146C17.2985 18.3883 17.4229 18.2747 17.4803 18.1767C17.5378 18.0785 17.5781 17.9044 17.6512 17.5885C17.6708 17.5042 17.6925 17.4105 17.7174 17.3054C17.8651 16.6774 18.4053 16.2299 19.0614 16.1929C19.1725 16.1869 19.2706 16.1821 19.3587 16.1778C19.6866 16.1619 19.8672 16.1531 19.9752 16.1145C20.0831 16.0758 20.2183 15.9748 20.4879 15.7733C20.5582 15.7209 20.6364 15.6625 20.7247 15.5974C21.2501 15.2091 21.9565 15.2089 22.4823 15.5974C22.5705 15.6624 22.6487 15.7209 22.7189 15.7733C22.9885 15.9747 23.1238 16.0758 23.2317 16.1145C23.3397 16.1532 23.5203 16.1619 23.8482 16.1778C23.9363 16.182 24.0344 16.1868 24.1446 16.1928C24.8018 16.2299 25.3419 16.6775 25.4898 17.3066C25.5145 17.4105 25.5362 17.5042 25.5557 17.5885C25.6288 17.9044 25.6692 18.0785 25.7266 18.1767C25.7841 18.2746 25.9085 18.3883 26.1563 18.6146C26.2215 18.6741 26.2941 18.7404 26.3753 18.8154C26.8538 19.2589 26.976 19.9436 26.68 20.5196C26.6304 20.6163 26.5857 20.7021 26.5454 20.7792C26.3954 21.0672 26.3128 21.2258 26.2928 21.3373C26.2727 21.4484 26.2938 21.6139 26.3356 21.9438C26.3466 22.0308 26.3589 22.1279 26.3722 22.2371C26.4484 22.8676 26.1085 23.4591 25.525 23.721L26.5249 26.0101C26.5923 26.1645 26.567 26.3431 26.4593 26.4735C26.3515 26.6039 26.1793 26.6646 26.0119 26.6305L24.6876 26.3626L23.9741 27.4954C23.8902 27.6286 23.7426 27.7087 23.585 27.7087C23.5737 27.7087 23.5624 27.7082 23.551 27.7074C23.3808 27.695 23.2318 27.5904 23.1643 27.436L22.2654 25.3807C22.2448 25.3744 22.2246 25.3683 22.2051 25.3624C21.8811 25.2641 21.7186 25.2148 21.6034 25.2148C21.525 25.2148 21.4246 25.2377 21.2664 25.2833L20.0047 27.955C19.9326 28.1075 19.7806 28.2079 19.61 28.2154C19.6031 28.2158 19.5962 28.216 19.5893 28.216C19.4266 28.216 19.2754 28.1307 19.1932 27.9912L18.514 26.8379L17.182 27.0683C17.0139 27.0973 16.8432 27.0318 16.7394 26.8985C16.6355 26.7651 16.6155 26.5858 16.6875 26.4333L17.9209 23.8232C17.8568 23.7966 17.7875 23.7677 17.7121 23.736C17.1096 23.4819 16.7571 22.8796 16.8347 22.2372C16.8477 22.1301 16.8598 22.0347 16.8706 21.949C16.9113 21.6276 16.9337 21.4505 16.9138 21.3388C16.8939 21.2273 16.8168 21.0789 16.663 20.783C16.6224 20.7048 16.5771 20.6176 16.5266 20.5191ZM20.152 25.5038C19.7192 25.4638 19.3191 25.2344 19.0681 24.8561C19.0082 24.7658 18.9554 24.6851 18.9079 24.6126C18.8229 24.483 18.7577 24.3835 18.7032 24.3063L17.8888 26.0298L18.6707 25.8945C18.8598 25.862 19.0497 25.9489 19.146 26.1125L19.5448 26.7897L20.152 25.5038ZM25.3366 25.5726L24.6917 24.0963C24.682 24.1032 24.6727 24.1101 24.6643 24.1171C24.5761 24.1901 24.4779 24.34 24.2996 24.6122C24.252 24.6848 24.199 24.7657 24.1391 24.856C23.9358 25.1622 23.6349 25.371 23.298 25.4608L23.6586 26.2851L24.0779 25.6193C24.1791 25.4587 24.371 25.3772 24.5592 25.4153L25.3366 25.5726ZM17.3442 20.1121C17.3939 20.2093 17.4385 20.2949 17.4784 20.3717C17.8694 21.1239 17.8863 21.2187 17.7796 22.0608C17.7689 22.145 17.7571 22.2387 17.7444 22.3439C17.7148 22.589 17.8435 22.8098 18.0724 22.9063C18.1717 22.9481 18.2606 22.985 18.3405 23.018C19.1346 23.3471 19.2096 23.4091 19.6775 24.1233C19.7242 24.1945 19.7762 24.2738 19.8349 24.3623C19.9715 24.5682 20.2146 24.6551 20.4544 24.5837C20.5579 24.5529 20.6497 24.525 20.7323 24.5C21.5549 24.2504 21.6526 24.2505 22.4749 24.5C22.5574 24.525 22.6494 24.553 22.7527 24.5836C22.9923 24.6551 23.2357 24.5682 23.3724 24.3623C23.4311 24.2736 23.4832 24.1942 23.5299 24.1228C23.9975 23.4091 24.0724 23.3471 24.8655 23.018C24.9451 22.9849 25.0338 22.9482 25.1331 22.9063C25.363 22.8094 25.4924 22.5887 25.4628 22.3439C25.4498 22.2366 25.4377 22.1413 25.4269 22.0558C25.3204 21.2168 25.3374 21.1221 25.7308 20.3672C25.7703 20.2914 25.8142 20.2071 25.863 20.1122C25.9756 19.893 25.9306 19.6422 25.7483 19.4732C25.6691 19.4001 25.5978 19.3351 25.5338 19.2766C24.9035 18.7011 24.8546 18.6177 24.6628 17.7894C24.6436 17.7066 24.6223 17.6145 24.5978 17.5113C24.5415 17.2716 24.3435 17.1081 24.0934 17.094C23.9863 17.0882 23.8899 17.0835 23.8034 17.0793C22.9431 17.0377 22.8513 17.0048 22.1657 16.4926C22.0967 16.441 22.0199 16.3837 21.9333 16.3197C21.9332 16.3197 21.9332 16.3196 21.9331 16.3196C21.833 16.2456 21.7184 16.2087 21.6037 16.2087C21.4891 16.2087 21.3744 16.2456 21.2744 16.3196C21.1874 16.3837 21.1107 16.441 21.0417 16.4926C20.3561 17.0047 20.2643 17.0376 19.404 17.0793C19.3174 17.0835 19.2211 17.0881 19.1129 17.094C18.8638 17.1081 18.6659 17.2715 18.6098 17.5102C18.585 17.6144 18.5637 17.7065 18.5445 17.7893C18.3527 18.6176 18.3039 18.7009 17.6735 19.2765C17.6095 19.3349 17.5382 19.4 17.4585 19.4737C17.276 19.6419 17.2313 19.8924 17.3442 20.1121ZM18.3258 20.4087C18.3258 18.6281 19.7962 17.1795 21.6035 17.1795C23.4109 17.1795 24.8812 18.6281 24.8812 20.4087C24.8812 22.1893 23.4109 23.6378 21.6035 23.6378C19.7962 23.6378 18.3258 22.1893 18.3258 20.4087ZM19.242 20.4087C19.242 21.6916 20.3014 22.7353 21.6036 22.7353C22.9058 22.7353 23.9652 21.6916 23.9652 20.4087C23.9652 19.1257 22.9058 18.0821 21.6035 18.0821C20.3013 18.0821 19.242 19.1258 19.242 20.4087ZM21.0351 21.7241C21.1451 21.7241 21.2553 21.6852 21.3428 21.607L23.2756 19.8788C23.463 19.7113 23.477 19.426 23.307 19.2414C23.1369 19.0568 22.8473 19.0431 22.66 19.2105L21.0503 20.6497L20.563 20.1696C20.3842 19.9934 20.0941 19.9934 19.9152 20.1696C19.7363 20.3459 19.7363 20.6316 19.9152 20.8078L20.7111 21.5919C20.8004 21.6797 20.9177 21.7241 21.0351 21.7241Z" fill="white"/>
</svg>
