<svg width="55" height="55" viewBox="0 0 55 55" fill="none" xmlns="http://www.w3.org/2000/svg">
<circle cx="27.5" cy="27.5" r="27.5" fill="#D9D9D9"/>
<path d="M32.2667 30.8C32.2667 30.5056 32.0278 30.2667 31.7334 30.2667C31.439 30.2667 31.2001 30.5056 31.2001 30.8V31.8667C31.2001 32.161 31.439 32.4 31.7334 32.4C32.0278 32.4 32.2667 32.161 32.2667 31.8667V30.8Z" fill="white"/>
<path d="M31.7333 36.6667C31.4389 36.6667 31.2 36.9056 31.2 37.2V39.3333C31.2 39.6277 31.4389 39.8666 31.7333 39.8666C32.0276 39.8666 32.2666 39.6277 32.2666 39.3333V37.2C32.2666 36.9056 32.0277 36.6667 31.7333 36.6667Z" fill="white"/>
<path d="M34.4 24.4C34.4 24.1056 34.1611 23.8667 33.8667 23.8667C33.5723 23.8667 33.3334 24.1056 33.3334 24.4V25.4667C33.3334 25.7611 33.5723 26 33.8667 26C34.1611 26 34.4 25.7611 34.4 25.4667V24.4Z" fill="white"/>
<path d="M32.2667 27.6C32.2667 27.3057 32.0278 27.0667 31.7334 27.0667C31.439 27.0667 31.2001 27.3057 31.2001 27.6V28.6667C31.2001 28.9611 31.439 29.2 31.7334 29.2C32.0278 29.2 32.2667 28.9611 32.2667 28.6667V27.6Z" fill="white"/>
<path d="M32.2666 34C32.2666 33.7056 32.0277 33.4667 31.7333 33.4667C31.439 33.4667 31.2 33.7056 31.2 34V35.0667C31.2 35.361 31.4389 35.6 31.7333 35.6C32.0276 35.6 32.2666 35.361 32.2666 35.0667V34H32.2666Z" fill="white"/>
<path d="M34.4 27.6C34.4 27.3057 34.1611 27.0667 33.8667 27.0667C33.5723 27.0667 33.3334 27.3057 33.3334 27.6V28.6667C33.3334 28.9611 33.5723 29.2 33.8667 29.2C34.1611 29.2 34.4 28.9611 34.4 28.6667V27.6Z" fill="white"/>
<path d="M30.1333 24.4C30.1333 24.1056 29.8943 23.8667 29.6 23.8667C29.3056 23.8667 29.0667 24.1056 29.0667 24.4V25.4667C29.0667 25.7611 29.3056 26 29.6 26C29.8943 26 30.1333 25.7611 30.1333 25.4667V24.4Z" fill="white"/>
<path d="M32.2667 24.4C32.2667 24.1056 32.0278 23.8667 31.7334 23.8667C31.439 23.8667 31.2001 24.1056 31.2001 24.4V25.4667C31.2001 25.7611 31.439 26 31.7334 26C32.0278 26 32.2667 25.7611 32.2667 25.4667V24.4Z" fill="white"/>
<path d="M34.4 19.0667V18C34.4 17.7056 34.1611 17.4667 33.8667 17.4667C33.5723 17.4667 33.3334 17.7056 33.3334 18V19.0667C33.3334 19.361 33.5723 19.6 33.8667 19.6C34.1611 19.6 34.4 19.361 34.4 19.0667Z" fill="white"/>
<path d="M30.1333 27.6C30.1333 27.3057 29.8943 27.0667 29.6 27.0667C29.3056 27.0667 29.0667 27.3057 29.0667 27.6V28.6667C29.0667 28.9611 29.3056 29.2 29.6 29.2C29.8943 29.2 30.1333 28.9611 30.1333 28.6667V27.6Z" fill="white"/>
<path d="M36.5333 18C36.5333 17.7056 36.2944 17.4667 36 17.4667C35.7056 17.4667 35.4667 17.7056 35.4667 18V19.0667C35.4667 19.361 35.7056 19.6 36 19.6C36.2944 19.6 36.5333 19.361 36.5333 19.0667V18Z" fill="white"/>
<path d="M29.6 30.2667C29.3056 30.2667 29.0667 30.5056 29.0667 30.8V31.8667C29.0667 32.161 29.3056 32.4 29.6 32.4C29.8943 32.4 30.1333 32.161 30.1333 31.8667V30.8C30.1333 30.5056 29.8943 30.2667 29.6 30.2667Z" fill="white"/>
<path d="M38.6667 34C38.6667 33.7056 38.4277 33.4667 38.1334 33.4667C37.839 33.4667 37.6 33.7056 37.6 34V35.0667C37.6 35.361 37.8389 35.6 38.1333 35.6C38.4277 35.6 38.6666 35.361 38.6666 35.0667V34H38.6667Z" fill="white"/>
<path d="M38.1333 36.6667C37.8389 36.6667 37.6 36.9056 37.6 37.2V39.3333C37.6 39.6277 37.8389 39.8666 38.1333 39.8666C38.4277 39.8666 38.6666 39.6277 38.6666 39.3333V37.2C38.6667 36.9056 38.4277 36.6667 38.1333 36.6667Z" fill="white"/>
<path d="M40.2667 30.2667C39.9723 30.2667 39.7334 30.5056 39.7334 30.8V31.8667C39.7334 32.161 39.9723 32.4 40.2667 32.4C40.5611 32.4 40.8 32.161 40.8 31.8667V30.8C40.8 30.5056 40.5611 30.2667 40.2667 30.2667Z" fill="white"/>
<path d="M31.7333 19.6C32.0276 19.6 32.2666 19.3611 32.2666 19.0667V16.8166L37.6 15.4832V24.4C37.6 24.6224 37.7381 24.8213 37.9461 24.8998L41.8666 26.3696V31.8667C41.8666 32.1611 42.1056 32.4 42.4 32.4C42.6943 32.4 42.9333 32.1611 42.9333 31.8667V26C42.9333 25.7776 42.7951 25.5787 42.5871 25.5003L38.6666 24.0304V13.7333C38.6666 13.4389 38.4276 13.2 38.1333 13.2C37.8389 13.2 37.6 13.4389 37.6 13.7333V14.3834L31.6037 15.8826C31.3664 15.9418 31.2 16.1552 31.2 16.3999V19.0666C31.2 19.3611 31.4389 19.6 31.7333 19.6Z" fill="white"/>
<path d="M40.8 27.6C40.8 27.3057 40.5611 27.0667 40.2667 27.0667C39.9723 27.0667 39.7334 27.3057 39.7334 27.6V28.6667C39.7334 28.9611 39.9723 29.2 40.2667 29.2C40.5611 29.2 40.8 28.9611 40.8 28.6667V27.6Z" fill="white"/>
<path d="M38.6667 27.6C38.6667 27.3057 38.4278 27.0667 38.1334 27.0667C37.839 27.0667 37.6001 27.3057 37.6001 27.6V28.6667C37.6001 28.9611 37.839 29.2 38.1334 29.2C38.4278 29.2 38.6667 28.9611 38.6667 28.6667V27.6Z" fill="white"/>
<path d="M34.4 34C34.4 33.7056 34.1611 33.4667 33.8667 33.4667C33.5723 33.4667 33.3334 33.7056 33.3334 34V35.0667C33.3334 35.361 33.5723 35.6 33.8667 35.6C34.1611 35.6 34.4 35.361 34.4 35.0667V34Z" fill="white"/>
<path d="M38.6667 30.8C38.6667 30.5056 38.4278 30.2667 38.1334 30.2667C37.839 30.2667 37.6001 30.5056 37.6001 30.8V31.8667C37.6001 32.161 37.839 32.4 38.1334 32.4C38.4278 32.4 38.6667 32.161 38.6667 31.8667V30.8Z" fill="white"/>
<path d="M33.8667 36.6667C33.5723 36.6667 33.3334 36.9056 33.3334 37.2V39.3333C33.3334 39.6277 33.5723 39.8666 33.8667 39.8666C34.1611 39.8666 34.4 39.6277 34.4 39.3333V37.2C34.4 36.9056 34.1611 36.6667 33.8667 36.6667Z" fill="white"/>
<path d="M34.4 30.8C34.4 30.5056 34.1611 30.2667 33.8667 30.2667C33.5723 30.2667 33.3334 30.5056 33.3334 30.8V31.8667C33.3334 32.161 33.5723 32.4 33.8667 32.4C34.1611 32.4 34.4 32.161 34.4 31.8667V30.8Z" fill="white"/>
<path d="M36 39.8667C36.2944 39.8667 36.5333 39.6277 36.5333 39.3334V22.2667C36.5333 22.0219 36.3664 21.8086 36.1296 21.7494L27.5963 19.616C27.4379 19.576 27.2677 19.6122 27.1387 19.7131C27.009 19.8139 26.9333 19.9691 26.9333 20.1333V31.8666C26.9333 32.161 27.1723 32.3999 27.4667 32.3999C27.761 32.3999 28 32.161 28 31.8666V20.8166L35.4667 22.6832V39.3334C35.4667 39.6277 35.7057 39.8667 36 39.8667Z" fill="white"/>
<path d="M23.7334 21.2C23.7334 20.9056 23.4944 20.6667 23.2001 20.6667C22.9057 20.6667 22.6667 20.9056 22.6667 21.2V22.2667C22.6667 22.5611 22.9057 22.8 23.2001 22.8C23.4944 22.8 23.7334 22.5611 23.7334 22.2667V21.2Z" fill="white"/>
<path d="M23.7334 18C23.7334 17.7056 23.4944 17.4667 23.2001 17.4667C22.9057 17.4667 22.6667 17.7056 22.6667 18V19.0667C22.6667 19.361 22.9057 19.6 23.2001 19.6C23.4944 19.6 23.7334 19.361 23.7334 19.0667V18Z" fill="white"/>
<path d="M19.4667 34C19.4667 33.7056 19.2278 33.4667 18.9334 33.4667C18.639 33.4667 18.4 33.7056 18.4 34V35.0667C18.4 35.361 18.639 35.6 18.9333 35.6C19.2277 35.6 19.4666 35.361 19.4666 35.0667L19.4667 34Z" fill="white"/>
<path d="M14.6667 29.2C14.9611 29.2 15.2 28.961 15.2 28.6667V26H20.5333V39.3333C20.5333 39.6277 20.7722 39.8666 21.0666 39.8666C21.361 39.8666 21.5999 39.6277 21.5999 39.3333V25.4667C21.5999 25.1723 21.361 24.9333 21.0666 24.9333H14.6666C14.3722 24.9333 14.1333 25.1723 14.1333 25.4667V28.6667C14.1333 28.961 14.3722 29.2 14.6667 29.2Z" fill="white"/>
<path d="M20.5333 21.2V22.2667C20.5333 22.5611 20.7723 22.8 21.0666 22.8C21.361 22.8 21.5999 22.5611 21.5999 22.2667V21.2C21.5999 20.9056 21.361 20.6667 21.0666 20.6667C20.7723 20.6667 20.5333 20.9056 20.5333 21.2Z" fill="white"/>
<path d="M23.7334 14.8C23.7334 14.5056 23.4944 14.2667 23.2001 14.2667C22.9057 14.2667 22.6667 14.5056 22.6667 14.8V15.8667C22.6667 16.161 22.9057 16.4 23.2001 16.4C23.4944 16.4 23.7334 16.161 23.7334 15.8667V14.8Z" fill="white"/>
<path d="M18.9333 36.6667C18.639 36.6667 18.4 36.9056 18.4 37.2V39.3333C18.4 39.6277 18.639 39.8666 18.9333 39.8666C19.2277 39.8666 19.4666 39.6277 19.4666 39.3333V37.2C19.4667 36.9056 19.2278 36.6667 18.9333 36.6667Z" fill="white"/>
<path d="M43.4667 40.9333H42.4V37.6575C43.3173 37.4192 44 36.5909 44 35.5999C44 34.4234 43.0432 33.4666 41.8667 33.4666C40.6902 33.4666 39.7334 34.4234 39.7334 35.5999C39.7334 36.5909 40.4161 37.4191 41.3334 37.6575V40.9333H28V38.7461C29.2154 38.4981 30.1333 37.4213 30.1333 36.1333C30.1333 34.6629 28.9371 33.4666 27.4666 33.4666C25.9963 33.4666 24.7999 34.6629 24.7999 36.1333C24.7999 37.4213 25.7178 38.4981 26.9333 38.7461V40.9333H15.2V35.5461C16.4154 35.2981 17.3333 34.2213 17.3333 32.9333C17.3333 31.4629 16.1371 30.2666 14.6666 30.2666C13.1963 30.2667 12 31.4629 12 32.9333C12 34.2213 12.9179 35.2981 14.1333 35.5461V40.9333H12.5333C12.2389 40.9333 12 41.1722 12 41.4666C12 41.761 12.2389 42 12.5333 42H43.4666C43.761 42 43.9999 41.761 43.9999 41.4667C43.9999 41.1723 43.7611 40.9333 43.4667 40.9333ZM13.0667 32.9333C13.0667 32.0512 13.7846 31.3333 14.6667 31.3333C15.5488 31.3333 16.2667 32.0512 16.2667 32.9333C16.2667 33.8154 15.5488 34.5333 14.6667 34.5333C13.7846 34.5333 13.0667 33.8154 13.0667 32.9333ZM25.8667 36.1333C25.8667 35.2512 26.5846 34.5333 27.4667 34.5333C28.3488 34.5333 29.0667 35.2512 29.0667 36.1333C29.0667 37.0154 28.3488 37.7333 27.4667 37.7333C26.5846 37.7333 25.8667 37.0154 25.8667 36.1333ZM40.8 35.6C40.8 35.0117 41.2784 34.5333 41.8667 34.5333C42.455 34.5333 42.9334 35.0117 42.9334 35.6C42.9334 36.1882 42.455 36.6667 41.8667 36.6667C41.2784 36.6667 40.8 36.1882 40.8 35.6Z" fill="white"/>
<path d="M16.2667 37.2V39.3333C16.2667 39.6277 16.5057 39.8666 16.8 39.8666C17.0944 39.8666 17.3333 39.6277 17.3333 39.3333V37.2C17.3333 36.9056 17.0944 36.6667 16.8 36.6667C16.5057 36.6667 16.2667 36.9056 16.2667 37.2Z" fill="white"/>
<path d="M19.4666 27.6C19.4666 27.3057 19.2277 27.0667 18.9333 27.0667C18.639 27.0667 18.4 27.3057 18.4 27.6V28.6667C18.4 28.9611 18.639 29.2 18.9333 29.2C19.2277 29.2 19.4666 28.9611 19.4666 28.6667V27.6Z" fill="white"/>
<path d="M19.4666 30.8C19.4666 30.5056 19.2277 30.2667 18.9333 30.2667C18.639 30.2667 18.4 30.5056 18.4 30.8V31.8667C18.4 32.161 18.639 32.4 18.9333 32.4C19.2277 32.4 19.4666 32.161 19.4666 31.8667V30.8Z" fill="white"/>
<path d="M16.2667 27.6V28.6667C16.2667 28.9611 16.5057 29.2 16.8 29.2C17.0944 29.2 17.3333 28.9611 17.3333 28.6667V27.6C17.3333 27.3057 17.0944 27.0667 16.8 27.0667C16.5057 27.0667 16.2667 27.3057 16.2667 27.6Z" fill="white"/>
<path d="M23.7334 30.8C23.7334 30.5056 23.4944 30.2667 23.2001 30.2667C22.9057 30.2667 22.6667 30.5056 22.6667 30.8V31.8667C22.6667 32.161 22.9057 32.4 23.2001 32.4C23.4944 32.4 23.7334 32.161 23.7334 31.8667V30.8Z" fill="white"/>
<path d="M25.8667 24.4C25.8667 24.1056 25.6277 23.8667 25.3334 23.8667C25.039 23.8667 24.8 24.1056 24.8 24.4V25.4667C24.8 25.7611 25.039 26 25.3334 26C25.6277 26 25.8667 25.7611 25.8667 25.4667V24.4Z" fill="white"/>
<path d="M25.8667 21.2C25.8667 20.9056 25.6277 20.6667 25.3334 20.6667C25.039 20.6667 24.8 20.9056 24.8 21.2V22.2667C24.8 22.5611 25.039 22.8 25.3334 22.8C25.6277 22.8 25.8667 22.5611 25.8667 22.2667V21.2Z" fill="white"/>
<path d="M25.8667 27.6C25.8667 27.3057 25.6277 27.0667 25.3334 27.0667C25.039 27.0667 24.8 27.3057 24.8 27.6V28.6667C24.8 28.9611 25.039 29.2 25.3334 29.2C25.6277 29.2 25.8667 28.9611 25.8667 28.6667V27.6Z" fill="white"/>
<path d="M25.3334 30.2667C25.039 30.2667 24.8 30.5056 24.8 30.8V31.8667C24.8 32.161 25.039 32.4 25.3334 32.4C25.6277 32.4 25.8667 32.161 25.8667 31.8667V30.8C25.8667 30.5056 25.6278 30.2667 25.3334 30.2667Z" fill="white"/>
<path d="M25.8667 18C25.8667 17.7056 25.6277 17.4667 25.3334 17.4667C25.039 17.4667 24.8 17.7056 24.8 18V19.0667C24.8 19.361 25.039 19.6 25.3334 19.6C25.6277 19.6 25.8667 19.361 25.8667 19.0667V18Z" fill="white"/>
<path d="M23.7334 34C23.7334 33.7056 23.4944 33.4667 23.2001 33.4667C22.9057 33.4667 22.6667 33.7056 22.6667 34V35.0667C22.6667 35.361 22.9057 35.6 23.2001 35.6C23.4944 35.6 23.7334 35.361 23.7334 35.0667V34Z" fill="white"/>
<path d="M18.9333 23.8667C19.2276 23.8667 19.4666 23.6277 19.4666 23.3334V19.3962L21.305 18.4773C21.4858 18.3866 21.5999 18.2021 21.5999 18V13.5296L24.2666 12.1963L26.9333 13.5296V18C26.9333 18.2944 27.1722 18.5333 27.4666 18.5333C27.761 18.5333 28 18.2944 28 18V13.2C28 12.9979 27.8858 12.8133 27.705 12.7227L24.8 11.2704V10.5333C24.8 10.2389 24.561 10 24.2666 10C23.9723 10 23.7333 10.2389 23.7333 10.5333V11.2704L20.8283 12.7226C20.6475 12.8133 20.5333 12.9978 20.5333 13.1999V17.6703L18.695 18.5892C18.5141 18.6799 18.4 18.8644 18.4 19.0666V23.3332C18.4 23.6277 18.6389 23.8667 18.9333 23.8667Z" fill="white"/>
<path d="M23.7334 27.6C23.7334 27.3057 23.4944 27.0667 23.2001 27.0667C22.9057 27.0667 22.6667 27.3057 22.6667 27.6V28.6667C22.6667 28.9611 22.9057 29.2 23.2001 29.2C23.4944 29.2 23.7334 28.9611 23.7334 28.6667V27.6Z" fill="white"/>
<path d="M23.2001 36.6667C22.9057 36.6667 22.6667 36.9056 22.6667 37.2V39.3333C22.6667 39.6277 22.9057 39.8666 23.2001 39.8666C23.4944 39.8666 23.7334 39.6277 23.7334 39.3333V37.2C23.7334 36.9056 23.4944 36.6667 23.2001 36.6667Z" fill="white"/>
<path d="M25.8667 14.8C25.8667 14.5056 25.6277 14.2667 25.3334 14.2667C25.039 14.2667 24.8 14.5056 24.8 14.8V15.8667C24.8 16.161 25.039 16.4 25.3334 16.4C25.6277 16.4 25.8667 16.161 25.8667 15.8667V14.8Z" fill="white"/>
<path d="M23.7334 24.4C23.7334 24.1056 23.4944 23.8667 23.2001 23.8667C22.9057 23.8667 22.6667 24.1056 22.6667 24.4V25.4667C22.6667 25.7611 22.9057 26 23.2001 26C23.4944 26 23.7334 25.7611 23.7334 25.4667V24.4Z" fill="white"/>
</svg>
