<svg width="32" height="32" viewBox="0 0 32 32" fill="none" xmlns="http://www.w3.org/2000/svg">
<path d="M20.2667 20.8C20.2667 20.5056 20.0278 20.2667 19.7334 20.2667C19.439 20.2667 19.2001 20.5056 19.2001 20.8V21.8667C19.2001 22.161 19.439 22.4 19.7334 22.4C20.0278 22.4 20.2667 22.161 20.2667 21.8667V20.8Z" fill="white"/>
<path d="M19.7333 26.6667C19.4389 26.6667 19.2 26.9056 19.2 27.2V29.3333C19.2 29.6277 19.4389 29.8666 19.7333 29.8666C20.0277 29.8666 20.2666 29.6277 20.2666 29.3333V27.2C20.2667 26.9056 20.0278 26.6667 19.7333 26.6667Z" fill="white"/>
<path d="M22.4 14.4C22.4 14.1056 22.1611 13.8667 21.8667 13.8667C21.5723 13.8667 21.3334 14.1056 21.3334 14.4V15.4667C21.3334 15.7611 21.5723 16 21.8667 16C22.1611 16 22.4 15.7611 22.4 15.4667V14.4Z" fill="white"/>
<path d="M20.2667 17.6C20.2667 17.3057 20.0278 17.0667 19.7334 17.0667C19.439 17.0667 19.2001 17.3057 19.2001 17.6V18.6667C19.2001 18.9611 19.439 19.2 19.7334 19.2C20.0278 19.2 20.2667 18.9611 20.2667 18.6667V17.6Z" fill="white"/>
<path d="M20.2667 24C20.2667 23.7056 20.0278 23.4667 19.7334 23.4667C19.439 23.4667 19.2 23.7056 19.2 24V25.0667C19.2 25.361 19.4389 25.6 19.7333 25.6C20.0277 25.6 20.2666 25.361 20.2666 25.0667V24H20.2667Z" fill="white"/>
<path d="M22.4 17.6C22.4 17.3057 22.1611 17.0667 21.8667 17.0667C21.5723 17.0667 21.3334 17.3057 21.3334 17.6V18.6667C21.3334 18.9611 21.5723 19.2 21.8667 19.2C22.1611 19.2 22.4 18.9611 22.4 18.6667V17.6Z" fill="white"/>
<path d="M18.1333 14.4C18.1333 14.1056 17.8944 13.8667 17.6 13.8667C17.3057 13.8667 17.0667 14.1056 17.0667 14.4V15.4667C17.0667 15.7611 17.3057 16 17.6 16C17.8944 16 18.1333 15.7611 18.1333 15.4667V14.4Z" fill="white"/>
<path d="M20.2667 14.4C20.2667 14.1056 20.0278 13.8667 19.7334 13.8667C19.439 13.8667 19.2001 14.1056 19.2001 14.4V15.4667C19.2001 15.7611 19.439 16 19.7334 16C20.0278 16 20.2667 15.7611 20.2667 15.4667V14.4Z" fill="white"/>
<path d="M22.4 9.06667V7.99999C22.4 7.70561 22.1611 7.46667 21.8667 7.46667C21.5723 7.46667 21.3334 7.70561 21.3334 7.99999V9.06667C21.3334 9.36105 21.5723 9.59999 21.8667 9.59999C22.1611 9.59999 22.4 9.36105 22.4 9.06667Z" fill="white"/>
<path d="M18.1333 17.6C18.1333 17.3057 17.8944 17.0667 17.6 17.0667C17.3057 17.0667 17.0667 17.3057 17.0667 17.6V18.6667C17.0667 18.9611 17.3057 19.2 17.6 19.2C17.8944 19.2 18.1333 18.9611 18.1333 18.6667V17.6Z" fill="white"/>
<path d="M24.5333 7.99999C24.5333 7.70561 24.2944 7.46667 24 7.46667C23.7056 7.46667 23.4667 7.70561 23.4667 7.99999V9.06667C23.4667 9.36105 23.7056 9.59999 24 9.59999C24.2944 9.59999 24.5333 9.36105 24.5333 9.06667V7.99999Z" fill="white"/>
<path d="M17.6 20.2667C17.3057 20.2667 17.0667 20.5056 17.0667 20.8V21.8667C17.0667 22.161 17.3057 22.4 17.6 22.4C17.8944 22.4 18.1333 22.161 18.1333 21.8667V20.8C18.1333 20.5056 17.8944 20.2667 17.6 20.2667Z" fill="white"/>
<path d="M26.6667 24C26.6667 23.7056 26.4277 23.4667 26.1334 23.4667C25.839 23.4667 25.6 23.7056 25.6 24V25.0667C25.6 25.361 25.8389 25.6 26.1333 25.6C26.4277 25.6 26.6666 25.361 26.6666 25.0667V24H26.6667Z" fill="white"/>
<path d="M26.1333 26.6667C25.8389 26.6667 25.6 26.9056 25.6 27.2V29.3333C25.6 29.6277 25.8389 29.8666 26.1333 29.8666C26.4277 29.8666 26.6666 29.6277 26.6666 29.3333V27.2C26.6667 26.9056 26.4277 26.6667 26.1333 26.6667Z" fill="white"/>
<path d="M28.2667 20.2667C27.9723 20.2667 27.7334 20.5056 27.7334 20.8V21.8667C27.7334 22.161 27.9723 22.4 28.2667 22.4C28.5611 22.4 28.8 22.161 28.8 21.8667V20.8C28.8 20.5056 28.5611 20.2667 28.2667 20.2667Z" fill="white"/>
<path d="M19.7333 9.60001C20.0277 9.60001 20.2666 9.36107 20.2666 9.0667V6.81657L25.6 5.4832V14.4C25.6 14.6224 25.7381 14.8213 25.9461 14.8998L29.8667 16.3696V21.8667C29.8667 22.1611 30.1056 22.4 30.4 22.4C30.6944 22.4 30.9333 22.1611 30.9333 21.8667V16C30.9333 15.7776 30.7952 15.5787 30.5872 15.5003L26.6666 14.0304V3.73332C26.6666 3.43895 26.4277 3.20001 26.1333 3.20001C25.8389 3.20001 25.6 3.43895 25.6 3.73332V4.38345L19.6038 5.88264C19.3664 5.94182 19.2 6.1552 19.2 6.39995V9.06664C19.2 9.36107 19.4389 9.60001 19.7333 9.60001Z" fill="white"/>
<path d="M28.8 17.6C28.8 17.3057 28.5611 17.0667 28.2667 17.0667C27.9723 17.0667 27.7334 17.3057 27.7334 17.6V18.6667C27.7334 18.9611 27.9723 19.2 28.2667 19.2C28.5611 19.2 28.8 18.9611 28.8 18.6667V17.6Z" fill="white"/>
<path d="M26.6667 17.6C26.6667 17.3057 26.4277 17.0667 26.1333 17.0667C25.839 17.0667 25.6 17.3057 25.6 17.6V18.6667C25.6 18.9611 25.839 19.2 26.1333 19.2C26.4277 19.2 26.6667 18.9611 26.6667 18.6667V17.6Z" fill="white"/>
<path d="M22.4 24C22.4 23.7056 22.1611 23.4667 21.8667 23.4667C21.5723 23.4667 21.3334 23.7056 21.3334 24V25.0667C21.3334 25.361 21.5723 25.6 21.8667 25.6C22.1611 25.6 22.4 25.361 22.4 25.0667V24Z" fill="white"/>
<path d="M26.6667 20.8C26.6667 20.5056 26.4277 20.2667 26.1333 20.2667C25.839 20.2667 25.6 20.5056 25.6 20.8V21.8667C25.6 22.161 25.839 22.4 26.1333 22.4C26.4277 22.4 26.6667 22.161 26.6667 21.8667V20.8Z" fill="white"/>
<path d="M21.8667 26.6667C21.5723 26.6667 21.3334 26.9056 21.3334 27.2V29.3333C21.3334 29.6277 21.5723 29.8666 21.8667 29.8666C22.1611 29.8666 22.4 29.6277 22.4 29.3333V27.2C22.4 26.9056 22.1611 26.6667 21.8667 26.6667Z" fill="white"/>
<path d="M22.4 20.8C22.4 20.5056 22.1611 20.2667 21.8667 20.2667C21.5723 20.2667 21.3334 20.5056 21.3334 20.8V21.8667C21.3334 22.161 21.5723 22.4 21.8667 22.4C22.1611 22.4 22.4 22.161 22.4 21.8667V20.8Z" fill="white"/>
<path d="M24 29.8667C24.2944 29.8667 24.5333 29.6277 24.5333 29.3334V12.2667C24.5333 12.0219 24.3663 11.8086 24.1295 11.7494L15.5962 9.61599C15.4379 9.57599 15.2677 9.61224 15.1386 9.71305C15.009 9.81387 14.9333 9.96905 14.9333 10.1333V21.8666C14.9333 22.161 15.1722 22.3999 15.4666 22.3999C15.761 22.3999 15.9999 22.161 15.9999 21.8666V10.8166L23.4666 12.6832V29.3334C23.4667 29.6277 23.7056 29.8667 24 29.8667Z" fill="white"/>
<path d="M11.7333 11.2C11.7333 10.9056 11.4944 10.6667 11.2 10.6667C10.9056 10.6667 10.6667 10.9056 10.6667 11.2V12.2667C10.6667 12.5611 10.9056 12.8 11.2 12.8C11.4944 12.8 11.7333 12.5611 11.7333 12.2667V11.2Z" fill="white"/>
<path d="M11.7333 7.99999C11.7333 7.70561 11.4944 7.46667 11.2 7.46667C10.9056 7.46667 10.6667 7.70561 10.6667 7.99999V9.06667C10.6667 9.36105 10.9056 9.59999 11.2 9.59999C11.4944 9.59999 11.7333 9.36105 11.7333 9.06667V7.99999Z" fill="white"/>
<path d="M7.46671 24C7.46671 23.7056 7.22777 23.4667 6.9334 23.4667C6.63902 23.4667 6.40002 23.7056 6.40002 24V25.0667C6.40002 25.361 6.63896 25.6 6.93334 25.6C7.22771 25.6 7.46665 25.361 7.46665 25.0667L7.46671 24Z" fill="white"/>
<path d="M2.66668 19.2C2.96105 19.2 3.19999 18.961 3.19999 18.6667V16H8.5333V29.3333C8.5333 29.6277 8.77224 29.8666 9.06661 29.8666C9.36099 29.8666 9.59993 29.6277 9.59993 29.3333V15.4667C9.59993 15.1723 9.36099 14.9333 9.06661 14.9333H2.66661C2.37224 14.9333 2.1333 15.1723 2.1333 15.4667V18.6667C2.1333 18.961 2.37224 19.2 2.66668 19.2Z" fill="white"/>
<path d="M8.53333 11.2V12.2667C8.53333 12.5611 8.77226 12.8 9.06664 12.8C9.36101 12.8 9.59995 12.5611 9.59995 12.2667V11.2C9.59995 10.9056 9.36101 10.6667 9.06664 10.6667C8.77226 10.6667 8.53333 10.9056 8.53333 11.2Z" fill="white"/>
<path d="M11.7333 4.79998C11.7333 4.5056 11.4944 4.26666 11.2 4.26666C10.9056 4.26666 10.6667 4.5056 10.6667 4.79998V5.86666C10.6667 6.16104 10.9056 6.39998 11.2 6.39998C11.4944 6.39998 11.7333 6.16104 11.7333 5.86666V4.79998Z" fill="white"/>
<path d="M6.93334 26.6667C6.63896 26.6667 6.40002 26.9056 6.40002 27.2V29.3333C6.40002 29.6277 6.63896 29.8666 6.93334 29.8666C7.22771 29.8666 7.46665 29.6277 7.46665 29.3333V27.2C7.46671 26.9056 7.22777 26.6667 6.93334 26.6667Z" fill="white"/>
<path d="M31.4667 30.9333H30.4V27.6575C31.3173 27.4192 32 26.5909 32 25.5999C32 24.4234 31.0432 23.4666 29.8667 23.4666C28.6902 23.4666 27.7334 24.4234 27.7334 25.5999C27.7334 26.5909 28.4161 27.4191 29.3334 27.6575V30.9333H16V28.7461C17.2154 28.4981 18.1333 27.4213 18.1333 26.1333C18.1333 24.6629 16.9371 23.4666 15.4666 23.4666C13.9963 23.4666 12.7999 24.6629 12.7999 26.1333C12.7999 27.4213 13.7178 28.4981 14.9333 28.7461V30.9333H3.2V25.5461C4.41544 25.2981 5.33331 24.2213 5.33331 22.9333C5.33331 21.4629 4.13706 20.2666 2.66663 20.2666C1.19625 20.2667 0 21.4629 0 22.9333C0 24.2213 0.917875 25.2981 2.13331 25.5461V30.9333H0.533312C0.238937 30.9333 0 31.1722 0 31.4666C0 31.761 0.238937 32 0.533312 32H31.4666C31.761 32 31.9999 31.761 31.9999 31.4667C31.9999 31.1723 31.7611 30.9333 31.4667 30.9333ZM1.06669 22.9333C1.06669 22.0512 1.78456 21.3333 2.66669 21.3333C3.54881 21.3333 4.26669 22.0512 4.26669 22.9333C4.26669 23.8154 3.54881 24.5333 2.66669 24.5333C1.78456 24.5333 1.06669 23.8154 1.06669 22.9333ZM13.8667 26.1333C13.8667 25.2512 14.5846 24.5333 15.4667 24.5333C16.3488 24.5333 17.0667 25.2512 17.0667 26.1333C17.0667 27.0154 16.3488 27.7333 15.4667 27.7333C14.5846 27.7333 13.8667 27.0154 13.8667 26.1333ZM28.8 25.6C28.8 25.0117 29.2784 24.5333 29.8667 24.5333C30.455 24.5333 30.9334 25.0117 30.9334 25.6C30.9334 26.1882 30.455 26.6667 29.8667 26.6667C29.2784 26.6667 28.8 26.1882 28.8 25.6Z" fill="white"/>
<path d="M4.26666 27.2V29.3333C4.26666 29.6277 4.5056 29.8666 4.79998 29.8666C5.09435 29.8666 5.33329 29.6277 5.33329 29.3333V27.2C5.33329 26.9056 5.09435 26.6667 4.79998 26.6667C4.5056 26.6667 4.26666 26.9056 4.26666 27.2Z" fill="white"/>
<path d="M7.46671 17.6C7.46671 17.3057 7.22777 17.0667 6.9334 17.0667C6.63902 17.0667 6.40009 17.3057 6.40009 17.6V18.6667C6.40009 18.9611 6.63902 19.2 6.9334 19.2C7.22777 19.2 7.46671 18.9611 7.46671 18.6667V17.6Z" fill="white"/>
<path d="M7.46671 20.8C7.46671 20.5056 7.22777 20.2667 6.9334 20.2667C6.63902 20.2667 6.40009 20.5056 6.40009 20.8V21.8667C6.40009 22.161 6.63902 22.4 6.9334 22.4C7.22777 22.4 7.46671 22.161 7.46671 21.8667V20.8Z" fill="white"/>
<path d="M4.26666 17.6V18.6667C4.26666 18.9611 4.5056 19.2 4.79998 19.2C5.09435 19.2 5.33329 18.9611 5.33329 18.6667V17.6C5.33329 17.3057 5.09435 17.0667 4.79998 17.0667C4.5056 17.0667 4.26666 17.3057 4.26666 17.6Z" fill="white"/>
<path d="M11.7333 20.8C11.7333 20.5056 11.4944 20.2667 11.2 20.2667C10.9056 20.2667 10.6667 20.5056 10.6667 20.8V21.8667C10.6667 22.161 10.9056 22.4 11.2 22.4C11.4944 22.4 11.7333 22.161 11.7333 21.8667V20.8Z" fill="white"/>
<path d="M13.8667 14.4C13.8667 14.1056 13.6277 13.8667 13.3334 13.8667C13.039 13.8667 12.8 14.1056 12.8 14.4V15.4667C12.8 15.7611 13.039 16 13.3334 16C13.6277 16 13.8667 15.7611 13.8667 15.4667V14.4Z" fill="white"/>
<path d="M13.8667 11.2C13.8667 10.9056 13.6277 10.6667 13.3334 10.6667C13.039 10.6667 12.8 10.9056 12.8 11.2V12.2667C12.8 12.5611 13.039 12.8 13.3334 12.8C13.6277 12.8 13.8667 12.5611 13.8667 12.2667V11.2Z" fill="white"/>
<path d="M13.8667 17.6C13.8667 17.3057 13.6277 17.0667 13.3334 17.0667C13.039 17.0667 12.8 17.3057 12.8 17.6V18.6667C12.8 18.9611 13.039 19.2 13.3334 19.2C13.6277 19.2 13.8667 18.9611 13.8667 18.6667V17.6Z" fill="white"/>
<path d="M13.3333 20.2667C13.0389 20.2667 12.8 20.5056 12.8 20.8V21.8667C12.8 22.161 13.0389 22.4 13.3333 22.4C13.6277 22.4 13.8666 22.161 13.8666 21.8667V20.8C13.8667 20.5056 13.6277 20.2667 13.3333 20.2667Z" fill="white"/>
<path d="M13.8667 7.99999C13.8667 7.70561 13.6277 7.46667 13.3334 7.46667C13.039 7.46667 12.8 7.70561 12.8 7.99999V9.06667C12.8 9.36105 13.039 9.59999 13.3334 9.59999C13.6277 9.59999 13.8667 9.36105 13.8667 9.06667V7.99999Z" fill="white"/>
<path d="M11.7333 24C11.7333 23.7056 11.4944 23.4667 11.2 23.4667C10.9056 23.4667 10.6667 23.7056 10.6667 24V25.0667C10.6667 25.361 10.9056 25.6 11.2 25.6C11.4944 25.6 11.7333 25.361 11.7333 25.0667V24Z" fill="white"/>
<path d="M6.93334 13.8667C7.22771 13.8667 7.46665 13.6277 7.46665 13.3334V9.39625L9.30502 8.47731C9.48584 8.38662 9.59996 8.20212 9.59996 8V3.52962L12.2666 2.19631L14.9333 3.52962V8C14.9333 8.29437 15.1723 8.53331 15.4666 8.53331C15.761 8.53331 16 8.29437 16 8V3.2C16 2.99787 15.8859 2.81331 15.7051 2.72269L12.8 1.27037V0.533312C12.8 0.238937 12.5611 0 12.2667 0C11.9723 0 11.7334 0.238937 11.7334 0.533312V1.27037L8.82834 2.72262C8.64752 2.81331 8.5334 2.99781 8.5334 3.19994V7.67031L6.69502 8.58925C6.51421 8.67994 6.40009 8.86444 6.40009 9.06656V13.3332C6.40002 13.6277 6.63896 13.8667 6.93334 13.8667Z" fill="white"/>
<path d="M11.7333 17.6C11.7333 17.3057 11.4944 17.0667 11.2 17.0667C10.9056 17.0667 10.6667 17.3057 10.6667 17.6V18.6667C10.6667 18.9611 10.9056 19.2 11.2 19.2C11.4944 19.2 11.7333 18.9611 11.7333 18.6667V17.6Z" fill="white"/>
<path d="M11.2 26.6667C10.9056 26.6667 10.6667 26.9056 10.6667 27.2V29.3333C10.6667 29.6277 10.9056 29.8666 11.2 29.8666C11.4944 29.8666 11.7333 29.6277 11.7333 29.3333V27.2C11.7333 26.9056 11.4944 26.6667 11.2 26.6667Z" fill="white"/>
<path d="M13.8667 4.79998C13.8667 4.5056 13.6277 4.26666 13.3334 4.26666C13.039 4.26666 12.8 4.5056 12.8 4.79998V5.86666C12.8 6.16104 13.039 6.39998 13.3334 6.39998C13.6277 6.39998 13.8667 6.16104 13.8667 5.86666V4.79998Z" fill="white"/>
<path d="M11.7333 14.4C11.7333 14.1056 11.4944 13.8667 11.2 13.8667C10.9056 13.8667 10.6667 14.1056 10.6667 14.4V15.4667C10.6667 15.7611 10.9056 16 11.2 16C11.4944 16 11.7333 15.7611 11.7333 15.4667V14.4Z" fill="white"/>
</svg>
