<svg width="31" height="31" viewBox="0 0 31 31" fill="none" xmlns="http://www.w3.org/2000/svg">
<path d="M7.00451 13.1904C7.18563 12.5635 7.42247 11.7832 7.11596 10.7523C6.90698 10.0278 6.46115 9.73521 6.14071 9.62376C5.20725 9.30331 4.09267 9.97206 3.78616 10.181C2.82484 10.4318 2.23969 10.8637 2.05857 11.4907C1.86352 12.1873 2.19789 12.9954 3.07562 13.887C3.38213 14.1935 3.34033 14.2632 3.22888 14.5C2.88057 15.2524 3.00596 15.8793 4.70569 17.0218C5.04006 17.2586 6.53081 18.3175 7.32495 17.5651C8.00763 16.9103 7.49213 15.4474 7.00451 14.6812C6.72586 14.1935 6.80946 13.8313 7.00451 13.1904ZM6.75373 16.9382C6.68407 17.0078 6.25217 17.0218 5.17939 16.3112C4.30166 15.7261 4.02301 15.3778 3.93942 15.1966C3.88369 15.0852 3.89762 15.0295 3.99515 14.8344C4.17627 14.4304 4.32952 13.9567 3.67471 13.2879C3.04776 12.647 2.75518 12.0758 2.86664 11.7136C3.16966 11.0553 3.86627 11.1424 4.20413 10.9055C4.42705 10.7523 5.29433 10.2716 5.86206 10.4179C6.72238 10.8289 6.36362 12.3823 6.19644 12.9536C6.00139 13.6084 5.7924 14.305 6.3079 15.0991C6.79552 15.8793 6.92091 16.771 6.75373 16.9382Z" fill="white"/>
<path d="M28.3069 9.74914H30.4106C30.4106 9.74914 30.8286 9.74036 30.8286 9.33117C30.8286 8.92199 30.4106 8.91321 30.4106 8.91321H28.3069C28.3069 8.91321 27.8889 8.93062 27.8889 9.33117C27.8889 9.73173 28.3069 9.74914 28.3069 9.74914Z" fill="white"/>
<path d="M28.3069 12.5792H30.4106C30.4106 12.5792 30.8286 12.5704 30.8286 12.1612C30.8286 11.752 30.4106 11.7433 30.4106 11.7433H28.3069C28.3069 11.7433 27.8889 11.7607 27.8889 12.1612C27.8889 12.5618 28.3069 12.5792 28.3069 12.5792Z" fill="white"/>
<path d="M28.3069 12.5792H30.4106C30.4106 12.5792 30.8286 12.5704 30.8286 12.1612C30.8286 11.752 30.4106 11.7433 30.4106 11.7433H28.3069C28.3069 11.7433 27.8889 11.7607 27.8889 12.1612C27.8889 12.5618 28.3069 12.5792 28.3069 12.5792Z" fill="white"/>
<path d="M28.3069 15.4091H30.4106C30.4106 15.4091 30.8286 15.4003 30.8286 14.9911C30.8286 14.5819 30.4106 14.5732 30.4106 14.5732H28.3069C28.3069 14.5732 27.8889 14.5906 27.8889 14.9911C27.8889 15.3917 28.3069 15.4091 28.3069 15.4091Z" fill="white"/>
<path d="M28.3069 15.4091H30.4106C30.4106 15.4091 30.8286 15.4003 30.8286 14.9911C30.8286 14.5819 30.4106 14.5732 30.4106 14.5732H28.3069C28.3069 14.5732 27.8889 14.5906 27.8889 14.9911C27.8889 15.3917 28.3069 15.4091 28.3069 15.4091Z" fill="white"/>
<path d="M28.3069 18.2392H30.4106C30.4106 18.2392 30.8286 18.2304 30.8286 17.8212C30.8286 17.412 30.4106 17.4032 30.4106 17.4032H28.3069C28.3069 17.4032 27.8889 17.4206 27.8889 17.8212C27.8889 18.2217 28.3069 18.2392 28.3069 18.2392Z" fill="white"/>
<path d="M28.3069 18.2392H30.4106C30.4106 18.2392 30.8286 18.2304 30.8286 17.8212C30.8286 17.412 30.4106 17.4032 30.4106 17.4032H28.3069C28.3069 17.4032 27.8889 17.4206 27.8889 17.8212C27.8889 18.2217 28.3069 18.2392 28.3069 18.2392Z" fill="white"/>
<path d="M28.3069 21.0691H30.4106C30.4106 21.0691 30.8286 21.0603 30.8286 20.6511C30.8286 20.2419 30.4106 20.2331 30.4106 20.2331H28.3069C28.3069 20.2331 27.8889 20.2506 27.8889 20.6511C27.8889 21.0517 28.3069 21.0691 28.3069 21.0691Z" fill="white"/>
<path d="M27.0669 21.9398V8.28626C27.0669 6.93483 26.0081 5.83419 24.6566 5.77846C21.7866 1.68239 16.8964 -0.491038 11.9365 0.0941147C9.20413 0.39714 6.17387 1.58138 3.66078 4.25985C-1.45234 9.72128 -1.1737 18.2757 4.2738 23.3888C8.43953 27.3037 14.6254 28.1675 19.7107 25.5483C19.3833 28.0526 21.3338 30.839 24.3501 30.954C27.2376 31.0132 29.4075 28.7666 29.4075 26.0777C29.4493 23.2982 27.0595 21.8941 27.0669 21.9398ZM23.7232 5.88992C22.7061 6.23822 22.0234 7.19955 22.0234 8.27233V13.2601C21.5892 14.1145 20.347 15.8329 20.1147 17.0914C20.0451 17.4119 20.0033 17.7323 19.9754 18.0667C19.9336 18.5264 19.9057 18.8747 19.655 19.3206C19.0117 20.5814 16.1789 22.439 15.7818 22.2463C15.2733 21.7772 15.4056 19.5435 15.4056 19.5435C15.4474 18.3732 15.5171 16.1858 13.7477 15.0434C13.0093 14.5836 12.2012 14.4861 11.421 14.3886C9.85128 14.1959 9.61917 14.01 9.41478 13.5526C9.23366 13.065 9.35905 12.3127 9.70736 11.7275C10.1671 10.9334 12.0201 10.0278 12.9814 9.8606C13.2879 9.78397 13.3855 9.91633 13.6084 10.0974C13.9428 10.39 14.305 10.6269 14.6951 10.8359C15.1549 11.0866 15.9908 10.8637 16.6177 10.6547C16.9103 10.5433 18.415 9.98599 18.7215 9.28938C18.942 8.70422 18.6982 8.04244 16.771 7.45032C13.6362 6.42868 14.6579 5.6507 14.8762 5.08185C15.5728 4.00907 16.1998 3.60503 16.9103 3.74436C17.5651 3.86975 18.0946 3.64683 18.3175 3.14527C18.5265 2.62978 18.3871 2.03069 17.9831 1.65452C20.254 2.44866 22.2603 3.93941 23.7232 5.88992ZM11.8111 0.916115C12.7307 1.26442 13.7494 1.90349 13.3948 2.05466C13.2492 2.16639 12.8655 2.37454 11.8599 2.66113C10.7801 2.93977 10.127 2.61752 9.30333 2.74124C8.70424 2.86663 8.50919 3.28459 8.35594 3.5911C8.21661 3.86975 8.16088 3.96727 7.96583 4.023C7.28316 4.20412 7.11597 4.3713 6.48902 5.01219C6.2661 5.24903 5.94566 5.56948 5.51376 6.00137C4.56637 6.93483 3.54932 6.62832 3.03383 6.37754C5.054 3.39605 8.24448 1.40374 11.8111 0.916115ZM13.5248 26.217C6.51688 26.217 0.83254 20.5327 0.83254 13.5248C0.83254 11.2678 1.43162 9.0386 2.588 7.08809C3.04776 7.33887 4.71099 8.02503 6.11285 6.61439C6.55868 6.18249 6.87912 5.84812 7.11597 5.61127C7.71505 4.99825 7.74292 4.95646 8.20268 4.845C8.7739 4.69175 8.98288 4.28771 9.12221 3.9812C9.2476 3.71649 9.30333 3.61897 9.49838 3.57717C9.99645 3.48842 11.0153 3.74087 11.814 3.55529C12.7481 3.34032 14.3329 2.88752 14.3329 2.01676C14.3468 1.557 13.9845 1.15296 13.5109 0.846454C14.4258 0.832522 15.7121 0.985776 16.7571 1.26442C16.7989 1.557 16.9425 1.84038 17.1851 2.10481C17.2659 2.19286 17.5257 2.33024 17.5529 2.62309C17.5809 2.82622 17.4838 3.00692 17.0496 2.90842C15.4614 2.58798 14.514 4.05086 14.1517 4.60815C13.7198 5.2769 13.5944 5.87598 13.7616 6.40541C14.0821 7.36673 15.2942 7.79863 16.4645 8.2166C16.781 8.33377 17.464 8.53314 17.7958 8.78991C18.4429 9.12219 15.531 10.2646 15.0852 10.0835C14.7508 9.90239 14.4304 9.69341 14.1517 9.44263C13.8034 9.16399 13.5109 8.91321 12.856 9.02467C11.7415 9.21972 9.6377 10.2368 9.01075 11.2956C8.53705 12.1037 8.39773 13.0929 8.66244 13.8313C8.87603 14.3583 9.02705 14.9622 11.3653 15.2106C14.8205 15.4091 14.6672 18.0527 14.6254 19.5156C14.6254 19.5156 14.4025 22.3811 15.3499 22.929C15.5171 23.0405 15.8421 23.2286 16.353 23.0265C17.7184 22.4971 19.6689 21.09 20.4212 19.7525C20.7556 19.1534 20.7974 18.6518 20.8392 18.1642C20.9507 16.7152 21.5915 15.7121 22.0652 14.9459V21.9398C21.1039 22.5111 20.3794 23.4027 20.0033 24.4616C18.011 25.604 15.7957 26.217 13.5248 26.217ZM28.0979 28.0003C27.2898 29.5329 25.5636 30.2448 24.3919 30.132C22.316 30.0344 20.6302 28.3904 20.5188 26.3006C20.4352 24.7402 21.2572 23.2773 22.6365 22.5528C22.7758 22.4832 22.8594 22.3439 22.8594 22.1906V8.27233C22.8594 7.33887 23.6117 6.58653 24.5452 6.58653C25.4786 6.58653 26.231 7.33887 26.231 8.27233V22.1767C26.231 22.3299 26.3146 22.4693 26.4539 22.5389C28.4183 23.5978 29.1567 26.0359 28.0979 28.0003Z" fill="white"/>
<path d="M24.9632 23.7231V9.63768C24.9632 9.40083 24.7821 9.21971 24.5452 9.21971C24.3084 9.21971 24.1272 9.40083 24.1272 9.63768V23.7371C22.8176 23.9739 21.9399 25.2139 22.1767 26.5235C22.4136 27.8331 23.6535 28.7109 24.9632 28.474C26.2728 28.2372 27.1505 26.9972 26.9137 25.6876C26.7465 24.6845 25.9663 23.9043 24.9632 23.7231ZM24.5452 27.666C23.6814 27.666 22.9709 26.9694 22.9709 26.0916C22.9709 25.2278 23.7047 24.5173 24.5452 24.5173C25.3857 24.5173 26.1335 25.2418 26.1195 26.1056C26.1056 26.9833 25.409 27.666 24.5452 27.666Z" fill="white"/>
</svg>
