<svg width="55" height="55" viewBox="0 0 55 55" fill="none" xmlns="http://www.w3.org/2000/svg">
<circle cx="27.5" cy="27.5" r="27.5" fill="#D9D9D9"/>
<path d="M19.0045 25.1904C19.1856 24.5635 19.4225 23.7832 19.116 22.7523C18.907 22.0278 18.4612 21.7352 18.1407 21.6238C17.2073 21.3033 16.0927 21.9721 15.7862 22.181C14.8248 22.4318 14.2397 22.8637 14.0586 23.4907C13.8635 24.1873 14.1979 24.9954 15.0756 25.887C15.3821 26.1935 15.3403 26.2632 15.2289 26.5C14.8806 27.2524 15.006 27.8793 16.7057 29.0218C17.0401 29.2586 18.5308 30.3175 19.3249 29.5651C20.0076 28.9103 19.4921 27.4474 19.0045 26.6812C18.7259 26.1935 18.8095 25.8313 19.0045 25.1904ZM18.7537 28.9382C18.6841 29.0078 18.2522 29.0218 17.1794 28.3112C16.3017 27.7261 16.023 27.3778 15.9394 27.1966C15.8837 27.0852 15.8976 27.0295 15.9951 26.8344C16.1763 26.4304 16.3295 25.9567 15.6747 25.2879C15.0478 24.647 14.7552 24.0758 14.8666 23.7136C15.1697 23.0553 15.8663 23.1424 16.2041 22.9055C16.427 22.7523 17.2943 22.2716 17.8621 22.4179C18.7224 22.8289 18.3636 24.3823 18.1964 24.9536C18.0014 25.6084 17.7924 26.305 18.3079 27.0991C18.7955 27.8793 18.9209 28.771 18.7537 28.9382Z" fill="#BD0324"/>
<path d="M40.3069 21.7491H42.4106C42.4106 21.7491 42.8286 21.7404 42.8286 21.3312C42.8286 20.922 42.4106 20.9132 42.4106 20.9132H40.3069C40.3069 20.9132 39.8889 20.9306 39.8889 21.3312C39.8889 21.7317 40.3069 21.7491 40.3069 21.7491Z" fill="#BD0324"/>
<path d="M40.3069 24.5792H42.4106C42.4106 24.5792 42.8286 24.5704 42.8286 24.1612C42.8286 23.752 42.4106 23.7433 42.4106 23.7433H40.3069C40.3069 23.7433 39.8889 23.7607 39.8889 24.1612C39.8889 24.5618 40.3069 24.5792 40.3069 24.5792Z" fill="#BD0324"/>
<path d="M40.3069 24.5792H42.4106C42.4106 24.5792 42.8286 24.5704 42.8286 24.1612C42.8286 23.752 42.4106 23.7433 42.4106 23.7433H40.3069C40.3069 23.7433 39.8889 23.7607 39.8889 24.1612C39.8889 24.5618 40.3069 24.5792 40.3069 24.5792Z" fill="#BD0324"/>
<path d="M40.3069 27.4091H42.4106C42.4106 27.4091 42.8286 27.4003 42.8286 26.9911C42.8286 26.5819 42.4106 26.5732 42.4106 26.5732H40.3069C40.3069 26.5732 39.8889 26.5906 39.8889 26.9911C39.8889 27.3917 40.3069 27.4091 40.3069 27.4091Z" fill="#BD0324"/>
<path d="M40.3069 27.4091H42.4106C42.4106 27.4091 42.8286 27.4003 42.8286 26.9911C42.8286 26.5819 42.4106 26.5732 42.4106 26.5732H40.3069C40.3069 26.5732 39.8889 26.5906 39.8889 26.9911C39.8889 27.3917 40.3069 27.4091 40.3069 27.4091Z" fill="#BD0324"/>
<path d="M40.3069 30.2392H42.4106C42.4106 30.2392 42.8286 30.2304 42.8286 29.8212C42.8286 29.412 42.4106 29.4032 42.4106 29.4032H40.3069C40.3069 29.4032 39.8889 29.4206 39.8889 29.8212C39.8889 30.2217 40.3069 30.2392 40.3069 30.2392Z" fill="#BD0324"/>
<path d="M40.3069 30.2392H42.4106C42.4106 30.2392 42.8286 30.2304 42.8286 29.8212C42.8286 29.412 42.4106 29.4032 42.4106 29.4032H40.3069C40.3069 29.4032 39.8889 29.4206 39.8889 29.8212C39.8889 30.2217 40.3069 30.2392 40.3069 30.2392Z" fill="#BD0324"/>
<path d="M40.3069 33.0691H42.4106C42.4106 33.0691 42.8286 33.0603 42.8286 32.6511C42.8286 32.2419 42.4106 32.2331 42.4106 32.2331H40.3069C40.3069 32.2331 39.8889 32.2506 39.8889 32.6511C39.8889 33.0517 40.3069 33.0691 40.3069 33.0691Z" fill="#BD0324"/>
<path d="M39.0669 33.9398V20.2863C39.0669 18.9348 38.0081 17.8342 36.6566 17.7785C33.7866 13.6824 28.8964 11.509 23.9365 12.0941C21.2041 12.3971 18.1739 13.5814 15.6608 16.2598C10.5477 21.7213 10.8263 30.2757 16.2738 35.3888C20.4395 39.3037 26.6254 40.1675 31.7107 37.5483C31.3833 40.0526 33.3338 42.839 36.3501 42.954C39.2376 43.0132 41.4075 40.7666 41.4075 38.0777C41.4493 35.2982 39.0595 33.8941 39.0669 33.9398ZM35.7232 17.8899C34.7061 18.2382 34.0234 19.1995 34.0234 20.2723V25.2601C33.5892 26.1145 32.347 27.8329 32.1147 29.0914C32.0451 29.4119 32.0033 29.7323 31.9754 30.0667C31.9336 30.5264 31.9057 30.8747 31.655 31.3206C31.0117 32.5814 28.1789 34.439 27.7818 34.2463C27.2733 33.7772 27.4056 31.5435 27.4056 31.5435C27.4474 30.3732 27.5171 28.1858 25.7477 27.0434C25.0093 26.5836 24.2012 26.4861 23.421 26.3886C21.8513 26.1959 21.6192 26.01 21.4148 25.5526C21.2337 25.065 21.3591 24.3127 21.7074 23.7275C22.1671 22.9334 24.0201 22.0278 24.9814 21.8606C25.2879 21.784 25.3855 21.9163 25.6084 22.0974C25.9428 22.39 26.305 22.6269 26.6951 22.8359C27.1549 23.0866 27.9908 22.8637 28.6177 22.6547C28.9103 22.5433 30.415 21.986 30.7215 21.2894C30.942 20.7042 30.6982 20.0424 28.771 19.4503C25.6362 18.4287 26.6579 17.6507 26.8762 17.0818C27.5728 16.0091 28.1998 15.605 28.9103 15.7444C29.5651 15.8697 30.0946 15.6468 30.3175 15.1453C30.5265 14.6298 30.3871 14.0307 29.9831 13.6545C32.254 14.4487 34.2603 15.9394 35.7232 17.8899ZM23.8111 12.9161C24.7307 13.2644 25.7494 13.9035 25.3948 14.0547C25.2492 14.1664 24.8655 14.3745 23.8599 14.6611C22.7801 14.9398 22.127 14.6175 21.3033 14.7412C20.7042 14.8666 20.5092 15.2846 20.3559 15.5911C20.2166 15.8697 20.1609 15.9673 19.9658 16.023C19.2832 16.2041 19.116 16.3713 18.489 17.0122C18.2661 17.249 17.9457 17.5695 17.5138 18.0014C16.5664 18.9348 15.5493 18.6283 15.0338 18.3775C17.054 15.3961 20.2445 13.4037 23.8111 12.9161ZM25.5248 38.217C18.5169 38.217 12.8325 32.5327 12.8325 25.5248C12.8325 23.2678 13.4316 21.0386 14.588 19.0881C15.0478 19.3389 16.711 20.025 18.1128 18.6144C18.5587 18.1825 18.8791 17.8481 19.116 17.6113C19.7151 16.9983 19.7429 16.9565 20.2027 16.845C20.7739 16.6917 20.9829 16.2877 21.1222 15.9812C21.2476 15.7165 21.3033 15.619 21.4984 15.5772C21.9965 15.4884 23.0153 15.7409 23.814 15.5553C24.7481 15.3403 26.3329 14.8875 26.3329 14.0168C26.3468 13.557 25.9845 13.153 25.5109 12.8465C26.4258 12.8325 27.7121 12.9858 28.7571 13.2644C28.7989 13.557 28.9425 13.8404 29.1851 14.1048C29.2659 14.1929 29.5257 14.3302 29.5529 14.6231C29.5809 14.8262 29.4838 15.0069 29.0496 14.9084C27.4614 14.588 26.514 16.0509 26.1517 16.6082C25.7198 17.2769 25.5944 17.876 25.7616 18.4054C26.0821 19.3667 27.2942 19.7986 28.4645 20.2166C28.781 20.3338 29.464 20.5331 29.7958 20.7899C30.4429 21.1222 27.531 22.2646 27.0852 22.0835C26.7508 21.9024 26.4304 21.6934 26.1517 21.4426C25.8034 21.164 25.5109 20.9132 24.856 21.0247C23.7415 21.2197 21.6377 22.2368 21.0107 23.2956C20.5371 24.1037 20.3977 25.0929 20.6624 25.8313C20.876 26.3583 21.027 26.9622 23.3653 27.2106C26.8205 27.4091 26.6672 30.0527 26.6254 31.5156C26.6254 31.5156 26.4025 34.3811 27.3499 34.929C27.5171 35.0405 27.8421 35.2286 28.353 35.0265C29.7184 34.4971 31.6689 33.09 32.4212 31.7525C32.7556 31.1534 32.7974 30.6518 32.8392 30.1642C32.9507 28.7152 33.5915 27.7121 34.0652 26.9459V33.9398C33.1039 34.5111 32.3794 35.4027 32.0033 36.4616C30.011 37.604 27.7957 38.217 25.5248 38.217ZM40.0979 40.0003C39.2898 41.5329 37.5636 42.2448 36.3919 42.132C34.316 42.0344 32.6302 40.3904 32.5188 38.3006C32.4352 36.7402 33.2572 35.2773 34.6365 34.5528C34.7758 34.4832 34.8594 34.3439 34.8594 34.1906V20.2723C34.8594 19.3389 35.6117 18.5865 36.5452 18.5865C37.4786 18.5865 38.231 19.3389 38.231 20.2723V34.1767C38.231 34.3299 38.3146 34.4693 38.4539 34.5389C40.4183 35.5978 41.1567 38.0359 40.0979 40.0003Z" fill="#BD0324"/>
<path d="M36.9631 35.7231V21.6377C36.9631 21.4008 36.782 21.2197 36.5451 21.2197C36.3083 21.2197 36.1272 21.4008 36.1272 21.6377V35.7371C34.8176 35.9739 33.9398 37.2139 34.1767 38.5235C34.4135 39.8331 35.6535 40.7109 36.9631 40.474C38.2727 40.2372 39.1505 38.9972 38.9136 37.6876C38.7464 36.6845 37.9662 35.9043 36.9631 35.7231ZM36.5451 39.666C35.6814 39.666 34.9708 38.9694 34.9708 38.0916C34.9708 37.2278 35.7046 36.5173 36.5451 36.5173C37.3857 36.5173 38.1334 37.2418 38.1195 38.1056C38.1056 38.9833 37.4089 39.666 36.5451 39.666Z" fill="#BD0324"/>
</svg>
