<svg width="55" height="55" viewBox="0 0 55 55" fill="none" xmlns="http://www.w3.org/2000/svg">
<circle cx="27.5" cy="27.5" r="27.5" fill="#D9D9D9"/>
<path d="M41.5333 38.7676V36.3023C41.5325 35.6719 41.2818 35.0676 40.836 34.6218C40.3903 34.1761 39.7859 33.9253 39.1555 33.9245H33.5915L32.0797 23.3568C32.3483 23.2494 32.5777 23.0625 32.7372 22.8213C32.8968 22.5801 32.9789 22.2959 32.9726 22.0067C32.9664 21.7175 32.872 21.4372 32.7022 21.203C32.5324 20.9689 32.2951 20.7922 32.0222 20.6965V17.7557H33.9244C34.028 17.7557 34.1288 17.722 34.2114 17.6595C34.294 17.597 34.354 17.5093 34.3822 17.4096C34.4104 17.3099 34.4053 17.2038 34.3676 17.1073C34.33 17.0108 34.2619 16.9292 34.1736 16.875L27.9914 13.0705C27.9164 13.0244 27.8302 13 27.7422 13C27.6542 13 27.5679 13.0244 27.493 13.0705L21.3108 16.875C21.2225 16.9292 21.1544 17.0108 21.1167 17.1073C21.0791 17.2038 21.074 17.3099 21.1022 17.4096C21.1304 17.5093 21.1904 17.597 21.273 17.6595C21.3556 17.722 21.4564 17.7557 21.56 17.7557H23.4622V20.6965C23.1893 20.7922 22.952 20.9689 22.7822 21.203C22.6123 21.4372 22.518 21.7175 22.5117 22.0067C22.5055 22.2959 22.5876 22.5801 22.7472 22.8213C22.9067 23.0625 23.1361 23.2494 23.4047 23.3568L21.8929 33.9245H16.3289C15.6985 33.9253 15.0941 34.1761 14.6484 34.6218C14.2026 35.0676 13.9519 35.6719 13.9511 36.3023V38.7676C13.6739 38.8656 13.4337 39.0469 13.2635 39.2866C13.0932 39.5263 13.0012 39.8127 13 40.1068V42.009C13 42.1351 13.0501 42.2561 13.1393 42.3452C13.2285 42.4344 13.3494 42.4845 13.4756 42.4845H42.0088C42.135 42.4845 42.2559 42.4344 42.3451 42.3452C42.4343 42.2561 42.4844 42.1351 42.4844 42.009V40.1068C42.4832 39.8127 42.3911 39.5263 42.2209 39.2866C42.0506 39.0469 41.8105 38.8656 41.5333 38.7676ZM39.1555 34.8757C39.5339 34.8757 39.8968 35.026 40.1643 35.2935C40.4319 35.5611 40.5822 35.9239 40.5822 36.3023V38.6801H36.3022V38.2045C36.3014 37.5741 36.0507 36.9698 35.6049 36.524C35.1592 36.0783 34.5548 35.8275 33.9244 35.8268H33.8612L33.7252 34.8757H39.1555ZM31.1343 23.4623L31.4059 25.3646H24.0804L24.3524 23.4623H31.1343ZM23.9425 26.3157H31.5419L31.7459 27.7423H23.7385L23.9425 26.3157ZM23.6049 28.6934H31.8795L32.1515 30.5957H23.331L23.6049 28.6934ZM29.1689 35.8268H26.3155V34.4001C26.3155 34.0217 26.4658 33.6588 26.7334 33.3913C27.0009 33.1237 27.3638 32.9734 27.7422 32.9734C28.1206 32.9734 28.4834 33.1237 28.751 33.3913C29.0186 33.6588 29.1689 34.0217 29.1689 34.4001V35.8268ZM30.0724 33.9245H32.6295L32.901 35.8268H30.12V34.4001C30.1201 34.2404 30.1042 34.0811 30.0724 33.9245ZM32.2895 31.5468L32.4935 32.9734H29.6321C29.4132 32.6784 29.1282 32.4386 28.8001 32.2735C28.4719 32.1083 28.1096 32.0223 27.7422 32.0223C27.3748 32.0223 27.0125 32.1083 26.6843 32.2735C26.3562 32.4386 26.0712 32.6784 25.8523 32.9734H22.9909L23.1949 31.5468H32.2895ZM25.412 33.9245C25.3802 34.0811 25.3643 34.2404 25.3644 34.4001V35.8268H22.5834L22.8549 33.9245H25.412ZM33.9244 36.7779C34.3028 36.7779 34.6657 36.9282 34.9332 37.1957C35.2008 37.4633 35.3511 37.8262 35.3511 38.2045V38.6801H20.1333V38.2045C20.1333 37.8262 20.2836 37.4633 20.5512 37.1957C20.8187 36.9282 21.1816 36.7779 21.56 36.7779H33.9244ZM31.0711 20.609H28.2178V17.7557H31.0711V20.609ZM27.7422 14.034L32.2443 16.8046H23.2401L27.7422 14.034ZM27.2666 17.7557V20.609H24.4133V17.7557H27.2666ZM23.9378 21.5601H31.5466C31.6728 21.5601 31.7937 21.6102 31.8829 21.6994C31.9721 21.7886 32.0222 21.9095 32.0222 22.0357C32.0222 22.1618 31.9721 22.2828 31.8829 22.3719C31.7937 22.4611 31.6728 22.5112 31.5466 22.5112H23.9378C23.8116 22.5112 23.6907 22.4611 23.6015 22.3719C23.5123 22.2828 23.4622 22.1618 23.4622 22.0357C23.4622 21.9095 23.5123 21.7886 23.6015 21.6994C23.6907 21.6102 23.8116 21.5601 23.9378 21.5601ZM16.3289 34.8757H21.7588L21.6228 35.8268H21.56C20.9296 35.8275 20.3252 36.0783 19.8795 36.524C19.4337 36.9698 19.183 37.5741 19.1822 38.2045V38.6801H14.9022V36.3023C14.9022 35.9239 15.0525 35.5611 15.3201 35.2935C15.5876 35.026 15.9505 34.8757 16.3289 34.8757ZM41.5333 41.5334H13.9511V40.1068C13.9511 39.9806 14.0012 39.8597 14.0904 39.7705C14.1796 39.6813 14.3005 39.6312 14.4267 39.6312H41.0577C41.1839 39.6312 41.3048 39.6813 41.394 39.7705C41.4832 39.8597 41.5333 39.9806 41.5333 40.1068V41.5334Z" fill="white"/>
<path d="M42.2642 14.977C42.1967 14.934 42.1195 14.9088 42.0397 14.9035C41.9599 14.8983 41.8801 14.9133 41.8076 14.947L34.6743 18.2759C34.5923 18.3142 34.5229 18.3751 34.4743 18.4514C34.4257 18.5277 34.3999 18.6163 34.3999 18.7068V20.609C34.3999 20.6995 34.4257 20.7881 34.4743 20.8644C34.5229 20.9407 34.5923 21.0016 34.6743 21.0399L41.8076 24.3687C41.8801 24.4026 41.9599 24.4176 42.0397 24.4124C42.1195 24.4072 42.1967 24.3819 42.2642 24.339C42.3316 24.296 42.3872 24.2368 42.4257 24.1666C42.4641 24.0965 42.4843 24.0179 42.4843 23.9379V15.3779C42.4843 15.298 42.4641 15.2193 42.4256 15.1492C42.3871 15.0792 42.3316 15.0199 42.2642 14.977ZM41.5332 23.1913L35.351 20.3061V19.0097L41.5332 16.1245V23.1913Z" fill="white"/>
<path d="M13.2202 24.3388C13.2876 24.3818 13.3648 24.407 13.4446 24.4123C13.5244 24.4175 13.6042 24.4025 13.6767 24.3687L20.81 21.0399C20.892 21.0016 20.9614 20.9407 21.01 20.8644C21.0586 20.7881 21.0844 20.6995 21.0844 20.609V18.7068C21.0844 18.6163 21.0586 18.5277 21.01 18.4514C20.9614 18.3751 20.892 18.3142 20.81 18.2759L13.6767 14.947C13.6042 14.9132 13.5244 14.8982 13.4446 14.9034C13.3648 14.9086 13.2876 14.9339 13.2201 14.9768C13.1527 15.0198 13.0971 15.079 13.0587 15.1491C13.0202 15.2192 13 15.2979 13 15.3779V23.9379C13 24.0178 13.0202 24.0965 13.0587 24.1665C13.0972 24.2366 13.1527 24.2958 13.2202 24.3388ZM13.9511 16.1245L20.1333 19.0097V20.3061L13.9511 23.1913V16.1245Z" fill="white"/>
<path d="M41.3602 27.4399C41.2177 27.1188 40.9886 26.8437 40.6987 26.6455C40.4087 26.4473 40.0692 26.3337 39.7183 26.3175C39.3674 26.3013 39.0189 26.3831 38.7119 26.5538C38.4049 26.7245 38.1514 26.9773 37.98 27.2839C37.8968 27.2725 37.8129 27.2668 37.7289 27.2668C37.2244 27.2668 36.7405 27.4672 36.3838 27.8239C36.0271 28.1807 35.8267 28.6645 35.8267 29.169C35.8267 29.6735 36.0271 30.1573 36.3838 30.5141C36.7405 30.8708 37.2244 31.0712 37.7289 31.0712H40.5822C41.0867 31.0712 41.5705 30.8708 41.9273 30.5141C42.284 30.1573 42.4844 29.6735 42.4844 29.169C42.4855 28.8027 42.3797 28.444 42.18 28.1369C41.9803 27.8298 41.6954 27.5876 41.3602 27.4399ZM40.5822 30.1201H37.7289C37.5883 30.1209 37.4492 30.0905 37.3217 30.031C37.1943 29.9716 37.0816 29.8847 36.9918 29.7764C36.902 29.6682 36.8373 29.5414 36.8023 29.4052C36.7674 29.269 36.7631 29.1267 36.7898 28.9886C36.8165 28.8506 36.8734 28.7201 36.9566 28.6067C37.0397 28.4933 37.147 28.3997 37.2706 28.3327C37.3943 28.2657 37.5313 28.227 37.6717 28.2193C37.8121 28.2116 37.9525 28.2352 38.0827 28.2883C38.145 28.3132 38.2119 28.3247 38.2789 28.322C38.346 28.3192 38.4117 28.3023 38.4718 28.2723C38.5318 28.2424 38.5849 28.2 38.6274 28.1481C38.6699 28.0962 38.701 28.0359 38.7185 27.9711C38.7706 27.7714 38.8867 27.5944 39.0491 27.4672C39.2115 27.3399 39.4112 27.2694 39.6175 27.2666C39.8238 27.2637 40.0253 27.3286 40.1911 27.4513C40.357 27.574 40.478 27.7478 40.5356 27.9459C40.5582 28.0212 40.5992 28.0897 40.6548 28.1453C40.7104 28.2009 40.7789 28.2419 40.8542 28.2645C41.0501 28.3214 41.2222 28.4404 41.3446 28.6035C41.4671 28.7666 41.5333 28.965 41.5333 29.169C41.5333 29.4212 41.4331 29.6632 41.2547 29.8415C41.0764 30.0199 40.8345 30.1201 40.5822 30.1201Z" fill="white"/>
<path d="M14.9022 31.0712H17.7556C18.2601 31.0712 18.7439 30.8708 19.1006 30.5141C19.4574 30.1573 19.6578 29.6735 19.6578 29.169C19.6578 28.6645 19.4574 28.1807 19.1006 27.8239C18.7439 27.4672 18.2601 27.2668 17.7556 27.2668C17.6716 27.2668 17.5877 27.2725 17.5045 27.2839C17.333 26.9773 17.0796 26.7245 16.7726 26.5538C16.4655 26.3831 16.1171 26.3013 15.7661 26.3175C15.4152 26.3337 15.0758 26.4473 14.7858 26.6455C14.4958 26.8437 14.2667 27.1188 14.1242 27.4399C13.789 27.5876 13.5041 27.8298 13.3044 28.1369C13.1048 28.444 12.999 28.8027 13 29.169C13 29.6735 13.2004 30.1573 13.5572 30.5141C13.9139 30.8708 14.3977 31.0712 14.9022 31.0712ZM14.6302 28.2654C14.7055 28.2428 14.774 28.2019 14.8297 28.1463C14.8853 28.0907 14.9262 28.0221 14.9488 27.9468C15.0064 27.7487 15.1274 27.575 15.2933 27.4523C15.4591 27.3296 15.6607 27.2646 15.867 27.2675C16.0733 27.2704 16.2729 27.3408 16.4353 27.4681C16.5977 27.5954 16.7138 27.7724 16.7659 27.972C16.7835 28.0368 16.8145 28.0971 16.857 28.1491C16.8996 28.201 16.9526 28.2433 17.0127 28.2733C17.0727 28.3033 17.1384 28.3202 17.2055 28.3229C17.2726 28.3257 17.3394 28.3142 17.4017 28.2892C17.532 28.2357 17.6725 28.2118 17.8132 28.2192C17.9538 28.2267 18.091 28.2652 18.215 28.3321C18.3389 28.399 18.4464 28.4926 18.5297 28.6062C18.6131 28.7197 18.6702 28.8503 18.6969 28.9886C18.7236 29.1268 18.7193 29.2693 18.6842 29.4057C18.6492 29.5421 18.5843 29.669 18.4942 29.7773C18.4042 29.8856 18.2912 29.9725 18.1634 30.0318C18.0357 30.091 17.8964 30.1212 17.7556 30.1201H14.9022C14.65 30.1201 14.4081 30.0199 14.2297 29.8415C14.0513 29.6632 13.9511 29.4212 13.9511 29.169C13.9513 28.9652 14.0177 28.767 14.1401 28.6041C14.2625 28.4412 14.4345 28.3223 14.6302 28.2654Z" fill="white"/>
<path d="M16.8044 35.8268H15.8533V36.7779H16.8044V35.8268Z" fill="white"/>
<path d="M18.7066 35.8268H17.7555V36.7779H18.7066V35.8268Z" fill="white"/>
<path d="M39.631 35.8268H38.6799V36.7779H39.631V35.8268Z" fill="white"/>
<path d="M37.7288 35.8268H36.7777V36.7779H37.7288V35.8268Z" fill="white"/>
</svg>
