<svg width="30" height="30" viewBox="0 0 30 30" fill="none" xmlns="http://www.w3.org/2000/svg">
<path d="M28.5333 25.7676V23.3023C28.5325 22.6719 28.2818 22.0676 27.836 21.6218C27.3903 21.1761 26.7859 20.9253 26.1555 20.9245H20.5915L19.0797 10.3568C19.3483 10.2494 19.5777 10.0625 19.7372 9.8213C19.8968 9.58006 19.9789 9.29587 19.9726 9.0067C19.9664 8.71754 19.872 8.43717 19.7022 8.20305C19.5324 7.96893 19.2951 7.79221 19.0222 7.69651V4.75568H20.9244C21.028 4.75573 21.1288 4.72195 21.2114 4.65948C21.294 4.59701 21.354 4.50927 21.3822 4.4096C21.4104 4.30992 21.4053 4.20376 21.3676 4.10726C21.33 4.01076 21.2619 3.92919 21.1736 3.87495L14.9914 0.0705161C14.9164 0.0244106 14.8302 0 14.7422 0C14.6542 0 14.5679 0.0244106 14.493 0.0705161L8.31079 3.87495C8.22254 3.92919 8.1544 4.01076 8.11675 4.10726C8.07909 4.20376 8.07397 4.30992 8.10218 4.4096C8.13038 4.50927 8.19036 4.59701 8.27299 4.65948C8.35562 4.72195 8.4564 4.75573 8.55999 4.75568H10.4622V7.69651C10.1893 7.79221 9.95202 7.96893 9.78219 8.20305C9.61235 8.43717 9.518 8.71754 9.51175 9.0067C9.50549 9.29587 9.58763 9.58006 9.74718 9.8213C9.90674 10.0625 10.1361 10.2494 10.4047 10.3568L8.89287 20.9245H3.32888C2.69849 20.9253 2.09413 21.1761 1.64838 21.6218C1.20262 22.0676 0.951865 22.6719 0.951109 23.3023V25.7676C0.673905 25.8656 0.433749 26.0469 0.263499 26.2866C0.0932486 26.5263 0.00121883 26.8127 0 27.1068V29.009C0 29.1351 0.0501029 29.2561 0.139287 29.3452C0.228471 29.4344 0.34943 29.4845 0.475555 29.4845H29.0088C29.135 29.4845 29.2559 29.4344 29.3451 29.3452C29.4343 29.2561 29.4844 29.1351 29.4844 29.009V27.1068C29.4832 26.8127 29.3911 26.5263 29.2209 26.2866C29.0506 26.0469 28.8105 25.8656 28.5333 25.7676ZM26.1555 21.8757C26.5339 21.8757 26.8968 22.026 27.1643 22.2935C27.4319 22.5611 27.5822 22.9239 27.5822 23.3023V25.6801H23.3022V25.2045C23.3014 24.5741 23.0507 23.9698 22.6049 23.524C22.1592 23.0783 21.5548 22.8275 20.9244 22.8268H20.8612L20.7252 21.8757H26.1555ZM18.1343 10.4623L18.4059 12.3646H11.0804L11.3524 10.4623H18.1343ZM10.9425 13.3157H18.5419L18.7459 14.7423H10.7385L10.9425 13.3157ZM10.6049 15.6934H18.8795L19.1515 17.5957H10.331L10.6049 15.6934ZM16.1689 22.8268H13.3155V21.4001C13.3155 21.0217 13.4658 20.6588 13.7334 20.3913C14.0009 20.1237 14.3638 19.9734 14.7422 19.9734C15.1206 19.9734 15.4834 20.1237 15.751 20.3913C16.0186 20.6588 16.1689 21.0217 16.1689 21.4001V22.8268ZM17.0724 20.9245H19.6295L19.901 22.8268H17.12V21.4001C17.1201 21.2404 17.1042 21.0811 17.0724 20.9245ZM19.2895 18.5468L19.4935 19.9734H16.6321C16.4132 19.6784 16.1282 19.4386 15.8001 19.2735C15.4719 19.1083 15.1096 19.0223 14.7422 19.0223C14.3748 19.0223 14.0125 19.1083 13.6843 19.2735C13.3562 19.4386 13.0712 19.6784 12.8523 19.9734H9.99093L10.1949 18.5468H19.2895ZM12.412 20.9245C12.3802 21.0811 12.3643 21.2404 12.3644 21.4001V22.8268H9.58338L9.85492 20.9245H12.412ZM20.9244 23.7779C21.3028 23.7779 21.6657 23.9282 21.9332 24.1957C22.2008 24.4633 22.3511 24.8262 22.3511 25.2045V25.6801H7.13332V25.2045C7.13332 24.8262 7.28363 24.4633 7.55118 24.1957C7.81873 23.9282 8.18161 23.7779 8.55999 23.7779H20.9244ZM18.0711 7.60901H15.2178V4.75568H18.0711V7.60901ZM14.7422 1.03399L19.2443 3.80457H10.2401L14.7422 1.03399ZM14.2666 4.75568V7.60901H11.4133V4.75568H14.2666ZM10.9378 8.56012H18.5466C18.6728 8.56012 18.7937 8.61022 18.8829 8.69941C18.9721 8.78859 19.0222 8.90955 19.0222 9.03567C19.0222 9.1618 18.9721 9.28276 18.8829 9.37194C18.7937 9.46113 18.6728 9.51123 18.5466 9.51123H10.9378C10.8116 9.51123 10.6907 9.46113 10.6015 9.37194C10.5123 9.28276 10.4622 9.1618 10.4622 9.03567C10.4622 8.90955 10.5123 8.78859 10.6015 8.69941C10.6907 8.61022 10.8116 8.56012 10.9378 8.56012ZM3.32888 21.8757H8.75877L8.62276 22.8268H8.55999C7.92959 22.8275 7.32523 23.0783 6.87948 23.524C6.43372 23.9698 6.18297 24.5741 6.18221 25.2045V25.6801H1.90222V23.3023C1.90222 22.9239 2.05253 22.5611 2.32008 22.2935C2.58763 22.026 2.95051 21.8757 3.32888 21.8757ZM28.5333 28.5334H0.951109V27.1068C0.951109 26.9806 1.00121 26.8597 1.0904 26.7705C1.17958 26.6813 1.30054 26.6312 1.42666 26.6312H28.0577C28.1839 26.6312 28.3048 26.6813 28.394 26.7705C28.4832 26.8597 28.5333 26.9806 28.5333 27.1068V28.5334Z" fill="white"/>
<path d="M29.2642 1.97701C29.1968 1.93403 29.1196 1.90875 29.0398 1.90352C28.96 1.89828 28.8802 1.91325 28.8077 1.94705L21.6744 5.27593C21.5924 5.3142 21.523 5.37507 21.4744 5.45139C21.4258 5.5277 21.4 5.6163 21.4 5.70678V7.609C21.4 7.69948 21.4258 7.78808 21.4744 7.8644C21.523 7.94071 21.5924 8.00158 21.6744 8.03985L28.8077 11.3687C28.8801 11.4026 28.96 11.4176 29.0398 11.4124C29.1196 11.4072 29.1968 11.3819 29.2642 11.339C29.3317 11.296 29.3872 11.2368 29.4257 11.1666C29.4642 11.0965 29.4844 11.0179 29.4844 10.9379V2.3779C29.4843 2.29796 29.4641 2.21931 29.4257 2.14924C29.3872 2.07917 29.3317 2.01994 29.2642 1.97701ZM28.5333 10.1913L22.3511 7.30607V6.00971L28.5333 3.12452V10.1913Z" fill="white"/>
<path d="M0.220182 11.3388C0.287622 11.3818 0.364811 11.407 0.444609 11.4123C0.524406 11.4175 0.604236 11.4025 0.676714 11.3687L7.81004 8.03985C7.89202 8.00158 7.96139 7.94071 8.00999 7.86439C8.0586 7.78808 8.08442 7.69948 8.08443 7.609V5.70678C8.08442 5.6163 8.0586 5.5277 8.00999 5.45139C7.96139 5.37507 7.89202 5.3142 7.81004 5.27593L0.676714 1.94705C0.604248 1.91322 0.524421 1.89821 0.444617 1.90341C0.364813 1.90861 0.28761 1.93386 0.22015 1.97681C0.152689 2.01976 0.0971499 2.07903 0.0586695 2.14914C0.0201891 2.21925 1.03707e-05 2.29792 0 2.3779V10.9379C4.6555e-05 11.0178 0.0202457 11.0965 0.0587304 11.1665C0.097215 11.2366 0.152743 11.2958 0.220182 11.3388ZM0.951109 3.12452L7.13332 6.00971V7.30607L0.951109 10.1913V3.12452Z" fill="white"/>
<path d="M28.3602 14.4399C28.2177 14.1188 27.9886 13.8437 27.6986 13.6455C27.4086 13.4473 27.0691 13.3337 26.7182 13.3175C26.3673 13.3013 26.0188 13.3831 25.7118 13.5538C25.4048 13.7245 25.1514 13.9773 24.9799 14.2839C24.8967 14.2725 24.8128 14.2668 24.7288 14.2668C24.2243 14.2668 23.7405 14.4672 23.3837 14.8239C23.027 15.1807 22.8266 15.6645 22.8266 16.169C22.8266 16.6735 23.027 17.1573 23.3837 17.5141C23.7405 17.8708 24.2243 18.0712 24.7288 18.0712H27.5821C28.0866 18.0712 28.5705 17.8708 28.9272 17.5141C29.284 17.1573 29.4844 16.6735 29.4844 16.169C29.4854 15.8027 29.3796 15.444 29.1799 15.1369C28.9803 14.8298 28.6954 14.5876 28.3602 14.4399ZM27.5821 17.1201H24.7288C24.5882 17.1209 24.4491 17.0905 24.3217 17.031C24.1942 16.9716 24.0815 16.8847 23.9917 16.7764C23.9019 16.6682 23.8372 16.5414 23.8023 16.4052C23.7674 16.269 23.7631 16.1267 23.7897 15.9886C23.8164 15.8506 23.8734 15.7201 23.9565 15.6067C24.0397 15.4933 24.1469 15.3997 24.2706 15.3327C24.3942 15.2657 24.5312 15.227 24.6716 15.2193C24.812 15.2116 24.9524 15.2352 25.0826 15.2883C25.1449 15.3132 25.2118 15.3247 25.2789 15.322C25.3459 15.3192 25.4117 15.3023 25.4717 15.2723C25.5318 15.2424 25.5848 15.2 25.6273 15.1481C25.6699 15.0962 25.7009 15.0359 25.7184 14.9711C25.7705 14.7714 25.8867 14.5944 26.0491 14.4672C26.2114 14.3399 26.4111 14.2694 26.6174 14.2666C26.8237 14.2637 27.0252 14.3286 27.1911 14.4513C27.3569 14.574 27.4779 14.7478 27.5355 14.9459C27.5582 15.0212 27.5991 15.0897 27.6547 15.1453C27.7103 15.2009 27.7789 15.2419 27.8542 15.2645C28.05 15.3214 28.2221 15.4404 28.3446 15.6035C28.467 15.7666 28.5332 15.965 28.5333 16.169C28.5333 16.4212 28.4331 16.6632 28.2547 16.8415C28.0763 17.0199 27.8344 17.1201 27.5821 17.1201Z" fill="white"/>
<path d="M1.90223 18.0712H4.75556C5.26005 18.0712 5.74389 17.8708 6.10063 17.5141C6.45736 17.1573 6.65777 16.6735 6.65777 16.169C6.65777 15.6645 6.45736 15.1807 6.10063 14.8239C5.74389 14.4672 5.26005 14.2668 4.75556 14.2668C4.67157 14.2668 4.58767 14.2725 4.50446 14.2839C4.33301 13.9773 4.07957 13.7245 3.77255 13.5538C3.46553 13.3831 3.11705 13.3013 2.76615 13.3175C2.41524 13.3337 2.07578 13.4473 1.78578 13.6455C1.49578 13.8437 1.26671 14.1188 1.12422 14.4399C0.788997 14.5876 0.504111 14.8298 0.304438 15.1369C0.104766 15.444 -0.0010284 15.8027 7.53562e-06 16.169C7.53562e-06 16.6735 0.200419 17.1573 0.557155 17.5141C0.91389 17.8708 1.39773 18.0712 1.90223 18.0712ZM1.63021 15.2654C1.70552 15.2428 1.77405 15.2019 1.82965 15.1463C1.88526 15.0907 1.92621 15.0221 1.94883 14.9468C2.00643 14.7487 2.12744 14.575 2.29329 14.4523C2.45915 14.3296 2.66068 14.2646 2.86698 14.2675C3.07327 14.2704 3.27293 14.3408 3.43531 14.4681C3.5977 14.5954 3.71384 14.7724 3.76593 14.972C3.78346 15.0368 3.81452 15.0971 3.85704 15.1491C3.89957 15.201 3.9526 15.2433 4.01266 15.2733C4.07272 15.3033 4.13844 15.3202 4.2055 15.3229C4.27256 15.3257 4.33944 15.3142 4.40174 15.2892C4.53201 15.2357 4.67254 15.2118 4.81318 15.2192C4.95381 15.2267 5.09104 15.2652 5.21496 15.3321C5.33888 15.399 5.44639 15.4926 5.52974 15.6062C5.61308 15.7197 5.67017 15.8503 5.69689 15.9886C5.72361 16.1268 5.71929 16.2693 5.68425 16.4057C5.6492 16.5421 5.5843 16.669 5.49424 16.7773C5.40417 16.8856 5.29118 16.9725 5.16344 17.0318C5.0357 17.091 4.89638 17.1212 4.75556 17.1201H1.90223C1.64998 17.1201 1.40806 17.0199 1.22969 16.8415C1.05132 16.6632 0.951117 16.4212 0.951117 16.169C0.951348 15.9652 1.01766 15.767 1.1401 15.6041C1.26254 15.4412 1.43451 15.3223 1.63021 15.2654Z" fill="white"/>
<path d="M3.80444 22.8268H2.85333V23.7779H3.80444V22.8268Z" fill="white"/>
<path d="M5.70666 22.8268H4.75555V23.7779H5.70666V22.8268Z" fill="white"/>
<path d="M26.6311 22.8268H25.68V23.7779H26.6311V22.8268Z" fill="white"/>
<path d="M24.7288 22.8268H23.7777V23.7779H24.7288V22.8268Z" fill="white"/>
</svg>
