<svg width="55" height="55" viewBox="0 0 55 55" fill="none" xmlns="http://www.w3.org/2000/svg">
<circle cx="27.5" cy="27.5" r="27.5" fill="#D9D9D9"/>
<path d="M29.0125 14.8125C25.8302 14.8366 22.7836 16.1044 20.5238 18.345C18.2639 20.5856 16.9701 23.6212 16.9187 26.8031L16.4875 26.3531C16.3116 26.1949 16.0823 26.1091 15.8457 26.1128C15.6092 26.1166 15.3828 26.2096 15.2119 26.3733C15.0411 26.537 14.9385 26.7593 14.9247 26.9955C14.9109 27.2317 14.9869 27.4644 15.1375 27.6469L17.1625 29.8125C17.2501 29.9047 17.3555 29.9781 17.4723 30.0283C17.5892 30.0784 17.715 30.1043 17.8422 30.1043C17.9693 30.1043 18.0952 30.0784 18.212 30.0283C18.3289 29.9781 18.4343 29.9047 18.5219 29.8125L20.5562 27.6844C20.7278 27.5041 20.8207 27.2631 20.8146 27.0143C20.8084 26.7655 20.7037 26.5294 20.5234 26.3578C20.3432 26.1863 20.1021 26.0933 19.8534 26.0995C19.6046 26.1056 19.3684 26.2104 19.1969 26.3906L18.7937 26.8125C18.8472 24.8016 19.4925 22.8511 20.6488 21.2051C21.8051 19.559 23.4211 18.2905 25.2946 17.5581C27.1682 16.8258 29.2161 16.6622 31.1822 17.0878C33.1482 17.5134 34.9452 18.5092 36.3481 19.9508C37.7511 21.3924 38.6978 23.2157 39.0699 25.1926C39.442 27.1695 39.2228 29.2122 38.4399 31.0652C37.657 32.9182 36.345 34.4992 34.6682 35.6104C32.9914 36.7216 31.0241 37.3136 29.0125 37.3125C28.7639 37.3125 28.5254 37.4113 28.3496 37.5871C28.1738 37.7629 28.075 38.0014 28.075 38.25C28.075 38.4986 28.1738 38.7371 28.3496 38.9129C28.5254 39.0887 28.7639 39.1875 29.0125 39.1875C32.2448 39.1875 35.3448 37.9035 37.6304 35.6179C39.916 33.3323 41.2 30.2323 41.2 27C41.2 23.7677 39.916 20.6677 37.6304 18.3821C35.3448 16.0965 32.2448 14.8125 29.0125 14.8125Z" fill="white"/>
<path d="M28 24.1875V28.875C28 29.1236 28.0988 29.3621 28.2746 29.5379C28.4504 29.7137 28.6889 29.8125 28.9375 29.8125H31.75C31.9986 29.8125 32.2371 29.7137 32.4129 29.5379C32.5887 29.3621 32.6875 29.1236 32.6875 28.875C32.6875 28.6264 32.5887 28.3879 32.4129 28.2121C32.2371 28.0363 31.9986 27.9375 31.75 27.9375H29.875V24.1875C29.875 23.9389 29.7762 23.7004 29.6004 23.5246C29.4246 23.3488 29.1861 23.25 28.9375 23.25C28.6889 23.25 28.4504 23.3488 28.2746 23.5246C28.0988 23.7004 28 23.9389 28 24.1875Z" fill="white"/>
</svg>
