<svg width="28" height="26" viewBox="0 0 28 26" fill="none" xmlns="http://www.w3.org/2000/svg">
<path d="M15.0125 0.8125C11.8302 0.836566 8.78364 2.10437 6.52377 4.34497C4.26391 6.58556 2.97006 9.6212 2.91874 12.8031L2.48749 12.3531C2.31156 12.1949 2.08232 12.1091 1.84575 12.1128C1.60917 12.1166 1.38276 12.2096 1.21194 12.3733C1.04111 12.537 0.938502 12.7593 0.924694 12.9955C0.910887 13.2317 0.986902 13.4644 1.13749 13.6469L3.16249 15.8125C3.25007 15.9047 3.35549 15.9781 3.47234 16.0283C3.58919 16.0784 3.71502 16.1043 3.84218 16.1043C3.96934 16.1043 4.09517 16.0784 4.21202 16.0283C4.32886 15.9781 4.43428 15.9047 4.52187 15.8125L6.55624 13.6844C6.7278 13.5041 6.82073 13.2631 6.81457 13.0143C6.80842 12.7655 6.70369 12.5294 6.52343 12.3578C6.34316 12.1863 6.10213 12.0933 5.85335 12.0995C5.60457 12.1056 5.36843 12.2104 5.19687 12.3906L4.79374 12.8125C4.84721 10.8016 5.49246 8.85113 6.64876 7.20508C7.80506 5.55902 9.42108 4.29048 11.2946 3.55814C13.1682 2.8258 15.2161 2.66219 17.1822 3.08778C19.1482 3.51336 20.9452 4.50924 22.3481 5.95083C23.7511 7.39243 24.6978 9.21572 25.0699 11.1926C25.442 13.1695 25.2228 15.2122 24.4399 17.0652C23.657 18.9182 22.345 20.4992 20.6682 21.6104C18.9914 22.7216 17.0241 23.3136 15.0125 23.3125C14.7639 23.3125 14.5254 23.4113 14.3496 23.5871C14.1738 23.7629 14.075 24.0014 14.075 24.25C14.075 24.4986 14.1738 24.7371 14.3496 24.9129C14.5254 25.0887 14.7639 25.1875 15.0125 25.1875C18.2448 25.1875 21.3448 23.9035 23.6304 21.6179C25.916 19.3323 27.2 16.2323 27.2 13C27.2 9.76767 25.916 6.66774 23.6304 4.38214C21.3448 2.09654 18.2448 0.8125 15.0125 0.8125Z" fill="white"/>
<path d="M14 10.1875V14.875C14 15.1236 14.0988 15.3621 14.2746 15.5379C14.4504 15.7137 14.6889 15.8125 14.9375 15.8125H17.75C17.9986 15.8125 18.2371 15.7137 18.4129 15.5379C18.5887 15.3621 18.6875 15.1236 18.6875 14.875C18.6875 14.6264 18.5887 14.3879 18.4129 14.2121C18.2371 14.0363 17.9986 13.9375 17.75 13.9375H15.875V10.1875C15.875 9.93886 15.7762 9.7004 15.6004 9.52459C15.4246 9.34877 15.1861 9.25 14.9375 9.25C14.6889 9.25 14.4504 9.34877 14.2746 9.52459C14.0988 9.7004 14 9.93886 14 10.1875Z" fill="white"/>
</svg>
