<svg width="30" height="31" viewBox="0 0 30 31" fill="none" xmlns="http://www.w3.org/2000/svg">
<path d="M3.20831 22C3.75221 22 4.2839 21.8387 4.73613 21.5365C5.18837 21.2344 5.54084 20.8049 5.74898 20.3024C5.95712 19.7999 6.01158 19.247 5.90547 18.7135C5.79936 18.1801 5.53745 17.6901 5.15286 17.3055C4.76826 16.9209 4.27826 16.659 3.74481 16.5528C3.21136 16.4467 2.65843 16.5012 2.15593 16.7093C1.65344 16.9175 1.22395 17.2699 0.921772 17.7222C0.619598 18.1744 0.458313 18.7061 0.458313 19.25C0.45911 19.9791 0.749097 20.6781 1.26465 21.1937C1.7802 21.7092 2.47921 21.9992 3.20831 22ZM3.20831 17.4167C3.57091 17.4167 3.92537 17.5242 4.22686 17.7256C4.52835 17.9271 4.76333 18.2134 4.90209 18.5484C5.04085 18.8834 5.07716 19.252 5.00642 19.6077C4.93568 19.9633 4.76107 20.29 4.50468 20.5464C4.24828 20.8028 3.92161 20.9774 3.56598 21.0481C3.21035 21.1188 2.84172 21.0825 2.50673 20.9438C2.17173 20.805 1.8854 20.57 1.68395 20.2685C1.4825 19.9671 1.37498 19.6126 1.37498 19.25C1.37546 18.7639 1.56878 18.2979 1.91249 17.9542C2.2562 17.6105 2.72223 17.4172 3.20831 17.4167Z" fill="white"/>
<path d="M24.1574 3.80099C24.0712 3.71633 23.955 3.66914 23.8342 3.66969C23.7134 3.67023 23.5977 3.71847 23.5122 3.80391C23.4268 3.88935 23.3785 4.00507 23.378 4.12589C23.3774 4.24671 23.4246 4.36286 23.5093 4.44907L24.8843 5.82407C24.9407 5.88044 25.0109 5.92111 25.0878 5.94206C25.1648 5.96302 25.2459 5.96353 25.3231 5.94355C25.4003 5.92357 25.4709 5.88379 25.5281 5.82814C25.5852 5.77249 25.6268 5.7029 25.6488 5.62624C25.6577 5.5958 26.5337 2.59963 28.1634 1.78501C28.2718 1.73047 28.3542 1.63514 28.3924 1.51994C28.4307 1.40474 28.4217 1.27907 28.3674 1.1705C28.3131 1.06194 28.218 0.97933 28.1029 0.940809C27.9878 0.902288 27.8621 0.910996 27.7534 0.965023C26.3121 1.68564 25.4138 3.6009 25.0123 4.65586L24.1574 3.80099Z" fill="white"/>
<path d="M25.2083 8.25C26.302 8.24881 27.3505 7.81383 28.1238 7.0405C28.8971 6.26717 29.3321 5.21865 29.3333 4.125C29.3329 3.77832 29.2897 3.43302 29.2049 3.09688C29.1753 2.97901 29.1001 2.8777 28.9959 2.81525C28.8916 2.7528 28.7668 2.73432 28.6489 2.76387C28.5311 2.79343 28.4298 2.86861 28.3673 2.97286C28.3049 3.07711 28.2864 3.2019 28.3159 3.31978C28.3822 3.58308 28.416 3.85349 28.4166 4.125C28.4166 4.75955 28.2285 5.37985 27.8759 5.90745C27.5234 6.43506 27.0223 6.84628 26.4361 7.08911C25.8498 7.33195 25.2048 7.39548 24.5824 7.27169C23.96 7.14789 23.3884 6.84233 22.9397 6.39363C22.491 5.94494 22.1854 5.37327 22.0616 4.75091C21.9378 4.12856 22.0014 3.48347 22.2442 2.89722C22.487 2.31098 22.8983 1.8099 23.4259 1.45737C23.9535 1.10483 24.5738 0.916667 25.2083 0.916667C25.4798 0.917277 25.7502 0.951098 26.0135 1.01738C26.1314 1.04693 26.2562 1.02845 26.3605 0.966003C26.4647 0.903551 26.5399 0.802243 26.5694 0.684365C26.599 0.566487 26.5805 0.441695 26.5181 0.337442C26.4556 0.233189 26.3543 0.158015 26.2364 0.128457C25.9003 0.0436013 25.555 0.000457619 25.2083 0C24.1143 1.63021e-08 23.0651 0.434597 22.2915 1.20818C21.5179 1.98177 21.0833 3.03098 21.0833 4.125C21.0833 5.21902 21.5179 6.26823 22.2915 7.04182C23.0651 7.8154 24.1143 8.25 25.2083 8.25Z" fill="white"/>
<path d="M6.41709 17.875C6.51208 17.8751 6.60472 17.8456 6.68207 17.7904L19.9492 8.37505L19.7173 9.53506C19.6934 9.65424 19.7179 9.77802 19.7853 9.87917C19.8527 9.98031 19.9575 10.0505 20.0767 10.0744C20.1064 10.0805 20.1367 10.0835 20.1671 10.0834C20.273 10.0833 20.3755 10.0465 20.4574 9.97939C20.5392 9.91224 20.5953 9.81881 20.616 9.71499L21.0744 7.42333C21.0748 7.42109 21.0739 7.41899 21.0744 7.41676C21.0793 7.37764 21.0793 7.33806 21.0741 7.29896C21.075 7.27862 21.0745 7.25823 21.0727 7.23795C21.0659 7.21833 21.0579 7.19918 21.0487 7.1806C21.0375 7.14333 21.0217 7.10763 21.0016 7.07436L20.9987 7.06794C20.9831 7.0507 20.9662 7.03475 20.948 7.02024C20.9043 6.96234 20.8412 6.92217 20.7702 6.90714C20.7524 6.89814 20.7339 6.8904 20.7149 6.88398L18.4233 6.42565C18.3043 6.40218 18.1808 6.42687 18.0799 6.4943C17.9791 6.56172 17.9091 6.66638 17.8853 6.78533C17.8614 6.90428 17.8858 7.02782 17.9529 7.12888C18.02 7.22993 18.1245 7.30024 18.2433 7.32441L19.4934 7.57436L6.15122 17.043C6.0719 17.0993 6.01255 17.1793 5.98176 17.2716C5.95097 17.3639 5.95033 17.4635 5.97994 17.5562C6.00954 17.6489 6.06786 17.7297 6.14645 17.787C6.22504 17.8443 6.31983 17.8751 6.41709 17.875Z" fill="white"/>
<path d="M28.875 29.3334H27.9583V9.62502C27.9584 9.56482 27.9465 9.50521 27.9235 9.44958C27.9005 9.39396 27.8667 9.34342 27.8242 9.30085C27.7816 9.25829 27.7311 9.22453 27.6754 9.20151C27.6198 9.17848 27.5602 9.16665 27.5 9.16669H22.9167C22.8565 9.16665 22.7969 9.17848 22.7412 9.20151C22.6856 9.22453 22.6351 9.25829 22.5925 9.30085C22.5499 9.34342 22.5162 9.39396 22.4932 9.44958C22.4701 9.50521 22.4583 9.56482 22.4583 9.62502V29.3334H20.625V15.125C20.625 15.0648 20.6132 15.0052 20.5902 14.9496C20.5672 14.894 20.5334 14.8434 20.4908 14.8009C20.4483 14.7583 20.3977 14.7245 20.3421 14.7015C20.2865 14.6785 20.2269 14.6667 20.1667 14.6667H15.5833C15.5231 14.6667 15.4635 14.6785 15.4079 14.7015C15.3523 14.7245 15.3017 14.7583 15.2592 14.8009C15.2166 14.8434 15.1828 14.894 15.1598 14.9496C15.1368 15.0052 15.125 15.0648 15.125 15.125V29.3334H13.2917V20.625C13.2917 20.5648 13.2799 20.5052 13.2568 20.4496C13.2338 20.394 13.2001 20.3434 13.1575 20.3009C13.1149 20.2583 13.0644 20.2245 13.0088 20.2015C12.9531 20.1785 12.8935 20.1667 12.8333 20.1667H8.25C8.1898 20.1667 8.13019 20.1785 8.07456 20.2015C8.01894 20.2245 7.9684 20.2583 7.92583 20.3009C7.88327 20.3434 7.84951 20.394 7.82649 20.4496C7.80346 20.5052 7.79163 20.5648 7.79167 20.625V29.3334H5.95833V23.375C5.95837 23.3148 5.94654 23.2552 5.92351 23.1996C5.90049 23.144 5.86673 23.0934 5.82417 23.0509C5.7816 23.0083 5.73106 22.9745 5.67544 22.9515C5.61981 22.9285 5.5602 22.9167 5.5 22.9167H0.916667C0.856468 22.9167 0.796853 22.9285 0.74123 22.9515C0.685606 22.9745 0.635066 23.0083 0.592499 23.0509C0.549932 23.0934 0.516173 23.144 0.493152 23.1996C0.470131 23.2552 0.458299 23.3148 0.458333 23.375V29.3334C0.336776 29.3334 0.220197 29.3816 0.134243 29.4676C0.0482886 29.5536 0 29.6701 0 29.7917C0 29.9132 0.0482886 30.0298 0.134243 30.1158C0.220197 30.2017 0.336776 30.25 0.458333 30.25H28.875C28.9966 30.25 29.1131 30.2017 29.1991 30.1158C29.285 30.0298 29.3333 29.9132 29.3333 29.7917C29.3333 29.6701 29.285 29.5536 29.1991 29.4676C29.1131 29.3816 28.9966 29.3334 28.875 29.3334ZM23.375 10.0834H27.0417V29.3334H23.375V10.0834ZM16.0417 15.5834H19.7083V29.3334H16.0417V15.5834ZM8.70833 21.0834H12.375V29.3334H8.70833V21.0834ZM1.375 23.8334H5.04167V29.3334H1.375V23.8334Z" fill="white"/>
</svg>
