<svg width="55" height="55" viewBox="0 0 55 55" fill="none" xmlns="http://www.w3.org/2000/svg">
<circle cx="27.5" cy="27.5" r="27.5" fill="#D9D9D9"/>
<path d="M37.8077 29.4615C37.6701 29.4614 37.5371 29.4121 37.4327 29.3225L33.5557 26H23.9615C23.1968 25.9991 22.4636 25.6949 21.9228 25.1541C21.382 24.6133 21.0778 23.8801 21.0769 23.1154V13.8846C21.0778 13.1198 21.382 12.3867 21.9228 11.8459C22.4636 11.3051 23.1968 11.0009 23.9615 11H40.1154C40.8801 11.0009 41.6133 11.3051 42.1541 11.8459C42.6948 12.3867 42.9991 13.1198 43 13.8846V23.1154C42.9991 23.8801 42.6948 24.6133 42.1541 25.1541C41.6133 25.6949 40.8801 25.9991 40.1154 26H38.3846V28.8846C38.3846 29.0376 38.3238 29.1844 38.2156 29.2926C38.1074 29.4008 37.9607 29.4615 37.8077 29.4615ZM23.9615 12.1538C23.5025 12.1538 23.0623 12.3362 22.7377 12.6608C22.4131 12.9854 22.2308 13.4256 22.2308 13.8846V23.1154C22.2308 23.5744 22.4131 24.0146 22.7377 24.3392C23.0623 24.6638 23.5025 24.8462 23.9615 24.8462H33.7692C33.9068 24.846 34.0399 24.8953 34.1442 24.9852L37.2307 27.6304V25.4231C37.2307 25.2701 37.2915 25.1233 37.3997 25.0151C37.5079 24.9069 37.6547 24.8462 37.8077 24.8462H40.1154C40.5744 24.8462 41.0146 24.6638 41.3392 24.3392C41.6638 24.0146 41.8461 23.5744 41.8461 23.1154V13.8846C41.8461 13.4256 41.6638 12.9854 41.3392 12.6608C41.0146 12.3362 40.5744 12.1538 40.1154 12.1538H23.9615Z" fill="white"/>
<path d="M32.0384 22.5385C31.9065 22.5371 31.7791 22.4902 31.6779 22.4057C31.5767 22.3211 31.5078 22.2041 31.4831 22.0746C31.4583 21.945 31.4791 21.8109 31.542 21.695C31.6049 21.579 31.706 21.4885 31.8281 21.4386C31.9502 21.3887 32.0858 21.3826 32.2119 21.4214C32.3379 21.4601 32.4467 21.5413 32.5197 21.6512C32.5927 21.761 32.6255 21.8927 32.6124 22.024C32.5993 22.1552 32.5412 22.2779 32.448 22.3712C32.3374 22.4766 32.1911 22.5363 32.0384 22.5385Z" fill="white"/>
<path d="M32.0385 20.8077C31.8855 20.8077 31.7388 20.7469 31.6306 20.6387C31.5224 20.5305 31.4616 20.3838 31.4616 20.2308V18.9748C31.4632 18.7221 31.5498 18.4772 31.7075 18.2797C31.8652 18.0822 32.0849 17.9436 32.331 17.8861C32.6139 17.8123 32.8583 17.6338 33.0146 17.3867C33.171 17.1397 33.2277 16.8425 33.1733 16.5552C33.1289 16.3269 33.0173 16.1171 32.8528 15.9526C32.6884 15.7881 32.4786 15.6765 32.2503 15.6321C32.0834 15.601 31.9118 15.607 31.7476 15.6498C31.5834 15.6926 31.4306 15.7711 31.3002 15.8797C31.1698 15.9883 31.0649 16.1243 30.9931 16.2781C30.9213 16.4318 30.8843 16.5995 30.8847 16.7692C30.8847 16.9222 30.8239 17.069 30.7157 17.1772C30.6075 17.2854 30.4608 17.3461 30.3078 17.3461C30.1547 17.3461 30.008 17.2854 29.8998 17.1772C29.7916 17.069 29.7308 16.9222 29.7308 16.7692C29.7309 16.3379 29.8519 15.9153 30.08 15.5492C30.3081 15.1831 30.6343 14.8884 31.0214 14.6983C31.4086 14.5082 31.8413 14.4304 32.2704 14.4737C32.6996 14.5171 33.108 14.6798 33.4493 14.9435C33.7906 15.2072 34.0512 15.5612 34.2015 15.9655C34.3519 16.3698 34.3859 16.8081 34.2997 17.2307C34.2135 17.6533 34.0107 18.0434 33.7141 18.3565C33.4175 18.6697 33.0391 18.8935 32.6218 19.0025L32.6154 20.2308C32.6154 20.3838 32.5547 20.5305 32.4465 20.6387C32.3383 20.7469 32.1915 20.8077 32.0385 20.8077Z" fill="white"/>
<path d="M18.1923 45.6154C18.0393 45.6154 17.8926 45.5546 17.7844 45.4464C17.6762 45.3382 17.6154 45.1915 17.6154 45.0385V42.1539H15.8846C15.1198 42.153 14.3867 41.8487 13.8459 41.308C13.3051 40.7672 13.0009 40.034 13 39.2693V30.0385C13.0009 29.2737 13.3051 28.5405 13.8459 27.9998C14.3867 27.459 15.1198 27.1548 15.8846 27.1539H32.0385C32.8032 27.1548 33.5364 27.459 34.0772 27.9998C34.6179 28.5405 34.9222 29.2737 34.9231 30.0385V39.2693C34.9222 40.034 34.6179 40.7672 34.0772 41.308C33.5364 41.8487 32.8032 42.153 32.0385 42.1539H22.4442L18.5679 45.4764C18.4633 45.5661 18.3301 45.6154 18.1923 45.6154ZM15.8846 28.3077C15.4256 28.3077 14.9854 28.4901 14.6608 28.8146C14.3362 29.1392 14.1538 29.5795 14.1538 30.0385V39.2693C14.1538 39.7283 14.3362 40.1685 14.6608 40.4931C14.9854 40.8177 15.4256 41 15.8846 41H18.1923C18.3453 41 18.4921 41.0608 18.6003 41.169C18.7084 41.2772 18.7692 41.4239 18.7692 41.5769V43.7843L21.8552 41.1391C21.9598 41.0494 22.093 41 22.2308 41H32.0385C32.4975 41 32.9377 40.8177 33.2623 40.4931C33.5869 40.1685 33.7692 39.7283 33.7692 39.2693V30.0385C33.7692 29.5795 33.5869 29.1392 33.2623 28.8146C32.9377 28.4901 32.4975 28.3077 32.0385 28.3077H15.8846Z" fill="white"/>
<path d="M18.1923 31.7693H17.0385C16.8855 31.7693 16.7387 31.7085 16.6305 31.6003C16.5223 31.4921 16.4615 31.3453 16.4615 31.1923C16.4615 31.0393 16.5223 30.8926 16.6305 30.7844C16.7387 30.6762 16.8855 30.6154 17.0385 30.6154H18.1923C18.3453 30.6154 18.4921 30.6762 18.6003 30.7844C18.7085 30.8926 18.7692 31.0393 18.7692 31.1923C18.7692 31.3453 18.7085 31.4921 18.6003 31.6003C18.4921 31.7085 18.3453 31.7693 18.1923 31.7693Z" fill="white"/>
<path d="M30.8845 31.7693H20.4999C20.3469 31.7693 20.2001 31.7085 20.092 31.6003C19.9838 31.4921 19.923 31.3453 19.923 31.1923C19.923 31.0393 19.9838 30.8926 20.092 30.7844C20.2001 30.6762 20.3469 30.6154 20.4999 30.6154H30.8845C31.0375 30.6154 31.1843 30.6762 31.2925 30.7844C31.4007 30.8926 31.4614 31.0393 31.4614 31.1923C31.4614 31.3453 31.4007 31.4921 31.2925 31.6003C31.1843 31.7085 31.0375 31.7693 30.8845 31.7693Z" fill="white"/>
<path d="M18.1923 34.0769H17.0385C16.8855 34.0769 16.7387 34.0161 16.6305 33.9079C16.5223 33.7997 16.4615 33.653 16.4615 33.5C16.4615 33.3469 16.5223 33.2002 16.6305 33.092C16.7387 32.9838 16.8855 32.923 17.0385 32.923H18.1923C18.3453 32.923 18.4921 32.9838 18.6003 33.092C18.7085 33.2002 18.7692 33.3469 18.7692 33.5C18.7692 33.653 18.7085 33.7997 18.6003 33.9079C18.4921 34.0161 18.3453 34.0769 18.1923 34.0769Z" fill="white"/>
<path d="M30.8845 34.0769H20.4999C20.3469 34.0769 20.2001 34.0161 20.092 33.9079C19.9838 33.7997 19.923 33.653 19.923 33.5C19.923 33.3469 19.9838 33.2002 20.092 33.092C20.2001 32.9838 20.3469 32.923 20.4999 32.923H30.8845C31.0375 32.923 31.1843 32.9838 31.2925 33.092C31.4007 33.2002 31.4614 33.3469 31.4614 33.5C31.4614 33.653 31.4007 33.7997 31.2925 33.9079C31.1843 34.0161 31.0375 34.0769 30.8845 34.0769Z" fill="white"/>
<path d="M18.1923 36.3847H17.0385C16.8855 36.3847 16.7387 36.3239 16.6305 36.2157C16.5223 36.1075 16.4615 35.9608 16.4615 35.8078C16.4615 35.6547 16.5223 35.508 16.6305 35.3998C16.7387 35.2916 16.8855 35.2308 17.0385 35.2308H18.1923C18.3453 35.2308 18.4921 35.2916 18.6003 35.3998C18.7085 35.508 18.7692 35.6547 18.7692 35.8078C18.7692 35.9608 18.7085 36.1075 18.6003 36.2157C18.4921 36.3239 18.3453 36.3847 18.1923 36.3847Z" fill="white"/>
<path d="M30.8845 36.3847H20.4999C20.3469 36.3847 20.2001 36.3239 20.092 36.2157C19.9838 36.1075 19.923 35.9608 19.923 35.8078C19.923 35.6547 19.9838 35.508 20.092 35.3998C20.2001 35.2916 20.3469 35.2308 20.4999 35.2308H30.8845C31.0375 35.2308 31.1843 35.2916 31.2925 35.3998C31.4007 35.508 31.4614 35.6547 31.4614 35.8078C31.4614 35.9608 31.4007 36.1075 31.2925 36.2157C31.1843 36.3239 31.0375 36.3847 30.8845 36.3847Z" fill="white"/>
<path d="M18.1923 38.6923H17.0385C16.8855 38.6923 16.7387 38.6315 16.6305 38.5233C16.5223 38.4151 16.4615 38.2684 16.4615 38.1154C16.4615 37.9624 16.5223 37.8156 16.6305 37.7074C16.7387 37.5992 16.8855 37.5385 17.0385 37.5385H18.1923C18.3453 37.5385 18.4921 37.5992 18.6003 37.7074C18.7085 37.8156 18.7692 37.9624 18.7692 38.1154C18.7692 38.2684 18.7085 38.4151 18.6003 38.5233C18.4921 38.6315 18.3453 38.6923 18.1923 38.6923Z" fill="white"/>
<path d="M30.8845 38.6923H20.4999C20.3469 38.6923 20.2001 38.6315 20.092 38.5233C19.9838 38.4151 19.923 38.2684 19.923 38.1154C19.923 37.9624 19.9838 37.8156 20.092 37.7074C20.2001 37.5992 20.3469 37.5385 20.4999 37.5385H30.8845C31.0375 37.5385 31.1843 37.5992 31.2925 37.7074C31.4007 37.8156 31.4614 37.9624 31.4614 38.1154C31.4614 38.2684 31.4007 38.4151 31.2925 38.5233C31.1843 38.6315 31.0375 38.6923 30.8845 38.6923Z" fill="white"/>
</svg>
