<svg width="30" height="35" viewBox="0 0 30 35" fill="none" xmlns="http://www.w3.org/2000/svg">
<path d="M24.8077 18.4615C24.6701 18.4614 24.5372 18.4121 24.4327 18.3225L20.5558 15H10.9616C10.1968 14.9991 9.46363 14.6949 8.92286 14.1541C8.38209 13.6133 8.07788 12.8801 8.07697 12.1154V2.88461C8.07788 2.11985 8.38209 1.38667 8.92286 0.845896C9.46363 0.305124 10.1968 0.000916072 10.9616 0H27.1154C27.8802 0.000916072 28.6134 0.305124 29.1541 0.845896C29.6949 1.38667 29.9991 2.11985 30 2.88461V12.1154C29.9991 12.8801 29.6949 13.6133 29.1541 14.1541C28.6134 14.6949 27.8802 14.9991 27.1154 15H25.3847V17.8846C25.3847 18.0376 25.3239 18.1844 25.2157 18.2926C25.1075 18.4008 24.9607 18.4615 24.8077 18.4615ZM10.9616 1.15385C10.5026 1.15385 10.0623 1.33619 9.73774 1.66078C9.41316 1.98536 9.23081 2.42559 9.23081 2.88461V12.1154C9.23081 12.5744 9.41316 13.0146 9.73774 13.3392C10.0623 13.6638 10.5026 13.8462 10.9616 13.8462H20.7693C20.9069 13.846 21.04 13.8953 21.1443 13.9852L24.2308 16.6304V14.4231C24.2308 14.2701 24.2916 14.1233 24.3998 14.0151C24.508 13.9069 24.6547 13.8462 24.8077 13.8462H27.1154C27.5744 13.8462 28.0147 13.6638 28.3393 13.3392C28.6638 13.0146 28.8462 12.5744 28.8462 12.1154V2.88461C28.8462 2.42559 28.6638 1.98536 28.3393 1.66078C28.0147 1.33619 27.5744 1.15385 27.1154 1.15385H10.9616Z" fill="white"/>
<path d="M19.0384 11.5385C18.9065 11.5371 18.7792 11.4902 18.6779 11.4057C18.5767 11.3211 18.5079 11.2041 18.4831 11.0746C18.4584 10.945 18.4792 10.8109 18.5421 10.695C18.605 10.579 18.706 10.4885 18.8281 10.4386C18.9502 10.3887 19.0858 10.3826 19.2119 10.4214C19.338 10.4601 19.4468 10.5413 19.5198 10.6512C19.5928 10.761 19.6255 10.8927 19.6125 11.024C19.5994 11.1552 19.5413 11.2779 19.448 11.3712C19.3375 11.4766 19.1912 11.5363 19.0384 11.5385Z" fill="white"/>
<path d="M19.0385 9.80769C18.8855 9.80769 18.7388 9.7469 18.6306 9.63871C18.5224 9.53051 18.4616 9.38377 18.4616 9.23076V7.9748C18.4632 7.72205 18.5498 7.47719 18.7075 7.27969C18.8652 7.08219 19.0849 6.94356 19.331 6.88615C19.6139 6.8123 19.8583 6.63381 20.0146 6.38675C20.171 6.13968 20.2277 5.84247 20.1733 5.55519C20.1289 5.32689 20.0173 5.11707 19.8528 4.95261C19.6884 4.78815 19.4786 4.67655 19.2503 4.63211C19.0834 4.60097 18.9118 4.60701 18.7476 4.6498C18.5834 4.69259 18.4306 4.77108 18.3002 4.87968C18.1698 4.98827 18.0649 5.12429 17.9931 5.27805C17.9213 5.43181 17.8843 5.59952 17.8847 5.76922C17.8847 5.92223 17.8239 6.06898 17.7157 6.17717C17.6075 6.28536 17.4608 6.34615 17.3078 6.34615C17.1547 6.34615 17.008 6.28536 16.8998 6.17717C16.7916 6.06898 16.7308 5.92223 16.7308 5.76922C16.7309 5.33791 16.8519 4.91525 17.08 4.5492C17.3081 4.18315 17.6343 3.88835 18.0214 3.69826C18.4086 3.50816 18.8413 3.43037 19.2704 3.47372C19.6996 3.51707 20.108 3.67981 20.4493 3.94349C20.7906 4.20717 21.0512 4.56123 21.2015 4.9655C21.3519 5.36978 21.3859 5.80809 21.2997 6.23071C21.2135 6.65333 21.0107 7.04335 20.7141 7.35652C20.4175 7.66969 20.0391 7.89348 19.6218 8.00249L19.6154 9.23076C19.6154 9.38377 19.5547 9.53051 19.4465 9.63871C19.3383 9.7469 19.1915 9.80769 19.0385 9.80769Z" fill="white"/>
<path d="M5.19231 34.6154C5.0393 34.6154 4.89255 34.5546 4.78436 34.4464C4.67617 34.3382 4.61538 34.1915 4.61538 34.0385V31.1539H2.88461C2.11985 31.153 1.38667 30.8487 0.845896 30.308C0.305124 29.7672 0.000916071 29.034 0 28.2693V19.0385C0.000916071 18.2737 0.305124 17.5405 0.845896 16.9998C1.38667 16.459 2.11985 16.1548 2.88461 16.1539H19.0385C19.8032 16.1548 20.5364 16.459 21.0772 16.9998C21.6179 17.5405 21.9222 18.2737 21.9231 19.0385V28.2693C21.9222 29.034 21.6179 29.7672 21.0772 30.308C20.5364 30.8487 19.8032 31.153 19.0385 31.1539H9.44423L5.56788 34.4764C5.46331 34.5661 5.33008 34.6154 5.19231 34.6154ZM2.88461 17.3077C2.42559 17.3077 1.98536 17.4901 1.66078 17.8146C1.33619 18.1392 1.15385 18.5795 1.15385 19.0385V28.2693C1.15385 28.7283 1.33619 29.1685 1.66078 29.4931C1.98536 29.8177 2.42559 30 2.88461 30H5.19231C5.34532 30 5.49206 30.0608 5.60025 30.169C5.70845 30.2772 5.76923 30.4239 5.76923 30.5769V32.7843L8.85519 30.1391C8.95976 30.0494 9.09299 30 9.23077 30H19.0385C19.4975 30 19.9377 29.8177 20.2623 29.4931C20.5869 29.1685 20.7692 28.7283 20.7692 28.2693V19.0385C20.7692 18.5795 20.5869 18.1392 20.2623 17.8146C19.9377 17.4901 19.4975 17.3077 19.0385 17.3077H2.88461Z" fill="white"/>
<path d="M5.19232 20.7693H4.03847C3.88546 20.7693 3.73872 20.7085 3.63052 20.6003C3.52233 20.4921 3.46155 20.3453 3.46155 20.1923C3.46155 20.0393 3.52233 19.8926 3.63052 19.7844C3.73872 19.6762 3.88546 19.6154 4.03847 19.6154H5.19232C5.34533 19.6154 5.49207 19.6762 5.60026 19.7844C5.70846 19.8926 5.76924 20.0393 5.76924 20.1923C5.76924 20.3453 5.70846 20.4921 5.60026 20.6003C5.49207 20.7085 5.34533 20.7693 5.19232 20.7693Z" fill="white"/>
<path d="M17.8846 20.7693H7.49996C7.34695 20.7693 7.20021 20.7085 7.09201 20.6003C6.98382 20.4921 6.92303 20.3453 6.92303 20.1923C6.92303 20.0393 6.98382 19.8926 7.09201 19.7844C7.20021 19.6762 7.34695 19.6154 7.49996 19.6154H17.8846C18.0376 19.6154 18.1843 19.6762 18.2925 19.7844C18.4007 19.8926 18.4615 20.0393 18.4615 20.1923C18.4615 20.3453 18.4007 20.4921 18.2925 20.6003C18.1843 20.7085 18.0376 20.7693 17.8846 20.7693Z" fill="white"/>
<path d="M5.19232 23.0769H4.03847C3.88546 23.0769 3.73872 23.0161 3.63052 22.9079C3.52233 22.7997 3.46155 22.653 3.46155 22.5C3.46155 22.3469 3.52233 22.2002 3.63052 22.092C3.73872 21.9838 3.88546 21.923 4.03847 21.923H5.19232C5.34533 21.923 5.49207 21.9838 5.60026 22.092C5.70846 22.2002 5.76924 22.3469 5.76924 22.5C5.76924 22.653 5.70846 22.7997 5.60026 22.9079C5.49207 23.0161 5.34533 23.0769 5.19232 23.0769Z" fill="white"/>
<path d="M17.8846 23.0769H7.49996C7.34695 23.0769 7.20021 23.0161 7.09201 22.9079C6.98382 22.7997 6.92303 22.653 6.92303 22.5C6.92303 22.3469 6.98382 22.2002 7.09201 22.092C7.20021 21.9838 7.34695 21.923 7.49996 21.923H17.8846C18.0376 21.923 18.1843 21.9838 18.2925 22.092C18.4007 22.2002 18.4615 22.3469 18.4615 22.5C18.4615 22.653 18.4007 22.7997 18.2925 22.9079C18.1843 23.0161 18.0376 23.0769 17.8846 23.0769Z" fill="white"/>
<path d="M5.19232 25.3847H4.03847C3.88546 25.3847 3.73872 25.3239 3.63052 25.2157C3.52233 25.1075 3.46155 24.9608 3.46155 24.8078C3.46155 24.6547 3.52233 24.508 3.63052 24.3998C3.73872 24.2916 3.88546 24.2308 4.03847 24.2308H5.19232C5.34533 24.2308 5.49207 24.2916 5.60026 24.3998C5.70846 24.508 5.76924 24.6547 5.76924 24.8078C5.76924 24.9608 5.70846 25.1075 5.60026 25.2157C5.49207 25.3239 5.34533 25.3847 5.19232 25.3847Z" fill="white"/>
<path d="M17.8846 25.3847H7.49996C7.34695 25.3847 7.20021 25.3239 7.09201 25.2157C6.98382 25.1075 6.92303 24.9608 6.92303 24.8078C6.92303 24.6547 6.98382 24.508 7.09201 24.3998C7.20021 24.2916 7.34695 24.2308 7.49996 24.2308H17.8846C18.0376 24.2308 18.1843 24.2916 18.2925 24.3998C18.4007 24.508 18.4615 24.6547 18.4615 24.8078C18.4615 24.9608 18.4007 25.1075 18.2925 25.2157C18.1843 25.3239 18.0376 25.3847 17.8846 25.3847Z" fill="white"/>
<path d="M5.19232 27.6923H4.03847C3.88546 27.6923 3.73872 27.6315 3.63052 27.5233C3.52233 27.4151 3.46155 27.2684 3.46155 27.1154C3.46155 26.9624 3.52233 26.8156 3.63052 26.7074C3.73872 26.5992 3.88546 26.5385 4.03847 26.5385H5.19232C5.34533 26.5385 5.49207 26.5992 5.60026 26.7074C5.70846 26.8156 5.76924 26.9624 5.76924 27.1154C5.76924 27.2684 5.70846 27.4151 5.60026 27.5233C5.49207 27.6315 5.34533 27.6923 5.19232 27.6923Z" fill="white"/>
<path d="M17.8846 27.6923H7.49996C7.34695 27.6923 7.20021 27.6315 7.09201 27.5233C6.98382 27.4151 6.92303 27.2684 6.92303 27.1154C6.92303 26.9624 6.98382 26.8156 7.09201 26.7074C7.20021 26.5992 7.34695 26.5385 7.49996 26.5385H17.8846C18.0376 26.5385 18.1843 26.5992 18.2925 26.7074C18.4007 26.8156 18.4615 26.9624 18.4615 27.1154C18.4615 27.2684 18.4007 27.4151 18.2925 27.5233C18.1843 27.6315 18.0376 27.6923 17.8846 27.6923Z" fill="white"/>
</svg>
