<svg width="55" height="55" viewBox="0 0 55 55" fill="none" xmlns="http://www.w3.org/2000/svg">
<circle cx="27.5" cy="27.5" r="27.5" fill="#D9D9D9"/>
<path d="M42.5605 42.1211H39.0156V36.1083C41.2494 35.8608 43 33.7486 43 31.1875C43 28.6686 41.3062 26.585 39.1253 26.2816C39.5607 25.7355 39.8582 25.079 39.9722 24.3657C40.0105 24.1261 39.8472 23.9007 39.6076 23.8624C39.3671 23.8246 39.1425 23.9874 39.1043 24.227C38.9177 25.3953 38.1014 26.3665 37.0028 26.7646C36.7404 26.8596 36.5448 27.0882 36.4922 27.3609C36.4105 27.7841 36.113 28.8197 35.1169 29.2964C34.2575 29.7077 33.4143 29.4556 33.0922 29.3283C32.5499 29.113 32.1868 28.7614 31.9619 28.471V26.572L33.8817 24.6522C34.0533 24.4806 34.0533 24.2024 33.8817 24.0307C33.71 23.8592 33.4318 23.8591 33.2603 24.0307L31.9619 25.329V22.4194C31.9619 22.1767 31.7652 21.98 31.5225 21.98C31.2797 21.98 31.083 22.1767 31.083 22.4194V24.4856L29.7848 23.1873C29.6131 23.0158 29.3349 23.0158 29.1633 23.1873C28.9916 23.359 28.9916 23.6372 29.1633 23.8088L31.0831 25.7287V28.4713C30.8573 28.7621 30.4936 29.1136 29.9532 29.3281C29.6305 29.4556 28.7874 29.7078 27.9281 29.2966C27.5119 29.0971 27.1762 28.7797 26.9267 28.355C27.0031 26.4126 26.4415 23.5739 25.6066 20.8536C25.7204 20.792 25.8378 20.7365 25.9584 20.6888C26.3498 20.5349 26.5878 20.1384 26.5374 19.7256C26.5281 19.6471 26.5236 19.5712 26.5236 19.4935C26.5236 18.6017 27.1274 17.8295 27.992 17.6155C28.408 17.5126 28.6986 17.1391 28.6986 16.7027C28.6986 15.1457 29.9655 13.879 31.5228 13.879C33.0797 13.879 34.3463 15.1457 34.3463 16.7073C34.3463 17.1391 34.6369 17.5126 35.0529 17.6156C36.0009 17.8503 36.6252 18.7576 36.5076 19.7246C36.4573 20.1381 36.6952 20.5345 37.0864 20.6887C37.909 21.0125 38.5722 21.6675 38.9062 22.4859C38.999 22.7133 39.259 22.8166 39.479 22.7267C39.7038 22.635 39.8116 22.3786 39.7199 22.1539C39.2958 21.1143 38.4532 20.2822 37.4086 19.871C37.391 19.8641 37.3782 19.846 37.3802 19.8299C37.5564 18.4103 36.6288 17.101 35.2641 16.7624C35.242 16.7569 35.2253 16.7332 35.2253 16.7027C35.2252 14.661 33.5642 13 31.5227 13C29.4807 13 27.8195 14.661 27.8195 16.7072C27.8195 16.7331 27.8029 16.7569 27.7809 16.7623C26.523 17.0735 25.6445 18.1966 25.6445 19.4934C25.6445 19.6046 25.6513 19.7177 25.6648 19.8307C25.6739 19.9068 25.3941 19.97 25.3329 20.0067C25.2235 19.683 25.1105 19.3646 24.9939 19.055C23.1095 14.0505 21.2201 13 19.967 13C17.7801 13 16.1076 16.0814 15.0897 18.6664C15.0007 18.8922 15.1117 19.1474 15.3375 19.2363C15.5632 19.3253 15.8185 19.2143 15.9075 18.9885C17.1862 15.7413 18.6658 13.8789 19.967 13.8789C21.3262 13.8789 22.8586 15.8784 24.1714 19.3647C25.408 22.649 26.055 26.1962 26.055 28.0028C26.055 31.6175 23.559 34.5876 20.4064 34.8422V31.2759C20.4064 31.2757 20.4064 31.2754 20.4064 31.2753V29.595L22.2405 27.7609C22.4121 27.5893 22.4121 27.3111 22.2405 27.1394C22.0688 26.9679 21.7906 26.9679 21.619 27.1394L20.4065 28.3519V26.5144C20.4065 26.2716 20.2098 26.0749 19.967 26.0749C19.7243 26.0749 19.5276 26.2716 19.5276 26.5144V29.4126V29.4132V30.2146L18.315 29.0021C18.1434 28.8305 17.8652 28.8305 17.6935 29.0021C17.5219 29.1737 17.5219 29.452 17.6935 29.6236L19.5276 31.4576V34.8422C16.3749 34.5876 13.8789 31.6175 13.8789 28.0028C13.8789 26.3046 14.4251 23.4428 15.238 20.8815C15.3114 20.6502 15.1834 20.4031 14.9521 20.3297C14.7211 20.2565 14.4738 20.3844 14.4003 20.6157C13.5497 23.2957 13 26.1954 13 28.0028C13 32.1047 15.8899 35.4705 19.5275 35.7232V42.1211H13.4395C13.1967 42.1211 13 42.3178 13 42.5605C13 42.8033 13.1967 43 13.4395 43H42.5605C42.8033 43 43 42.8033 43 42.5605C43 42.3178 42.8033 42.1211 42.5605 42.1211ZM31.083 42.1211H20.4064V35.7232C23.566 35.5037 26.161 32.9354 26.7886 29.5762C27.0143 29.7831 27.2678 29.9546 27.5484 30.0891C28.7198 30.6499 29.8463 30.3152 30.2768 30.1451C30.5893 30.0211 30.8556 29.8628 31.083 29.6925V42.1211ZM38.1367 42.1211H31.9619V29.6928C32.1891 29.8629 32.4555 30.0211 32.7685 30.1454C33.02 30.2447 33.5095 30.4005 34.1071 30.4005C34.1407 30.4005 34.1523 30.9221 34.1523 31.1876C34.1523 33.7486 35.9029 35.8609 38.1367 36.1083V42.1211ZM38.5762 30.8842C38.3334 30.8842 38.1367 31.0809 38.1367 31.3236V33.7393V33.7398V35.2215C36.3888 34.9723 35.0312 33.2589 35.0312 31.1875C35.0312 30.8654 35.0646 30.5469 35.1295 30.2374C36.475 29.7868 37.2477 28.2095 37.3457 27.5748C37.6438 27.4631 37.924 27.3187 38.1828 27.1466C40.3168 26.8715 42.1211 28.8094 42.1211 31.1875C42.1211 33.2589 40.7635 34.9723 39.0156 35.2215V33.9216L40.4051 32.5321C40.5767 32.3604 40.5767 32.0822 40.4051 31.9106C40.2334 31.739 39.9552 31.739 39.7836 31.9106L39.0156 32.6786V31.3236C39.0156 31.0809 38.8189 30.8842 38.5762 30.8842Z" fill="white"/>
</svg>
