<svg width="30" height="30" viewBox="0 0 30 30" fill="none" xmlns="http://www.w3.org/2000/svg">
<path d="M29.5605 29.1211H26.0156V23.1083C28.2494 22.8608 30 20.7486 30 18.1875C30 15.6686 28.3062 13.585 26.1253 13.2816C26.5607 12.7355 26.8582 12.079 26.9722 11.3657C27.0105 11.1261 26.8472 10.9007 26.6076 10.8624C26.3671 10.8246 26.1425 10.9874 26.1043 11.227C25.9177 12.3953 25.1014 13.3665 24.0028 13.7646C23.7404 13.8596 23.5448 14.0882 23.4922 14.3609C23.4105 14.7841 23.113 15.8197 22.1169 16.2964C21.2575 16.7077 20.4143 16.4556 20.0922 16.3283C19.5499 16.113 19.1868 15.7614 18.9619 15.471V13.572L20.8817 11.6522C21.0533 11.4806 21.0533 11.2024 20.8817 11.0307C20.71 10.8592 20.4318 10.8591 20.2603 11.0307L18.9619 12.329V9.41941C18.9619 9.17666 18.7652 8.97996 18.5225 8.97996C18.2797 8.97996 18.083 9.17666 18.083 9.41941V11.4856L16.7848 10.1873C16.6131 10.0158 16.3349 10.0158 16.1633 10.1873C15.9916 10.359 15.9916 10.6372 16.1633 10.8088L18.0831 12.7287V15.4713C17.8573 15.7621 17.4936 16.1136 16.9532 16.3281C16.6305 16.4556 15.7874 16.7078 14.9281 16.2966C14.5119 16.0971 14.1762 15.7797 13.9267 15.355C14.0031 13.4126 13.4415 10.5739 12.6066 7.85361C12.7204 7.79203 12.8378 7.73648 12.9584 7.68879C13.3498 7.53492 13.5878 7.13836 13.5374 6.72562C13.5281 6.64711 13.5236 6.57117 13.5236 6.49348C13.5236 5.60168 14.1274 4.82953 14.992 4.61555C15.408 4.5126 15.6986 4.13906 15.6986 3.70266C15.6986 2.1457 16.9655 0.879023 18.5228 0.879023C20.0797 0.879023 21.3463 2.1457 21.3463 3.70734C21.3463 4.13912 21.6369 4.5126 22.0529 4.61561C23.0009 4.85027 23.6252 5.7576 23.5076 6.72457C23.4573 7.13807 23.6952 7.53445 24.0864 7.68873C24.909 8.01246 25.5722 8.66754 25.9062 9.48586C25.999 9.71326 26.259 9.81656 26.479 9.72674C26.7038 9.63504 26.8116 9.37857 26.7199 9.15387C26.2958 8.1143 25.4532 7.28221 24.4086 6.871C24.391 6.86408 24.3782 6.84604 24.3802 6.82992C24.5564 5.41025 23.6288 4.10098 22.2641 3.76242C22.242 3.75691 22.2253 3.73324 22.2253 3.70266C22.2252 1.66096 20.5642 0 18.5227 0C16.4807 0 14.8195 1.66096 14.8195 3.70723C14.8195 3.73313 14.8029 3.75686 14.7809 3.7623C13.523 4.0735 12.6445 5.19656 12.6445 6.49336C12.6445 6.60457 12.6513 6.71766 12.6648 6.83074C12.6739 6.9068 12.3941 6.97002 12.3329 7.0067C12.2235 6.68297 12.1105 6.36463 11.9939 6.05502C10.1095 1.05053 8.22012 0 6.96697 0C4.78008 0 3.10764 3.08139 2.08969 5.66637C2.00074 5.89219 2.11172 6.14736 2.33754 6.23631C2.56324 6.32531 2.81854 6.21428 2.90748 5.98846C4.18617 2.74125 5.66578 0.878906 6.96697 0.878906C8.32617 0.878906 9.85863 2.87842 11.1714 6.36475C12.408 9.64898 13.055 13.1962 13.055 15.0028C13.055 18.6175 10.559 21.5876 7.40643 21.8422V18.2759C7.40643 18.2757 7.40643 18.2754 7.40643 18.2753V16.595L9.24047 14.7609C9.41209 14.5893 9.41209 14.3111 9.24047 14.1394C9.06879 13.9679 8.79059 13.9679 8.61896 14.1394L7.40648 15.3519V13.5144C7.40648 13.2716 7.20979 13.0749 6.96703 13.0749C6.72428 13.0749 6.52758 13.2716 6.52758 13.5144V16.4126V16.4132V17.2146L5.31504 16.0021C5.14336 15.8305 4.86516 15.8305 4.69353 16.0021C4.52191 16.1737 4.52191 16.452 4.69353 16.6236L6.52758 18.4576V21.8422C3.37494 21.5876 0.878906 18.6175 0.878906 15.0028C0.878906 13.3046 1.42506 10.4428 2.23799 7.8815C2.31141 7.65023 2.18338 7.40314 1.95205 7.32973C1.72107 7.25648 1.47375 7.38439 1.40027 7.61566C0.549668 10.2957 0 13.1954 0 15.0028C0 19.1047 2.8899 22.4705 6.52752 22.7232V29.1211H0.439453C0.196699 29.1211 0 29.3178 0 29.5605C0 29.8033 0.196699 30 0.439453 30H29.5605C29.8033 30 30 29.8033 30 29.5605C30 29.3178 29.8033 29.1211 29.5605 29.1211ZM18.083 29.1211H7.40643V22.7232C10.566 22.5037 13.161 19.9354 13.7886 16.5762C14.0143 16.7831 14.2678 16.9546 14.5484 17.0891C15.7198 17.6499 16.8463 17.3152 17.2768 17.1451C17.5893 17.0211 17.8556 16.8628 18.083 16.6925V29.1211ZM25.1367 29.1211H18.9619V16.6928C19.1891 16.8629 19.4555 17.0211 19.7685 17.1454C20.02 17.2447 20.5095 17.4005 21.1071 17.4005C21.1407 17.4005 21.1523 17.9221 21.1523 18.1876C21.1523 20.7486 22.9029 22.8609 25.1367 23.1083V29.1211ZM25.5762 17.8842C25.3334 17.8842 25.1367 18.0809 25.1367 18.3236V20.7393V20.7398V22.2215C23.3888 21.9723 22.0312 20.2589 22.0312 18.1875C22.0312 17.8654 22.0646 17.5469 22.1295 17.2374C23.475 16.7868 24.2477 15.2095 24.3457 14.5748C24.6438 14.4631 24.924 14.3187 25.1828 14.1466C27.3168 13.8715 29.1211 15.8094 29.1211 18.1875C29.1211 20.2589 27.7635 21.9723 26.0156 22.2215V20.9216L27.4051 19.5321C27.5767 19.3604 27.5767 19.0822 27.4051 18.9106C27.2334 18.739 26.9552 18.739 26.7836 18.9106L26.0156 19.6786V18.3236C26.0156 18.0809 25.8189 17.8842 25.5762 17.8842Z" fill="white"/>
</svg>
