<svg width="27" height="29" viewBox="0 0 27 29" fill="none" xmlns="http://www.w3.org/2000/svg">
<path d="M26.076 14.6671C26.076 14.5893 26.0579 14.5125 26.0231 14.4429C25.9883 14.3733 25.9377 14.3128 25.8754 14.2662L24.1059 12.9406C24.0192 12.8756 23.9138 12.8405 23.8055 12.8405H20.3299V4.37102C20.3299 4.30519 20.317 4.24001 20.2918 4.17919C20.2666 4.11837 20.2297 4.06311 20.1831 4.01656L16.3171 0.155461C16.231 0.0677175 16.1142 0.016793 15.9913 0.0133947C15.9639 -0.0222247 1.49948 0.0266693 1.46818 0.00743645C1.07895 0.0078595 0.705784 0.162655 0.430544 0.437864C0.155304 0.713073 0.000466894 1.08622 0 1.47545V26.5945C0.000451048 26.9838 0.15529 27.3569 0.430542 27.6321C0.705794 27.9073 1.07898 28.0621 1.46821 28.0625H18.8622C19.2513 28.062 19.6244 27.9072 19.8996 27.632C20.1747 27.3568 20.3295 26.9837 20.3299 26.5945V25.3476C24.0679 23.7007 26.2652 18.4453 26.076 14.6671ZM16.4629 1.71744L18.6206 3.87224H16.9282C16.8049 3.87207 16.6866 3.823 16.5994 3.73578C16.5122 3.64857 16.4631 3.53032 16.4629 3.40697V1.71744ZM19.3279 26.5945C19.3264 26.7176 19.2768 26.8352 19.1898 26.9222C19.1028 27.0093 18.9852 27.0589 18.8622 27.0605H1.46821C1.34507 27.059 1.22741 27.0094 1.14031 26.9224C1.05321 26.8353 1.00356 26.7177 1.00197 26.5945V1.47545C1.00356 1.35231 1.05321 1.23467 1.14031 1.14761C1.22741 1.06056 1.34507 1.01098 1.46821 1.00944H15.461V3.40697C15.4614 3.79597 15.6161 4.16892 15.8912 4.44399C16.1663 4.71906 16.5392 4.87378 16.9282 4.8742H19.3279V12.8405H15.848C15.7395 12.8405 15.6339 12.8757 15.5471 12.9408L13.7775 14.2686C13.719 14.3125 13.6708 14.3687 13.6364 14.4333C13.602 14.4978 13.5822 14.5691 13.5784 14.6422C13.3895 18.4468 15.5865 23.7043 19.3279 25.3493V26.5945ZM19.827 24.5028C16.5126 23.0676 14.4813 18.4383 14.5696 14.9271L16.0148 13.8425C17.9217 13.8432 21.7323 13.8419 23.6386 13.8425L25.0839 14.9252C25.1733 18.4361 23.1423 23.0662 19.827 24.5028Z" fill="white"/>
<path d="M22.0755 16.6025L19.2487 19.4294L18.0119 18.1931C17.9174 18.1021 17.7909 18.0518 17.6597 18.0531C17.5285 18.0543 17.403 18.107 17.3102 18.1998C17.2174 18.2926 17.1647 18.418 17.1635 18.5493C17.1622 18.6805 17.2125 18.8069 17.3035 18.9015L18.8945 20.492C18.941 20.5386 18.9962 20.5755 19.057 20.6006C19.1177 20.6258 19.1829 20.6388 19.2487 20.6388C19.3145 20.6388 19.3796 20.6258 19.4404 20.6006C19.5012 20.5755 19.5564 20.5386 19.6029 20.492L22.7839 17.311C22.875 17.2164 22.9254 17.0899 22.9241 16.9587C22.9229 16.8274 22.8702 16.7019 22.7774 16.6091C22.6846 16.5162 22.559 16.4636 22.4278 16.4623C22.2965 16.4611 22.17 16.5115 22.0755 16.6025Z" fill="white"/>
<path d="M4.15317 8.52418H14.1728C14.304 8.52159 14.4289 8.46766 14.5207 8.37399C14.6126 8.28032 14.664 8.15436 14.664 8.02318C14.664 7.892 14.6125 7.76605 14.5207 7.67239C14.4289 7.57872 14.3039 7.5248 14.1728 7.52222H4.15317C4.02202 7.52481 3.89711 7.57873 3.80527 7.6724C3.71343 7.76607 3.66199 7.89202 3.66199 8.0232C3.66199 8.15438 3.71343 8.28033 3.80527 8.374C3.89711 8.46767 4.02202 8.52159 4.15317 8.52418Z" fill="white"/>
<path d="M4.15317 12.532H12.1689C12.3 12.5294 12.425 12.4755 12.5168 12.3818C12.6086 12.2882 12.6601 12.1622 12.6601 12.031C12.6601 11.8999 12.6086 11.7739 12.5168 11.6802C12.4249 11.5866 12.3 11.5327 12.1689 11.5301H4.15317C4.02202 11.5327 3.89711 11.5866 3.80527 11.6803C3.71343 11.7739 3.66199 11.8999 3.66199 12.0311C3.66199 12.1622 3.71343 12.2882 3.80527 12.3819C3.89711 12.4755 4.02202 12.5295 4.15317 12.532Z" fill="white"/>
<path d="M4.15311 16.5399H10.1649C10.2978 16.5399 10.4252 16.4871 10.5191 16.3932C10.6131 16.2992 10.6659 16.1718 10.6659 16.0389C10.6659 15.9061 10.6131 15.7786 10.5191 15.6847C10.4252 15.5907 10.2978 15.5379 10.1649 15.5379H4.15311C4.02194 15.5405 3.89699 15.5944 3.80513 15.6881C3.71326 15.7818 3.6618 15.9077 3.6618 16.0389C3.6618 16.1701 3.71326 16.2961 3.80513 16.3898C3.89699 16.4834 4.02194 16.5374 4.15311 16.5399Z" fill="white"/>
<path d="M4.15317 20.5478H10.165C10.2309 20.548 10.2962 20.5352 10.3572 20.5101C10.4181 20.485 10.4735 20.4481 10.5202 20.4016C10.5669 20.355 10.604 20.2997 10.6292 20.2389C10.6545 20.178 10.6675 20.1127 10.6675 20.0468C10.6675 19.9809 10.6545 19.9156 10.6292 19.8547C10.604 19.7938 10.5669 19.7385 10.5202 19.692C10.4735 19.6454 10.4181 19.6086 10.3572 19.5835C10.2962 19.5584 10.2309 19.5456 10.165 19.5458H4.15317C4.02202 19.5484 3.89711 19.6023 3.80527 19.696C3.71343 19.7896 3.66199 19.9156 3.66199 20.0468C3.66199 20.178 3.71343 20.3039 3.80527 20.3976C3.89711 20.4912 4.02202 20.5452 4.15317 20.5478Z" fill="white"/>
<path d="M14.1728 23.5537H4.15316C4.022 23.5563 3.89709 23.6102 3.80526 23.7039C3.71342 23.7975 3.66198 23.9235 3.66199 24.0547C3.66199 24.1858 3.71344 24.3118 3.80528 24.4055C3.89712 24.4991 4.02203 24.553 4.15319 24.5556H14.1728C14.304 24.553 14.4289 24.4991 14.5207 24.4055C14.6125 24.3118 14.664 24.1858 14.664 24.0546C14.664 23.9235 14.6125 23.7975 14.5207 23.7038C14.4289 23.6102 14.304 23.5563 14.1728 23.5537Z" fill="white"/>
</svg>
