<svg width="55" height="55" viewBox="0 0 55 55" fill="none" xmlns="http://www.w3.org/2000/svg">
<circle cx="27.5" cy="27.5" r="27.5" fill="#D9D9D9"/>
<path d="M33.0999 30.0807C33.0584 30.0896 33.0319 30.0937 33.0274 30.0943C32.9196 30.1079 32.821 30.1621 32.7518 30.2458C32.6825 30.3295 32.6478 30.4364 32.6546 30.5448C32.6614 30.6532 32.7093 30.755 32.7885 30.8294C32.8677 30.9037 32.9722 30.9451 33.0809 30.9451H36.1786C36.2909 30.9436 36.398 30.898 36.4769 30.818C36.5558 30.7381 36.6 30.6303 36.6 30.5181C36.6 30.4058 36.5558 30.298 36.4769 30.2181C36.398 30.1382 36.2909 30.0925 36.1786 30.0911H34.6559C35.0551 29.6273 35.275 29.036 35.2759 28.4241V23.1904C35.2744 23.0782 35.2288 22.971 35.1489 22.8921C35.069 22.8132 34.9612 22.769 34.8489 22.769C34.7366 22.769 34.6289 22.8132 34.5489 22.8921C34.469 22.971 34.4234 23.0782 34.4219 23.1904V24.6117L33.817 24.1522C33.669 24.0392 33.5489 23.8937 33.4661 23.7269C33.3833 23.5601 33.34 23.3764 33.3395 23.1902C33.338 23.0779 33.2924 22.9708 33.2125 22.8919C33.1325 22.813 33.0248 22.7688 32.9125 22.7688C32.8002 22.7688 32.6924 22.813 32.6125 22.8919C32.5326 22.9708 32.487 23.0779 32.4855 23.1902C32.4864 23.5081 32.5603 23.8215 32.7016 24.1063C32.8429 24.391 33.0478 24.6394 33.3005 24.8324L33.9446 25.3215C34.0925 25.4345 34.2126 25.5801 34.2953 25.7469C34.3781 25.9137 34.4214 26.0973 34.4219 26.2835V28.4241C34.4223 28.8092 34.2916 29.1831 34.0513 29.4841C33.8111 29.7852 33.4755 29.9956 33.0999 30.0807Z" fill="white"/>
<path d="M34.9359 21.2361H34.0148C33.3166 21.2424 32.6234 21.1191 31.9702 20.8723C30.8096 20.4229 30.1304 19.6988 29.9508 18.72C29.9407 18.6649 29.9198 18.6123 29.8893 18.5652C29.8589 18.5181 29.8195 18.4774 29.7733 18.4456C29.7272 18.4137 29.6752 18.3913 29.6204 18.3795C29.5656 18.3677 29.509 18.3669 29.4538 18.377C29.3987 18.3871 29.346 18.408 29.2989 18.4384C29.2518 18.4688 29.2112 18.5083 29.1794 18.5544C29.1475 18.6006 29.125 18.6525 29.1133 18.7074C29.1015 18.7622 29.1006 18.8188 29.1107 18.8739C29.3439 20.1464 30.2261 21.1128 31.6619 21.6688C32.4134 21.9536 33.2112 22.0965 34.0148 22.0901H34.9359C34.9924 22.0908 35.0486 22.0804 35.101 22.0592C35.1535 22.0381 35.2013 22.0068 35.2415 21.967C35.2818 21.9273 35.3137 21.88 35.3355 21.8278C35.3574 21.7756 35.3686 21.7196 35.3686 21.6631C35.3686 21.6065 35.3574 21.5505 35.3355 21.4984C35.3137 21.4462 35.2818 21.3989 35.2415 21.3591C35.2013 21.3194 35.1535 21.2881 35.101 21.2669C35.0486 21.2458 34.9924 21.2353 34.9359 21.2361Z" fill="white"/>
<path d="M40.886 30.9448C40.9983 30.9433 41.1055 30.8977 41.1844 30.8177C41.2632 30.7378 41.3075 30.6301 41.3075 30.5178C41.3075 30.4055 41.2632 30.2977 41.1844 30.2178C41.1055 30.1379 40.9983 30.0922 40.886 30.0908H40.6343C40.5778 30.09 40.5217 30.1005 40.4692 30.1216C40.4167 30.1428 40.369 30.1741 40.3287 30.2138C40.2885 30.2535 40.2565 30.3009 40.2347 30.3531C40.2129 30.4052 40.2017 30.4612 40.2017 30.5178C40.2017 30.5743 40.2129 30.6303 40.2347 30.6825C40.2565 30.7347 40.2885 30.782 40.3287 30.8217C40.369 30.8615 40.4167 30.8928 40.4692 30.9139C40.5217 30.935 40.5778 30.9455 40.6343 30.9448H40.886Z" fill="white"/>
<path d="M43.285 25.8584H37.4805V22.0528C37.4805 22.0419 37.4781 22.0317 37.4773 22.021C41.7148 21.5244 42.6335 18.4517 42.8175 17.4739C42.8532 17.2885 42.8709 17.1001 42.8703 16.9113C42.8564 15.2576 42.0557 13.8349 40.5545 12.7974C39.9249 12.3669 39.2364 12.0295 38.5103 11.7956C38.2402 11.2774 37.8264 10.8481 37.3185 10.5591C36.4798 10.058 35.3967 9.88269 34.3472 10.0781C32.221 10.474 31.3693 11.8178 31.1293 12.2946C30.0011 12.855 29.2879 13.6012 29.0082 14.5144C28.6073 15.8228 29.2689 16.9689 29.3061 17.0321C29.3254 17.0647 29.7899 17.835 30.7184 18.075C30.7727 18.089 30.8292 18.0922 30.8847 18.0844C30.9403 18.0766 30.9937 18.058 31.042 18.0295C31.0904 18.0011 31.1326 17.9634 31.1664 17.9186C31.2001 17.8738 31.2247 17.8228 31.2388 17.7685C31.2528 17.7143 31.2561 17.6577 31.2483 17.6022C31.2405 17.5467 31.2218 17.4932 31.1934 17.4449C31.1649 17.3966 31.1272 17.3543 31.0824 17.3205C31.0377 17.2868 30.9867 17.2622 30.9324 17.2481C30.3603 17.1 30.0509 16.6123 30.0402 16.5952C30.0328 16.5829 29.5309 15.7214 29.8242 14.7641C30.0419 14.0537 30.651 13.4597 31.6343 12.9987C31.7349 12.9515 31.8132 12.8669 31.8525 12.7629C31.858 12.7484 32.4257 11.3043 34.503 10.9175C35.3509 10.7595 36.2173 10.896 36.88 11.292C37.3264 11.5587 37.6386 11.9022 37.8078 12.313C37.8332 12.3743 37.8725 12.4289 37.9226 12.4724C37.9727 12.5159 38.0322 12.5472 38.0965 12.5638C38.2554 12.6049 41.9878 13.6066 42.0155 16.9183C42.0157 17.0517 42.003 17.1848 41.9774 17.3158C41.765 18.4445 40.818 21.0855 36.6246 21.2298C36.5138 21.2332 36.4086 21.2797 36.3314 21.3594C36.2543 21.4391 36.2112 21.5457 36.2113 21.6566C36.2115 21.7675 36.2548 21.874 36.3322 21.9535C36.4096 22.033 36.5149 22.0792 36.6258 22.0823V28.4241C36.6262 29.0041 36.824 29.5668 37.1866 30.0196C37.5493 30.4723 38.0551 30.7882 38.6211 30.9154C38.7131 30.9353 38.7672 30.9417 38.7672 30.9417C38.8788 30.9547 38.991 30.9232 39.0796 30.854C39.1681 30.7848 39.2258 30.6836 39.2401 30.5722C39.2545 30.4607 39.2244 30.3481 39.1563 30.2588C39.0882 30.1694 38.9877 30.1105 38.8764 30.0947C38.8698 30.0938 38.8432 30.0897 38.802 30.0806C38.4263 29.9955 38.0908 29.7852 37.8506 29.4841C37.6103 29.1831 37.4797 28.8092 37.4801 28.4241V26.7124H43.2845C43.3411 26.7131 43.3972 26.7026 43.4497 26.6815C43.5021 26.6604 43.5499 26.6291 43.5901 26.5893C43.6304 26.5496 43.6623 26.5023 43.6841 26.4501C43.706 26.3979 43.7172 26.3419 43.7172 26.2854C43.7172 26.2288 43.706 26.1728 43.6841 26.1206C43.6623 26.0685 43.6304 26.0211 43.5901 25.9814C43.5499 25.9417 43.5021 25.9104 43.4497 25.8892C43.3972 25.8681 43.3411 25.8576 43.2845 25.8584H43.285Z" fill="white"/>
<path d="M9 26.2853C9 26.3986 9.04499 26.5072 9.12508 26.5873C9.20517 26.6674 9.31379 26.7124 9.42705 26.7124H12.5347C12.647 26.7109 12.7542 26.6653 12.8331 26.5853C12.9119 26.5054 12.9562 26.3977 12.9562 26.2854C12.9562 26.1731 12.9119 26.0653 12.8331 25.9854C12.7542 25.9055 12.647 25.8598 12.5347 25.8584H11.897C12.8359 25.1295 13.473 24.0801 13.6866 22.911C13.8235 22.1621 14.1816 21.1895 15.1102 20.809C15.3847 20.701 15.6796 20.6545 15.974 20.6727C16.2684 20.6909 16.5553 20.7735 16.8144 20.9145C17.3827 21.2206 17.7369 21.6817 17.8674 22.2851C17.8852 22.3671 17.9266 22.4421 17.9867 22.5006C18.0468 22.5592 18.1227 22.5988 18.2052 22.6144C18.2876 22.6301 18.3728 22.6211 18.4501 22.5886C18.5275 22.5561 18.5935 22.5016 18.64 22.4318C18.6469 22.4214 19.3464 21.4027 20.8507 21.8589C21.4751 22.0481 21.9597 22.4603 22.18 22.99C22.2778 23.2171 22.3193 23.4645 22.3009 23.7111C22.2952 23.7832 22.3079 23.8556 22.3377 23.9215C22.3676 23.9874 22.4137 24.0446 22.4716 24.0879C22.5296 24.1311 22.5976 24.159 22.6693 24.1688C22.741 24.1787 22.814 24.1702 22.8815 24.1442C22.9442 24.1201 24.4234 23.5711 25.3455 24.8855C25.4092 24.9882 25.7091 25.4332 26.35 25.8582H17.5812C17.5794 25.8582 17.5778 25.8587 17.576 25.8587C17.5742 25.8587 17.5721 25.8582 17.5702 25.8583C17.3661 25.8636 12.5578 26.032 11.0085 29.8835C10.9936 29.9217 9.57424 33.747 13.0207 36.4092C13.5681 36.8264 14.1711 37.1652 14.8122 37.4158C16.2745 37.9969 21.1442 40.1001 22.4101 42.7525C22.4589 42.8547 22.5463 42.9333 22.6531 42.9711C22.7599 43.0088 22.8773 43.0026 22.9795 42.9538C23.0817 42.905 23.1603 42.8176 23.1981 42.7108C23.2359 42.604 23.2297 42.4866 23.1808 42.3844C21.819 39.5319 17.0951 37.4044 15.1274 36.6222C14.5603 36.4011 14.0269 36.1018 13.5425 35.7332C10.609 33.4669 11.7561 30.3218 11.8034 30.1962C13.1274 26.9052 17.4693 26.7166 17.5894 26.7124H19.5438C19.3413 26.8197 19.1455 26.9394 18.9577 27.0706C18.5601 27.3464 18.2489 27.7293 18.06 28.1747C17.8711 28.6202 17.8122 29.1101 17.8902 29.5876C17.9657 30.0709 18.1765 30.5229 18.4982 30.8914C18.82 31.2598 19.2395 31.5296 19.7082 31.6694C20.2798 31.8366 20.8659 31.949 21.4587 32.0051L21.4736 32.0065C21.5098 32.0089 25.1334 32.2697 29.316 33.7324C33.1508 35.0732 38.2433 37.7279 40.7268 42.7576C40.7516 42.8079 40.7861 42.8528 40.8282 42.8898C40.8704 42.9267 40.9194 42.955 40.9726 42.973C41.0257 42.991 41.0818 42.9984 41.1377 42.9947C41.1937 42.991 41.2484 42.9763 41.2986 42.9515C41.3489 42.9267 41.3938 42.8922 41.4308 42.85C41.4677 42.8078 41.496 42.7588 41.514 42.7057C41.532 42.6526 41.5394 42.5964 41.5357 42.5405C41.532 42.4845 41.5173 42.4299 41.4925 42.3796C39.4258 38.1938 35.3127 34.9248 29.598 32.9262C25.3637 31.4454 21.7787 31.1718 21.5395 31.1549C21.0036 31.1042 20.4736 31.0028 19.9568 30.8522C19.6403 30.7608 19.3567 30.5803 19.1398 30.3322C18.9229 30.0842 18.7819 29.779 18.7336 29.4531C18.6787 29.1335 18.7169 28.8049 18.8436 28.5064C18.9702 28.208 19.18 27.9522 19.448 27.7696C20.7018 26.8906 22.3618 26.7261 22.5212 26.7119H32.2069C32.2634 26.7126 32.3196 26.7021 32.372 26.681C32.4245 26.6599 32.4722 26.6285 32.5125 26.5888C32.5527 26.5491 32.5847 26.5018 32.6065 26.4496C32.6283 26.3974 32.6396 26.3414 32.6396 26.2848C32.6396 26.2283 32.6283 26.1723 32.6065 26.1201C32.5847 26.0679 32.5527 26.0206 32.5125 25.9809C32.4722 25.9412 32.4245 25.9098 32.372 25.8887C32.3196 25.8676 32.2634 25.8571 32.2069 25.8578H29.5308C26.9579 25.8578 26.106 24.4927 26.0729 24.4378C26.067 24.4275 26.0607 24.4176 26.0541 24.408C25.217 23.2025 23.9739 23.0585 23.1261 23.1992C23.0938 23.0146 23.0409 22.8342 22.9685 22.6614C22.6497 21.8951 21.9681 21.3046 21.0988 21.0411C19.9265 20.6859 19.025 21.0077 18.4639 21.4184C18.1313 20.7729 17.572 20.2729 16.8933 20.0144C16.2147 19.756 15.4645 19.7572 14.7867 20.018C13.5008 20.5448 13.022 21.7983 12.8468 22.7566C12.5961 24.1266 11.6961 25.2315 10.4388 25.712C10.2351 25.79 10.0791 25.8373 10.0052 25.8584H9.42712C9.37104 25.8583 9.31551 25.8694 9.26369 25.8908C9.21188 25.9123 9.16479 25.9437 9.12513 25.9834C9.08547 26.023 9.05401 26.0701 9.03254 26.1219C9.01107 26.1737 9.00001 26.2293 9 26.2853Z" fill="white"/>
<path d="M20.5669 36.4455C20.5421 36.4958 20.5276 36.5505 20.524 36.6065C20.5204 36.6624 20.5278 36.7186 20.5459 36.7716C20.564 36.8247 20.5924 36.8737 20.6294 36.9158C20.6665 36.958 20.7114 36.9924 20.7618 37.0171C23.2468 38.2387 25.741 39.7785 27.1529 42.7517C27.1766 42.803 27.2102 42.8491 27.2518 42.8872C27.2934 42.9254 27.3422 42.955 27.3953 42.9742C27.4483 42.9934 27.5047 43.002 27.5611 42.9992C27.6175 42.9965 27.6728 42.9827 27.7238 42.9585C27.7748 42.9342 27.8205 42.9001 27.8583 42.8581C27.896 42.8161 27.9251 42.7671 27.9437 42.7138C27.9624 42.6605 27.9703 42.604 27.967 42.5477C27.9637 42.4913 27.9492 42.4361 27.9244 42.3854C26.4005 39.1759 23.7625 37.5402 21.1385 36.2507C21.0881 36.2259 21.0334 36.2113 20.9775 36.2077C20.9215 36.2041 20.8654 36.2115 20.8123 36.2296C20.7592 36.2477 20.7102 36.2761 20.6681 36.3131C20.626 36.3502 20.5916 36.3951 20.5669 36.4455Z" fill="white"/>
<path d="M14.9363 29.2663C14.8538 29.1889 14.7439 29.1473 14.6308 29.1507C14.5177 29.1541 14.4106 29.2023 14.3329 29.2847C14.2882 29.3324 13.2368 30.4699 13.4896 31.9418C13.681 33.0563 14.5519 34.0201 16.0782 34.8066C16.1281 34.833 16.1828 34.8494 16.2391 34.8546C16.2954 34.8598 16.3521 34.8537 16.406 34.8368C16.46 34.8199 16.51 34.7925 16.5533 34.7561C16.5965 34.7198 16.6321 34.6752 16.658 34.6249C16.6839 34.5747 16.6995 34.5198 16.7041 34.4635C16.7086 34.4071 16.7019 34.3505 16.6843 34.2967C16.6668 34.243 16.6387 34.1933 16.6018 34.1505C16.5649 34.1077 16.5199 34.0726 16.4694 34.0474C15.1977 33.3919 14.4788 32.6374 14.3325 31.8041C14.1484 30.7557 14.9468 29.8788 14.956 29.8688C15.0331 29.7862 15.0743 29.6764 15.0706 29.5635C15.0669 29.4506 15.0186 29.3437 14.9363 29.2663Z" fill="white"/>
<path d="M33.8795 42.763C33.9046 42.8136 33.9396 42.8587 33.9822 42.8957C34.0249 42.9327 34.0746 42.9608 34.1282 42.9785C34.1819 42.9962 34.2385 43.0031 34.2948 42.9987C34.3511 42.9944 34.4061 42.9789 34.4564 42.9532C34.5067 42.9275 34.5513 42.892 34.5879 42.8489C34.6244 42.8058 34.6519 42.7558 34.669 42.702C34.6861 42.6481 34.6923 42.5914 34.6873 42.5351C34.6823 42.4789 34.6662 42.4241 34.6399 42.3741C33.5519 40.2463 31.8359 38.4118 29.5397 36.9215C29.4927 36.8908 29.4401 36.8697 29.3849 36.8594C29.3296 36.8491 29.2729 36.8498 29.218 36.8614C29.1631 36.8731 29.1109 36.8954 29.0647 36.9272C29.0184 36.959 28.9788 36.9996 28.9482 37.0467C28.9176 37.0938 28.8967 37.1465 28.8865 37.2018C28.8763 37.257 28.8771 37.3137 28.8889 37.3686C28.9006 37.4235 28.9231 37.4756 28.955 37.5218C28.9869 37.568 29.0276 37.6075 29.0748 37.638C31.244 39.0456 32.8605 40.7699 33.8795 42.763Z" fill="white"/>
<path d="M26.1758 36.1017C26.2274 36.1238 26.2828 36.1354 26.3389 36.136C26.395 36.1366 26.4506 36.1261 26.5027 36.1052C26.5547 36.0843 26.6021 36.0533 26.6422 36.0141C26.6823 35.9749 26.7142 35.9281 26.7362 35.8765C26.7582 35.8249 26.7699 35.7695 26.7705 35.7134C26.7711 35.6574 26.7606 35.6017 26.7397 35.5497C26.7188 35.4976 26.6878 35.4502 26.6486 35.4101C26.6093 35.3701 26.5626 35.3381 26.511 35.3161C26.1247 35.1515 25.7327 34.9983 25.3458 34.8611C25.2927 34.8407 25.236 34.8312 25.1791 34.8331C25.1221 34.835 25.0662 34.8483 25.0145 34.8721C24.9628 34.896 24.9164 34.9299 24.878 34.972C24.8396 35.014 24.81 35.0633 24.791 35.117C24.7719 35.1706 24.7638 35.2276 24.7671 35.2844C24.7703 35.3412 24.7849 35.3969 24.81 35.448C24.8351 35.4991 24.8702 35.5447 24.9131 35.582C24.9561 35.6194 25.0061 35.6478 25.0602 35.6655C25.4302 35.7973 25.8057 35.9441 26.1758 36.1017Z" fill="white"/>
</svg>
