<svg width="35" height="33" viewBox="0 0 35 33" fill="none" xmlns="http://www.w3.org/2000/svg">
<path d="M24.0999 20.0807C24.0584 20.0896 24.0319 20.0937 24.0274 20.0943C23.9196 20.1079 23.821 20.1621 23.7518 20.2458C23.6825 20.3295 23.6478 20.4364 23.6546 20.5448C23.6614 20.6532 23.7093 20.755 23.7885 20.8294C23.8677 20.9037 23.9722 20.9451 24.0809 20.9451H27.1786C27.2909 20.9436 27.398 20.898 27.4769 20.818C27.5558 20.7381 27.6 20.6303 27.6 20.5181C27.6 20.4058 27.5558 20.298 27.4769 20.2181C27.398 20.1382 27.2909 20.0925 27.1786 20.0911H25.6559C26.0551 19.6273 26.275 19.036 26.2759 18.4241V13.1904C26.2744 13.0782 26.2288 12.971 26.1489 12.8921C26.069 12.8132 25.9612 12.769 25.8489 12.769C25.7366 12.769 25.6289 12.8132 25.5489 12.8921C25.469 12.971 25.4234 13.0782 25.4219 13.1904V14.6117L24.817 14.1522C24.669 14.0392 24.5489 13.8937 24.4661 13.7269C24.3833 13.5601 24.34 13.3764 24.3395 13.1902C24.338 13.0779 24.2924 12.9708 24.2125 12.8919C24.1325 12.813 24.0248 12.7688 23.9125 12.7688C23.8002 12.7688 23.6924 12.813 23.6125 12.8919C23.5326 12.9708 23.487 13.0779 23.4855 13.1902C23.4864 13.5081 23.5603 13.8215 23.7016 14.1063C23.8429 14.391 24.0478 14.6394 24.3005 14.8324L24.9446 15.3215C25.0925 15.4345 25.2126 15.5801 25.2953 15.7469C25.3781 15.9137 25.4214 16.0973 25.4219 16.2835V18.4241C25.4223 18.8092 25.2916 19.1831 25.0513 19.4841C24.8111 19.7852 24.4755 19.9956 24.0999 20.0807Z" fill="white"/>
<path d="M25.9359 11.2361H25.0148C24.3166 11.2424 23.6234 11.1191 22.9702 10.8723C21.8096 10.4229 21.1304 9.69876 20.9508 8.72005C20.9407 8.66489 20.9198 8.61226 20.8893 8.56517C20.8589 8.51808 20.8195 8.47745 20.7733 8.44559C20.7272 8.41374 20.6752 8.39128 20.6204 8.37951C20.5656 8.36774 20.509 8.36688 20.4538 8.37699C20.3987 8.38709 20.346 8.40796 20.2989 8.4384C20.2518 8.46885 20.2112 8.50827 20.1794 8.55441C20.1475 8.60056 20.125 8.65253 20.1133 8.70735C20.1015 8.76218 20.1006 8.81878 20.1107 8.87394C20.3439 10.1464 21.2261 11.1128 22.6619 11.6688C23.4134 11.9536 24.2112 12.0965 25.0148 12.0901H25.9359C25.9924 12.0908 26.0486 12.0804 26.101 12.0592C26.1535 12.0381 26.2013 12.0068 26.2415 11.967C26.2818 11.9273 26.3137 11.88 26.3355 11.8278C26.3574 11.7756 26.3686 11.7196 26.3686 11.6631C26.3686 11.6065 26.3574 11.5505 26.3355 11.4984C26.3137 11.4462 26.2818 11.3989 26.2415 11.3591C26.2013 11.3194 26.1535 11.2881 26.101 11.2669C26.0486 11.2458 25.9924 11.2353 25.9359 11.2361Z" fill="white"/>
<path d="M31.886 20.9448C31.9983 20.9433 32.1055 20.8977 32.1843 20.8177C32.2632 20.7378 32.3074 20.6301 32.3074 20.5178C32.3074 20.4055 32.2632 20.2977 32.1843 20.2178C32.1055 20.1379 31.9983 20.0922 31.886 20.0908H31.6343C31.5778 20.09 31.5216 20.1005 31.4692 20.1216C31.4167 20.1428 31.369 20.1741 31.3287 20.2138C31.2885 20.2535 31.2565 20.3009 31.2347 20.3531C31.2129 20.4052 31.2016 20.4612 31.2016 20.5178C31.2016 20.5743 31.2129 20.6303 31.2347 20.6825C31.2565 20.7347 31.2885 20.782 31.3287 20.8217C31.369 20.8615 31.4167 20.8928 31.4692 20.9139C31.5216 20.935 31.5778 20.9455 31.6343 20.9448H31.886Z" fill="white"/>
<path d="M34.285 15.8584H28.4805V12.0528C28.4805 12.0419 28.4781 12.0317 28.4773 12.021C32.7148 11.5244 33.6335 8.45173 33.8175 7.47391C33.8532 7.28851 33.8709 7.10009 33.8703 6.91129C33.8564 5.25762 33.0557 3.83487 31.5545 2.79739C30.9249 2.36689 30.2364 2.02948 29.5103 1.79558C29.2402 1.27739 28.8264 0.848073 28.3185 0.559053C27.4798 0.0580373 26.3967 -0.117311 25.3472 0.0780749C23.221 0.473986 22.3693 1.81777 22.1293 2.29458C21.0011 2.85497 20.2879 3.6012 20.0082 4.51437C19.6073 5.82285 20.2689 6.96887 20.3061 7.03211C20.3254 7.06473 20.7899 7.83496 21.7184 8.07496C21.7727 8.08901 21.8292 8.09223 21.8847 8.08444C21.9403 8.07665 21.9937 8.05799 22.042 8.02954C22.0904 8.00108 22.1326 7.96339 22.1664 7.91861C22.2001 7.87383 22.2247 7.82284 22.2388 7.76855C22.2528 7.71426 22.2561 7.65773 22.2483 7.6022C22.2405 7.54666 22.2218 7.4932 22.1934 7.44488C22.1649 7.39655 22.1272 7.3543 22.0824 7.32055C22.0377 7.28679 21.9867 7.26218 21.9324 7.24813C21.3603 7.09997 21.0509 6.61229 21.0402 6.59523C21.0328 6.58286 20.5309 5.72139 20.8242 4.76413C21.0419 4.05372 21.651 3.45975 22.6343 2.99873C22.7349 2.95148 22.8132 2.86689 22.8525 2.7629C22.858 2.74845 23.4257 1.30432 25.503 0.917496C26.3509 0.759504 27.2173 0.895969 27.88 1.29195C28.3264 1.5587 28.6386 1.90225 28.8078 2.31298C28.8332 2.3743 28.8725 2.42889 28.9226 2.47242C28.9727 2.51594 29.0322 2.54723 29.0965 2.56379C29.2554 2.60491 32.9878 3.60664 33.0155 6.91829C33.0157 7.0517 33.003 7.18481 32.9774 7.31576C32.765 8.4445 31.818 11.0855 27.6246 11.2298C27.5138 11.2332 27.4086 11.2797 27.3314 11.3594C27.2543 11.4391 27.2112 11.5457 27.2113 11.6566C27.2115 11.7675 27.2548 11.874 27.3322 11.9535C27.4096 12.033 27.5149 12.0792 27.6258 12.0823V18.4241C27.6262 19.0041 27.824 19.5668 28.1866 20.0196C28.5493 20.4723 29.0551 20.7882 29.6211 20.9154C29.7131 20.9353 29.7672 20.9417 29.7672 20.9417C29.8788 20.9547 29.991 20.9232 30.0796 20.854C30.1681 20.7848 30.2258 20.6836 30.2401 20.5722C30.2545 20.4607 30.2244 20.3481 30.1563 20.2588C30.0882 20.1694 29.9877 20.1105 29.8764 20.0947C29.8698 20.0938 29.8432 20.0897 29.802 20.0806C29.4263 19.9955 29.0908 19.7852 28.8506 19.4841C28.6103 19.1831 28.4797 18.8092 28.4801 18.4241V16.7124H34.2845C34.3411 16.7131 34.3972 16.7026 34.4497 16.6815C34.5021 16.6604 34.5499 16.6291 34.5901 16.5893C34.6304 16.5496 34.6623 16.5023 34.6841 16.4501C34.706 16.3979 34.7172 16.3419 34.7172 16.2854C34.7172 16.2288 34.706 16.1728 34.6841 16.1206C34.6623 16.0685 34.6304 16.0211 34.5901 15.9814C34.5499 15.9417 34.5021 15.9104 34.4497 15.8892C34.3972 15.8681 34.3411 15.8576 34.2845 15.8584H34.285Z" fill="white"/>
<path d="M0 16.2853C0 16.3986 0.0449924 16.5072 0.125079 16.5873C0.205166 16.6674 0.313788 16.7124 0.427048 16.7124H3.53475C3.64702 16.7109 3.75419 16.6653 3.83306 16.5853C3.91193 16.5054 3.95615 16.3977 3.95615 16.2854C3.95615 16.1731 3.91193 16.0653 3.83306 15.9854C3.75419 15.9055 3.64702 15.8598 3.53475 15.8584H2.89704C3.83587 15.1295 4.47302 14.0801 4.68658 12.911C4.82349 12.1621 5.18163 11.1895 6.11022 10.809C6.38473 10.701 6.67957 10.6545 6.974 10.6727C7.26843 10.6909 7.55529 10.7735 7.81439 10.9145C8.38267 11.2206 8.73694 11.6817 8.86744 12.2851C8.88516 12.3671 8.92664 12.4421 8.9867 12.5006C9.04676 12.5592 9.12274 12.5988 9.20515 12.6144C9.28757 12.6301 9.37277 12.6211 9.45011 12.5886C9.52745 12.5561 9.59351 12.5016 9.64005 12.4318C9.6469 12.4214 10.3464 11.4027 11.8507 11.8589C12.4751 12.0481 12.9597 12.4603 13.18 12.99C13.2778 13.2171 13.3193 13.4645 13.3009 13.7111C13.2952 13.7832 13.3079 13.8556 13.3377 13.9215C13.3676 13.9874 13.4137 14.0446 13.4716 14.0879C13.5296 14.1311 13.5976 14.159 13.6693 14.1688C13.741 14.1787 13.814 14.1702 13.8815 14.1442C13.9442 14.1201 15.4234 13.5711 16.3455 14.8855C16.4092 14.9882 16.7091 15.4332 17.35 15.8582H8.58118C8.57939 15.8582 8.57775 15.8587 8.57597 15.8587C8.57418 15.8587 8.57209 15.8582 8.57016 15.8583C8.36613 15.8636 3.55784 16.032 2.00846 19.8835C1.99356 19.9217 0.574239 23.747 4.02071 26.4092C4.56814 26.8264 5.17111 27.1652 5.81219 27.4158C7.27449 27.9969 12.1442 30.1001 13.4101 32.7525C13.4589 32.8547 13.5463 32.9333 13.6531 32.9711C13.7599 33.0088 13.8773 33.0026 13.9795 32.9538C14.0817 32.905 14.1603 32.8176 14.1981 32.7108C14.2359 32.604 14.2297 32.4866 14.1808 32.3844C12.819 29.5319 8.09506 27.4044 6.12742 26.6222C5.56032 26.4011 5.02687 26.1018 4.54251 25.7332C1.60897 23.4669 2.75611 20.3218 2.80341 20.1962C4.12738 16.9052 8.4693 16.7166 8.58945 16.7124H10.5438C10.3413 16.8197 10.1455 16.9394 9.95767 17.0706C9.56014 17.3464 9.24889 17.7293 9.05998 18.1747C8.87106 18.6202 8.81221 19.1101 8.89024 19.5876C8.96567 20.0709 9.17647 20.5229 9.49821 20.8914C9.81996 21.2598 10.2395 21.5296 10.7082 21.6694C11.2798 21.8366 11.8659 21.949 12.4587 22.0051L12.4736 22.0065C12.5098 22.0089 16.1334 22.2697 20.316 23.7324C24.1508 25.0732 29.2433 27.7279 31.7268 32.7576C31.7516 32.8079 31.7861 32.8528 31.8282 32.8898C31.8704 32.9267 31.9194 32.955 31.9726 32.973C32.0257 32.991 32.0818 32.9984 32.1377 32.9947C32.1937 32.991 32.2484 32.9763 32.2986 32.9515C32.3489 32.9267 32.3938 32.8922 32.4308 32.85C32.4677 32.8078 32.496 32.7588 32.514 32.7057C32.532 32.6526 32.5394 32.5964 32.5357 32.5405C32.532 32.4845 32.5173 32.4299 32.4925 32.3796C30.4258 28.1938 26.3127 24.9248 20.598 22.9262C16.3637 21.4454 12.7787 21.1718 12.5395 21.1549C12.0036 21.1042 11.4736 21.0028 10.9568 20.8522C10.6403 20.7608 10.3567 20.5803 10.1398 20.3322C9.92293 20.0842 9.78194 19.779 9.73361 19.4531C9.67874 19.1335 9.71691 18.8049 9.84356 18.5064C9.97022 18.208 10.18 17.9522 10.448 17.7696C11.7018 16.8906 13.3618 16.7261 13.5212 16.7119H23.2069C23.2634 16.7126 23.3196 16.7021 23.372 16.681C23.4245 16.6599 23.4722 16.6285 23.5125 16.5888C23.5527 16.5491 23.5847 16.5018 23.6065 16.4496C23.6283 16.3974 23.6396 16.3414 23.6396 16.2848C23.6396 16.2283 23.6283 16.1723 23.6065 16.1201C23.5847 16.0679 23.5527 16.0206 23.5125 15.9809C23.4722 15.9412 23.4245 15.9098 23.372 15.8887C23.3196 15.8676 23.2634 15.8571 23.2069 15.8578H20.5308C17.9579 15.8578 17.106 14.4927 17.0729 14.4378C17.067 14.4275 17.0607 14.4176 17.0541 14.408C16.217 13.2025 14.9739 13.0585 14.1261 13.1992C14.0938 13.0146 14.0409 12.8342 13.9685 12.6614C13.6497 11.8951 12.9681 11.3046 12.0988 11.0411C10.9265 10.6859 10.025 11.0077 9.46388 11.4184C9.13128 10.7729 8.57198 10.2729 7.89333 10.0144C7.21467 9.75596 6.46448 9.75724 5.78671 10.018C4.5008 10.5448 4.02198 11.7983 3.84678 12.7566C3.59613 14.1266 2.69607 15.2315 1.43876 15.712C1.23511 15.79 1.07905 15.8373 1.00523 15.8584H0.427122C0.371042 15.8583 0.315508 15.8694 0.263692 15.8908C0.211877 15.9123 0.164794 15.9437 0.125132 15.9834C0.08547 16.023 0.0540058 16.0701 0.0325356 16.1219C0.0110654 16.1737 9.78124e-06 16.2293 0 16.2853Z" fill="white"/>
<path d="M11.5669 26.4455C11.5421 26.4958 11.5276 26.5505 11.524 26.6065C11.5204 26.6624 11.5278 26.7186 11.5459 26.7716C11.564 26.8247 11.5924 26.8737 11.6294 26.9158C11.6665 26.958 11.7114 26.9924 11.7618 27.0171C14.2468 28.2387 16.741 29.7785 18.1529 32.7517C18.1766 32.803 18.2102 32.8491 18.2518 32.8872C18.2934 32.9254 18.3422 32.955 18.3953 32.9742C18.4483 32.9934 18.5047 33.002 18.5611 32.9992C18.6175 32.9965 18.6728 32.9827 18.7238 32.9585C18.7748 32.9342 18.8205 32.9001 18.8583 32.8581C18.896 32.8161 18.9251 32.7671 18.9437 32.7138C18.9624 32.6605 18.9703 32.604 18.967 32.5477C18.9637 32.4913 18.9492 32.4361 18.9244 32.3854C17.4005 29.1759 14.7625 27.5402 12.1385 26.2507C12.0881 26.2259 12.0334 26.2113 11.9775 26.2077C11.9215 26.2041 11.8654 26.2115 11.8123 26.2296C11.7592 26.2477 11.7102 26.2761 11.6681 26.3131C11.626 26.3502 11.5916 26.3951 11.5669 26.4455Z" fill="white"/>
<path d="M5.93623 19.2663C5.85373 19.1889 5.74387 19.1473 5.63075 19.1507C5.51764 19.1541 5.4105 19.2023 5.33286 19.2847C5.28817 19.3324 4.23675 20.4699 4.48957 21.9418C4.68093 23.0563 5.55186 24.0201 7.07815 24.8066C7.12807 24.833 7.18276 24.8494 7.23903 24.8546C7.29531 24.8598 7.35206 24.8537 7.40599 24.8368C7.45992 24.8199 7.50996 24.7925 7.55321 24.7561C7.59646 24.7198 7.63206 24.6752 7.65795 24.6249C7.68383 24.5747 7.69948 24.5198 7.704 24.4635C7.70852 24.4071 7.70181 24.3505 7.68426 24.2967C7.66671 24.243 7.63868 24.1933 7.60177 24.1505C7.56487 24.1077 7.51984 24.0726 7.46929 24.0474C6.19768 23.3919 5.47871 22.6374 5.33241 21.8041C5.14835 20.7557 5.94673 19.8788 5.95597 19.8688C6.03306 19.7862 6.07427 19.6764 6.07057 19.5635C6.06687 19.4506 6.01856 19.3437 5.93623 19.2663Z" fill="white"/>
<path d="M24.8794 32.763C24.9046 32.8136 24.9395 32.8587 24.9822 32.8957C25.0249 32.9327 25.0745 32.9608 25.1281 32.9785C25.1818 32.9962 25.2384 33.0031 25.2948 32.9987C25.3511 32.9944 25.406 32.9789 25.4563 32.9532C25.5066 32.9275 25.5513 32.892 25.5878 32.8489C25.6243 32.8058 25.6519 32.7558 25.6689 32.702C25.686 32.6481 25.6922 32.5914 25.6872 32.5351C25.6822 32.4789 25.6661 32.4241 25.6398 32.3741C24.5518 30.2463 22.8359 28.4118 20.5397 26.9215C20.4926 26.8908 20.44 26.8697 20.3848 26.8594C20.3296 26.8491 20.2729 26.8498 20.2179 26.8614C20.163 26.8731 20.1109 26.8954 20.0646 26.9272C20.0183 26.959 19.9787 26.9996 19.9482 27.0467C19.9176 27.0938 19.8966 27.1465 19.8864 27.2018C19.8762 27.257 19.877 27.3137 19.8888 27.3686C19.9005 27.4235 19.923 27.4756 19.9549 27.5218C19.9868 27.568 20.0275 27.6075 20.0747 27.638C22.2439 29.0456 23.8605 30.7699 24.8794 32.763Z" fill="white"/>
<path d="M17.1758 26.1017C17.2274 26.1238 17.2828 26.1354 17.3389 26.136C17.395 26.1366 17.4506 26.1261 17.5027 26.1052C17.5547 26.0843 17.6021 26.0533 17.6422 26.0141C17.6823 25.9749 17.7142 25.9281 17.7362 25.8765C17.7582 25.8249 17.7699 25.7695 17.7705 25.7134C17.7711 25.6574 17.7606 25.6017 17.7397 25.5497C17.7188 25.4976 17.6878 25.4502 17.6486 25.4101C17.6093 25.3701 17.5626 25.3381 17.511 25.3161C17.1247 25.1515 16.7327 24.9983 16.3458 24.8611C16.2927 24.8407 16.236 24.8312 16.1791 24.8331C16.1221 24.835 16.0662 24.8483 16.0145 24.8721C15.9628 24.896 15.9164 24.9299 15.878 24.972C15.8396 25.014 15.81 25.0633 15.791 25.117C15.7719 25.1706 15.7638 25.2276 15.7671 25.2844C15.7703 25.3412 15.7849 25.3969 15.81 25.448C15.8351 25.4991 15.8702 25.5447 15.9131 25.582C15.9561 25.6194 16.0061 25.6478 16.0602 25.6655C16.4302 25.7973 16.8057 25.9441 17.1758 26.1017Z" fill="white"/>
</svg>
