<svg width="32" height="32" viewBox="0 0 32 32" fill="none" xmlns="http://www.w3.org/2000/svg">
<path d="M8.50915 10H7.25453C6.47591 10.0007 5.7062 10.1242 4.99548 10.3626C4.28476 10.6009 3.64895 10.9487 3.12942 11.3833C3.08546 11.4191 3.05144 11.4612 3.02932 11.5069C3.0072 11.5527 2.99743 11.6013 3.00057 11.65C3.00372 11.6986 3.01971 11.7463 3.04763 11.7902C3.07555 11.8342 3.11484 11.8736 3.16322 11.9061C3.2116 11.9386 3.2681 11.9635 3.32946 11.9795C3.39082 11.9956 3.4558 12.0023 3.52065 11.9993C3.5855 11.9964 3.64892 11.9838 3.70724 11.9623C3.76556 11.9409 3.81761 11.9109 3.86037 11.8743C4.2878 11.5167 4.81088 11.2305 5.3956 11.0343C5.98033 10.8381 6.61361 10.7364 7.25425 10.7357H8.50915C8.63933 10.7357 8.76418 10.6969 8.85623 10.6279C8.94829 10.559 9 10.4654 9 10.3678C9 10.2703 8.94829 10.1767 8.85623 10.1077C8.76418 10.0388 8.63933 10 8.50915 10Z" fill="white"/>
<path d="M31.5273 6.5315H26.7485C26.6864 6.53146 26.6249 6.54352 26.5676 6.56699C26.5102 6.59045 26.4581 6.62486 26.4142 6.66825C26.3703 6.71164 26.3355 6.76315 26.3117 6.81985C26.288 6.87654 26.2758 6.93731 26.2758 6.99866V7.78964H22.5407C22.5144 7.25956 22.2831 6.75973 21.8945 6.39342C21.5059 6.02712 20.9898 5.82235 20.4528 5.82141H18.1217V4.72824L20.8936 5.0008C21.1481 5.0259 21.4051 4.99802 21.6481 4.91895C21.8911 4.83988 22.1146 4.71138 22.3042 4.54173C22.4939 4.37208 22.6454 4.16504 22.7492 3.93396C22.8529 3.70288 22.9065 3.45288 22.9065 3.20008C22.9065 2.94728 22.8529 2.69728 22.7492 2.4662C22.6454 2.23512 22.4939 2.02808 22.3042 1.85843C22.1146 1.68878 21.8911 1.56028 21.6481 1.48121C21.4051 1.40214 21.1481 1.37426 20.8936 1.39936L18.1217 1.67218V1.26802C18.1217 0.93172 17.9865 0.609194 17.7459 0.371394C17.5053 0.133595 17.179 0 16.8387 0C16.4984 0 16.1721 0.133595 15.9315 0.371394C15.6908 0.609194 15.5557 0.93172 15.5557 1.26802V1.67218L12.7835 1.39936C12.5367 1.3752 12.2874 1.40086 12.0509 1.47478C11.8144 1.54871 11.5956 1.66936 11.4077 1.8294C11.2198 1.98945 11.0667 2.18556 10.9578 2.40584C10.8489 2.62611 10.7865 2.86595 10.7742 3.11081C10.762 3.35567 10.8002 3.60043 10.8865 3.83025C10.9729 4.06007 11.1056 4.27015 11.2766 4.44774C11.4476 4.62533 11.6534 4.76674 11.8813 4.86337C12.1093 4.96 12.3548 5.00984 12.6028 5.00988C12.6632 5.00992 12.7235 5.00689 12.7835 5.0008L15.5557 4.72824V5.82141H13.227C12.69 5.82228 12.1738 6.02702 11.7852 6.39333C11.3965 6.75964 11.1651 7.25951 11.1388 7.78964H6.95535C5.11131 7.79169 3.3434 8.51657 2.03946 9.80525C0.735532 11.0939 0.00207336 12.8412 7.72705e-08 14.6636V19.5328C-3.54303e-05 19.5942 0.0121668 19.655 0.0359093 19.7117C0.0596518 19.7683 0.0944689 19.8199 0.13837 19.8632C0.18227 19.9066 0.234394 19.941 0.29176 19.9645C0.349125 19.988 0.410609 20 0.472694 20H6.95535C7.08071 20 7.20094 19.9508 7.28959 19.8632C7.37824 19.7756 7.42804 19.6567 7.42804 19.5328V15.1308H11.5607C11.875 15.7241 12.3475 16.2213 12.927 16.5684C13.5066 16.9155 14.1711 17.0993 14.8488 17.1001H18.8321C19.5097 17.0993 20.1742 16.9154 20.7537 16.5683C21.3332 16.2212 21.8056 15.7241 22.1199 15.1308H26.2758V15.9237C26.2758 15.985 26.288 16.0458 26.3117 16.1025C26.3355 16.1592 26.3703 16.2107 26.4142 16.2541C26.4581 16.2975 26.5102 16.3319 26.5676 16.3553C26.6249 16.3788 26.6864 16.3909 26.7485 16.3908H31.5273C31.5894 16.3909 31.6509 16.3788 31.7082 16.3553C31.7656 16.3319 31.8177 16.2975 31.8616 16.2541C31.9055 16.2107 31.9403 16.1592 31.9641 16.1025C31.9878 16.0458 32 15.985 32 15.9237V6.99866C32 6.93731 31.9878 6.87654 31.9641 6.81985C31.9403 6.76315 31.9055 6.71164 31.8616 6.66825C31.8177 6.62486 31.7656 6.59045 31.7082 6.56699C31.6509 6.54352 31.5894 6.53146 31.5273 6.5315ZM16.8387 0.93433C16.9282 0.934541 17.0139 0.969766 17.0772 1.0323C17.1405 1.09483 17.1761 1.17958 17.1763 1.26802V1.72985C16.9514 1.7359 16.7263 1.7359 16.5011 1.72985V1.26802C16.5012 1.17956 16.5368 1.09477 16.6001 1.03222C16.6634 0.969673 16.7492 0.934471 16.8387 0.93433ZM12.6901 4.07101C12.5706 4.08308 12.4499 4.07101 12.3352 4.03554C12.2206 4.00007 12.1145 3.94194 12.0233 3.86469C11.9321 3.78743 11.8578 3.69265 11.8048 3.58612C11.7519 3.47959 11.7214 3.36353 11.7152 3.24498C11.709 3.12644 11.7273 3.0079 11.7689 2.89655C11.8105 2.7852 11.8746 2.68338 11.9573 2.59728C12.0399 2.51117 12.1395 2.44257 12.2498 2.39565C12.3601 2.34873 12.4789 2.32447 12.599 2.32435C12.6293 2.32435 12.6595 2.32595 12.6901 2.32888L15.5281 2.60812C15.688 2.6236 15.8487 2.63348 16.0092 2.64335C16.0157 2.64335 16.0219 2.64522 16.0284 2.64522H16.0313C16.5692 2.67766 17.1085 2.67766 17.6463 2.64522H17.649C17.6555 2.64522 17.6617 2.64362 17.6679 2.64335C17.8286 2.63348 17.9894 2.6236 18.1495 2.60812L20.9873 2.32888C21.1104 2.31682 21.2347 2.33037 21.3521 2.36866C21.4696 2.40694 21.5776 2.46912 21.6693 2.55118C21.761 2.63323 21.8342 2.73336 21.8844 2.84509C21.9345 2.95683 21.9604 3.07771 21.9604 3.19995C21.9604 3.32218 21.9345 3.44306 21.8844 3.5548C21.8342 3.66654 21.761 3.76666 21.6693 3.84872C21.5776 3.93078 21.4696 3.99295 21.3521 4.03124C21.2347 4.06952 21.1104 4.08307 20.9873 4.07101L18.1495 3.79204C17.2783 3.70618 16.4007 3.70618 15.5295 3.79204L12.6901 4.07101ZM16.5011 4.67005C16.7263 4.66382 16.9514 4.66382 17.1763 4.67005V5.82141H16.5011V4.67005ZM6.95535 14.1965C6.89326 14.1964 6.83178 14.2085 6.77441 14.232C6.71705 14.2554 6.66492 14.2898 6.62102 14.3332C6.57712 14.3766 6.54231 14.4281 6.51856 14.4848C6.49482 14.5415 6.48262 14.6023 6.48265 14.6636V19.0657H0.945387V14.6636C0.947174 13.0889 1.58094 11.5791 2.70764 10.4656C3.83434 9.35209 5.36196 8.72574 6.95535 8.72397H11.134V13.4295C11.1343 13.6873 11.1621 13.9444 11.2169 14.1965H6.95535ZM18.8321 16.1658H14.8477C14.1137 16.1649 13.41 15.8764 12.891 15.3634C12.372 14.8504 12.0801 14.1549 12.0793 13.4295V7.89028C12.0797 7.58949 12.2008 7.30112 12.416 7.08843C12.6312 6.87574 12.923 6.75609 13.2273 6.75574H16.0205H16.0284C16.0284 6.75574 16.0335 6.75574 16.0362 6.75574H17.6412H17.649C17.649 6.75574 17.6542 6.75574 17.6569 6.75574H20.4528C20.7571 6.75602 21.049 6.87564 21.2642 7.08835C21.4794 7.30106 21.6005 7.58947 21.6007 7.89028V13.4295C21.6 14.155 21.308 14.8505 20.789 15.3635C20.2699 15.8765 19.5662 16.165 18.8321 16.1658ZM22.4629 14.1965C22.5178 13.9444 22.5455 13.6873 22.5459 13.4295V8.72397H26.2758V14.1965H22.4629ZM31.0546 15.4554H27.2212V14.669V14.6639V14.6586V8.26215V8.25707V8.25173V7.46583H31.0546V15.4554Z" fill="white"/>
<path d="M3.14502 22.1727C2.82309 22.6133 0 26.5301 0 28.3774C0 29.3382 0.368749 30.2596 1.02513 30.939C1.6815 31.6183 2.57174 32 3.5 32C4.42826 32 5.3185 31.6183 5.97487 30.939C6.63125 30.2596 7 29.3382 7 28.3774C7 26.5301 4.17742 22.6135 3.85473 22.1727C3.81149 22.1187 3.75728 22.0752 3.69594 22.0453C3.6346 22.0155 3.56765 22 3.49987 22C3.43209 22 3.36515 22.0155 3.30381 22.0453C3.24247 22.0752 3.18825 22.1187 3.14502 22.1727ZM3.50102 31.0788C2.80885 31.0783 2.14516 30.7936 1.65563 30.2871C1.1661 29.7807 0.890744 29.0938 0.890003 28.3774C0.890003 27.2323 2.53905 24.6138 3.5 23.2284C4.46069 24.6143 6.11 27.2315 6.11 28.3774C6.10919 29.0936 5.83395 29.7803 5.34465 30.2867C4.85536 30.7931 4.19197 31.078 3.5 31.0788H3.50102Z" fill="white"/>
</svg>
