<svg width="24" height="35" viewBox="0 0 24 35" fill="none" xmlns="http://www.w3.org/2000/svg">
<path d="M11.6211 5.46875C11.2438 5.46875 10.9375 5.775 10.9375 6.15234C10.9375 6.52969 11.2438 6.83594 11.6211 6.83594C11.9984 6.83594 12.3047 6.52969 12.3047 6.15234C12.3047 5.775 11.9984 5.46875 11.6211 5.46875Z" fill="white"/>
<path d="M18.0007 25.2652C17.8438 24.9218 17.4383 24.7706 17.0948 24.9276C16.7515 25.0846 16.6004 25.4901 16.7573 25.8335C16.8547 26.0464 16.8367 26.2834 16.708 26.4837C16.5801 26.6827 16.3708 26.7969 16.1336 26.7969H11.2208L11.421 26.5967C11.6879 26.3297 11.6879 25.8969 11.421 25.6299C11.1541 25.3628 10.7212 25.3629 10.4542 25.6299L9.087 26.997C8.82225 27.2618 8.82026 27.6916 9.08269 27.9591C9.0842 27.9606 9.0855 27.9623 9.087 27.9639L10.4542 29.331C10.7211 29.598 11.154 29.598 11.421 29.331C11.6879 29.0641 11.6879 28.6312 11.421 28.3642L11.2207 28.1641H16.1335C16.8347 28.1641 17.4795 27.8122 17.8581 27.2227C18.2377 26.6319 18.291 25.9002 18.0007 25.2652Z" fill="white"/>
<path d="M16.619 20.5848C16.2514 20.4998 15.884 20.7292 15.7991 21.0969L15.7679 21.2319L13.4137 16.995C13.0807 16.3957 12.4751 16.004 11.7937 15.9472C11.1086 15.8899 10.4465 16.1735 10.0224 16.7052C9.78699 17.0004 9.83532 17.4305 10.1305 17.6659C10.4257 17.9013 10.8558 17.8529 11.0912 17.5578C11.2304 17.3833 11.4505 17.2905 11.6802 17.3098C11.9096 17.3289 12.1058 17.4562 12.2185 17.6591L14.701 22.1267L14.2994 22.034C13.9313 21.9489 13.5645 22.1784 13.4796 22.5464C13.3947 22.9142 13.6241 23.2812 13.992 23.3661L15.876 23.8009C16.2757 23.8932 16.6895 23.6087 16.7211 23.1788L17.1311 21.4047C17.2161 21.0368 16.9868 20.6698 16.619 20.5848Z" fill="white"/>
<path d="M10.3314 21.3071L9.80042 19.4566C9.69877 19.0903 9.31897 18.8756 8.95283 18.9805L7.09414 19.513C6.73122 19.617 6.52129 19.9955 6.62526 20.3585C6.72924 20.7214 7.10761 20.9313 7.47073 20.8273L7.74335 20.7492L5.31639 25.1174C5.01109 25.6665 4.97274 26.3132 5.21118 26.8917C5.45188 27.4759 5.93408 27.9105 6.534 28.0839C6.89679 28.1889 7.27577 27.9795 7.38057 27.6171C7.48543 27.2544 7.27646 26.8754 6.91374 26.7705C6.71618 26.7134 6.55636 26.5677 6.47522 26.3707C6.42887 26.2583 6.37192 26.0324 6.51138 25.7816L8.93909 21.412L9.01723 21.6842C9.12168 22.0482 9.50108 22.2565 9.86283 22.1527C10.2258 22.0486 10.4355 21.6699 10.3314 21.3071Z" fill="white"/>
<path d="M21.6947 17.5815L12.2201 0.35417C12.1 0.135693 11.8704 0 11.6211 0C11.3718 0 11.1422 0.135693 11.0221 0.35417L1.54745 17.5815C0.535117 19.3367 0 21.3412 0 23.3789C0 29.7868 5.21322 35 11.6211 35C18.029 35 23.2422 29.7868 23.2422 23.3789C23.2422 21.3412 22.7071 19.3367 21.6947 17.5815ZM11.6211 33.6328C5.96709 33.6328 1.36719 29.0329 1.36719 23.3789C1.36719 21.5785 1.84017 19.8081 2.73499 18.2589C2.73738 18.2548 2.73971 18.2506 2.74203 18.2464L11.6211 2.10212L20.5002 18.2464C20.5025 18.2507 20.5048 18.2548 20.5072 18.2589C21.402 19.8081 21.875 21.5785 21.875 23.3789C21.875 29.0329 17.2751 33.6328 11.6211 33.6328Z" fill="white"/>
<path d="M15.794 12.8346L13.6065 8.22653C13.4445 7.88549 13.0367 7.74022 12.6958 7.90217C12.3547 8.06404 12.2095 8.4718 12.3714 8.81285L14.5589 13.421C14.7213 13.7631 15.1296 13.9068 15.4696 13.7453C15.8106 13.5834 15.9559 13.1757 15.794 12.8346Z" fill="white"/>
</svg>
