<svg width="55" height="55" viewBox="0 0 55 55" fill="none" xmlns="http://www.w3.org/2000/svg">
<circle cx="27.5" cy="27.5" r="27.5" fill="#D9D9D9"/>
<path d="M27.6211 15.4688C27.2438 15.4688 26.9375 15.775 26.9375 16.1523C26.9375 16.5297 27.2438 16.8359 27.6211 16.8359C27.9984 16.8359 28.3047 16.5297 28.3047 16.1523C28.3047 15.775 27.9984 15.4688 27.6211 15.4688Z" fill="white"/>
<path d="M34.0007 35.2652C33.8437 34.9218 33.4382 34.7706 33.0948 34.9276C32.7515 35.0846 32.6003 35.4901 32.7573 35.8335C32.8546 36.0464 32.8366 36.2834 32.7079 36.4837C32.58 36.6827 32.3707 36.7969 32.1335 36.7969H27.2207L27.4209 36.5967C27.6879 36.3297 27.6879 35.8969 27.4209 35.6299C27.154 35.3628 26.7211 35.3629 26.4541 35.6299L25.0869 36.997C24.8222 37.2618 24.8202 37.6916 25.0826 37.9591C25.0841 37.9606 25.0854 37.9623 25.0869 37.9639L26.4541 39.331C26.7211 39.598 27.1539 39.598 27.4209 39.331C27.6879 39.0641 27.6879 38.6312 27.4209 38.3642L27.2206 38.1641H32.1334C32.8347 38.1641 33.4794 37.8122 33.8581 37.2227C34.2376 36.6319 34.2909 35.9002 34.0007 35.2652Z" fill="white"/>
<path d="M32.619 30.5848C32.2514 30.4998 31.884 30.7292 31.7991 31.0969L31.7679 31.2319L29.4137 26.995C29.0807 26.3957 28.4751 26.004 27.7937 25.9472C27.1086 25.8899 26.4465 26.1735 26.0224 26.7052C25.787 27.0004 25.8353 27.4305 26.1305 27.6659C26.4257 27.9013 26.8558 27.8529 27.0912 27.5578C27.2304 27.3833 27.4505 27.2905 27.6802 27.3098C27.9096 27.3289 28.1058 27.4562 28.2185 27.6591L30.701 32.1267L30.2994 32.034C29.9313 31.9489 29.5645 32.1784 29.4796 32.5464C29.3947 32.9142 29.6241 33.2812 29.992 33.3661L31.876 33.8009C32.2757 33.8932 32.6895 33.6087 32.7211 33.1788L33.1311 31.4047C33.2161 31.0368 32.9868 30.6698 32.619 30.5848Z" fill="white"/>
<path d="M26.3314 31.3071L25.8005 29.4566C25.6988 29.0903 25.319 28.8756 24.9529 28.9805L23.0942 29.513C22.7313 29.617 22.5214 29.9955 22.6253 30.3585C22.7293 30.7214 23.1077 30.9313 23.4708 30.8273L23.7434 30.7492L21.3164 35.1174C21.0112 35.6665 20.9728 36.3132 21.2112 36.8917C21.4519 37.4759 21.9341 37.9105 22.5341 38.0839C22.8968 38.1889 23.2758 37.9795 23.3806 37.6171C23.4855 37.2544 23.2765 36.8754 22.9138 36.7705C22.7162 36.7134 22.5564 36.5677 22.4753 36.3707C22.4289 36.2583 22.372 36.0324 22.5114 35.7816L24.9392 31.412L25.0173 31.6842C25.1217 32.0482 25.5011 32.2565 25.8629 32.1527C26.2258 32.0486 26.4355 31.6699 26.3314 31.3071Z" fill="white"/>
<path d="M37.6947 27.5815L28.2201 10.3542C28.1 10.1357 27.8704 10 27.6211 10C27.3718 10 27.1422 10.1357 27.0221 10.3542L17.5475 27.5815C16.5351 29.3367 16 31.3412 16 33.3789C16 39.7868 21.2132 45 27.6211 45C34.029 45 39.2422 39.7868 39.2422 33.3789C39.2422 31.3412 38.7071 29.3367 37.6947 27.5815ZM27.6211 43.6328C21.9671 43.6328 17.3672 39.0329 17.3672 33.3789C17.3672 31.5785 17.8402 29.8081 18.735 28.2589C18.7374 28.2548 18.7397 28.2506 18.742 28.2464L27.6211 12.1021L36.5002 28.2464C36.5025 28.2507 36.5048 28.2548 36.5072 28.2589C37.402 29.8081 37.875 31.5785 37.875 33.3789C37.875 39.0329 33.2751 43.6328 27.6211 43.6328Z" fill="white"/>
<path d="M31.794 22.8346L29.6065 18.2265C29.4445 17.8855 29.0367 17.7402 28.6958 17.9022C28.3547 18.064 28.2095 18.4718 28.3714 18.8128L30.5589 23.421C30.7213 23.7631 31.1296 23.9068 31.4696 23.7453C31.8106 23.5834 31.9559 23.1757 31.794 22.8346Z" fill="white"/>
</svg>
