<svg width="244" height="80" viewBox="0 0 244 80" fill="none" xmlns="http://www.w3.org/2000/svg">
<path d="M0 80H194C221.614 80 244 57.6142 244 30V0H0V80Z" fill="white"/>
<g clip-path="url(#clip0_61_171)">
<path d="M156.287 48.0922C155.091 48.0922 154.103 47.1305 154.103 45.9285V18.075C154.103 16.8901 155.073 15.9113 156.287 15.9113H189.224C190.42 15.9113 191.408 16.8729 191.408 18.075V45.9285C191.408 47.1133 190.437 48.0922 189.224 48.0922H156.287Z" fill="white"/>
<path d="M189.224 16.3406C190.195 16.3406 190.975 17.1133 190.975 18.075V45.9284C190.975 46.8901 190.195 47.6628 189.224 47.6628H156.287C155.316 47.6628 154.536 46.8901 154.536 45.9284V18.075C154.536 17.1133 155.316 16.3406 156.287 16.3406H189.224ZM189.224 15.482H156.287C154.848 15.482 153.669 16.6497 153.669 18.075V45.9284C153.669 47.3537 154.848 48.5215 156.287 48.5215H189.224C190.663 48.5215 191.842 47.3537 191.842 45.9284V18.075C191.842 16.6497 190.68 15.482 189.224 15.482Z" fill="black"/>
<path d="M177.783 22.5398C178.996 23.0034 180.123 23.6903 181.18 24.6004L178.008 27.348C176.95 26.249 175.477 25.6995 173.57 25.6995C171.663 25.6995 170.45 26.0944 169.93 26.8672C169.41 27.6399 169.41 28.3097 169.93 28.8592C170.45 29.4087 171.663 29.8208 173.57 30.0956C175.581 30.2845 177.401 30.8512 179.031 31.8128C180.66 32.7745 181.492 34.3028 181.492 36.3978C181.492 38.0463 180.626 39.4545 178.875 40.6394C177.124 41.8243 175.096 42.4253 172.773 42.4253C170.571 42.4253 168.734 42.1505 167.243 41.601C165.769 41.0515 164.504 40.3303 163.446 39.403L166.619 36.6554C167.676 37.7544 169.462 38.3898 171.993 38.5787C174.107 38.5787 175.425 38.1837 175.945 37.411C176.465 36.6382 176.465 35.8655 175.945 35.0755C175.425 34.3028 174.107 33.822 171.993 33.6331C170.086 33.4442 168.352 32.9462 166.775 32.1219C165.197 31.2976 164.4 29.8895 164.4 27.8804C164.4 26.0601 165.301 24.6004 167.104 23.5014C168.907 22.4024 170.744 21.8529 172.651 21.8529C174.853 21.8529 176.569 22.0761 177.783 22.5398Z" fill="black"/>
<path d="M62.6587 48.5215H29.5136C28.1268 48.5215 27 47.4053 27 46.0315V17.9719C27 16.5982 28.1268 15.482 29.5136 15.482H62.6587C64.0456 15.482 65.1724 16.5982 65.1724 17.9719V46.0315C65.1724 47.4053 64.0456 48.5215 62.6587 48.5215Z" fill="#0038B8"/>
<path d="M104.662 48.5215H71.9505C70.4423 48.5215 69.2115 47.3022 69.2115 45.8082V18.1952C69.2115 16.7012 70.4423 15.482 71.9505 15.482H104.662C106.17 15.482 107.401 16.7012 107.401 18.1952V45.8254C107.401 47.3194 106.17 48.5215 104.662 48.5215Z" fill="#ED1C24"/>
<path d="M146.579 48.5215H114.509C112.827 48.5215 111.458 47.1648 111.458 45.4991V18.5043C111.458 16.8386 112.827 15.482 114.509 15.482H146.579C148.261 15.482 149.63 16.8386 149.63 18.5043V45.4991C149.63 47.182 148.261 48.5215 146.579 48.5215Z" fill="#009245"/>
<path d="M38.0773 39.4545C35.8064 37.4968 34.6622 35.0412 34.6622 32.0876C34.6796 29.2026 35.8064 26.7813 38.0773 24.8065C40.3482 22.8317 43.1565 21.8529 46.5196 21.8529C49.9 21.8529 52.8123 22.763 55.2392 24.6004L52.0669 27.6056C50.4547 26.5066 48.5998 25.9571 46.5196 25.9571C44.3873 25.9742 42.6711 26.5409 41.371 27.6915C40.0708 28.8248 39.4121 30.3016 39.4121 32.0704C39.4294 33.9765 40.0882 35.4877 41.3883 36.621C42.6885 37.7372 44.422 38.3039 46.5543 38.3039C48.2705 38.3039 49.5706 38.012 50.4894 37.4281V33.9078L47.317 33.925V30.0612H55.2392V39.6434C52.8296 41.4636 49.9173 42.3909 46.5196 42.3909C43.1565 42.3909 40.3482 41.4121 38.0773 39.4545Z" fill="white"/>
<path d="M80.6181 39.4545C78.3472 37.4968 77.2031 35.0412 77.2031 32.0876C77.2204 29.2026 78.3472 26.7813 80.6181 24.8065C82.889 22.8317 85.6974 21.8529 89.0604 21.8529C92.4408 21.8529 95.3531 22.763 97.7801 24.6004L94.6077 27.6056C92.9955 26.5066 91.1407 25.9571 89.0604 25.9571C86.9282 25.9742 85.212 26.5409 83.9118 27.6915C82.6117 28.8248 81.9529 30.3016 81.9529 32.0704C81.9703 33.9765 82.629 35.4877 83.9292 36.621C85.2293 37.7372 86.9628 38.3039 89.0951 38.3039C91.2273 38.3039 93.0649 37.7544 94.6251 36.6726L97.7974 39.6777C95.3878 41.498 92.4755 42.4253 89.0778 42.4253C85.7147 42.3909 82.889 41.4121 80.6181 39.4545Z" fill="white"/>
<path d="M135.744 33.4442L141.656 42.4081H136.212L130.526 33.9078H126.193V42.4081H121.443V21.8529H131.792C137.339 21.8529 140.096 23.8277 140.096 27.7773C140.113 30.731 138.657 32.6199 135.744 33.4442ZM126.21 30.0612H132.849C134.756 30.0269 135.744 29.2885 135.796 27.7945C135.744 26.4379 134.774 25.7338 132.901 25.6823H126.21V30.0612Z" fill="white"/>
<path d="M30.8311 56.249V55.2702H33.3794V57.5885C33.1367 57.8289 32.7727 58.0349 32.3046 58.2238C31.8365 58.4127 31.3512 58.4986 30.8831 58.4986C30.2764 58.4986 29.739 58.3784 29.2883 58.1208C28.8375 57.8632 28.4908 57.5026 28.2655 57.0218C28.0401 56.5409 27.9188 56.0258 27.9188 55.4763C27.9188 54.8752 28.0401 54.3429 28.3001 53.8621C28.5602 53.3984 28.9242 53.0378 29.4269 52.7802C29.8083 52.5913 30.2764 52.4883 30.8311 52.4883C31.5592 52.4883 32.1312 52.6428 32.53 52.9348C32.946 53.2439 33.206 53.656 33.3274 54.1883L32.1486 54.4116C32.0619 54.1196 31.9059 53.8964 31.6805 53.7419C31.4552 53.5701 31.1605 53.5014 30.8311 53.5014C30.311 53.5014 29.895 53.656 29.6003 53.9823C29.2883 54.3085 29.1496 54.7894 29.1496 55.4247C29.1496 56.1116 29.3056 56.6268 29.6176 56.9703C29.9297 57.3137 30.3284 57.4854 30.8311 57.4854C31.0738 57.4854 31.3338 57.4339 31.5765 57.348C31.8192 57.245 32.0446 57.142 32.2179 57.0046V56.2662H30.8311V56.249Z" fill="black"/>
<path d="M34.4715 58.3955V52.5913H38.8227V53.5701H35.6503V54.8581H38.5973V55.8369H35.6503V57.4167H38.9267V58.3955H34.4715Z" fill="black"/>
<path d="M39.6895 55.5278C39.6895 54.9439 39.7761 54.4459 39.9495 54.0338C40.0882 53.7418 40.2615 53.4671 40.4869 53.2438C40.7122 53.0034 40.9723 52.8317 41.2496 52.7287C41.6137 52.5741 42.0297 52.5054 42.5151 52.5054C43.3819 52.5054 44.0753 52.763 44.5953 53.2954C45.1154 53.8277 45.3754 54.5661 45.3754 55.5106C45.3754 56.4551 45.1154 57.1763 44.6127 57.7086C44.0926 58.241 43.4165 58.4986 42.5498 58.4986C41.683 58.4986 40.9896 58.241 40.4695 57.7086C39.9495 57.1763 39.6895 56.4379 39.6895 55.5278ZM40.9029 55.4762C40.9029 56.1288 41.0589 56.6268 41.371 56.9702C41.683 57.3137 42.0644 57.4854 42.5324 57.4854C43.0005 57.4854 43.3992 57.3137 43.6939 56.9874C43.9886 56.644 44.1446 56.146 44.1446 55.4762C44.1446 54.8065 44.0059 54.3085 43.7112 53.9823C43.4165 53.656 43.0178 53.4843 42.5324 53.4843C42.0471 53.4843 41.6483 53.656 41.3536 53.9823C41.0589 54.3085 40.9029 54.8065 40.9029 55.4762Z" fill="black"/>
<path d="M52.3269 56.249L53.471 56.6096C53.2977 57.245 53.003 57.7086 52.5869 58.0177C52.1709 58.3269 51.6508 58.4814 51.0267 58.4814C50.2466 58.4814 49.6052 58.2238 49.1025 57.6915C48.5998 57.1591 48.3571 56.4379 48.3571 55.5278C48.3571 54.5661 48.6171 53.8105 49.1198 53.2782C49.6226 52.7459 50.2813 52.4711 51.1134 52.4711C51.8242 52.4711 52.4135 52.6772 52.8643 53.1065C53.1243 53.3469 53.3323 53.7075 53.471 54.1712L52.2922 54.4459C52.2229 54.1368 52.0842 53.9136 51.8588 53.7418C51.6335 53.5701 51.3734 53.4843 51.0614 53.4843C50.628 53.4843 50.2813 53.6388 50.0039 53.9479C49.7266 54.257 49.6052 54.755 49.6052 55.4419C49.6052 56.1803 49.7439 56.6955 50.0039 57.0046C50.264 57.3137 50.6107 57.4682 51.0441 57.4682C51.3561 57.4682 51.6335 57.3652 51.8588 57.1763C52.0495 56.9874 52.2229 56.6783 52.3269 56.249Z" fill="black"/>
<path d="M54.5111 58.3955V52.6428H55.6899V57.4167H58.6369V58.3955H54.5111Z" fill="black"/>
<path d="M59.4517 58.3955V52.5913H60.6305V58.3955H59.4517Z" fill="black"/>
<path d="M61.74 58.3955V52.5913H63.5082L64.5656 56.5581L65.6231 52.5913H67.3913V58.3955H66.2991V53.8277L65.1377 58.3955H63.9936L62.8321 53.8277V58.3955H61.74Z" fill="black"/>
<path d="M73.8574 58.3955H72.5745L72.0545 57.0733H69.7142L69.2288 58.3955H67.9807L70.2689 52.5913H71.5171L73.8574 58.3955ZM71.6731 56.0945L70.8583 53.9479L70.0609 56.0945H71.6731Z" fill="black"/>
<path d="M75.1921 58.3955V53.5701H73.4586V52.5913H78.1218V53.5701H76.3883V58.3955H75.1921Z" fill="black"/>
<path d="M78.8672 58.3955V52.5913H83.2184V53.5701H80.046V54.8581H82.9931V55.8369H80.046V57.4167H83.3224V58.3955H78.8672Z" fill="black"/>
<path d="M86.6161 58.3955V52.5913H89.1124C89.7365 52.5913 90.1872 52.6428 90.4819 52.7459C90.7593 52.8489 90.9847 53.0378 91.158 53.2954C91.3314 53.5701 91.418 53.8621 91.418 54.2055C91.418 54.6348 91.2967 54.9954 91.0367 55.2874C90.7766 55.5793 90.3953 55.751 89.8752 55.8197C90.1352 55.9743 90.3432 56.1288 90.5166 56.3005C90.6899 56.4722 90.9153 56.7985 91.1927 57.245L91.9034 58.3784H90.4819L89.6325 57.1076C89.3205 56.6611 89.1124 56.3692 89.0084 56.249C88.9044 56.1288 88.7831 56.0429 88.6444 56.0086C88.523 55.9571 88.315 55.9399 88.055 55.9399H87.8123V58.3955H86.6161ZM87.795 55.0469H88.6617C89.2338 55.0469 89.5805 55.0298 89.7192 54.9783C89.8579 54.9267 89.9792 54.8409 90.0485 54.7378C90.1352 54.6176 90.1699 54.4803 90.1699 54.3085C90.1699 54.1196 90.1179 53.9479 90.0139 53.8277C89.9099 53.7075 89.7538 53.6388 89.5632 53.6045C89.4591 53.5873 89.1818 53.5873 88.6964 53.5873H87.7776V55.0469H87.795Z" fill="black"/>
<path d="M92.4755 58.3955V52.5913H93.6543V58.3955H92.4755Z" fill="black"/>
<path d="M94.4864 56.5066L95.6305 56.4035C95.6998 56.7813 95.8385 57.0733 96.0465 57.245C96.2546 57.4167 96.5493 57.5197 96.896 57.5197C97.2773 57.5197 97.572 57.4339 97.7627 57.2793C97.9534 57.1248 98.0574 56.9359 98.0574 56.7126C98.0574 56.5753 98.0228 56.4551 97.9361 56.3692C97.8494 56.2662 97.7107 56.1975 97.5027 56.1116C97.364 56.0601 97.052 55.9742 96.5493 55.854C95.9079 55.6995 95.4745 55.5106 95.2144 55.2873C94.8504 54.9611 94.677 54.5833 94.677 54.1196C94.677 53.8277 94.7637 53.5529 94.9371 53.2954C95.1104 53.0378 95.3531 52.8489 95.6652 52.7115C95.9772 52.5741 96.3759 52.5054 96.8266 52.5054C97.5547 52.5054 98.1094 52.66 98.4908 52.9863C98.8549 53.3125 99.0629 53.7247 99.0802 54.257L97.9014 54.3085C97.8494 54.0166 97.7454 53.7934 97.572 53.6731C97.3987 53.5358 97.156 53.4843 96.8266 53.4843C96.4799 53.4843 96.2199 53.5529 96.0119 53.6903C95.8905 53.7762 95.8212 53.8964 95.8212 54.0509C95.8212 54.1883 95.8732 54.3085 95.9945 54.4116C96.1506 54.5318 96.5146 54.6691 97.0867 54.8065C97.6587 54.9439 98.0921 55.0813 98.3695 55.2187C98.6468 55.356 98.8549 55.5621 99.0109 55.8025C99.1669 56.0601 99.2362 56.352 99.2362 56.7298C99.2362 57.0561 99.1496 57.3652 98.9589 57.6571C98.7682 57.9491 98.5082 58.1551 98.1614 58.3097C97.8147 58.447 97.3987 58.5157 96.8786 58.5157C96.1332 58.5157 95.5611 58.344 95.1798 58.0006C94.7984 57.64 94.573 57.142 94.4864 56.5066Z" fill="black"/>
<path d="M100.259 58.3955V52.5913H101.438V55.1672L103.83 52.5913H105.425L103.223 54.8581L105.546 58.3955H104.021L102.409 55.6652L101.455 56.6268V58.3955H100.259Z" fill="black"/>
<path d="M108.129 56.5066L109.273 56.4035C109.343 56.7813 109.481 57.0733 109.689 57.245C109.897 57.4167 110.192 57.5197 110.539 57.5197C110.92 57.5197 111.215 57.4339 111.406 57.2793C111.596 57.1248 111.7 56.9359 111.7 56.7126C111.7 56.5753 111.666 56.4551 111.579 56.3692C111.492 56.2662 111.354 56.1975 111.146 56.1116C111.007 56.0601 110.695 55.9742 110.192 55.854C109.551 55.6995 109.117 55.5106 108.857 55.2873C108.493 54.9611 108.32 54.5833 108.32 54.1196C108.32 53.8277 108.407 53.5529 108.58 53.2954C108.753 53.0378 108.996 52.8489 109.308 52.7115C109.62 52.5741 110.019 52.5054 110.47 52.5054C111.198 52.5054 111.752 52.66 112.134 52.9863C112.498 53.3125 112.706 53.7247 112.723 54.257L111.544 54.3085C111.492 54.0166 111.388 53.7934 111.215 53.6731C111.042 53.5358 110.799 53.4843 110.47 53.4843C110.123 53.4843 109.863 53.5529 109.655 53.6903C109.533 53.7762 109.464 53.8964 109.464 54.0509C109.464 54.1883 109.516 54.3085 109.637 54.4116C109.793 54.5318 110.158 54.6691 110.73 54.8065C111.302 54.9439 111.735 55.0813 112.012 55.2187C112.29 55.356 112.498 55.5621 112.654 55.8025C112.81 56.0601 112.879 56.352 112.879 56.7298C112.879 57.0561 112.792 57.3652 112.602 57.6571C112.411 57.9491 112.151 58.1551 111.804 58.3097C111.458 58.447 111.042 58.5157 110.522 58.5157C109.776 58.5157 109.204 58.344 108.823 58.0006C108.441 57.64 108.216 57.142 108.129 56.5066Z" fill="black"/>
<path d="M113.642 55.5278C113.642 54.9439 113.729 54.4459 113.902 54.0338C114.041 53.7418 114.214 53.4671 114.439 53.2438C114.665 53.0034 114.925 52.8317 115.202 52.7287C115.566 52.5741 115.982 52.5054 116.468 52.5054C117.334 52.5054 118.028 52.763 118.548 53.2954C119.068 53.8277 119.328 54.5661 119.328 55.5106C119.328 56.4551 119.068 57.1763 118.565 57.7086C118.045 58.241 117.369 58.4986 116.502 58.4986C115.635 58.4986 114.942 58.241 114.422 57.7086C113.902 57.1763 113.642 56.4379 113.642 55.5278ZM114.873 55.4762C114.873 56.1288 115.029 56.6268 115.341 56.9702C115.653 57.3137 116.034 57.4854 116.502 57.4854C116.97 57.4854 117.369 57.3137 117.664 56.9874C117.958 56.644 118.114 56.146 118.114 55.4762C118.114 54.8065 117.976 54.3085 117.681 53.9823C117.386 53.656 116.988 53.4843 116.502 53.4843C116.017 53.4843 115.618 53.656 115.323 53.9823C115.011 54.3085 114.873 54.8065 114.873 55.4762Z" fill="black"/>
<path d="M120.281 58.3955V52.6428H121.46V57.4167H124.407V58.3955H120.281Z" fill="black"/>
<path d="M125.239 52.5913H126.418V55.7338C126.418 56.2318 126.435 56.5581 126.47 56.6955C126.522 56.9359 126.643 57.1248 126.834 57.2622C127.025 57.3996 127.285 57.4854 127.614 57.4854C127.944 57.4854 128.204 57.4167 128.377 57.2793C128.55 57.142 128.654 56.9702 128.689 56.7814C128.724 56.5753 128.741 56.249 128.741 55.8025V52.5913H129.92V55.6308C129.92 56.3349 129.885 56.8157 129.816 57.1076C129.746 57.3996 129.642 57.64 129.469 57.8289C129.296 58.0349 129.07 58.1895 128.776 58.3097C128.481 58.4299 128.117 58.4814 127.649 58.4814C127.094 58.4814 126.661 58.4127 126.383 58.2925C126.089 58.1723 125.863 58.0006 125.69 57.7945C125.517 57.5884 125.413 57.3824 125.361 57.1591C125.291 56.8329 125.239 56.3349 125.239 55.6823V52.5913Z" fill="black"/>
<path d="M132.485 58.3955V53.5701H130.752V52.5913H135.415V53.5701H133.682V58.3955H132.485Z" fill="black"/>
<path d="M136.126 58.3955V52.5913H137.305V58.3955H136.126Z" fill="black"/>
<path d="M138.189 55.5278C138.189 54.9439 138.275 54.4459 138.449 54.0338C138.587 53.7418 138.761 53.4671 138.986 53.2438C139.212 53.0034 139.472 52.8317 139.749 52.7287C140.113 52.5741 140.529 52.5054 141.014 52.5054C141.881 52.5054 142.575 52.763 143.095 53.2954C143.615 53.8277 143.875 54.5661 143.875 55.5106C143.875 56.4551 143.615 57.1763 143.112 57.7086C142.592 58.241 141.916 58.4986 141.049 58.4986C140.182 58.4986 139.489 58.241 138.969 57.7086C138.449 57.1763 138.189 56.4379 138.189 55.5278ZM139.42 55.4762C139.42 56.1288 139.576 56.6268 139.888 56.9702C140.2 57.3137 140.581 57.4854 141.049 57.4854C141.517 57.4854 141.916 57.3137 142.211 56.9874C142.505 56.644 142.661 56.146 142.661 55.4762C142.661 54.8065 142.523 54.3085 142.228 53.9823C141.933 53.656 141.534 53.4843 141.049 53.4843C140.564 53.4843 140.165 53.656 139.87 53.9823C139.558 54.3085 139.42 54.8065 139.42 55.4762Z" fill="black"/>
<path d="M144.811 58.3955V52.5913H145.955L148.347 56.4722V52.5913H149.439V58.3955H148.261L145.903 54.6176V58.3955H144.811Z" fill="black"/>
<path d="M150.41 56.5066L151.554 56.4035C151.624 56.7813 151.762 57.0733 151.97 57.245C152.178 57.4167 152.473 57.5197 152.82 57.5197C153.201 57.5197 153.496 57.4339 153.686 57.2793C153.877 57.1248 153.981 56.9359 153.981 56.7126C153.981 56.5753 153.946 56.4551 153.86 56.3692C153.773 56.2662 153.634 56.1975 153.426 56.1116C153.288 56.0601 152.976 55.9742 152.473 55.854C151.832 55.6995 151.398 55.5106 151.138 55.2873C150.774 54.9611 150.601 54.5833 150.601 54.1196C150.601 53.8277 150.687 53.5529 150.861 53.2954C151.034 53.0378 151.277 52.8489 151.589 52.7115C151.901 52.5741 152.3 52.5054 152.75 52.5054C153.478 52.5054 154.033 52.66 154.415 52.9863C154.779 53.3125 154.987 53.7247 155.004 54.257L153.825 54.3085C153.773 54.0166 153.669 53.7934 153.496 53.6731C153.322 53.5358 153.08 53.4843 152.75 53.4843C152.404 53.4843 152.144 53.5529 151.936 53.6903C151.814 53.7762 151.745 53.8964 151.745 54.0509C151.745 54.1883 151.797 54.3085 151.918 54.4116C152.074 54.5318 152.438 54.6691 153.01 54.8065C153.582 54.9439 154.016 55.0813 154.293 55.2187C154.571 55.356 154.779 55.5621 154.935 55.8025C155.091 56.0601 155.16 56.352 155.16 56.7298C155.16 57.0561 155.073 57.3652 154.883 57.6571C154.692 57.9491 154.432 58.1551 154.085 58.3097C153.738 58.447 153.322 58.5157 152.802 58.5157C152.057 58.5157 151.485 58.344 151.104 58.0006C150.722 57.64 150.497 57.142 150.41 56.5066Z" fill="black"/>
<path d="M158.436 58.3955V52.5913H160.326C161.037 52.5913 161.522 52.6257 161.73 52.6772C162.059 52.763 162.354 52.9519 162.579 53.2439C162.805 53.5358 162.926 53.9136 162.926 54.3772C162.926 54.7378 162.857 55.0298 162.735 55.2702C162.597 55.5106 162.441 55.6995 162.233 55.8369C162.025 55.9743 161.834 56.0601 161.626 56.1116C161.349 56.1631 160.933 56.1975 160.395 56.1975H159.632V58.3955H158.436ZM159.632 53.5701V55.2187H160.274C160.742 55.2187 161.054 55.1843 161.21 55.1328C161.366 55.0641 161.487 54.9783 161.574 54.8409C161.661 54.7035 161.713 54.5661 161.713 54.3944C161.713 54.1883 161.643 54.0166 161.522 53.8792C161.401 53.7419 161.245 53.656 161.054 53.6216C160.915 53.5873 160.621 53.5873 160.205 53.5873H159.632V53.5701Z" fill="black"/>
<path d="M165.388 58.3955L163.29 52.5913H164.573L166.064 56.8844L167.503 52.5913H168.751L166.653 58.3955H165.388Z" fill="black"/>
<path d="M170.675 58.3955V53.5701H168.942V52.5913H173.605V53.5701H171.871V58.3955H170.675Z" fill="black"/>
<path d="M176.673 58.3955V52.6428H177.852V57.4167H180.799V58.3955H176.673Z" fill="black"/>
<path d="M182.342 58.3955V53.5701H180.608V52.5913H185.271V53.5701H183.538V58.3955H182.342Z" fill="black"/>
<path d="M186.017 52.5913H188.184C188.669 52.5913 189.051 52.6257 189.293 52.6943C189.64 52.7974 189.935 52.9691 190.177 53.2267C190.42 53.4843 190.611 53.7934 190.732 54.1712C190.853 54.5489 190.923 54.9954 190.923 55.5449C190.923 56.0258 190.871 56.4379 190.749 56.7814C190.611 57.2107 190.385 57.5369 190.125 57.8117C189.917 58.0178 189.64 58.1723 189.293 58.2753C189.033 58.3612 188.686 58.3955 188.253 58.3955H186.034V52.5913H186.017ZM187.196 53.5701V57.4167H188.08C188.409 57.4167 188.652 57.3996 188.79 57.3652C188.981 57.3137 189.137 57.245 189.276 57.1248C189.397 57.0046 189.501 56.8329 189.588 56.5581C189.675 56.3005 189.709 55.9399 189.709 55.4934C189.709 55.0469 189.675 54.7035 189.588 54.4631C189.501 54.2227 189.397 54.0338 189.259 53.8964C189.12 53.759 188.929 53.6732 188.704 53.6216C188.53 53.5873 188.218 53.5701 187.733 53.5701H187.196Z" fill="black"/>
<path d="M119.137 69.1969V68.3383H120.004V69.1969H119.137Z" fill="black"/>
<path d="M121.564 69.1969V68.3383H122.431V69.1969H121.564Z" fill="black"/>
<path d="M123.974 69.1969V68.3383H124.841V69.1969H123.974Z" fill="black"/>
<path d="M126.401 69.1969V68.3383H127.267V69.1969H126.401Z" fill="black"/>
<path d="M128.776 69.1969V65.316H128.1V64.7321H128.776V64.2341C128.776 63.9422 128.81 63.719 128.862 63.5644C128.932 63.3755 129.07 63.2038 129.244 63.0836C129.434 62.9634 129.694 62.8947 130.024 62.8947C130.232 62.8947 130.475 62.9119 130.735 62.9634L130.613 63.6331C130.457 63.5987 130.301 63.5987 130.162 63.5987C129.937 63.5987 129.764 63.6503 129.677 63.7533C129.573 63.8563 129.538 64.0281 129.538 64.3028V64.7149H130.423V65.2988H129.538V69.1797H128.776V69.1969Z" fill="black"/>
<path d="M130.735 66.9473C130.735 66.1231 130.96 65.5049 131.428 65.1099C131.809 64.7836 132.295 64.6119 132.849 64.6119C133.473 64.6119 133.976 64.818 134.375 65.2129C134.774 65.6079 134.964 66.1746 134.964 66.8786C134.964 67.4625 134.878 67.909 134.704 68.2353C134.531 68.5615 134.271 68.8191 133.942 69.008C133.612 69.1969 133.248 69.2828 132.849 69.2828C132.225 69.2828 131.705 69.0767 131.324 68.6817C130.925 68.2868 130.735 67.7029 130.735 66.9473ZM131.515 66.9473C131.515 67.514 131.636 67.9433 131.896 68.2353C132.156 68.5272 132.468 68.6646 132.849 68.6646C133.231 68.6646 133.543 68.5272 133.803 68.2353C134.063 67.9433 134.184 67.514 134.184 66.9302C134.184 66.3807 134.063 65.9513 133.803 65.6766C133.543 65.3847 133.231 65.2473 132.849 65.2473C132.468 65.2473 132.156 65.3847 131.896 65.6766C131.653 65.9513 131.515 66.3807 131.515 66.9473Z" fill="black"/>
<path d="M135.848 69.1969V64.7321H136.542V65.4018C136.715 65.0927 136.871 64.8695 137.027 64.7665C137.183 64.6634 137.339 64.6119 137.513 64.6119C137.773 64.6119 138.033 64.6978 138.293 64.8523L138.033 65.5564C137.842 65.4534 137.651 65.3847 137.478 65.3847C137.305 65.3847 137.166 65.4362 137.027 65.5392C136.889 65.6422 136.802 65.7796 136.75 65.9513C136.663 66.2261 136.629 66.518 136.629 66.8271V69.1626H135.848V69.1969Z" fill="black"/>
<path d="M140.876 67.8575L141.638 67.7373C141.673 68.0292 141.794 68.2696 141.985 68.4242C142.176 68.5787 142.453 68.6646 142.8 68.6646C143.147 68.6646 143.407 68.5959 143.58 68.4585C143.753 68.3211 143.84 68.1494 143.84 67.9605C143.84 67.7888 143.771 67.6514 143.615 67.5484C143.511 67.4797 143.251 67.3938 142.835 67.2908C142.28 67.1534 141.881 67.0332 141.673 66.9302C141.465 66.8271 141.292 66.6898 141.188 66.5009C141.084 66.312 141.014 66.1231 141.014 65.8998C141.014 65.6938 141.066 65.522 141.153 65.3503C141.24 65.1786 141.378 65.0412 141.534 64.921C141.656 64.8351 141.812 64.7665 142.02 64.6978C142.228 64.6291 142.453 64.6119 142.679 64.6119C143.025 64.6119 143.337 64.6634 143.615 64.7665C143.875 64.8695 144.083 65.0069 144.204 65.1786C144.325 65.3503 144.412 65.5907 144.464 65.8655L143.719 65.9685C143.684 65.7453 143.58 65.5564 143.424 65.4362C143.268 65.2988 143.025 65.2473 142.731 65.2473C142.384 65.2473 142.124 65.2988 141.985 65.419C141.829 65.5392 141.76 65.6766 141.76 65.8311C141.76 65.9342 141.794 66.02 141.846 66.0887C141.916 66.1746 142.002 66.2433 142.141 66.2948C142.211 66.3291 142.436 66.3807 142.817 66.4837C143.355 66.6211 143.736 66.7413 143.944 66.8271C144.152 66.913 144.325 67.0504 144.447 67.2221C144.568 67.3938 144.637 67.6171 144.637 67.8746C144.637 68.1322 144.568 68.3726 144.412 68.5959C144.256 68.8191 144.048 68.9908 143.771 69.111C143.493 69.2313 143.181 69.2999 142.817 69.2999C142.228 69.2999 141.777 69.1797 141.482 68.9393C141.153 68.6817 140.962 68.3383 140.876 67.8575Z" fill="black"/>
<path d="M148.486 69.1969V68.5272C148.139 69.0252 147.654 69.2828 147.047 69.2828C146.787 69.2828 146.527 69.2313 146.302 69.1282C146.076 69.0252 145.903 68.905 145.782 68.7504C145.678 68.5959 145.591 68.407 145.539 68.1838C145.504 68.0292 145.487 67.806 145.487 67.4797V64.715H146.25V67.1878C146.25 67.5827 146.267 67.8575 146.302 67.9949C146.354 68.2009 146.458 68.3555 146.614 68.4585C146.77 68.5787 146.96 68.6302 147.186 68.6302C147.411 68.6302 147.636 68.5787 147.827 68.4585C148.035 68.3383 148.174 68.1838 148.261 67.9777C148.347 67.7716 148.382 67.4797 148.382 67.1019V64.6978H149.145V69.1626H148.486V69.1969Z" fill="black"/>
<path d="M150.063 67.8575L150.826 67.7373C150.861 68.0292 150.982 68.2696 151.173 68.4242C151.364 68.5787 151.641 68.6646 151.988 68.6646C152.334 68.6646 152.594 68.5959 152.768 68.4585C152.941 68.3211 153.028 68.1494 153.028 67.9605C153.028 67.7888 152.958 67.6514 152.802 67.5484C152.698 67.4797 152.438 67.3938 152.022 67.2908C151.468 67.1534 151.069 67.0332 150.861 66.9302C150.653 66.8271 150.479 66.6898 150.375 66.5009C150.271 66.312 150.202 66.1231 150.202 65.8998C150.202 65.6938 150.254 65.522 150.341 65.3503C150.427 65.1786 150.566 65.0412 150.722 64.921C150.844 64.8351 151 64.7665 151.208 64.6978C151.416 64.6291 151.641 64.6119 151.866 64.6119C152.213 64.6119 152.525 64.6634 152.802 64.7665C153.062 64.8695 153.27 65.0069 153.392 65.1786C153.513 65.3503 153.6 65.5907 153.652 65.8655L152.906 65.9685C152.872 65.7453 152.768 65.5564 152.612 65.4362C152.456 65.2988 152.213 65.2473 151.918 65.2473C151.572 65.2473 151.312 65.2988 151.173 65.419C151.017 65.5392 150.948 65.6766 150.948 65.8311C150.948 65.9342 150.982 66.02 151.034 66.0887C151.104 66.1746 151.19 66.2433 151.329 66.2948C151.398 66.3291 151.624 66.3807 152.005 66.4837C152.542 66.6211 152.924 66.7413 153.132 66.8271C153.34 66.913 153.513 67.0504 153.634 67.2221C153.756 67.3938 153.825 67.6171 153.825 67.8746C153.825 68.1322 153.756 68.3726 153.6 68.5959C153.444 68.8191 153.236 68.9908 152.958 69.111C152.681 69.2313 152.369 69.2999 152.005 69.2999C151.416 69.2999 150.965 69.1797 150.67 68.9393C150.341 68.6817 150.15 68.3383 150.063 67.8575Z" fill="black"/>
<path d="M156.391 68.51L156.495 69.1797C156.287 69.2313 156.079 69.2484 155.923 69.2484C155.645 69.2484 155.437 69.1969 155.281 69.111C155.125 69.0252 155.021 68.905 154.952 68.7676C154.883 68.6302 154.865 68.3211 154.865 67.8746V65.2988H154.311V64.7149H154.865V63.6159L155.628 63.1694V64.7321H156.391V65.316H155.628V67.9262C155.628 68.1494 155.645 68.2868 155.663 68.3383C155.697 68.407 155.732 68.4413 155.801 68.4928C155.871 68.5272 155.957 68.5444 156.061 68.5444C156.148 68.5444 156.252 68.5272 156.391 68.51Z" fill="black"/>
<path d="M160.083 68.6302C159.806 68.8706 159.528 69.0424 159.268 69.1282C159.008 69.2313 158.731 69.2828 158.419 69.2828C157.916 69.2828 157.535 69.1626 157.275 68.9221C157.015 68.6817 156.876 68.3726 156.876 67.9948C156.876 67.7716 156.928 67.5827 157.032 67.3938C157.136 67.2049 157.258 67.0675 157.431 66.9645C157.587 66.8615 157.778 66.7756 157.986 66.7241C158.142 66.6898 158.367 66.6554 158.662 66.6039C159.286 66.5352 159.737 66.4493 160.031 66.3463C160.031 66.2433 160.031 66.1746 160.031 66.1402C160.031 65.8311 159.962 65.6079 159.806 65.4877C159.615 65.316 159.32 65.2301 158.939 65.2301C158.575 65.2301 158.315 65.2988 158.142 65.419C157.968 65.5392 157.847 65.7624 157.76 66.0887L157.015 65.9857C157.084 65.6766 157.188 65.419 157.344 65.2129C157.5 65.024 157.726 64.8695 158.02 64.7665C158.315 64.6634 158.662 64.6119 159.043 64.6119C159.424 64.6119 159.737 64.6634 159.979 64.7493C160.222 64.8351 160.395 64.9554 160.517 65.0927C160.638 65.2301 160.707 65.4018 160.759 65.6079C160.777 65.7453 160.794 65.9685 160.794 66.312V67.3251C160.794 68.0292 160.811 68.4757 160.846 68.6646C160.881 68.8535 160.95 69.0252 161.037 69.1969H160.239C160.17 69.0252 160.118 68.8535 160.083 68.6302ZM160.031 66.9473C159.754 67.0675 159.338 67.1534 158.783 67.2393C158.471 67.2908 158.246 67.3423 158.107 67.3938C157.968 67.4453 157.882 67.5312 157.812 67.6342C157.743 67.7373 157.708 67.8575 157.708 67.9948C157.708 68.2009 157.778 68.3726 157.934 68.4928C158.09 68.6302 158.315 68.6989 158.61 68.6989C158.904 68.6989 159.164 68.6302 159.39 68.51C159.615 68.3898 159.789 68.2009 159.893 67.9777C159.979 67.806 160.014 67.5484 160.014 67.2221V66.9473H160.031Z" fill="black"/>
<path d="M161.99 63.8907V63.0149H162.753V63.8907H161.99ZM161.99 69.1969V64.7321H162.753V69.1969H161.99Z" fill="black"/>
<path d="M163.914 69.1969V64.7321H164.608V65.3675C164.937 64.8695 165.422 64.6291 166.047 64.6291C166.324 64.6291 166.567 64.6806 166.792 64.7665C167.017 64.8695 167.191 64.9897 167.312 65.1443C167.433 65.2988 167.503 65.4877 167.555 65.7109C167.589 65.8483 167.589 66.0887 167.589 66.4494V69.1969H166.827V66.4665C166.827 66.1574 166.792 65.9342 166.74 65.7796C166.688 65.6251 166.567 65.5049 166.428 65.419C166.272 65.3332 166.099 65.2816 165.891 65.2816C165.561 65.2816 165.284 65.3847 165.041 65.5907C164.798 65.7968 164.694 66.1918 164.694 66.7585V69.1969H163.914Z" fill="black"/>
<path d="M171.715 68.6302C171.438 68.8706 171.16 69.0424 170.9 69.1282C170.64 69.2313 170.363 69.2828 170.051 69.2828C169.548 69.2828 169.167 69.1626 168.907 68.9221C168.647 68.6817 168.508 68.3726 168.508 67.9948C168.508 67.7716 168.56 67.5827 168.664 67.3938C168.768 67.2049 168.89 67.0675 169.063 66.9645C169.219 66.8615 169.41 66.7756 169.618 66.7241C169.774 66.6898 169.999 66.6554 170.294 66.6039C170.918 66.5352 171.369 66.4493 171.663 66.3463C171.663 66.2433 171.663 66.1746 171.663 66.1402C171.663 65.8311 171.594 65.6079 171.438 65.4877C171.247 65.316 170.952 65.2301 170.571 65.2301C170.207 65.2301 169.947 65.2988 169.774 65.419C169.6 65.5392 169.479 65.7624 169.392 66.0887L168.647 65.9857C168.716 65.6766 168.82 65.419 168.976 65.2129C169.132 65.024 169.358 64.8695 169.652 64.7665C169.947 64.6634 170.294 64.6119 170.675 64.6119C171.056 64.6119 171.369 64.6634 171.611 64.7493C171.854 64.8351 172.027 64.9554 172.149 65.0927C172.27 65.2301 172.339 65.4018 172.391 65.6079C172.409 65.7453 172.426 65.9685 172.426 66.312V67.3251C172.426 68.0292 172.443 68.4757 172.478 68.6646C172.513 68.8535 172.582 69.0252 172.669 69.1969H171.871C171.785 69.0252 171.733 68.8535 171.715 68.6302ZM171.646 66.9473C171.369 67.0675 170.952 67.1534 170.398 67.2393C170.086 67.2908 169.86 67.3423 169.722 67.3938C169.583 67.4453 169.496 67.5312 169.427 67.6342C169.358 67.7373 169.323 67.8575 169.323 67.9948C169.323 68.2009 169.392 68.3726 169.548 68.4928C169.704 68.6302 169.93 68.6989 170.224 68.6989C170.519 68.6989 170.779 68.6302 171.004 68.51C171.23 68.3898 171.403 68.2009 171.507 67.9777C171.594 67.806 171.629 67.5484 171.629 67.2221V66.9473H171.646Z" fill="black"/>
<path d="M174.316 69.1969H173.605V63.0321H174.368V65.2301C174.697 64.8352 175.096 64.6291 175.598 64.6291C175.876 64.6291 176.136 64.6806 176.378 64.8008C176.621 64.9039 176.829 65.0756 176.985 65.2645C177.141 65.4705 177.263 65.711 177.367 65.9857C177.453 66.2776 177.505 66.5696 177.505 66.8958C177.505 67.6686 177.315 68.2524 176.933 68.6646C176.552 69.0767 176.084 69.3 175.564 69.3C175.026 69.3 174.61 69.0767 174.316 68.6302V69.1969ZM174.298 66.913C174.298 67.4454 174.368 67.8403 174.524 68.0807C174.766 68.4757 175.096 68.6646 175.494 68.6646C175.824 68.6646 176.118 68.5272 176.361 68.2353C176.604 67.9433 176.725 67.514 176.725 66.9474C176.725 66.3635 176.604 65.9342 176.378 65.6594C176.153 65.3847 175.858 65.2473 175.529 65.2473C175.2 65.2473 174.905 65.3847 174.662 65.6766C174.42 65.9514 174.298 66.3807 174.298 66.913Z" fill="black"/>
<path d="M178.459 63.8907V63.0149H179.221V63.8907H178.459ZM178.459 69.1969V64.7321H179.221V69.1969H178.459Z" fill="black"/>
<path d="M180.366 69.1969V63.0321H181.128V69.1969H180.366Z" fill="black"/>
<path d="M182.324 63.8907V63.0149H183.087V63.8907H182.324ZM182.324 69.1969V64.7321H183.087V69.1969H182.324Z" fill="black"/>
<path d="M185.913 68.51L186.017 69.1797C185.809 69.2313 185.601 69.2484 185.445 69.2484C185.167 69.2484 184.959 69.1969 184.803 69.111C184.647 69.0252 184.543 68.905 184.474 68.7676C184.405 68.6302 184.387 68.3211 184.387 67.8746V65.2988H183.833V64.7149H184.387V63.6159L185.15 63.1694V64.7321H185.913V65.316H185.15V67.9262C185.15 68.1494 185.167 68.2868 185.185 68.3383C185.219 68.407 185.254 68.4413 185.323 68.4928C185.393 68.5272 185.479 68.5444 185.583 68.5444C185.67 68.5444 185.774 68.5272 185.913 68.51Z" fill="black"/>
<path d="M186.641 70.9141L186.554 70.2101C186.728 70.2616 186.866 70.2788 186.988 70.2788C187.161 70.2788 187.3 70.2444 187.404 70.1929C187.508 70.1414 187.594 70.0555 187.646 69.9525C187.698 69.8838 187.768 69.6949 187.872 69.3858C187.889 69.3515 187.906 69.2828 187.941 69.1969L186.225 64.7149H187.057L187.993 67.308C188.114 67.6342 188.218 67.9777 188.322 68.3383C188.409 67.9948 188.513 67.6514 188.634 67.3251L189.605 64.7149H190.368L188.652 69.2656C188.461 69.7636 188.322 70.0899 188.218 70.2788C188.08 70.5363 187.924 70.7081 187.75 70.8283C187.577 70.9485 187.369 71 187.126 71C186.988 71 186.814 70.9657 186.641 70.9141Z" fill="black"/>
<path d="M196.574 13.198C196.834 13.1465 197.215 13.1122 197.579 13.1122C198.134 13.1122 198.498 13.2152 198.741 13.4385C198.949 13.6102 199.053 13.8849 199.053 14.194C199.053 14.7264 198.724 15.0698 198.29 15.2072V15.2244C198.602 15.3274 198.793 15.6193 198.88 16.0315C199.018 16.581 199.105 16.9759 199.192 17.1305H198.654C198.585 17.0103 198.498 16.6668 198.377 16.1689C198.256 15.6193 198.048 15.4133 197.562 15.3961H197.077V17.1305H196.557V13.198H196.574ZM197.094 15.0183H197.631C198.186 15.0183 198.55 14.7092 198.55 14.2627C198.55 13.7476 198.169 13.5243 197.614 13.5071C197.354 13.5071 197.181 13.5243 197.094 13.5587V15.0183Z" fill="black"/>
<path d="M197.736 19.4316C195.395 19.4316 193.488 17.5426 193.488 15.2244C193.488 12.9061 195.395 11 197.736 11C200.076 11 201.983 12.889 201.983 15.2072C201.983 17.5255 200.076 19.4316 197.736 19.4316ZM197.736 11.5667C195.707 11.5667 194.043 13.1981 194.043 15.2244C194.043 17.2507 195.69 18.8821 197.736 18.8821C199.781 18.8821 201.428 17.2507 201.428 15.2244C201.428 13.1981 199.764 11.5667 197.736 11.5667Z" fill="black"/>
</g>
<defs>
<clipPath id="clip0_61_171">
<rect width="175" height="60" fill="white" transform="translate(27 11)"/>
</clipPath>
</defs>
</svg>
