<svg width="15" height="15" viewBox="0 0 15 15" fill="none" xmlns="http://www.w3.org/2000/svg">
<path d="M1.8 3.603C2.8 3.603 3.6 2.78983 3.6 1.8015C3.6 0.813178 2.7875 0 1.8 0C0.8125 0 0 0.813178 0 1.8015C0 2.78983 0.8125 3.603 1.8 3.603ZM5.3125 4.96664V15H8.4125V10.0459C8.4125 8.73228 8.6625 7.46872 10.275 7.46872C11.8875 7.46872 11.8875 8.96998 11.8875 10.1209V15H15V9.49541C15 6.79316 14.425 4.71643 11.275 4.71643C9.7625 4.71643 8.75 5.54212 8.3375 6.33028H8.3V4.95413H5.325L5.3125 4.96664ZM0.25 4.96664H3.3625V15H0.25V4.96664Z" fill="white"/>
</svg>
