<svg width="17" height="17" viewBox="0 0 17 17" fill="none" xmlns="http://www.w3.org/2000/svg">
<path d="M6.64863 3.38423C6.7332 3.48912 6.7957 3.61003 6.83238 3.73968C6.86905 3.86934 6.87915 4.00507 6.86205 4.13872C6.84496 4.27237 6.80104 4.4012 6.73291 4.51745C6.66479 4.6337 6.57388 4.73499 6.46563 4.81523L5.20963 5.74723C6.39076 8.13983 8.32724 10.0767 10.7196 11.2582L11.6516 10.0012C11.7319 9.89298 11.8332 9.80207 11.9494 9.73394C12.0657 9.66582 12.1945 9.6219 12.3281 9.6048C12.4618 9.58771 12.5975 9.59781 12.7272 9.63448C12.8568 9.67116 12.9777 9.73366 13.0826 9.81823M6.64863 3.38423L4.21863 0.372227C4.06173 0.17768 3.83766 0.0489404 3.59057 0.0113674C3.34348 -0.0262056 3.09127 0.0301121 2.88363 0.169227M6.64863 3.38423L6.25949 3.69818C6.30172 3.7506 6.33293 3.811 6.35125 3.87578C6.36959 3.9406 6.37464 4.00847 6.36609 4.0753C6.35755 4.14212 6.33558 4.20653 6.30152 4.26466C6.26746 4.32279 6.22201 4.37343 6.16788 4.41355L6.16768 4.4137L4.91168 5.3457L4.57657 5.59437L4.76129 5.96856C5.99106 8.4597 8.0073 10.4763 10.4982 11.7065L10.8726 11.8914L11.1213 11.556L12.0533 10.299L12.0533 10.299C12.0934 10.2449 12.1441 10.1994 12.2022 10.1653C12.2603 10.1313 12.3247 10.1093 12.3916 10.1008C12.4584 10.0922 12.5263 10.0973 12.5911 10.1156C12.6559 10.1339 12.7164 10.1652 12.7688 10.2075M6.64863 3.38423L6.25938 3.69805L3.82949 0.686179L3.82944 0.686115C3.75098 0.588841 3.63895 0.524472 3.5154 0.505685C3.39186 0.486899 3.26576 0.515057 3.16194 0.584615M2.88363 0.169227L1.55063 1.06323C0.862033 1.52501 0.359722 2.21624 0.133184 3.01379C-0.0933534 3.81134 -0.0294068 4.66342 0.313633 5.41823M2.88363 0.169227L3.16213 0.584483L3.16194 0.584615M2.88363 0.169227L3.16194 0.584615M0.313633 5.41823L0.832633 6.55923M0.313633 5.41823L0.768761 5.21121C0.474786 4.56426 0.419998 3.83397 0.614158 3.15041C0.808334 2.46679 1.23889 1.87431 1.82911 1.4785L1.82913 1.47848L3.16194 0.584615M0.313633 5.41823L0.768828 5.21135L1.28701 6.35057L0.832633 6.55923M0.832633 6.55923C2.75249 10.74 6.16381 14.0536 10.3986 15.8512L11.0786 16.1542M0.832633 6.55923L1.28776 6.3522L1.28739 6.3514C3.15533 10.4186 6.47412 13.6422 10.594 15.391L10.6022 15.3944L10.6021 15.3945L11.282 15.6975M11.0786 16.1542C11.8317 16.4895 12.6789 16.5483 13.471 16.3202C14.2631 16.0921 14.9493 15.5917 15.4086 14.9072L16.2976 13.5832C16.4367 13.3756 16.4931 13.1234 16.4555 12.8763C16.4179 12.6292 16.2892 12.4051 16.0946 12.2482L13.0826 9.81823M11.0786 16.1542L11.282 15.6975M11.0786 16.1542L11.2821 15.6975L11.282 15.6975M13.0826 9.81823L12.7687 10.2074L12.7688 10.2075M13.0826 9.81823L12.7688 10.2075M12.7688 10.2075L15.7807 12.6374L15.7807 12.6374C15.878 12.7159 15.9424 12.8279 15.9612 12.9515C15.9799 13.0749 15.9518 13.2009 15.8824 13.3047L15.8825 13.3045L16.2974 13.5831L15.8822 13.3049L14.9935 14.6285L14.9935 14.6286C14.5997 15.2153 14.0116 15.6442 13.3326 15.8397C12.6537 16.0353 11.9275 15.9849 11.282 15.6975" stroke="white"/>
</svg>
