<svg width="222" height="77" viewBox="0 0 222 77" fill="none" xmlns="http://www.w3.org/2000/svg">
<g clip-path="url(#clip0_445_817)">
<path d="M164.01 47.6016C162.492 47.6016 161.239 46.3675 161.239 44.8248V9.07956C161.239 7.55895 162.47 6.3028 164.01 6.3028H205.793C207.31 6.3028 208.564 7.53691 208.564 9.07956V44.8248C208.564 46.3454 207.332 47.6016 205.793 47.6016H164.01Z" fill="white"/>
<path d="M205.793 6.85375C207.024 6.85375 208.014 7.84545 208.014 9.07957V44.8248C208.014 46.059 207.024 47.0507 205.793 47.0507H164.01C162.778 47.0507 161.789 46.059 161.789 44.8248V9.07957C161.789 7.84545 162.778 6.85375 164.01 6.85375H205.793ZM205.793 5.75186H164.01C162.184 5.75186 160.689 7.25043 160.689 9.07957V44.8248C160.689 46.654 162.184 48.1525 164.01 48.1525H205.793C207.618 48.1525 209.113 46.654 209.113 44.8248V9.07957C209.113 7.25043 207.64 5.75186 205.793 5.75186Z" fill="black"/>
<path d="M191.278 14.8094C192.818 15.4044 194.247 16.2859 195.589 17.4539L191.564 20.98C190.223 19.5696 188.354 18.8643 185.935 18.8643C183.516 18.8643 181.976 19.3712 181.316 20.3629C180.657 21.3546 180.657 22.2141 181.316 22.9193C181.976 23.6245 183.516 24.1534 185.935 24.506C188.486 24.7484 190.795 25.4757 192.862 26.7098C194.929 27.9439 195.985 29.9053 195.985 32.5939C195.985 34.7095 194.885 36.5166 192.664 38.0372C190.443 39.5578 187.87 40.3291 184.923 40.3291C182.13 40.3291 179.799 39.9765 177.908 39.2713C176.039 38.5661 174.433 37.6405 173.092 36.4505L177.116 32.9245C178.458 34.3349 180.723 35.1503 183.933 35.3927C186.616 35.3927 188.288 34.8858 188.947 33.8941C189.607 32.9024 189.607 31.9107 188.947 30.897C188.288 29.9053 186.616 29.2882 183.933 29.0458C181.514 28.8034 179.315 28.1643 177.314 27.1065C175.313 26.0487 174.301 24.2416 174.301 21.6631C174.301 19.3271 175.445 17.4539 177.732 16.0435C180.019 14.6331 182.35 13.9279 184.769 13.9279C187.562 13.9279 189.739 14.2144 191.278 14.8094Z" fill="black"/>
<path d="M45.2357 48.1525H3.18871C1.42942 48.1525 0 46.7201 0 44.9571V8.94734C0 7.18432 1.42942 5.75186 3.18871 5.75186H45.2357C46.9949 5.75186 48.4244 7.18432 48.4244 8.94734V44.9571C48.4244 46.7201 46.9949 48.1525 45.2357 48.1525Z" fill="#0038B8"/>
<path d="M98.5201 48.1525H57.0229C55.1097 48.1525 53.5483 46.5879 53.5483 44.6706V9.23383C53.5483 7.31654 55.1097 5.75186 57.0229 5.75186H98.5201C100.433 5.75186 101.995 7.31654 101.995 9.23383V44.6926C101.995 46.6099 100.433 48.1525 98.5201 48.1525Z" fill="#ED1C24"/>
<path d="M151.695 48.1525H111.011C108.878 48.1525 107.141 46.4116 107.141 44.2739V9.63051C107.141 7.49285 108.878 5.75186 111.011 5.75186H151.695C153.828 5.75186 155.565 7.49285 155.565 9.63051V44.2739C155.565 46.4336 153.828 48.1525 151.695 48.1525Z" fill="#009245"/>
<path d="M14.0525 36.5166C11.1716 34.0043 9.72021 30.8529 9.72021 27.0624C9.74221 23.3601 11.1716 20.2527 14.0525 17.7184C16.9333 15.184 20.4958 13.9279 24.7621 13.9279C29.0504 13.9279 32.7449 15.0959 35.8236 17.4539L31.7993 21.3105C29.7541 19.9001 27.401 19.1949 24.7621 19.1949C22.0572 19.217 19.8801 19.9442 18.2308 21.4207C16.5814 22.8752 15.7458 24.7705 15.7458 27.0404C15.7678 29.4866 16.6034 31.4259 18.2528 32.8804C19.9021 34.3128 22.1012 35.0401 24.8061 35.0401C26.9832 35.0401 28.6325 34.6654 29.7981 33.9162V29.3984L25.7737 29.4204V24.4619H35.8236V36.759C32.7669 39.095 29.0724 40.2851 24.7621 40.2851C20.4958 40.2851 16.9333 39.0289 14.0525 36.5166Z" fill="white"/>
<path d="M68.0183 36.5166C65.1374 34.0043 63.686 30.8529 63.686 27.0624C63.708 23.3601 65.1374 20.2527 68.0183 17.7184C70.8991 15.184 74.4617 13.9279 78.7279 13.9279C83.0162 13.9279 86.7107 15.0959 89.7894 17.4539L85.7651 21.3105C83.7199 19.9001 81.3669 19.1949 78.7279 19.1949C76.023 19.217 73.8459 19.9442 72.1966 21.4207C70.5472 22.8752 69.7116 24.7705 69.7116 27.0404C69.7336 29.4866 70.5692 31.4259 72.2186 32.8804C73.8679 34.3128 76.067 35.0401 78.7719 35.0401C81.4768 35.0401 83.8079 34.3349 85.7871 32.9465L89.8114 36.8031C86.7547 39.1391 83.0602 40.3291 78.7499 40.3291C74.4837 40.2851 70.8991 39.0289 68.0183 36.5166Z" fill="white"/>
<path d="M137.95 28.8034L145.449 40.3071H138.544L131.331 29.3984H125.833V40.3071H119.808V13.9279H132.936C139.973 13.9279 143.47 16.4622 143.47 21.5309C143.492 25.3214 141.645 27.7456 137.95 28.8034ZM125.855 24.4619H134.278C136.697 24.4179 137.95 23.4702 138.016 21.553C137.95 19.812 136.719 18.9084 134.344 18.8423H125.855V24.4619Z" fill="white"/>
<path d="M4.86003 58.0696V56.8134H8.09272V59.7885C7.78484 60.097 7.32303 60.3615 6.72927 60.6039C6.13551 60.8463 5.51976 60.9565 4.926 60.9565C4.15631 60.9565 3.47459 60.8022 2.90282 60.4717C2.33105 60.1411 1.89123 59.6783 1.60535 59.0613C1.31946 58.4442 1.16553 57.7831 1.16553 57.0779C1.16553 56.3065 1.31946 55.6234 1.64933 55.0063C1.9792 54.4113 2.44101 53.9485 3.07875 53.6179C3.56256 53.3755 4.15631 53.2433 4.86003 53.2433C5.78365 53.2433 6.50936 53.4416 7.01516 53.8163C7.54294 54.2129 7.87281 54.7419 8.02675 55.425L6.53135 55.7115C6.4214 55.3369 6.22348 55.0504 5.93759 54.852C5.65171 54.6317 5.27786 54.5435 4.86003 54.5435C4.2003 54.5435 3.67251 54.7419 3.29866 55.1606C2.90282 55.5793 2.72689 56.1964 2.72689 57.0117C2.72689 57.8933 2.92481 58.5544 3.32065 58.9951C3.71649 59.4359 4.22229 59.6563 4.86003 59.6563C5.1679 59.6563 5.49777 59.5902 5.80565 59.48C6.11352 59.3477 6.39941 59.2155 6.61932 59.0392V58.0916H4.86003V58.0696Z" fill="white"/>
<path d="M9.47803 60.8243V53.3755H14.9978V54.6317H10.9734V56.2845H14.7119V57.5407H10.9734V59.5681H15.1297V60.8243H9.47803Z" fill="white"/>
<path d="M16.0977 57.144C16.0977 56.3947 16.2076 55.7556 16.4275 55.2267C16.6035 54.852 16.8234 54.4994 17.1092 54.2129C17.3951 53.9044 17.725 53.684 18.0769 53.5518C18.5387 53.3535 19.0665 53.2653 19.6822 53.2653C20.7818 53.2653 21.6614 53.5959 22.3211 54.2791C22.9809 54.9622 23.3107 55.9099 23.3107 57.1219C23.3107 58.334 22.9809 59.2596 22.3431 59.9428C21.6834 60.6259 20.8257 60.9565 19.7262 60.9565C18.6266 60.9565 17.747 60.6259 17.0873 59.9428C16.4275 59.2596 16.0977 58.312 16.0977 57.144ZM17.637 57.0779C17.637 57.9153 17.835 58.5544 18.2308 58.9951C18.6266 59.4359 19.1104 59.6563 19.7042 59.6563C20.298 59.6563 20.8037 59.4359 21.1776 59.0172C21.5514 58.5764 21.7494 57.9373 21.7494 57.0779C21.7494 56.2184 21.5734 55.5793 21.1996 55.1606C20.8257 54.7419 20.3199 54.5215 19.7042 54.5215C19.0884 54.5215 18.5826 54.7419 18.2088 55.1606C17.835 55.5793 17.637 56.2184 17.637 57.0779Z" fill="white"/>
<path d="M32.1287 58.0696L33.5801 58.5324C33.3602 59.3478 32.9864 59.9428 32.4586 60.3395C31.9308 60.7361 31.2711 60.9345 30.4794 60.9345C29.4898 60.9345 28.6761 60.6039 28.0384 59.9207C27.4006 59.2376 27.0928 58.312 27.0928 57.144C27.0928 55.9099 27.4226 54.9402 28.0604 54.257C28.6981 53.5739 29.5338 53.2213 30.5894 53.2213C31.491 53.2213 32.2387 53.4857 32.8105 54.0366C33.1403 54.3452 33.4042 54.808 33.5801 55.403L32.0847 55.7556C31.9968 55.3589 31.8209 55.0724 31.535 54.852C31.2491 54.6317 30.9192 54.5215 30.5234 54.5215C29.9736 54.5215 29.5338 54.7198 29.1819 55.1165C28.8301 55.5132 28.6761 56.1523 28.6761 57.0338C28.6761 57.9814 28.8521 58.6425 29.1819 59.0392C29.5118 59.4359 29.9516 59.6342 30.5014 59.6342C30.8972 59.6342 31.2491 59.502 31.535 59.2596C31.7769 59.0172 31.9968 58.6205 32.1287 58.0696Z" fill="white"/>
<path d="M34.8999 60.8243V53.4416H36.3953V59.5681H40.1338V60.8243H34.8999Z" fill="white"/>
<path d="M41.1675 60.8243V53.3755H42.6629V60.8243H41.1675Z" fill="white"/>
<path d="M44.0703 60.8243V53.3755H46.3134L47.6549 58.4662L48.9963 53.3755H51.2394V60.8243H49.854V54.9622L48.3806 60.8243H46.9292L45.4558 54.9622V60.8243H44.0703Z" fill="white"/>
<path d="M59.4418 60.8243H57.8145L57.1547 59.1274H54.1859L53.5702 60.8243H51.9868L54.8896 53.3755H56.473L59.4418 60.8243ZM56.6709 57.8712L55.6373 55.1165L54.6257 57.8712H56.6709Z" fill="white"/>
<path d="M61.1351 60.8243V54.6317H58.936V53.3755H64.8516V54.6317H62.6525V60.8243H61.1351Z" fill="white"/>
<path d="M65.7974 60.8243V53.3755H71.3171V54.6317H67.2928V56.2845H71.0312V57.5407H67.2928V59.5681H71.4491V60.8243H65.7974Z" fill="white"/>
<path d="M75.6274 60.8243V53.3755H78.7942C79.5858 53.3755 80.1576 53.4416 80.5315 53.5739C80.8833 53.7061 81.1692 53.9485 81.3891 54.2791C81.609 54.6317 81.719 55.0063 81.719 55.4471C81.719 55.998 81.565 56.4608 81.2352 56.8354C80.9053 57.2101 80.4215 57.4305 79.7618 57.5186C80.0916 57.717 80.3555 57.9153 80.5754 58.1357C80.7953 58.3561 81.0812 58.7748 81.4331 59.3478L82.3347 60.8022H80.5315L79.4539 59.1715C79.058 58.5985 78.7942 58.2238 78.6622 58.0696C78.5303 57.9153 78.3763 57.8051 78.2004 57.761C78.0465 57.6949 77.7826 57.6729 77.4527 57.6729H77.1448V60.8243H75.6274ZM77.1228 56.5269H78.2224C78.9481 56.5269 79.3879 56.5049 79.5638 56.4388C79.7398 56.3727 79.8937 56.2625 79.9817 56.1302C80.0916 55.976 80.1356 55.7997 80.1356 55.5793C80.1356 55.3369 80.0696 55.1165 79.9377 54.9622C79.8057 54.808 79.6078 54.7198 79.3659 54.6757C79.234 54.6537 78.8821 54.6537 78.2664 54.6537H77.1008V56.5269H77.1228Z" fill="white"/>
<path d="M83.0605 60.8243V53.3755H84.5559V60.8243H83.0605Z" fill="white"/>
<path d="M85.6113 58.4001L87.0627 58.2679C87.1507 58.7527 87.3266 59.1274 87.5905 59.3477C87.8544 59.5681 88.2283 59.7004 88.6681 59.7004C89.1519 59.7004 89.5257 59.5902 89.7676 59.3918C90.0096 59.1935 90.1415 58.9511 90.1415 58.6646C90.1415 58.4883 90.0975 58.334 89.9876 58.2238C89.8776 58.0916 89.7017 58.0034 89.4378 57.8933C89.2619 57.8271 88.866 57.717 88.2283 57.5627C87.4146 57.3644 86.8648 57.1219 86.535 56.8354C86.0731 56.4167 85.8532 55.9319 85.8532 55.3369C85.8532 54.9622 85.9632 54.6096 86.1831 54.2791C86.403 53.9485 86.7109 53.7061 87.1067 53.5298C87.5026 53.3535 88.0084 53.2653 88.5801 53.2653C89.5037 53.2653 90.2075 53.4637 90.6913 53.8824C91.1531 54.3011 91.417 54.83 91.439 55.5132L89.9436 55.5793C89.8776 55.2046 89.7457 54.9182 89.5257 54.7639C89.3058 54.5876 88.998 54.5215 88.5801 54.5215C88.1403 54.5215 87.8104 54.6096 87.5465 54.7859C87.3926 54.8961 87.3046 55.0504 87.3046 55.2487C87.3046 55.425 87.3706 55.5793 87.5246 55.7115C87.7225 55.8658 88.1843 56.0421 88.91 56.2184C89.6357 56.3947 90.1855 56.571 90.5373 56.7473C90.8892 56.9236 91.1531 57.188 91.351 57.4966C91.5489 57.8271 91.6369 58.2018 91.6369 58.6866C91.6369 59.1053 91.5269 59.502 91.285 59.8767C91.0431 60.2513 90.7133 60.5158 90.2734 60.7141C89.8336 60.8904 89.3058 60.9785 88.6461 60.9785C87.7005 60.9785 86.9748 60.7582 86.491 60.3174C86.0072 59.8546 85.7213 59.2155 85.6113 58.4001Z" fill="white"/>
<path d="M92.9346 60.8243V53.3755H94.43V56.6812L97.4647 53.3755H99.4879L96.695 56.2845L99.6419 60.8243H97.7066L95.6615 57.3203L94.452 58.5544V60.8243H92.9346Z" fill="white"/>
<path d="M102.918 58.4001L104.37 58.2679C104.458 58.7527 104.634 59.1274 104.898 59.3477C105.162 59.5681 105.535 59.7004 105.975 59.7004C106.459 59.7004 106.833 59.5902 107.075 59.3918C107.317 59.1935 107.449 58.9511 107.449 58.6646C107.449 58.4883 107.405 58.334 107.295 58.2238C107.185 58.0916 107.009 58.0034 106.745 57.8933C106.569 57.8271 106.173 57.717 105.535 57.5627C104.722 57.3644 104.172 57.1219 103.842 56.8354C103.38 56.4167 103.16 55.9319 103.16 55.3369C103.16 54.9622 103.27 54.6096 103.49 54.2791C103.71 53.9485 104.018 53.7061 104.414 53.5298C104.81 53.3535 105.315 53.2653 105.887 53.2653C106.811 53.2653 107.515 53.4637 107.998 53.8824C108.46 54.3011 108.724 54.83 108.746 55.5132L107.251 55.5793C107.185 55.2046 107.053 54.9182 106.833 54.7639C106.613 54.5876 106.305 54.5215 105.887 54.5215C105.447 54.5215 105.118 54.6096 104.854 54.7859C104.7 54.8961 104.612 55.0504 104.612 55.2487C104.612 55.425 104.678 55.5793 104.832 55.7115C105.03 55.8658 105.491 56.0421 106.217 56.2184C106.943 56.3947 107.493 56.571 107.844 56.7473C108.196 56.9236 108.46 57.188 108.658 57.4966C108.856 57.8271 108.944 58.2018 108.944 58.6866C108.944 59.1053 108.834 59.502 108.592 59.8767C108.35 60.2513 108.02 60.5158 107.581 60.7141C107.141 60.8904 106.613 60.9785 105.953 60.9785C105.008 60.9785 104.282 60.7582 103.798 60.3174C103.314 59.8546 103.028 59.2155 102.918 58.4001Z" fill="white"/>
<path d="M109.912 57.144C109.912 56.3947 110.022 55.7556 110.241 55.2267C110.417 54.852 110.637 54.4994 110.923 54.2129C111.209 53.9044 111.539 53.684 111.891 53.5518C112.353 53.3535 112.88 53.2653 113.496 53.2653C114.596 53.2653 115.475 53.5959 116.135 54.2791C116.795 54.9622 117.125 55.9099 117.125 57.1219C117.125 58.334 116.795 59.2596 116.157 59.9428C115.497 60.6259 114.64 60.9565 113.54 60.9565C112.441 60.9565 111.561 60.6259 110.901 59.9428C110.241 59.2596 109.912 58.312 109.912 57.144ZM111.473 57.0779C111.473 57.9153 111.671 58.5544 112.067 58.9951C112.463 59.4359 112.946 59.6563 113.54 59.6563C114.134 59.6563 114.64 59.4359 115.014 59.0172C115.387 58.5764 115.585 57.9373 115.585 57.0779C115.585 56.2184 115.409 55.5793 115.036 55.1606C114.662 54.7419 114.156 54.5215 113.54 54.5215C112.924 54.5215 112.419 54.7419 112.045 55.1606C111.649 55.5793 111.473 56.2184 111.473 57.0779Z" fill="white"/>
<path d="M118.334 60.8243V53.4416H119.829V59.5681H123.568V60.8243H118.334Z" fill="white"/>
<path d="M124.624 53.3755H126.119V57.4084C126.119 58.0475 126.141 58.4662 126.185 58.6425C126.251 58.9511 126.405 59.1935 126.647 59.3698C126.889 59.5461 127.218 59.6563 127.636 59.6563C128.054 59.6563 128.384 59.5681 128.604 59.3918C128.824 59.2155 128.956 58.9952 129 58.7527C129.044 58.4883 129.066 58.0696 129.066 57.4966V53.3755H130.561V57.2762C130.561 58.1798 130.517 58.7968 130.429 59.1715C130.341 59.5461 130.209 59.8546 129.989 60.097C129.769 60.3615 129.484 60.5598 129.11 60.7141C128.736 60.8684 128.274 60.9345 127.68 60.9345C126.977 60.9345 126.427 60.8463 126.075 60.6921C125.701 60.5378 125.415 60.3174 125.195 60.053C124.975 59.7885 124.843 59.5241 124.777 59.2376C124.69 58.8188 124.624 58.1798 124.624 57.3423V53.3755Z" fill="white"/>
<path d="M133.816 60.8243V54.6317H131.617V53.3755H137.532V54.6317H135.333V60.8243H133.816Z" fill="white"/>
<path d="M138.434 60.8243V53.3755H139.929V60.8243H138.434Z" fill="white"/>
<path d="M141.051 57.144C141.051 56.3947 141.161 55.7556 141.381 55.2267C141.557 54.852 141.776 54.4994 142.062 54.2129C142.348 53.9044 142.678 53.684 143.03 53.5518C143.492 53.3535 144.02 53.2653 144.635 53.2653C145.735 53.2653 146.615 53.5959 147.274 54.2791C147.934 54.9622 148.264 55.9099 148.264 57.1219C148.264 58.334 147.934 59.2596 147.296 59.9428C146.637 60.6259 145.779 60.9565 144.679 60.9565C143.58 60.9565 142.7 60.6259 142.04 59.9428C141.381 59.2596 141.051 58.312 141.051 57.144ZM142.612 57.0779C142.612 57.9153 142.81 58.5544 143.206 58.9951C143.602 59.4359 144.086 59.6563 144.679 59.6563C145.273 59.6563 145.779 59.4359 146.153 59.0172C146.527 58.5764 146.724 57.9373 146.724 57.0779C146.724 56.2184 146.549 55.5793 146.175 55.1606C145.801 54.7419 145.295 54.5215 144.679 54.5215C144.064 54.5215 143.558 54.7419 143.184 55.1606C142.788 55.5793 142.612 56.2184 142.612 57.0779Z" fill="white"/>
<path d="M149.451 60.8243V53.3755H150.903L153.937 58.3561V53.3755H155.323V60.8243H153.827L150.837 55.976V60.8243H149.451Z" fill="white"/>
<path d="M156.555 58.4001L158.006 58.2679C158.094 58.7527 158.27 59.1274 158.534 59.3477C158.798 59.5681 159.172 59.7004 159.611 59.7004C160.095 59.7004 160.469 59.5902 160.711 59.3918C160.953 59.1935 161.085 58.9511 161.085 58.6646C161.085 58.4883 161.041 58.334 160.931 58.2238C160.821 58.0916 160.645 58.0034 160.381 57.8933C160.205 57.8271 159.809 57.717 159.172 57.5627C158.358 57.3644 157.808 57.1219 157.478 56.8354C157.016 56.4167 156.797 55.9319 156.797 55.3369C156.797 54.9622 156.907 54.6096 157.126 54.2791C157.346 53.9485 157.654 53.7061 158.05 53.5298C158.446 53.3535 158.952 53.2653 159.523 53.2653C160.447 53.2653 161.151 53.4637 161.635 53.8824C162.096 54.3011 162.36 54.83 162.382 55.5132L160.887 55.5793C160.821 55.2046 160.689 54.9182 160.469 54.7639C160.249 54.5876 159.941 54.5215 159.523 54.5215C159.084 54.5215 158.754 54.6096 158.49 54.7859C158.336 54.8961 158.248 55.0504 158.248 55.2487C158.248 55.425 158.314 55.5793 158.468 55.7115C158.666 55.8658 159.128 56.0421 159.853 56.2184C160.579 56.3947 161.129 56.571 161.481 56.7473C161.833 56.9236 162.096 57.188 162.294 57.4966C162.492 57.8271 162.58 58.2018 162.58 58.6866C162.58 59.1053 162.47 59.502 162.228 59.8767C161.986 60.2513 161.657 60.5158 161.217 60.7141C160.777 60.8904 160.249 60.9785 159.589 60.9785C158.644 60.9785 157.918 60.7582 157.434 60.3174C156.951 59.8546 156.665 59.2155 156.555 58.4001Z" fill="white"/>
<path d="M166.736 60.8243V53.3755H169.133C170.035 53.3755 170.651 53.4196 170.915 53.4857C171.332 53.5959 171.706 53.8383 171.992 54.213C172.278 54.5876 172.432 55.0724 172.432 55.6674C172.432 56.1302 172.344 56.5049 172.19 56.8134C172.014 57.1219 171.816 57.3644 171.552 57.5407C171.288 57.717 171.047 57.8272 170.783 57.8933C170.431 57.9594 169.903 58.0035 169.221 58.0035H168.254V60.8243H166.736ZM168.254 54.6317V56.7473H169.067C169.661 56.7473 170.057 56.7032 170.255 56.6371C170.453 56.549 170.607 56.4388 170.717 56.2625C170.827 56.0862 170.893 55.9099 170.893 55.6895C170.893 55.425 170.805 55.2047 170.651 55.0284C170.497 54.852 170.299 54.7419 170.057 54.6978C169.881 54.6537 169.507 54.6537 168.979 54.6537H168.254V54.6317Z" fill="white"/>
<path d="M175.555 60.8243L172.894 53.3755H174.521L176.413 58.885L178.238 53.3755H179.821L177.16 60.8243H175.555Z" fill="white"/>
<path d="M182.262 60.8243V54.6317H180.063V53.3755H185.979V54.6317H183.779V60.8243H182.262Z" fill="white"/>
<path d="M189.871 60.8243V53.4416H191.366V59.5681H195.105V60.8243H189.871Z" fill="white"/>
<path d="M197.062 60.8243V54.6317H194.863V53.3755H200.778V54.6317H198.579V60.8243H197.062Z" fill="white"/>
<path d="M201.724 53.3755H204.473C205.089 53.3755 205.573 53.4196 205.88 53.5077C206.32 53.64 206.694 53.8603 207.002 54.1909C207.31 54.5215 207.552 54.9182 207.706 55.403C207.86 55.8878 207.948 56.4608 207.948 57.166C207.948 57.7831 207.882 58.312 207.728 58.7527C207.552 59.3037 207.266 59.7224 206.936 60.075C206.672 60.3395 206.32 60.5378 205.88 60.67C205.551 60.7802 205.111 60.8243 204.561 60.8243H201.746V53.3755H201.724ZM203.22 54.6317V59.5681H204.341C204.759 59.5681 205.067 59.5461 205.243 59.502C205.485 59.4359 205.683 59.3478 205.858 59.1935C206.012 59.0392 206.144 58.8188 206.254 58.4662C206.364 58.1357 206.408 57.6729 206.408 57.0999C206.408 56.5269 206.364 56.0862 206.254 55.7776C206.144 55.4691 206.012 55.2267 205.836 55.0504C205.661 54.8741 205.419 54.7639 205.133 54.6978C204.913 54.6537 204.517 54.6317 203.901 54.6317H203.22Z" fill="white"/>
<path d="M116.883 74.686V73.5841H117.982V74.686H116.883Z" fill="white"/>
<path d="M119.961 74.686V73.5841H121.061V74.686H119.961Z" fill="white"/>
<path d="M123.019 74.686V73.5841H124.118V74.686H123.019Z" fill="white"/>
<path d="M126.097 74.686V73.5841H127.197V74.686H126.097Z" fill="white"/>
<path d="M129.11 74.686V69.7055H128.252V68.9562H129.11V68.3171C129.11 67.9425 129.154 67.656 129.22 67.4576C129.308 67.2152 129.484 66.9948 129.704 66.8406C129.946 66.6863 130.276 66.5982 130.693 66.5982C130.957 66.5982 131.265 66.6202 131.595 66.6863L131.441 67.5458C131.243 67.5017 131.045 67.5017 130.869 67.5017C130.583 67.5017 130.364 67.5678 130.254 67.7001C130.122 67.8323 130.078 68.0527 130.078 68.4053V68.9342H131.199V69.6835H130.078V74.664H129.11V74.686Z" fill="white"/>
<path d="M131.595 71.7991C131.595 70.7413 131.881 69.9479 132.474 69.441C132.958 69.0223 133.574 68.8019 134.278 68.8019C135.069 68.8019 135.707 69.0664 136.213 69.5733C136.719 70.0801 136.961 70.8074 136.961 71.7109C136.961 72.4602 136.851 73.0332 136.631 73.4519C136.411 73.8706 136.081 74.2012 135.663 74.4436C135.245 74.686 134.783 74.7962 134.278 74.7962C133.486 74.7962 132.826 74.5318 132.342 74.0249C131.837 73.518 131.595 72.7687 131.595 71.7991ZM132.584 71.7991C132.584 72.5263 132.738 73.0773 133.068 73.4519C133.398 73.8265 133.794 74.0029 134.278 74.0029C134.761 74.0029 135.157 73.8265 135.487 73.4519C135.817 73.0773 135.971 72.5263 135.971 71.777C135.971 71.0718 135.817 70.5209 135.487 70.1683C135.157 69.7936 134.761 69.6173 134.278 69.6173C133.794 69.6173 133.398 69.7936 133.068 70.1683C132.76 70.5209 132.584 71.0718 132.584 71.7991Z" fill="white"/>
<path d="M138.082 74.686V68.9562H138.962V69.8157C139.182 69.419 139.38 69.1325 139.577 69.0003C139.775 68.8681 139.973 68.8019 140.193 68.8019C140.523 68.8019 140.853 68.9121 141.183 69.1105L140.853 70.014C140.611 69.8818 140.369 69.7936 140.149 69.7936C139.929 69.7936 139.753 69.8598 139.577 69.992C139.401 70.1242 139.292 70.3005 139.226 70.5209C139.116 70.8735 139.072 71.2481 139.072 71.6448V74.642H138.082V74.686Z" fill="white"/>
<path d="M144.459 72.9671L145.427 72.8128C145.471 73.1875 145.625 73.496 145.867 73.6943C146.109 73.8927 146.461 74.0029 146.9 74.0029C147.34 74.0029 147.67 73.9147 147.89 73.7384C148.11 73.5621 148.22 73.3417 148.22 73.0993C148.22 72.8789 148.132 72.7026 147.934 72.5704C147.802 72.4822 147.472 72.3721 146.944 72.2398C146.241 72.0635 145.735 71.9093 145.471 71.777C145.207 71.6448 144.987 71.4685 144.855 71.2261C144.723 70.9837 144.635 70.7413 144.635 70.4548C144.635 70.1903 144.701 69.9699 144.811 69.7496C144.921 69.5292 145.097 69.3529 145.295 69.1986C145.449 69.0884 145.647 69.0003 145.911 68.9121C146.175 68.824 146.461 68.8019 146.747 68.8019C147.186 68.8019 147.582 68.8681 147.934 69.0003C148.264 69.1325 148.528 69.3088 148.682 69.5292C148.836 69.7496 148.946 70.0581 149.012 70.4107L148.066 70.5429C148.022 70.2564 147.89 70.014 147.692 69.8598C147.494 69.6834 147.186 69.6173 146.813 69.6173C146.373 69.6173 146.043 69.6834 145.867 69.8377C145.669 69.992 145.581 70.1683 145.581 70.3666C145.581 70.4988 145.625 70.609 145.691 70.6972C145.779 70.8074 145.889 70.8955 146.065 70.9616C146.153 71.0057 146.439 71.0718 146.922 71.2041C147.604 71.3804 148.088 71.5346 148.352 71.6448C148.616 71.755 148.836 71.9313 148.99 72.1517C149.144 72.3721 149.232 72.6586 149.232 72.9891C149.232 73.3197 149.144 73.6282 148.946 73.9147C148.748 74.2012 148.484 74.4216 148.132 74.5758C147.78 74.7301 147.384 74.8183 146.922 74.8183C146.175 74.8183 145.603 74.664 145.229 74.3555C144.811 74.0249 144.569 73.5841 144.459 72.9671Z" fill="white"/>
<path d="M154.114 74.686V73.8266C153.674 74.4657 153.058 74.7962 152.288 74.7962C151.958 74.7962 151.629 74.7301 151.343 74.5979C151.057 74.4657 150.837 74.3114 150.683 74.1131C150.551 73.9147 150.441 73.6723 150.375 73.3858C150.331 73.1875 150.309 72.901 150.309 72.4823V68.9342H151.277V72.1076C151.277 72.6145 151.299 72.9671 151.343 73.1434C151.409 73.4078 151.541 73.6062 151.739 73.7384C151.936 73.8927 152.178 73.9588 152.464 73.9588C152.75 73.9588 153.036 73.8927 153.278 73.7384C153.542 73.5841 153.718 73.3858 153.828 73.1214C153.938 72.8569 153.982 72.4823 153.982 71.9974V68.9121H154.949V74.642H154.114V74.686Z" fill="white"/>
<path d="M156.115 72.9671L157.082 72.8128C157.126 73.1875 157.28 73.496 157.522 73.6943C157.764 73.8927 158.116 74.0029 158.556 74.0029C158.996 74.0029 159.325 73.9147 159.545 73.7384C159.765 73.5621 159.875 73.3417 159.875 73.0993C159.875 72.8789 159.787 72.7026 159.589 72.5704C159.457 72.4822 159.128 72.3721 158.6 72.2398C157.896 72.0635 157.39 71.9093 157.126 71.777C156.862 71.6448 156.643 71.4685 156.511 71.2261C156.379 70.9837 156.291 70.7413 156.291 70.4548C156.291 70.1903 156.357 69.9699 156.467 69.7496C156.577 69.5292 156.752 69.3529 156.95 69.1986C157.104 69.0884 157.302 69.0003 157.566 68.9121C157.83 68.824 158.116 68.8019 158.402 68.8019C158.842 68.8019 159.237 68.8681 159.589 69.0003C159.919 69.1325 160.183 69.3088 160.337 69.5292C160.491 69.7496 160.601 70.0581 160.667 70.4107L159.721 70.5429C159.677 70.2564 159.545 70.014 159.347 69.8598C159.15 69.6834 158.842 69.6173 158.468 69.6173C158.028 69.6173 157.698 69.6834 157.522 69.8377C157.324 69.992 157.236 70.1683 157.236 70.3666C157.236 70.4988 157.28 70.609 157.346 70.6972C157.434 70.8074 157.544 70.8955 157.72 70.9616C157.808 71.0057 158.094 71.0718 158.578 71.2041C159.259 71.3804 159.743 71.5346 160.007 71.6448C160.271 71.755 160.491 71.9313 160.645 72.1517C160.799 72.3721 160.887 72.6586 160.887 72.9891C160.887 73.3197 160.799 73.6282 160.601 73.9147C160.403 74.2012 160.139 74.4216 159.787 74.5758C159.435 74.7301 159.04 74.8183 158.578 74.8183C157.83 74.8183 157.258 74.664 156.884 74.3555C156.467 74.0249 156.225 73.5841 156.115 72.9671Z" fill="white"/>
<path d="M164.142 73.8045L164.274 74.664C164.01 74.7301 163.746 74.7522 163.548 74.7522C163.196 74.7522 162.932 74.686 162.734 74.5758C162.537 74.4657 162.405 74.3114 162.317 74.1351C162.229 73.9588 162.207 73.5621 162.207 72.9891V69.6835H161.503V68.9342H162.207V67.5238L163.174 66.9508V68.9562H164.142V69.7055H163.174V73.0552C163.174 73.3417 163.196 73.518 163.218 73.5841C163.262 73.6723 163.306 73.7164 163.394 73.7825C163.482 73.8266 163.592 73.8486 163.724 73.8486C163.834 73.8486 163.966 73.8266 164.142 73.8045Z" fill="white"/>
<path d="M168.826 73.9588C168.474 74.2673 168.122 74.4877 167.792 74.5979C167.462 74.7301 167.11 74.7962 166.715 74.7962C166.077 74.7962 165.593 74.6419 165.263 74.3334C164.933 74.0249 164.757 73.6282 164.757 73.1434C164.757 72.8569 164.823 72.6145 164.955 72.3721C165.087 72.1296 165.241 71.9533 165.461 71.8211C165.659 71.6889 165.901 71.5787 166.165 71.5126C166.363 71.4685 166.649 71.4244 167.022 71.3583C167.814 71.2702 168.386 71.16 168.76 71.0278C168.76 70.8955 168.76 70.8074 168.76 70.7633C168.76 70.3666 168.672 70.0801 168.474 69.9259C168.232 69.7055 167.858 69.5953 167.374 69.5953C166.912 69.5953 166.583 69.6834 166.363 69.8377C166.143 69.992 165.989 70.2785 165.879 70.6972L164.933 70.565C165.021 70.1683 165.153 69.8377 165.351 69.5733C165.549 69.3308 165.835 69.1325 166.209 69.0003C166.583 68.8681 167.022 68.8019 167.506 68.8019C167.99 68.8019 168.386 68.8681 168.694 68.9782C169.002 69.0884 169.222 69.2427 169.375 69.419C169.529 69.5953 169.617 69.8157 169.683 70.0801C169.705 70.2564 169.727 70.5429 169.727 70.9837V72.2839C169.727 73.1875 169.749 73.7604 169.793 74.0029C169.837 74.2453 169.925 74.4656 170.035 74.686H169.024C168.936 74.4656 168.87 74.2453 168.826 73.9588ZM168.76 71.7991C168.408 71.9533 167.88 72.0635 167.176 72.1737C166.781 72.2398 166.495 72.3059 166.319 72.3721C166.143 72.4382 166.033 72.5484 165.945 72.6806C165.857 72.8128 165.813 72.9671 165.813 73.1434C165.813 73.4078 165.901 73.6282 166.099 73.7825C166.297 73.9588 166.583 74.0469 166.956 74.0469C167.33 74.0469 167.66 73.9588 167.946 73.8045C168.232 73.6502 168.452 73.4078 168.584 73.1213C168.694 72.901 168.738 72.5704 168.738 72.1517V71.7991H168.76Z" fill="white"/>
<path d="M171.245 67.8764V66.7524H172.212V67.8764H171.245ZM171.245 74.686V68.9562H172.212V74.686H171.245Z" fill="white"/>
<path d="M173.686 74.686V68.9562H174.565V69.7716C174.983 69.1325 175.599 68.824 176.39 68.824C176.742 68.824 177.05 68.8901 177.336 69.0003C177.622 69.1325 177.842 69.2868 177.996 69.4851C178.15 69.6834 178.238 69.9259 178.304 70.2124C178.348 70.3887 178.348 70.6972 178.348 71.16V74.686H177.38V71.182C177.38 70.7853 177.336 70.4988 177.27 70.3005C177.204 70.1022 177.05 69.9479 176.874 69.8377C176.676 69.7275 176.456 69.6614 176.193 69.6614C175.775 69.6614 175.423 69.7936 175.115 70.0581C174.807 70.3225 174.675 70.8294 174.675 71.5567V74.686H173.686Z" fill="white"/>
<path d="M183.582 73.9588C183.23 74.2673 182.878 74.4877 182.548 74.5979C182.218 74.7301 181.866 74.7962 181.47 74.7962C180.833 74.7962 180.349 74.6419 180.019 74.3334C179.689 74.0249 179.513 73.6282 179.513 73.1434C179.513 72.8569 179.579 72.6145 179.711 72.3721C179.843 72.1296 179.997 71.9533 180.217 71.8211C180.415 71.6889 180.657 71.5787 180.921 71.5126C181.119 71.4685 181.404 71.4244 181.778 71.3583C182.57 71.2702 183.142 71.16 183.516 71.0278C183.516 70.8955 183.516 70.8074 183.516 70.7633C183.516 70.3666 183.428 70.0801 183.23 69.9259C182.988 69.7055 182.614 69.5953 182.13 69.5953C181.668 69.5953 181.338 69.6834 181.119 69.8377C180.899 69.992 180.745 70.2785 180.635 70.6972L179.689 70.565C179.777 70.1683 179.909 69.8377 180.107 69.5733C180.305 69.3308 180.591 69.1325 180.965 69.0003C181.338 68.8681 181.778 68.8019 182.262 68.8019C182.746 68.8019 183.142 68.8681 183.45 68.9782C183.757 69.0884 183.977 69.2427 184.131 69.419C184.285 69.5953 184.373 69.8157 184.439 70.0801C184.461 70.2564 184.483 70.5429 184.483 70.9837V72.2839C184.483 73.1875 184.505 73.7604 184.549 74.0029C184.593 74.2453 184.681 74.4656 184.791 74.686H183.779C183.67 74.4656 183.604 74.2453 183.582 73.9588ZM183.494 71.7991C183.142 71.9533 182.614 72.0635 181.91 72.1737C181.514 72.2398 181.228 72.3059 181.053 72.3721C180.877 72.4382 180.767 72.5484 180.679 72.6806C180.591 72.8128 180.547 72.9671 180.547 73.1434C180.547 73.4078 180.635 73.6282 180.833 73.7825C181.031 73.9588 181.316 74.0469 181.69 74.0469C182.064 74.0469 182.394 73.9588 182.68 73.8045C182.966 73.6502 183.186 73.4078 183.318 73.1213C183.428 72.901 183.472 72.5704 183.472 72.1517V71.7991H183.494Z" fill="white"/>
<path d="M186.881 74.686H185.979V66.7745H186.947V69.5953C187.364 69.0884 187.87 68.824 188.508 68.824C188.86 68.824 189.19 68.8901 189.498 69.0444C189.805 69.1766 190.069 69.397 190.267 69.6394C190.465 69.9038 190.619 70.2124 190.751 70.565C190.861 70.9396 190.927 71.3143 190.927 71.733C190.927 72.7247 190.685 73.474 190.201 74.0029C189.717 74.5318 189.124 74.8183 188.464 74.8183C187.782 74.8183 187.254 74.5318 186.881 73.9588V74.686ZM186.859 71.755C186.859 72.4382 186.947 72.9451 187.145 73.2536C187.452 73.7604 187.87 74.0029 188.376 74.0029C188.794 74.0029 189.168 73.8266 189.476 73.4519C189.783 73.0773 189.937 72.5263 189.937 71.7991C189.937 71.0498 189.783 70.4989 189.498 70.1463C189.212 69.7936 188.838 69.6173 188.42 69.6173C188.002 69.6173 187.628 69.7936 187.32 70.1683C187.013 70.5209 186.859 71.0718 186.859 71.755Z" fill="white"/>
<path d="M192.136 67.8764V66.7524H193.104V67.8764H192.136ZM192.136 74.686V68.9562H193.104V74.686H192.136Z" fill="white"/>
<path d="M194.555 74.686V66.7745H195.523V74.686H194.555Z" fill="white"/>
<path d="M197.041 67.8764V66.7524H198.008V67.8764H197.041ZM197.041 74.686V68.9562H198.008V74.686H197.041Z" fill="white"/>
<path d="M201.593 73.8045L201.724 74.664C201.461 74.7301 201.197 74.7522 200.999 74.7522C200.647 74.7522 200.383 74.686 200.185 74.5758C199.987 74.4657 199.855 74.3114 199.767 74.1351C199.679 73.9588 199.657 73.5621 199.657 72.9891V69.6835H198.954V68.9342H199.657V67.5238L200.625 66.9508V68.9562H201.593V69.7055H200.625V73.0552C200.625 73.3417 200.647 73.518 200.669 73.5841C200.713 73.6723 200.757 73.7164 200.845 73.7825C200.933 73.8266 201.043 73.8486 201.175 73.8486C201.285 73.8486 201.417 73.8266 201.593 73.8045Z" fill="white"/>
<path d="M202.516 76.8898L202.406 75.9863C202.626 76.0524 202.802 76.0744 202.956 76.0744C203.176 76.0744 203.352 76.0303 203.484 75.9642C203.616 75.8981 203.726 75.7879 203.792 75.6557C203.858 75.5675 203.945 75.3251 204.077 74.9285C204.099 74.8844 204.121 74.7962 204.165 74.686L201.988 68.9342H203.044L204.231 72.2619C204.385 72.6806 204.517 73.1214 204.649 73.5841C204.759 73.1434 204.891 72.7026 205.045 72.2839L206.277 68.9342H207.244L205.067 74.7742C204.825 75.4133 204.649 75.832 204.517 76.0744C204.341 76.405 204.143 76.6254 203.923 76.7796C203.704 76.9339 203.44 77 203.132 77C202.956 77 202.736 76.9559 202.516 76.8898Z" fill="white"/>
<path d="M215.117 2.82082C215.447 2.75471 215.93 2.71063 216.392 2.71063C217.096 2.71063 217.558 2.84286 217.866 3.12935C218.13 3.34973 218.261 3.70233 218.261 4.09901C218.261 4.78218 217.844 5.22294 217.294 5.39924V5.42128C217.69 5.55351 217.932 5.92815 218.042 6.45705C218.217 7.16226 218.327 7.66913 218.437 7.86747H217.756C217.668 7.71321 217.558 7.27245 217.404 6.63336C217.25 5.92815 216.986 5.66369 216.37 5.64166H215.754V7.86747H215.095V2.82082H215.117ZM215.776 5.15683H216.458C217.162 5.15683 217.624 4.76015 217.624 4.18716C217.624 3.52603 217.14 3.23954 216.436 3.2175C216.106 3.2175 215.886 3.23954 215.776 3.28361V5.15683Z" fill="white"/>
<path d="M216.59 10.8205C213.621 10.8205 211.202 8.39639 211.202 5.42129C211.202 2.44619 213.621 0 216.59 0C219.559 0 221.978 2.42416 221.978 5.39926C221.978 8.37436 219.559 10.8205 216.59 10.8205ZM216.59 0.727247C214.017 0.727247 211.906 2.82084 211.906 5.42129C211.906 8.02175 213.995 10.1153 216.59 10.1153C219.185 10.1153 221.274 8.02175 221.274 5.42129C221.274 2.82084 219.163 0.727247 216.59 0.727247Z" fill="white"/>
</g>
<defs>
<clipPath id="clip0_445_817">
<rect width="222" height="77" fill="white"/>
</clipPath>
</defs>
</svg>
