<svg width="11" height="13" viewBox="0 0 11 13" fill="none" xmlns="http://www.w3.org/2000/svg">
<path d="M5.10707 7.42858C4.64794 7.42858 4.19911 7.29243 3.81736 7.03735C3.4356 6.78227 3.13806 6.41971 2.96235 5.99552C2.78665 5.57134 2.74068 5.10458 2.83025 4.65426C2.91982 4.20395 3.14092 3.79031 3.46558 3.46565C3.79023 3.141 4.20387 2.9199 4.65419 2.83033C5.1045 2.74075 5.57126 2.78673 5.99545 2.96243C6.41963 3.13813 6.78219 3.43568 7.03727 3.81743C7.29235 4.19919 7.4285 4.64802 7.4285 5.10715C7.42777 5.72261 7.18295 6.31264 6.74776 6.74783C6.31257 7.18303 5.72253 7.42784 5.10707 7.42858ZM5.10707 3.71429C4.83159 3.71429 4.5623 3.79598 4.33324 3.94903C4.10419 4.10208 3.92566 4.31962 3.82024 4.57413C3.71482 4.82864 3.68724 5.1087 3.74098 5.37888C3.79472 5.64907 3.92738 5.89726 4.12218 6.09205C4.31697 6.28684 4.56515 6.4195 4.83534 6.47324C5.10553 6.52699 5.38559 6.49941 5.6401 6.39398C5.89461 6.28856 6.11214 6.11004 6.26519 5.88098C6.41824 5.65193 6.49993 5.38263 6.49993 5.10715C6.49956 4.73786 6.3527 4.38379 6.09157 4.12266C5.83043 3.86153 5.47637 3.71466 5.10707 3.71429Z" fill="white"/>
<path d="M5.10715 13L1.19043 8.38082C1.13601 8.31146 1.08215 8.24166 1.02886 8.17143C0.359818 7.29011 -0.00161627 6.21364 5.43348e-06 5.10714C5.43348e-06 3.75264 0.538078 2.45362 1.49585 1.49585C2.45363 0.538073 3.75265 0 5.10715 0C6.46165 0 7.76067 0.538073 8.71844 1.49585C9.67622 2.45362 10.2143 3.75264 10.2143 5.10714C10.2159 6.21314 9.85464 7.28912 9.1859 8.17004L9.18543 8.17143C9.18543 8.17143 9.04615 8.35436 9.02525 8.37896L5.10715 13ZM1.76986 7.61196C1.77079 7.61196 1.87851 7.75496 1.90311 7.78561L5.10715 11.5644L8.31536 7.7805C8.33579 7.75496 8.44443 7.61104 8.4449 7.61057C8.99143 6.89052 9.28679 6.01112 9.28572 5.10714C9.28572 3.99892 8.84548 2.93608 8.06184 2.15245C7.27821 1.36881 6.21537 0.928571 5.10715 0.928571C3.99892 0.928571 2.93609 1.36881 2.15245 2.15245C1.36882 2.93608 0.928577 3.99892 0.928577 5.10714C0.927603 6.01168 1.22283 6.89158 1.76986 7.61196Z" fill="white"/>
</svg>
