<svg width="18" height="14" viewBox="0 0 18 14" fill="none" xmlns="http://www.w3.org/2000/svg">
<path d="M1.8 14C1.305 14 0.881101 13.8285 0.528301 13.4855C0.175501 13.1425 -0.000598472 12.7307 1.52801e-06 12.25V1.75C1.52801e-06 1.26875 0.176402 0.856626 0.529201 0.513626C0.882001 0.170626 1.3056 -0.000581848 1.8 1.48557e-06H16.2C16.695 1.48557e-06 17.1189 0.171501 17.4717 0.514501C17.8245 0.857501 18.0006 1.26933 18 1.75V12.25C18 12.7312 17.8236 13.1434 17.4708 13.4864C17.118 13.8294 16.6944 14.0006 16.2 14H1.8ZM9 7.875L1.8 3.5V12.25H16.2V3.5L9 7.875ZM9 6.125L16.2 1.75H1.8L9 6.125ZM1.8 3.5V1.75V12.25V3.5Z" fill="white"/>
</svg>
