<svg xmlns="http://www.w3.org/2000/svg" viewBox="0 0 1326.52 345.4"><defs><style>.cls-1{fill:none;stroke:#141213;stroke-miterlimit:10;stroke-width:2px;}.cls-2{fill:#141213;}.cls-3,.cls-5{fill:#bd0324;}.cls-4{fill:#fff;}.cls-5{font-size:19.56px;}.cls-5,.cls-6{font-family:Poppins-SemiBold, Poppins;font-weight:600;}.cls-6{font-size:14px;}</style></defs><g id="Layer_2" data-name="Layer 2"><g id="Layer_1-2" data-name="Layer 1"><line class="cls-1" x1="17.33" y1="171.56" x2="1312.4" y2="171.56"/><polygon class="cls-2" points="1326.52 171.56 1306.62 179.69 1311.34 171.56 1306.62 163.43 1326.52 171.56"/><circle class="cls-3" cx="49.86" cy="171.56" r="49.86"/><circle class="cls-4" cx="49.86" cy="171.56" r="43.28"/><circle class="cls-3" cx="170.52" cy="171.56" r="49.86"/><circle class="cls-4" cx="170.52" cy="171.56" r="43.28"/><circle class="cls-3" cx="291.72" cy="171.56" r="49.86"/><circle class="cls-4" cx="291.72" cy="171.56" r="43.28"/><circle class="cls-3" cx="412.38" cy="171.56" r="49.86"/><circle class="cls-4" cx="412.38" cy="171.56" r="43.28"/><circle class="cls-3" cx="533.9" cy="171.56" r="49.86"/><circle class="cls-4" cx="533.9" cy="171.56" r="43.28"/><circle class="cls-3" cx="654.24" cy="171.56" r="49.86"/><circle class="cls-4" cx="654.24" cy="171.56" r="43.28"/><circle class="cls-3" cx="775.94" cy="171.56" r="49.86"/><circle class="cls-4" cx="775.94" cy="171.56" r="43.28"/><circle class="cls-3" cx="896.1" cy="171.56" r="49.86"/><circle class="cls-4" cx="896.1" cy="171.56" r="43.28"/><circle class="cls-3" cx="1017.3" cy="171.56" r="49.86"/><circle class="cls-4" cx="1017.3" cy="171.56" r="43.28"/><circle class="cls-3" cx="1137.96" cy="171.56" r="49.86"/><circle class="cls-4" cx="1137.96" cy="171.56" r="43.28"/><path class="cls-3" d="M50.86,287.53V217.47h-2v70.06a5,5,0,1,0,2,0Z"/><path class="cls-3" d="M292.72,287.53V217.47h-2v70.06a5,5,0,1,0,2,0Z"/><path class="cls-3" d="M534.9,287.53V217.47h-2v70.06a5,5,0,1,0,2,0Z"/><path class="cls-3" d="M776.94,287.53V217.47h-2v70.06a5,5,0,1,0,2,0Z"/><path class="cls-3" d="M1018.3,287.53V217.47h-2v70.06a5,5,0,1,0,2,0Z"/><path class="cls-3" d="M171.52,53.22v70.05h-2v-70a5,5,0,1,1,2,0Z"/><path class="cls-3" d="M413.38,53.22v70.05h-2v-70a5,5,0,1,1,2,0Z"/><path class="cls-3" d="M655.24,53.22v70.05h-2v-70a5,5,0,1,1,2,0Z"/><path class="cls-3" d="M897.1,53.22v70.05h-2v-70a5,5,0,1,1,2,0Z"/><path class="cls-3" d="M1139,53.22v70.05h-2v-70a5,5,0,1,1,2,0Z"/><text class="cls-5" transform="translate(27.93 179.94)">2014</text><text class="cls-5" transform="translate(148.75 179.94)">2015</text><text class="cls-5" transform="translate(269.99 179.94)">2016</text><text class="cls-5" transform="translate(391.55 179.94)">2017</text><text class="cls-5" transform="translate(512.14 179.94)">2018</text><text class="cls-5" transform="translate(632.64 179.94)">2019</text><text class="cls-5" transform="translate(752.08 179.94)">2020</text><text class="cls-5" transform="translate(875.01 179.94)">2021</text><text class="cls-5" transform="translate(994.14 179.94)">2022</text><text class="cls-5" transform="translate(1114.56 179.94)">2023</text><text class="cls-6" transform="translate(4.76 317.88)">1</text><text class="cls-6" transform="translate(9.82 313.22) scale(0.58)">st</text><text class="cls-6" transform="translate(17.44 317.88)"><tspan xml:space="preserve"> December</tspan><tspan x="-1.07" y="19">Founding</tspan></text><text class="cls-6" transform="translate(214.11 317.99)">Learning by providing<tspan x="6.06" y="19">Services &amp; Solutions</tspan></text><text class="cls-6" transform="translate(462.01 317.99)">Incubated Nasscom<tspan x="41.31" y="19">10K/APIS</tspan></text><text class="cls-6" transform="translate(742.42 318.1)">MOU with<tspan x="-4.43" y="19">Meekoroot</tspan></text><text class="cls-6" transform="translate(140.58 16.57)">30</text><text class="cls-6" transform="translate(158.01 11.91) scale(0.58)">th</text><text class="cls-6" transform="translate(166.57 16.57)"><tspan xml:space="preserve"> May</tspan><tspan x="-53.17" y="19">First Work Order</tspan></text><text class="cls-6" transform="translate(346.66 19.71)">Product Building &amp;<tspan x="-5.15" y="19">Startup Recognition</tspan></text><text class="cls-6" transform="translate(589.3 22.18)">GAIL Investment &amp;<tspan x="6.82" y="19">Products launch</tspan></text><text class="cls-6" transform="translate(841.64 22.18)">Accrediated by<tspan x="31.52" y="19">CGWA</tspan></text></g></g></svg>