<svg width="17" height="16" viewBox="0 0 17 16" fill="none" xmlns="http://www.w3.org/2000/svg">
<path d="M16.1421 6.63062C16.1421 7.33405 15.8531 8.00868 15.3385 8.50608C14.824 9.00348 14.1261 9.28292 13.3984 9.28292H2.97208C2.26925 9.27969 1.5945 9.01585 1.08699 8.54583C0.579484 8.07581 0.277918 7.43545 0.244487 6.7568C0.211056 6.07816 0.448311 5.41299 0.90732 4.89848C1.36633 4.38397 2.01209 4.05935 2.71142 3.99157C2.70593 3.89874 2.6977 3.80591 2.6977 3.71308C2.69728 2.94165 2.94555 2.18927 3.408 1.56057C3.87044 0.931873 4.52407 0.458108 5.27798 0.205165C6.03189 -0.047778 6.84861 -0.0673252 7.61454 0.149242C8.38048 0.365809 9.05756 0.807725 9.55163 1.41353C9.95878 1.05612 10.4779 0.840639 11.0264 0.801378C11.5749 0.762117 12.1212 0.901336 12.5784 1.19687C13.0355 1.49241 13.3773 1.92729 13.5493 2.43228C13.7212 2.93727 13.7135 3.48335 13.5273 3.98362C14.2315 4.01564 14.8959 4.30844 15.3827 4.80127C15.8696 5.29411 16.1415 5.94917 16.1421 6.63062Z" fill="#99DB5E"/>
<path d="M9.48386 14.0306L8.42696 15.2721C8.39762 15.3067 8.36072 15.3345 8.31892 15.3536C8.27712 15.3727 8.23147 15.3826 8.18523 15.3826C8.139 15.3826 8.09334 15.3727 8.05154 15.3536C8.00975 15.3345 7.97285 15.3067 7.94351 15.2721L6.88661 14.0306C6.84837 13.9858 6.82401 13.9315 6.81633 13.8739C6.80866 13.8163 6.81798 13.7578 6.84322 13.7052C6.86846 13.6525 6.9086 13.6078 6.959 13.5762C7.00939 13.5446 7.068 13.5274 7.12806 13.5267H7.3621V10.8744C7.3621 10.804 7.39101 10.7366 7.44247 10.6868C7.49392 10.6371 7.56371 10.6091 7.63648 10.6091H8.73399C8.77002 10.6091 8.8057 10.616 8.83898 10.6293C8.87227 10.6426 8.90252 10.6622 8.928 10.6868C8.95348 10.7114 8.97369 10.7407 8.98748 10.7729C9.00126 10.805 9.00836 10.8395 9.00836 10.8744V13.5267H9.24241C9.30246 13.5274 9.36107 13.5446 9.41147 13.5762C9.46187 13.6078 9.502 13.6525 9.52725 13.7052C9.55249 13.7578 9.56181 13.8163 9.55413 13.8739C9.54645 13.9315 9.52209 13.9858 9.48386 14.0306Z" fill="#99DB5E"/>
<path d="M4.81946 13.7653L3.76256 15.0069C3.73322 15.0414 3.69632 15.0692 3.65452 15.0884C3.61273 15.1075 3.56707 15.1174 3.52083 15.1174C3.4746 15.1174 3.42894 15.1075 3.38715 15.0884C3.34535 15.0692 3.30845 15.0414 3.27911 15.0069L2.22221 13.7653C2.18398 13.7206 2.15961 13.6663 2.15194 13.6087C2.14426 13.5511 2.15358 13.4926 2.17882 13.4399C2.20406 13.3872 2.2442 13.3425 2.2946 13.3109C2.345 13.2793 2.40361 13.2622 2.46366 13.2614H2.69771V10.6091C2.69771 10.5388 2.72661 10.4713 2.77807 10.4216C2.82952 10.3718 2.89931 10.3439 2.97208 10.3439H4.06959C4.14236 10.3439 4.21214 10.3718 4.2636 10.4216C4.31506 10.4713 4.34396 10.5388 4.34396 10.6091V13.2614H4.57801C4.63806 13.2622 4.69667 13.2793 4.74707 13.3109C4.79747 13.3425 4.83761 13.3872 4.86285 13.4399C4.88809 13.4926 4.89741 13.5511 4.88973 13.6087C4.88206 13.6663 4.85769 13.7206 4.81946 13.7653Z" fill="#99DB5E"/>
<path d="M14.1485 13.7653L13.0914 15.0069C13.062 15.0413 13.0251 15.0691 12.9833 15.0881C12.9416 15.1072 12.8959 15.117 12.8498 15.117C12.8036 15.117 12.758 15.1072 12.7162 15.0881C12.6744 15.0691 12.6376 15.0413 12.6082 15.0069L11.5513 13.7653C11.513 13.7206 11.4887 13.6663 11.481 13.6087C11.4733 13.5511 11.4827 13.4926 11.5079 13.4399C11.5331 13.3872 11.5733 13.3425 11.6237 13.3109C11.6741 13.2793 11.7327 13.2622 11.7927 13.2614H12.0265V10.6091C12.0265 10.5388 12.0554 10.4713 12.1069 10.4216C12.1583 10.3718 12.2281 10.3439 12.3009 10.3439H13.3984C13.4712 10.3439 13.5409 10.3718 13.5924 10.4216C13.6439 10.4713 13.6728 10.5388 13.6728 10.6091V13.2614H13.9065C13.9666 13.2622 14.0252 13.2793 14.0756 13.3109C14.126 13.3425 14.1662 13.3871 14.1915 13.4398C14.2168 13.4925 14.2261 13.551 14.2186 13.6086C14.211 13.6662 14.1867 13.7205 14.1485 13.7653Z" fill="#99DB5E"/>
<path d="M5.71584 4.2436C5.86138 4.2436 6.00095 4.29948 6.10386 4.39896C6.20678 4.49845 6.26459 4.63337 6.26459 4.77406C6.26459 4.8444 6.2935 4.91186 6.34495 4.9616C6.39641 5.01134 6.4662 5.03929 6.53897 5.03929C6.61174 5.03929 6.68152 5.01134 6.73298 4.9616C6.78444 4.91186 6.81334 4.8444 6.81334 4.77406C6.81334 4.49268 6.69771 4.22283 6.49189 4.02387C6.28607 3.82491 6.00691 3.71313 5.71584 3.71313C5.42476 3.71313 5.14561 3.82491 4.93978 4.02387C4.73396 4.22283 4.61833 4.49268 4.61833 4.77406V6.36544C4.61833 6.64681 4.73396 6.91666 4.93978 7.11562C5.14561 7.31459 5.42476 7.42636 5.71584 7.42636C6.00691 7.42636 6.28607 7.31459 6.49189 7.11562C6.69771 6.91666 6.81334 6.64681 6.81334 6.36544C6.81334 6.2951 6.78444 6.22763 6.73298 6.17789C6.68152 6.12815 6.61174 6.10021 6.53897 6.10021C6.4662 6.10021 6.39641 6.12815 6.34495 6.17789C6.2935 6.22763 6.26459 6.2951 6.26459 6.36544C6.26459 6.50613 6.20678 6.64105 6.10386 6.74053C6.00095 6.84001 5.86138 6.8959 5.71584 6.8959C5.5703 6.8959 5.43072 6.84001 5.32781 6.74053C5.2249 6.64105 5.16708 6.50613 5.16708 6.36544V4.77406C5.16708 4.63337 5.2249 4.49845 5.32781 4.39896C5.43072 4.29948 5.5703 4.2436 5.71584 4.2436Z" fill="#E8FFD4"/>
<path d="M8.4596 3.71313C8.16852 3.71313 7.88937 3.82491 7.68354 4.02387C7.47772 4.22283 7.36209 4.49268 7.36209 4.77406V6.36544C7.36209 6.64681 7.47772 6.91666 7.68354 7.11562C7.88937 7.31459 8.16852 7.42636 8.4596 7.42636C8.75067 7.42636 9.02983 7.31459 9.23565 7.11562C9.44147 6.91666 9.5571 6.64681 9.5571 6.36544V4.77406C9.5571 4.49268 9.44147 4.22283 9.23565 4.02387C9.02983 3.82491 8.75067 3.71313 8.4596 3.71313ZM9.00835 6.36544C9.00835 6.50613 8.95053 6.64105 8.84762 6.74053C8.74471 6.84001 8.60513 6.8959 8.4596 6.8959C8.31406 6.8959 8.17448 6.84001 8.07157 6.74053C7.96866 6.64105 7.91084 6.50613 7.91084 6.36544V4.77406C7.91084 4.63337 7.96866 4.49845 8.07157 4.39896C8.17448 4.29948 8.31406 4.2436 8.4596 4.2436C8.60513 4.2436 8.74471 4.29948 8.84762 4.39896C8.95053 4.49845 9.00835 4.63337 9.00835 4.77406V6.36544Z" fill="#E8FFD4"/>
<path d="M11.4778 6.89589H10.8387C10.8961 6.84285 10.9611 6.7898 11.0253 6.73516C11.3491 6.46516 11.7521 6.12938 11.7521 5.56974C11.7521 5.35871 11.6654 5.15632 11.511 5.0071C11.3567 4.85788 11.1473 4.77405 10.929 4.77405C10.7561 4.77369 10.5871 4.82337 10.4437 4.91668C10.3003 5.00999 10.189 5.14266 10.1243 5.29762C10.0986 5.36229 10.1004 5.43412 10.1293 5.49753C10.1581 5.56094 10.2116 5.6108 10.2782 5.63631C10.3453 5.66209 10.4202 5.66146 10.4869 5.63454C10.5535 5.60763 10.6067 5.55657 10.6349 5.49229C10.6594 5.43655 10.7004 5.38902 10.7527 5.35562C10.805 5.32223 10.8663 5.30446 10.929 5.30451C11.0018 5.30451 11.0716 5.33245 11.123 5.38219C11.1745 5.43194 11.2034 5.4994 11.2034 5.56974C11.2034 5.88616 10.943 6.10339 10.667 6.33334C10.391 6.56329 10.1059 6.80121 10.1059 7.16112C10.1059 7.23147 10.1348 7.29893 10.1862 7.34867C10.2377 7.39841 10.3075 7.42635 10.3803 7.42635H11.4778C11.5505 7.42635 11.6203 7.39841 11.6718 7.34867C11.7232 7.29893 11.7521 7.23147 11.7521 7.16112C11.7521 7.09078 11.7232 7.02332 11.6718 6.97358C11.6203 6.92384 11.5505 6.89589 11.4778 6.89589Z" fill="#E8FFD4"/>
</svg>
