<svg width="16" height="20" viewBox="0 0 16 20" fill="none" xmlns="http://www.w3.org/2000/svg">
<path d="M13.0419 19.2612V2.3843C13.0419 1.97625 12.6997 1.64551 12.2776 1.64551H1.60379C1.18167 1.64551 0.839523 1.97629 0.839523 2.3843V19.2612C0.839523 19.6693 1.18171 20 1.60379 20H12.2776C12.6997 20 13.0419 19.6692 13.0419 19.2612Z" fill="#FFC250"/>
<path d="M14.7834 1.64551H12.2255C12.6477 1.64551 12.9898 1.97629 12.9898 2.3843V19.2612C12.9898 19.6693 12.6477 20 12.2255 20H14.7834C15.2055 20 15.5477 19.6692 15.5477 19.2612V2.38434C15.5477 1.97629 15.2055 1.64551 14.7834 1.64551Z" fill="#FFC250"/>
<path d="M2.08871 18.5282V3.11697C2.08871 2.97111 2.21103 2.85291 2.36188 2.85291H14.0254C14.1762 2.85291 14.2985 2.97115 14.2985 3.11697V18.5282C14.2985 18.6741 14.1762 18.7923 14.0254 18.7923H2.36188C2.21099 18.7923 2.08871 18.6741 2.08871 18.5282Z" fill="#F5F5F5"/>
<path d="M9.81724 0.919453V0.530508C9.81724 0.237539 9.57155 0 9.26844 0H7.11877C6.81566 0 6.56997 0.237539 6.56997 0.530508V0.919453C6.56997 1.03926 6.46947 1.13641 6.34554 1.13641H5.45087C5.15326 1.13641 4.91197 1.36965 4.91197 1.65734V2.85305H11.4752V1.65734C11.4752 1.36965 11.234 1.13641 10.9363 1.13641H10.0417C9.91774 1.13641 9.81724 1.03926 9.81724 0.919453Z" fill="#C2D0DA"/>
<path d="M3.67772 7.14029V4.81458C3.67772 4.55693 3.89383 4.34802 4.16037 4.34802H6.56627C6.83281 4.34802 7.04892 4.55693 7.04892 4.81458V7.14029C7.04892 7.39794 6.83281 7.60685 6.56627 7.60685H4.16037C3.89379 7.60685 3.67772 7.39794 3.67772 7.14029Z" fill="#66B49D"/>
<path d="M3.67772 11.9855V9.6598C3.67772 9.40214 3.89383 9.19324 4.16037 9.19324H6.56627C6.83281 9.19324 7.04892 9.40214 7.04892 9.6598V11.9855C7.04892 12.2432 6.83281 12.4521 6.56627 12.4521H4.16037C3.89379 12.4521 3.67772 12.2432 3.67772 11.9855Z" fill="#66B49D"/>
<path d="M3.67772 16.831V14.5053C3.67772 14.2476 3.89383 14.0387 4.16037 14.0387H6.56627C6.83281 14.0387 7.04892 14.2476 7.04892 14.5053V16.831C7.04892 17.0886 6.83281 17.2975 6.56627 17.2975H4.16037C3.89379 17.2975 3.67772 17.0887 3.67772 16.831Z" fill="#66B49D"/>
<path d="M5.15965 6.81037C5.15929 6.81037 5.15896 6.81037 5.1586 6.81037C5.02076 6.81006 4.89004 6.74552 4.80886 6.63783L4.44428 6.15384C4.34277 6.01908 4.37348 5.83029 4.5129 5.73216C4.65231 5.63408 4.84761 5.66377 4.94908 5.79849L5.16046 6.07916L5.77852 5.26744C5.88076 5.13318 6.07618 5.10451 6.21502 5.2033C6.35391 5.30209 6.38361 5.49103 6.28138 5.62529L5.50907 6.63955C5.42765 6.74654 5.29704 6.81037 5.15965 6.81037Z" fill="#F6F9F9"/>
<path d="M5.15961 11.761C5.15921 11.761 5.15884 11.761 5.15848 11.761C5.02064 11.7607 4.88992 11.6962 4.80878 11.5884L4.44428 11.1045C4.34277 10.9698 4.37348 10.781 4.5129 10.6828C4.65231 10.5848 4.84761 10.6144 4.94908 10.7492L5.16046 11.0298L5.77852 10.2181C5.88076 10.0839 6.07618 10.0552 6.21502 10.154C6.35391 10.2528 6.38361 10.4417 6.28138 10.576L5.50907 11.5902C5.42765 11.6973 5.29704 11.761 5.15961 11.761Z" fill="#F6F9F9"/>
<path d="M5.15961 16.501C5.15925 16.501 5.15888 16.501 5.15856 16.501C5.02076 16.5007 4.89 16.4362 4.80886 16.3285L4.44428 15.8445C4.34277 15.7097 4.37353 15.521 4.51294 15.4228C4.65243 15.3247 4.84765 15.3545 4.94912 15.4892L5.16046 15.7698L5.77856 14.9581C5.8808 14.8239 6.07622 14.7952 6.21507 14.894C6.35395 14.9927 6.38366 15.1817 6.28142 15.316L5.50911 16.3302C5.42761 16.4372 5.29704 16.501 5.15961 16.501Z" fill="#F6F9F9"/>
<path d="M12.4633 5.64876H8.60362C8.43119 5.64876 8.29141 5.51364 8.29141 5.34696C8.29141 5.18028 8.43119 5.04517 8.60362 5.04517H12.4633C12.6358 5.04517 12.7755 5.18028 12.7755 5.34696C12.7755 5.51364 12.6358 5.64876 12.4633 5.64876Z" fill="#DDEAFB"/>
<path d="M10.5335 6.90987H8.60365C8.43122 6.90987 8.29144 6.77475 8.29144 6.60807C8.29144 6.44139 8.43122 6.30627 8.60365 6.30627H10.5335C10.7059 6.30627 10.8457 6.44139 10.8457 6.60807C10.8457 6.77475 10.7059 6.90987 10.5335 6.90987Z" fill="#DDEAFB"/>
<path d="M11.1933 10.4939H8.60365C8.43122 10.4939 8.29144 10.3587 8.29144 10.1921C8.29144 10.0254 8.43122 9.89026 8.60365 9.89026H11.1933C11.3658 9.89026 11.5055 10.0254 11.5055 10.1921C11.5055 10.3587 11.3658 10.4939 11.1933 10.4939Z" fill="#DDEAFB"/>
<path d="M10.5335 11.755H8.60365C8.43122 11.755 8.29144 11.6198 8.29144 11.4532C8.29144 11.2865 8.43122 11.1514 8.60365 11.1514H10.5335C10.7059 11.1514 10.8457 11.2865 10.8457 11.4532C10.8457 11.6198 10.7059 11.755 10.5335 11.755Z" fill="#DDEAFB"/>
</svg>
