<svg width="16" height="16" viewBox="0 0 16 16" fill="none" xmlns="http://www.w3.org/2000/svg">
<g clip-path="url(#clip0_1583_69)">
<circle cx="7.87457" cy="8.27744" r="4.8115" fill="#99DB5E"/>
<path d="M6.41655 7.44435C6.51322 7.44435 6.60593 7.47946 6.67429 7.54196C6.74265 7.60446 6.78105 7.68923 6.78105 7.77761C6.78105 7.82181 6.80026 7.86419 6.83443 7.89544C6.86861 7.92669 6.91497 7.94424 6.96331 7.94424C7.01164 7.94424 7.058 7.92669 7.09218 7.89544C7.12636 7.86419 7.14556 7.82181 7.14556 7.77761C7.14556 7.60084 7.06875 7.4313 6.93204 7.30631C6.79532 7.18131 6.60989 7.11108 6.41655 7.11108C6.2232 7.11108 6.03777 7.18131 5.90105 7.30631C5.76434 7.4313 5.68753 7.60084 5.68753 7.77761V8.7774C5.68753 8.95418 5.76434 9.12371 5.90105 9.24871C6.03777 9.37371 6.2232 9.44393 6.41655 9.44393C6.60989 9.44393 6.79532 9.37371 6.93204 9.24871C7.06875 9.12371 7.14556 8.95418 7.14556 8.7774C7.14556 8.73321 7.12636 8.69083 7.09218 8.65958C7.058 8.62833 7.01164 8.61077 6.96331 8.61077C6.91497 8.61077 6.86861 8.62833 6.83443 8.65958C6.80026 8.69083 6.78105 8.73321 6.78105 8.7774C6.78105 8.86579 6.74265 8.95056 6.67429 9.01306C6.60593 9.07556 6.51322 9.11067 6.41655 9.11067C6.31987 9.11067 6.22716 9.07556 6.1588 9.01306C6.09044 8.95056 6.05204 8.86579 6.05204 8.7774V7.77761C6.05204 7.68923 6.09044 7.60446 6.1588 7.54196C6.22716 7.47946 6.31987 7.44435 6.41655 7.44435Z" fill="#E8FFD4"/>
<path d="M8.09327 7.11108C7.91926 7.11108 7.75237 7.18131 7.62933 7.30631C7.50628 7.4313 7.43716 7.60084 7.43716 7.77761V8.77741C7.43716 8.95418 7.50628 9.12371 7.62933 9.24871C7.75237 9.37371 7.91926 9.44393 8.09327 9.44393C8.26728 9.44393 8.43417 9.37371 8.55721 9.24871C8.68026 9.12371 8.74938 8.95418 8.74938 8.77741V7.77761C8.74938 7.60084 8.68026 7.4313 8.55721 7.30631C8.43417 7.18131 8.26728 7.11108 8.09327 7.11108ZM8.42133 8.77741C8.42133 8.86579 8.38676 8.95056 8.32524 9.01306C8.26372 9.07556 8.18028 9.11067 8.09327 9.11067C8.00626 9.11067 7.92282 9.07556 7.8613 9.01306C7.79978 8.95056 7.76521 8.86579 7.76521 8.77741V7.77761C7.76521 7.68923 7.79978 7.60446 7.8613 7.54196C7.92282 7.47946 8.00626 7.44435 8.09327 7.44435C8.18028 7.44435 8.26372 7.47946 8.32524 7.54196C8.38676 7.60446 8.42133 7.68923 8.42133 7.77761V8.77741Z" fill="#E8FFD4"/>
<path d="M10.013 9.09392H9.56025C9.60088 9.05893 9.64695 9.02394 9.69244 8.9879C9.92184 8.80978 10.2074 8.58828 10.2074 8.21911C10.2074 8.0799 10.146 7.94639 10.0366 7.84795C9.92722 7.74952 9.77888 7.69422 9.62421 7.69422C9.50172 7.69398 9.38195 7.72675 9.28033 7.7883C9.17871 7.84986 9.09989 7.93738 9.05402 8.03959C9.03587 8.08226 9.03713 8.12964 9.05755 8.17147C9.07797 8.2133 9.11589 8.24619 9.16308 8.26302C9.21065 8.28003 9.26372 8.27961 9.31095 8.26185C9.35817 8.2441 9.39581 8.21042 9.4158 8.16802C9.4332 8.13124 9.46224 8.09989 9.4993 8.07786C9.53635 8.05583 9.57979 8.04411 9.62421 8.04414C9.67576 8.04414 9.72521 8.06258 9.76167 8.09539C9.79813 8.1282 9.81861 8.1727 9.81861 8.21911C9.81861 8.42784 9.63412 8.57113 9.43855 8.72283C9.24298 8.87452 9.04099 9.03146 9.04099 9.26889C9.04099 9.31529 9.06147 9.35979 9.09793 9.39261C9.13439 9.42542 9.18384 9.44385 9.2354 9.44385H10.013C10.0646 9.44385 10.114 9.42542 10.1505 9.39261C10.1869 9.35979 10.2074 9.31529 10.2074 9.26889C10.2074 9.22248 10.1869 9.17798 10.1505 9.14517C10.114 9.11236 10.0646 9.09392 10.013 9.09392Z" fill="#E8FFD4"/>
<path d="M11.0848 1.78149C9.98933 1.20301 8.75407 0.936904 7.51575 1.01262L9.68449 3.16659L10.4416 2.41468C12.2004 3.24008 13.4812 4.88525 13.7943 6.8583C13.8284 7.0901 14.0447 7.24839 14.2838 7.20882C14.5172 7.1749 14.6766 6.95441 14.6367 6.72262C14.2952 4.5743 12.9518 2.76519 11.0848 1.78149Z" fill="#99DB5E"/>
<path d="M6.30231 15.3243C7.51015 15.5995 8.77219 15.5368 9.94871 15.1432L7.29639 13.6239L6.75973 14.5462C4.84714 14.2041 3.18423 12.9465 2.37116 11.1217C2.27818 10.9067 2.02827 10.8097 1.80759 10.9098C1.59094 11.003 1.49406 11.2572 1.59254 11.4708C2.47846 13.4575 4.24428 14.8573 6.30231 15.3243Z" fill="#99DB5E"/>
</g>
<defs>
<clipPath id="clip0_1583_69">
<rect width="16" height="16" fill="white"/>
</clipPath>
</defs>
</svg>
