<svg width="16" height="13" viewBox="0 0 16 13" fill="none" xmlns="http://www.w3.org/2000/svg">
<path d="M15.9535 8.97075V6.89962L14.4775 6.07117H4.16283C1.60627 6.79223 2.25697 10.1828 5.70627 10.4436H14.7738L15.9535 8.97075Z" fill="#FF7627"/>
<path d="M4.16284 6.07117H1.59041L0.241379 6.89965V8.97078L1.20948 10.4436H5.70628C4.88063 9.11317 4.35507 7.59962 4.16284 6.07117Z" fill="#FF7627"/>
<path d="M15.9535 9.72256V8.97083C14.6441 8.97083 14.6441 9.5845 13.3348 9.5845C12.0252 9.5845 12.0252 8.97083 10.7158 8.97083C9.40645 8.97083 9.40645 9.5845 8.09712 9.5845C6.78777 9.5845 6.78777 8.97083 5.47876 8.97083C5.27867 8.97083 5.10931 8.98521 4.96102 9.00948C2.19348 10.5817 3.46315 12.6529 7.55558 12.6529H12.9222C14.5962 12.6529 15.9535 11.3408 15.9535 9.72256Z" fill="#78CBED"/>
<path d="M4.96103 9.00948C4.13897 9.1441 3.96935 9.5845 2.86009 9.5845C1.55073 9.5845 1.55073 8.97083 0.241409 8.97083V9.72256C0.241379 11.3408 1.59867 12.6529 3.27271 12.6529H7.55558C6.48228 11.6968 5.58022 10.4571 4.96103 9.00948Z" fill="#78CBED"/>
<path d="M8.09714 7.51324C9.40649 7.51324 9.40649 6.89957 10.7158 6.89957C12.0252 6.89957 12.0252 7.51324 13.3348 7.51324C14.6442 7.51324 14.6442 6.89957 15.9535 6.89957V0.910153C15.9535 0.239105 15.2279 -0.199993 14.6029 0.0918194C14.5683 0.108076 14.5334 0.124035 14.4982 0.139995C14.0846 0.325014 13.7843 0.688319 13.6922 1.11971C13.6748 1.20194 13.6551 1.28354 13.6335 1.36456L13.0809 1.95952L4.48614 1.97307C1.84433 2.72662 1.74911 6.07112 4.34906 7.12407C4.62596 7.00253 4.94253 6.8996 5.47874 6.8996C6.78779 6.8996 6.78779 7.51324 8.09714 7.51324Z" fill="#C75A1B"/>
<path d="M4.48614 1.97307L3.35207 1.97485L2.56137 1.36456C2.5398 1.28354 2.5201 1.20194 2.50263 1.1197C2.41057 0.68829 2.11029 0.325014 1.69671 0.139995C1.66148 0.124035 1.62656 0.108076 1.59198 0.0918194C0.96699 -0.199993 0.241379 0.239105 0.241379 0.910153V6.8996C1.55073 6.8996 1.55073 7.51327 2.86006 7.51327C3.63317 7.51327 3.94984 7.29933 4.34905 7.12407C3.93781 5.32063 4.01195 3.54109 4.48614 1.97307Z" fill="#C75A1B"/>
<path d="M13.6335 1.36454C13.5418 1.37222 13.4427 1.37649 13.3348 1.37649C12.0252 1.37649 12.0252 0.762817 10.7158 0.762817C9.40645 0.762817 9.40645 1.37649 8.09713 1.37649C6.78777 1.37649 6.78777 0.762817 5.47876 0.762817C5.26492 0.762817 5.08617 0.779252 4.9308 0.806662C3.22401 1.48628 3.01993 2.56997 4.11373 3.95425C5.14282 4.92236 6.54801 5.51877 8.09746 5.51877C10.764 5.5188 13.0038 3.75264 13.6335 1.36454Z" fill="#78CBED"/>
<path d="M2.86005 1.37647C2.75182 1.37647 2.6531 1.37217 2.56137 1.36452C2.82519 2.36499 3.37174 3.25621 4.11371 3.95422C4.20531 2.82776 4.48589 1.76072 4.93077 0.806641C4.13464 0.946925 3.95558 1.37647 2.86005 1.37647Z" fill="#78CBED"/>
</svg>
