<svg width="17" height="14" viewBox="0 0 17 14" fill="none" xmlns="http://www.w3.org/2000/svg">
<path d="M10.1165 1.10177L15.7576 9.72937C15.9956 10.0955 16.1301 10.5192 16.1468 10.9556C16.1635 11.392 16.0618 11.8248 15.8524 12.208C15.6431 12.5912 15.3338 12.9107 14.9576 13.1324C14.5814 13.3541 14.1521 13.4698 13.7154 13.4673H2.43319C1.99649 13.4698 1.56725 13.3541 1.19101 13.1324C0.814771 12.9107 0.505561 12.5912 0.296184 12.208C0.0868064 11.8248 -0.0149289 11.392 0.0017696 10.9556C0.0184682 10.5192 0.152978 10.0955 0.39103 9.72937L6.03215 1.10177C6.25456 0.763252 6.55763 0.485333 6.9141 0.293012C7.27057 0.10069 7.66926 0 8.07431 0C8.47935 0 8.87804 0.10069 9.23451 0.293012C9.59098 0.485333 9.89406 0.763252 10.1165 1.10177Z" fill="#D8415E"/>
<path d="M8.0743 8.61914C7.93143 8.61914 7.79441 8.56238 7.69339 8.46136C7.59237 8.36034 7.53561 8.22332 7.53561 8.08045V2.69359C7.53561 2.55072 7.59237 2.41371 7.69339 2.31268C7.79441 2.21166 7.93143 2.15491 8.0743 2.15491C8.21717 2.15491 8.35419 2.21166 8.45521 2.31268C8.55623 2.41371 8.61299 2.55072 8.61299 2.69359V8.08045C8.61299 8.22332 8.55623 8.36034 8.45521 8.46136C8.35419 8.56238 8.21717 8.61914 8.0743 8.61914Z" fill="#FFECF0"/>
<path d="M8.0743 11.3126C7.93143 11.3126 7.79441 11.2558 7.69339 11.1548C7.59237 11.0538 7.53561 10.9168 7.53561 10.7739V10.2352C7.53561 10.0924 7.59237 9.95533 7.69339 9.85431C7.79441 9.75329 7.93143 9.69653 8.0743 9.69653C8.21717 9.69653 8.35419 9.75329 8.45521 9.85431C8.55623 9.95533 8.61299 10.0924 8.61299 10.2352V10.7739C8.61299 10.9168 8.55623 11.0538 8.45521 11.1548C8.35419 11.2558 8.21717 11.3126 8.0743 11.3126Z" fill="#FFECF0"/>
</svg>
