<svg width="14" height="17" viewBox="0 0 14 17" fill="none" xmlns="http://www.w3.org/2000/svg">
<path d="M12.0698 9.89413C12.1212 10.2078 12.1478 10.5293 12.1478 10.8571C12.1478 14.1352 9.49025 16.7931 6.21181 16.7931C2.93337 16.7931 0.275864 14.1352 0.275864 10.8571C0.275864 9.53829 0.706148 8.32013 1.43341 7.33482L1.43378 7.33411L6.21181 0.241333L9.27369 4.78651" fill="#4696E6"/>
<path d="M7.79663 7.78644C7.79663 7.19613 7.98904 6.65099 8.31462 6.21005L8.31479 6.20971L10.4531 3.0354L12.5914 6.20971L12.5916 6.21005C12.9171 6.65096 13.1095 7.19613 13.1095 7.78644C13.1095 9.25348 11.9203 10.4429 10.4531 10.4429C8.98582 10.4429 7.79663 9.25351 7.79663 7.78644Z" fill="#82BEFA"/>
</svg>
