<svg width="50" height="50" viewBox="0 0 50 50" fill="none" xmlns="http://www.w3.org/2000/svg">
<circle cx="25" cy="25" r="24.25" stroke="white" stroke-width="1.5" stroke-dasharray="3 3"/>
<path fill-rule="evenodd" clip-rule="evenodd" d="M16 18.5714C16 17.1513 17.1513 16 18.5714 16H19.7471C20.4846 16 21.1274 16.5019 21.3063 17.2174L22.2541 21.0087C22.4109 21.636 22.1765 22.2962 21.6592 22.6842L20.5504 23.5158C20.4353 23.6021 20.4102 23.7286 20.4426 23.8169C21.4159 26.4738 23.5262 28.5841 26.1831 29.5574C26.2714 29.5898 26.3979 29.5647 26.4842 29.4496L27.3158 28.3408C27.7038 27.8235 28.364 27.5891 28.9913 27.7459L32.7826 28.6937C33.4981 28.8726 34 29.5154 34 30.2529V31.4286C34 32.8487 32.8487 34 31.4286 34H29.5C22.0442 34 16 27.9558 16 20.5V18.5714Z" fill="white"/>
</svg>
