<svg width="35" height="35" viewBox="0 0 35 35" fill="none" xmlns="http://www.w3.org/2000/svg">
<path d="M31.336 19.1642C31.1254 18.9536 30.8755 18.7865 30.6003 18.6725C30.3252 18.5585 30.0303 18.4999 29.7325 18.4999C29.4347 18.4999 29.1398 18.5585 28.8646 18.6725C28.5895 18.7865 28.3395 18.9536 28.1289 19.1642L24.2471 23.046C24.0768 22.7308 23.8247 22.4672 23.5173 22.2831C23.2099 22.099 22.8585 22.0012 22.5002 21.9999H16.8219C16.3331 21.4083 15.7261 20.9253 15.0397 20.582C14.3533 20.2386 13.6028 20.0425 12.8362 20.0061C12.0696 19.9697 11.3039 20.0939 10.5881 20.3707C9.87227 20.6474 9.2222 21.0707 8.67952 21.6134L6.50005 23.7929L5.85355 23.1464C5.80713 23.1 5.75202 23.0631 5.69136 23.038C5.6307 23.0129 5.56569 22.9999 5.50003 22.9999C5.43437 22.9999 5.36935 23.0129 5.30869 23.038C5.24804 23.0631 5.19293 23.1 5.14651 23.1464L3.14649 25.1464C3.10005 25.1929 3.06321 25.248 3.03807 25.3086C3.01294 25.3693 3 25.4343 3 25.5C3 25.5656 3.01294 25.6306 3.03807 25.6913C3.06321 25.752 3.10005 25.8071 3.14649 25.8535L11.1466 33.8536C11.193 33.9 11.2481 33.9369 11.3088 33.962C11.3694 33.9871 11.4344 34.0001 11.5001 34.0001C11.5658 34.0001 11.6308 33.9871 11.6914 33.962C11.7521 33.9369 11.8072 33.9 11.8536 33.8536L13.8536 31.8535C13.9001 31.8071 13.9369 31.752 13.962 31.6914C13.9872 31.6307 14.0001 31.5657 14.0001 31.5C14.0001 31.4344 13.9872 31.3694 13.962 31.3087C13.9369 31.248 13.9001 31.1929 13.8536 31.1465L13.2072 30.5L13.768 29.9392C14.0499 29.659 14.431 29.5012 14.8285 29.5H22.1362C22.7931 29.5018 23.4439 29.3733 24.0508 29.1219C24.6577 28.8705 25.2087 28.5012 25.6719 28.0354L31.336 22.3713C31.5466 22.1607 31.7137 21.9107 31.8277 21.6356C31.9417 21.3604 32.0003 21.0655 32.0003 20.7677C32.0003 20.4699 31.9417 20.175 31.8277 19.8999C31.7137 19.6247 31.5466 19.3748 31.336 19.1642ZM11.5001 32.793L4.20706 25.5L5.50004 24.207L12.7931 31.5L11.5001 32.793ZM30.629 21.6642L24.9648 27.3283C24.5942 27.701 24.1534 27.9964 23.6679 28.1975C23.1824 28.3986 22.6618 28.5014 22.1362 28.5H14.8285C14.5001 28.4991 14.1748 28.5633 13.8714 28.689C13.568 28.8147 13.2925 28.9993 13.0609 29.2322L12.5001 29.793L7.20709 24.4999L9.38658 22.3205C9.83655 21.8705 10.3766 21.521 10.9714 21.2947C11.5661 21.0684 12.202 20.9705 12.8372 21.0075C13.4724 21.0446 14.0927 21.2156 14.6571 21.5094C15.2215 21.8032 15.7173 22.2132 16.112 22.7123L16.1889 22.8097C16.2357 22.869 16.2953 22.9169 16.3632 22.9499C16.4312 22.9828 16.5057 22.9999 16.5812 22.9999H22.5002C22.7654 22.9999 23.0198 23.1053 23.2073 23.2928C23.3949 23.4804 23.5002 23.7347 23.5002 23.9999C23.5002 24.2652 23.3949 24.5195 23.2073 24.7071C23.0198 24.8946 22.7654 24.9999 22.5002 24.9999H15.5001C15.3675 24.9999 15.2404 25.0526 15.1466 25.1464C15.0528 25.2402 15.0001 25.3673 15.0001 25.5C15.0001 25.6326 15.0528 25.7597 15.1466 25.8535C15.2404 25.9473 15.3675 26 15.5001 26H22.5002C22.9893 25.9984 23.4608 25.8173 23.8252 25.4911C24.1896 25.1649 24.4215 24.7162 24.477 24.2303L28.836 19.8712C29.0775 19.6406 29.3986 19.512 29.7325 19.512C30.0664 19.512 30.3875 19.6406 30.629 19.8712C30.7467 19.9889 30.8401 20.1287 30.9038 20.2825C30.9675 20.4363 31.0003 20.6012 31.0003 20.7677C31.0003 20.9342 30.9675 21.0991 30.9038 21.2529C30.8401 21.4067 30.7467 21.5465 30.629 21.6642Z" fill="white"/>
<path d="M11.372 12.1886C11.365 12.1984 11.3545 12.204 11.3482 12.2144C11.3465 12.2171 11.3466 12.2202 11.345 12.223C9.82433 14.1544 8.99827 16.5416 9 18.9998C9 19.0816 9.0005 19.1629 9.00611 19.2445C9.0149 19.3707 9.0712 19.4889 9.16367 19.5752C9.25613 19.6616 9.37789 19.7096 9.5044 19.7098C9.51612 19.7098 9.52784 19.7093 9.53956 19.7086C9.60506 19.704 9.66903 19.6866 9.72781 19.6574C9.78659 19.6281 9.83902 19.5875 9.88212 19.538C9.92522 19.4885 9.95814 19.4309 9.979 19.3687C9.99985 19.3064 10.0082 19.2406 10.0037 19.1751C9.99951 19.1165 10 19.0582 10 18.9998C10.0005 16.8982 10.6674 14.8509 11.905 13.1523C13.319 14.0756 14.1467 14.9676 14.1807 15.6321C14.1284 16.2642 13.9288 16.8753 13.5977 17.4163C13.4505 17.7203 13.296 18.0401 13.1534 18.3826C13.1281 18.4433 13.1151 18.5083 13.115 18.5739C13.1149 18.6396 13.1277 18.7047 13.1527 18.7654C13.2033 18.888 13.3005 18.9855 13.4229 19.0365C13.4835 19.0617 13.5485 19.0747 13.6142 19.0748C13.6799 19.0749 13.7449 19.0621 13.8056 19.0371C13.9283 18.9865 14.0258 18.8894 14.0767 18.7669C14.2117 18.4427 14.3585 18.14 14.4979 17.8521C14.913 17.164 15.1474 16.3821 15.1793 15.5791C15.1276 14.5706 14.2318 13.4923 12.5341 12.3701C13.2997 11.5035 14.2089 10.7755 15.2219 10.2179C16.1958 12.1156 17.3676 13.1172 18.6471 13.1172C18.7402 13.1172 18.8332 13.112 18.9257 13.1016C19.8121 13.0451 20.6582 12.7105 21.3434 12.1453C21.7836 11.8049 21.966 11.6643 22.9752 12.0168C23.9179 12.345 24.9116 11.9336 25.8119 10.8659C26.5911 11.4241 27.2861 12.0914 27.8756 12.8473C27.2737 13.4901 26.8001 14.2419 26.4802 15.0623C26.0537 15.9934 25.7653 16.5669 25.2351 16.6167C24.8906 16.6382 24.5451 16.6367 24.2009 16.6124C22.8815 16.5474 21.2406 16.4705 20.0685 18.7747C19.8027 19.2939 19.6241 19.8533 19.5399 20.4305C19.5215 20.5618 19.5561 20.6951 19.6359 20.8009C19.7158 20.9068 19.8344 20.9766 19.9657 20.995C19.9889 20.9983 20.0123 20.9999 20.0358 20.9999C20.1562 20.9997 20.2726 20.956 20.3634 20.8769C20.4543 20.7978 20.5135 20.6885 20.5302 20.5692C20.5982 20.1009 20.7436 19.6472 20.9606 19.2266C21.8385 17.5005 22.861 17.5511 24.1532 17.6111C24.544 17.6385 24.9362 17.639 25.3271 17.6126C26.4611 17.5057 26.9331 16.4751 27.3894 15.4786C27.6478 14.8247 28.0098 14.2167 28.4614 13.6779C29.1301 14.7361 29.5924 15.9114 29.8237 17.1417C29.8357 17.2062 29.8603 17.2678 29.8962 17.3229C29.932 17.378 29.9783 17.4254 30.0325 17.4626C30.0866 17.4998 30.1476 17.5259 30.2119 17.5395C30.2762 17.553 30.3425 17.5538 30.4071 17.5418C30.4716 17.5297 30.5332 17.505 30.5882 17.4692C30.6433 17.4333 30.6907 17.3869 30.7278 17.3327C30.7649 17.2785 30.791 17.2175 30.8045 17.1532C30.818 17.0889 30.8188 17.0226 30.8066 16.9581C30.3463 14.5254 29.0781 12.3194 27.2075 10.6975C25.3369 9.07566 22.9735 8.13286 20.5001 8.0219V7.46943C20.5002 7.18941 20.5789 6.91503 20.7275 6.67763C20.876 6.44022 21.0882 6.24935 21.34 6.1268C21.6182 6.45094 21.9631 6.71113 22.3512 6.88956C22.7393 7.06799 23.1614 7.16045 23.5885 7.1606C23.9936 7.15712 24.3951 7.08497 24.776 6.94721C25.4138 6.72398 26.0187 6.41605 26.5744 6.03169C26.815 5.81575 27.111 5.67109 27.4292 5.61391C27.7474 5.55673 28.0752 5.5893 28.3759 5.70796C28.4772 5.73394 28.5841 5.72752 28.6815 5.68959C28.779 5.65167 28.8621 5.58416 28.9191 5.49656C28.9762 5.40895 29.0044 5.30566 28.9997 5.20121C28.995 5.09675 28.9577 4.9964 28.893 4.91425C28.7859 4.778 26.2399 1.58876 23.7892 2.04506C21.4237 2.48599 21.1466 3.92078 21.0312 5.16506C20.621 5.33885 20.2649 5.61951 20.0001 5.97778C19.7353 5.61945 19.3792 5.33873 18.969 5.1649C18.8536 3.92067 18.5765 2.48596 16.211 2.04506C13.7601 1.58632 11.2144 4.77824 11.1072 4.91423C11.0425 4.99638 11.0052 5.09673 11.0005 5.20119C10.9958 5.30564 11.024 5.40893 11.0811 5.49654C11.1382 5.58414 11.2213 5.65165 11.3187 5.68957C11.4161 5.7275 11.523 5.73392 11.6243 5.70794C11.925 5.58921 12.2529 5.5566 12.5711 5.61379C12.8893 5.67097 13.1853 5.81567 13.4258 6.03167C13.9816 6.41603 14.5864 6.72396 15.2242 6.9472C15.6051 7.0851 16.0066 7.15726 16.4117 7.16059C16.8389 7.16042 17.2609 7.06795 17.649 6.88951C18.0371 6.71107 18.3821 6.45087 18.6603 6.12673C18.912 6.2493 19.1243 6.44018 19.2728 6.6776C19.4213 6.91502 19.5001 7.1894 19.5001 7.46943V8.01241C17.9247 8.08305 16.383 8.49271 14.9803 9.21342C13.5776 9.93414 12.3468 10.949 11.372 12.1886ZM23.9723 3.02798C25.0678 2.82217 26.3774 3.77359 27.269 4.62541C26.817 4.71934 26.3921 4.91422 26.0261 5.19548C25.538 5.53498 25.0061 5.80674 24.445 6.00335C24.099 6.15433 23.7178 6.20639 23.344 6.15376C22.9701 6.10113 22.6182 5.94587 22.3273 5.70522L23.6488 5.15056C23.7096 5.12527 23.7647 5.08825 23.8111 5.04161C23.8575 4.99497 23.8942 4.93964 23.9192 4.87878C23.9441 4.81792 23.9568 4.75273 23.9566 4.68695C23.9563 4.62117 23.943 4.5561 23.9176 4.49545C23.8921 4.4348 23.8549 4.37977 23.8081 4.33352C23.7614 4.28728 23.7059 4.25071 23.645 4.22593C23.584 4.20115 23.5188 4.18863 23.453 4.1891C23.3873 4.18957 23.3222 4.20302 23.2617 4.22867L22.0906 4.72022C22.2296 3.86494 22.5807 3.2875 23.9723 3.02798ZM15.5552 6.00335C14.9941 5.80674 14.4623 5.53498 13.9742 5.19548C13.6078 4.91379 13.1823 4.71881 12.7298 4.62518C13.6199 3.77312 14.9256 2.82316 16.0279 3.02799C17.4195 3.28745 17.7706 3.865 17.9096 4.72015L16.7386 4.22867C16.6781 4.20325 16.6131 4.19 16.5475 4.18967C16.4818 4.18935 16.4167 4.20196 16.356 4.22678C16.2952 4.25161 16.2399 4.28816 16.1932 4.33435C16.1466 4.38055 16.1095 4.43548 16.0841 4.49601C16.0586 4.55654 16.0454 4.62149 16.0451 4.68714C16.0447 4.7528 16.0573 4.81787 16.0822 4.87865C16.107 4.93943 16.1435 4.99473 16.1897 5.04138C16.2359 5.08804 16.2909 5.12513 16.3514 5.15056L17.6732 5.70525C17.3821 5.94575 17.0302 6.10091 16.6563 6.15353C16.2825 6.20615 15.9013 6.15417 15.5552 6.00335ZM23.3048 11.0725C21.8898 10.5788 21.3671 10.8633 20.7318 11.354C20.191 11.8056 19.5186 12.0701 18.815 12.1077C17.6304 12.2434 16.6769 10.8697 16.1161 9.78511C17.533 9.18776 19.0686 8.92523 20.6035 9.01791C22.1384 9.1106 23.6313 9.556 24.9661 10.3195C24.5328 10.8074 23.9216 11.288 23.3048 11.0725Z" fill="white"/>
</svg>
