<svg xmlns="http://www.w3.org/2000/svg" viewBox="0 0 30 29.97"><defs><style>.cls-1{fill:#fefdfd;}.cls-2{fill:#fefdfe;}.cls-3{fill:#fefefe;}</style></defs><g id="Layer_2" data-name="Layer 2"><g id="Layer_1-2" data-name="Layer 1"><path class="cls-1" d="M15.1,23.43c1-.35,1.22.24,1.34,1.07.22,1.51.54,3,.87,4.49.13.62,0,.84-.68.9a15.83,15.83,0,0,1-3.3,0c-.45-.06-.51-.22-.44-.63.35-1.75.7-3.5,1-5.26C14,23.09,14.67,23.51,15.1,23.43Z"/><path class="cls-2" d="M5.85,13.57c-1.56-.14-3.3-.31-5-.43-.57,0-.7-.27-.57-.8a20.44,20.44,0,0,1,.93-3.16c.18-.43.36-.51.79-.29,1.61.84,3.24,1.63,4.87,2.43.24.12.46.23.34.58s-.29.92-.42,1.39S6.33,13.62,5.85,13.57Z"/><path class="cls-3" d="M0,15.63c.06-1.7-.31-1.69,1.36-1.5,1.48.16,3,.3,4.46.4.55,0,.78.16.78.78,0,1.51,0,1.51-1.44,1.94s-2.68.76-4,1.17c-.5.15-.78.15-.83-.49C.25,17.06.08,16.2,0,15.63Z"/><path class="cls-3" d="M2.84,23.62a3.53,3.53,0,0,1-.33-.37A16,16,0,0,1,.86,20c-.16-.42,0-.5.34-.59,1.77-.51,3.54-1,5.31-1.53.35-.1.5-.06.67.27.83,1.56.85,1.56-.6,2.67-1.07.83-2.16,1.65-3.24,2.47Z"/><path class="cls-3" d="M7.59,28c1.05-1.7,2.09-3.37,3.12-5.06a.54.54,0,0,1,.77-.27c1.63.59,1.63.58,1.28,2.34-.25,1.24-.53,2.47-.68,3.73-.1.85-.44,1-1.18.72A14.09,14.09,0,0,1,7.59,28Z"/><path class="cls-2" d="M4.41,4.26a.79.79,0,0,1,.65.35C6.24,5.9,7.41,7.21,8.62,8.48c.38.4.32.64,0,1-1,1.14-.95,1.16-2.32.48C5.07,9.39,3.87,8.74,2.62,8.21c-.75-.32-.71-.63-.31-1.2A20.2,20.2,0,0,1,4.17,4.64,1.77,1.77,0,0,0,4.41,4.26Z"/><path class="cls-3" d="M24.65,3.74c-.12.14-.26.32-.41.48C23.12,5.44,22,6.63,20.9,7.88c-.4.45-.71.58-1.17.14a2,2,0,0,0-.66-.4c-.46-.18-.55-.4-.36-.88.66-1.61,1.3-3.23,1.88-4.88.22-.61.46-.62,1-.35a16.15,16.15,0,0,1,2.78,1.77C24.47,3.38,24.71,3.43,24.65,3.74Z"/><path class="cls-3" d="M14.61,3.3c0,.62,0,1.24,0,1.85.11,1-.08,1.47-1.23,1.6-.81.08-1.07-.08-1.31-.77-.55-1.55-1.16-3.09-1.79-4.62-.18-.45-.08-.59.36-.72A20.06,20.06,0,0,1,14,0c.47-.06.64.09.63.57C14.59,1.49,14.61,2.4,14.61,3.3Z"/><path class="cls-3" d="M10.17,22l-.33.56C9,24,8,25.43,7.17,26.91c-.33.57-.58.51-1,.17A26.89,26.89,0,0,1,3.85,25c-.45-.45-.35-.69.12-1,1.36-1,2.7-2,4-3.06.4-.32.67-.38,1,0A11.27,11.27,0,0,0,10.17,22Z"/><path class="cls-3" d="M26.66,24.4c-.1.11-.19.24-.3.36A17.69,17.69,0,0,1,24,27c-.39.3-.61.34-.89-.14-.91-1.52-1.85-3-2.8-4.54a.57.57,0,0,1,.12-.88c1.2-1.06,1.19-1.08,2.51-.08l3.33,2.53C26.39,24,26.65,24.09,26.66,24.4Z"/><path class="cls-3" d="M19.06,22.42c.23,0,.29.25.4.43.94,1.51,1.85,3,2.81,4.54.26.4.22.59-.2.81a15.51,15.51,0,0,1-3.15,1.24c-.36.1-.57.16-.65-.33-.33-1.85-.7-3.69-1.06-5.53,0-.16-.09-.35.09-.43C17.86,22.9,18.43,22.68,19.06,22.42Z"/><path class="cls-3" d="M24.42,13.63c-.33-.09-.82.33-1-.1a6.11,6.11,0,0,1-.52-1.75c-.05-.25.3-.31.49-.4,1.59-.8,3.2-1.58,4.78-2.39.45-.23.59-.1.76.32a19.7,19.7,0,0,1,.9,3.17c.12.52-.08.69-.58.73C27.62,13.33,26,13.49,24.42,13.63Z"/><path class="cls-2" d="M28.69,14.21c.23,0,.45-.05.67-.1.45-.09.65,0,.64.53a22.55,22.55,0,0,1-.35,3.48c-.07.44-.28.44-.59.35l-5.32-1.53c-.38-.1-.45-.28-.4-.63a5.4,5.4,0,0,0,.07-1.06c0-.47.19-.61.63-.64,1.55-.12,3.1-.28,4.65-.42Z"/><path class="cls-3" d="M28.1,7.75c.06.26-.19.29-.34.37l-5,2.49a.51.51,0,0,1-.74-.18C21,9.14,21,9.15,22.16,7.91c1-1.08,2-2.15,3-3.24.24-.27.39-.37.68-.07a15.56,15.56,0,0,1,2.21,3A2,2,0,0,1,28.1,7.75Z"/><path class="cls-3" d="M9,1.26c.3,0,.31.21.38.39q1,2.58,2,5.15c.14.34.06.5-.25.69-1.39.88-1.38.89-2.5-.33C7.69,6.1,6.76,5,5.77,4c-.39-.4-.32-.59.09-.88A16.22,16.22,0,0,1,8.59,1.45Z"/><path class="cls-3" d="M15.55,3.23c0-.88,0-1.75,0-2.63,0-.44.1-.63.61-.57a21,21,0,0,1,3.23.63c.46.14.55.3.37.75-.66,1.65-1.29,3.32-1.9,5-.15.41-.35.57-.78.41a2.54,2.54,0,0,0-.85-.18c-.58,0-.71-.26-.69-.77C15.58,5,15.55,4.11,15.55,3.23Z"/><path class="cls-3" d="M23.19,17.75l5.72,1.63c.35.1.33.28.22.58a16.12,16.12,0,0,1-1.53,3.12c-.21.34-.39.36-.69.13C25.45,22.09,24,21,22.49,19.88c-.28-.21-.4-.43-.15-.72C22.7,18.72,22.64,18,23.19,17.75Z"/><path class="cls-2" d="M9.86,16.73a1.41,1.41,0,0,1-.54-.42,1.11,1.11,0,0,1-.2-.65H10a.56.56,0,0,0,.18.4.66.66,0,0,0,.44.14.64.64,0,0,0,.45-.14.43.43,0,0,0,.16-.35.44.44,0,0,0-.11-.3.68.68,0,0,0-.28-.18,2.93,2.93,0,0,0-.45-.15,6.55,6.55,0,0,1-.65-.23,1.24,1.24,0,0,1-.42-.34,1,1,0,0,1-.18-.62,1.11,1.11,0,0,1,.18-.63,1.16,1.16,0,0,1,.51-.41,1.91,1.91,0,0,1,.74-.14,1.57,1.57,0,0,1,1,.31,1.1,1.1,0,0,1,.44.85h-.9a.45.45,0,0,0-.18-.35.65.65,0,0,0-.43-.13.61.61,0,0,0-.39.12.45.45,0,0,0-.14.35.37.37,0,0,0,.11.27.91.91,0,0,0,.27.18l.45.15a6.25,6.25,0,0,1,.64.23,1.21,1.21,0,0,1,.43.35,1,1,0,0,1,.18.61,1.11,1.11,0,0,1-.66,1,1.56,1.56,0,0,1-.77.17A2.07,2.07,0,0,1,9.86,16.73Z"/><path class="cls-2" d="M15.31,13a1.8,1.8,0,0,1,.76.71,2.21,2.21,0,0,1,.26,1.08,2.13,2.13,0,0,1-.26,1.06,1.8,1.8,0,0,1-.76.71,2.34,2.34,0,0,1-1.12.25H12.77V12.77h1.42A2.34,2.34,0,0,1,15.31,13Zm-.16,2.77a1.33,1.33,0,0,0,.35-1,1.38,1.38,0,0,0-.35-1,1.3,1.3,0,0,0-1-.35h-.58v2.68h.58A1.34,1.34,0,0,0,15.15,15.79Z"/><path class="cls-2" d="M19.77,14a.92.92,0,0,0-.39-.39,1.14,1.14,0,0,0-.57-.13,1.24,1.24,0,0,0-.64.16,1.09,1.09,0,0,0-.43.47,1.41,1.41,0,0,0-.16.69,1.43,1.43,0,0,0,.16.71,1.14,1.14,0,0,0,.45.47,1.29,1.29,0,0,0,.66.16A1.1,1.1,0,0,0,20,15.19H18.6v-.62h2.2v.71a1.92,1.92,0,0,1-.34.79,2.06,2.06,0,0,1-.69.58,2.14,2.14,0,0,1-.95.21,2.08,2.08,0,0,1-1.06-.26,1.91,1.91,0,0,1-.75-.74,2.1,2.1,0,0,1-.27-1.07A2.13,2.13,0,0,1,17,13.72a1.91,1.91,0,0,1,.75-.74,2.07,2.07,0,0,1,1-.26,2.16,2.16,0,0,1,1.2.33,1.76,1.76,0,0,1,.7.94Z"/></g></g></svg>