<svg width="35" height="35" viewBox="0 0 35 35" fill="none" xmlns="http://www.w3.org/2000/svg">
<path d="M32.6017 21.9962L29.478 18.8726H26.1881V15.694H25.2799V18.8726H17.0457V15.694H16.1375V18.8726H7.90324V15.694H6.99505V18.8726H2V21.1431H2.90819V19.7808H10.7572L13.6148 22.6384C13.6999 22.7235 13.7467 22.8375 13.7467 22.9595C13.7467 23.0815 13.6999 23.1955 13.6148 23.2806L10.7572 26.1382H2.90819V22.0513H2V27.0463H14.5098V26.1382H12.0416L14.257 23.9228C14.7882 23.3917 14.7882 22.5274 14.257 21.9963L12.0416 19.7809H19.7024L22.5601 22.6385C22.6451 22.7235 22.692 22.8376 22.692 22.9596C22.692 23.0816 22.6452 23.1956 22.56 23.2806L19.7024 26.1382H17.2343V27.0464H29.478L32.6017 23.9228C33.1328 23.3916 33.1328 22.5274 32.6017 21.9962ZM31.9594 23.2806L29.1018 26.1382H20.9869L23.2022 23.9228C23.4588 23.6662 23.6002 23.3241 23.6002 22.9595C23.6002 22.5949 23.4588 22.2528 23.2022 21.9962L20.9869 19.7808H29.1018L31.9594 22.6384C32.1365 22.8155 32.1365 23.1035 31.9594 23.2806Z" fill="white"/>
<path d="M15.418 26.1382H16.3262V27.0464H15.418V26.1382Z" fill="white"/>
<path d="M30.1158 10.138L27.9779 8L25.734 10.2437L24.6122 9.12186L22.4741 11.2599L25.734 14.5198L30.1158 10.138ZM24.6122 10.4062L25.734 11.5281L27.9779 9.2843L28.8315 10.1379L25.734 13.2354L23.7585 11.2599L24.6122 10.4062Z" fill="white"/>
<path d="M11.8309 10.1382L9.6929 8.00024L7.44907 10.2439L6.32721 9.1221L4.18921 11.26L7.44907 14.5197L11.8309 10.1382ZM6.32721 10.4064L7.44907 11.5282L9.6929 9.28461L10.5465 10.1382L7.44907 13.2354L5.47357 11.26L6.32721 10.4064Z" fill="white"/>
<path d="M20.9735 10.138L18.8355 8L16.5917 10.2437L15.4698 9.12186L13.3318 11.2599L16.5917 14.5198L20.9735 10.138ZM15.4698 10.4062L16.5917 11.5281L18.8355 9.2843L19.6892 10.1379L16.5917 13.2354L14.6162 11.2599L15.4698 10.4062Z" fill="white"/>
<path d="M27.4734 20.689H28.3817V21.5972H27.4734V20.689Z" fill="white"/>
<path d="M25.657 20.689H26.5652V21.5972H25.657V20.689Z" fill="white"/>
</svg>
