<svg width="35" height="35" viewBox="0 0 35 35" fill="none" xmlns="http://www.w3.org/2000/svg">
<path d="M13.5401 19.5663L13.5392 19.565C13.5138 19.5303 13.4878 19.4949 13.4613 19.4588C13.209 19.1153 12.9119 18.7109 12.7446 18.2597L12.7445 18.2592C12.1776 16.724 12.4533 15.2714 13.5249 14.0533L13.5252 14.053C13.881 13.6494 14.2893 13.2796 14.6783 12.9272C14.8269 12.7927 14.9726 12.6607 15.1115 12.5304L15.112 12.5299C15.7997 11.8867 16.2206 11.1653 16.2565 10.2236C16.2936 9.22083 15.8113 8.48231 15.0013 8.2605L13.5401 19.5663ZM13.5401 19.5663C13.7157 19.8051 13.9057 20.035 14.0876 20.2552C14.1209 20.2955 14.1539 20.3355 14.1865 20.3751C14.4009 20.6356 14.6015 20.8863 14.7754 21.1491C15.3749 22.0589 15.4325 23.0875 15.1929 24.199L15.1927 24.1998M13.5401 19.5663L15.1927 24.1998M13.577 8.07478L13.5184 8.07767C12.0046 8.15243 10.5737 8.46698 9.27282 9.2151L9.27273 9.21515C8.09711 9.8908 7.29201 10.8237 7.06656 12.1731L7.06652 12.1734C6.86751 13.3598 6.97803 14.54 7.39514 15.6558L7.39521 15.656C7.68999 16.4458 8.04225 17.2078 8.40173 17.9853C8.51505 18.2304 8.62909 18.4771 8.74227 18.7266C9.30438 19.9648 9.68302 21.2672 9.71377 22.6695C9.72149 23.0156 9.73404 23.3354 9.79307 23.6367L9.79342 23.6384C9.99422 24.6901 10.4674 25.4764 11.3915 25.9068L13.577 8.07478ZM13.577 8.07478C13.5977 8.07545 13.6244 8.07665 13.6571 8.0785C13.7603 8.08436 13.9061 8.09581 14.0691 8.11243C14.4022 8.14639 14.7748 8.19873 15.0013 8.26049L13.577 8.07478ZM15.1927 24.1998C15.0812 24.7227 14.8476 25.1319 14.5172 25.4303C14.1859 25.7296 13.7375 25.9354 13.1691 26.0172C12.4993 26.1137 11.9234 26.1542 11.3916 25.9069L15.1927 24.1998Z" stroke="white" stroke-width="0.75"/>
<path d="M17.253 3.446L17.253 3.44601L17.2534 3.44795C17.2777 3.5745 17.2888 3.6909 17.299 3.79778C17.3033 3.84305 17.3075 3.8866 17.3124 3.9285C17.2882 4.6991 17.114 5.31023 16.6957 5.8247C16.401 6.18604 16.0746 6.31294 15.7974 6.28465C15.52 6.25633 15.2254 6.06574 15.0087 5.65324L15.0087 5.65321C14.791 5.23883 14.7264 4.65212 14.8143 4.0677C14.9023 3.48293 15.1359 2.94661 15.4625 2.62372L15.2867 2.44596L15.4623 2.62386C15.7952 2.2952 16.1359 2.20647 16.41 2.2687C16.6849 2.33109 16.9591 2.56032 17.1262 3.00556L17.1265 3.00642C17.1817 3.15197 17.2261 3.29999 17.253 3.446Z" stroke="white" stroke-width="0.5"/>
<path d="M11.9517 5.77626L12.1587 5.63614C12.0002 5.40193 11.9131 5.10137 11.9171 4.72951L11.9172 4.72951L11.9171 4.72497C11.9139 4.29024 12.022 3.90468 12.2743 3.579L12.2745 3.57873C12.4619 3.33623 12.6687 3.25197 12.8398 3.26034C13.0107 3.2687 13.2052 3.37224 13.3629 3.62791L13.363 3.62803C13.5413 3.91683 13.6113 4.31702 13.5646 4.72027C13.5179 5.12364 13.3584 5.49518 13.1202 5.73223L13.1201 5.73237C12.9421 5.90983 12.7639 5.96637 12.6154 5.95175C12.4668 5.93711 12.3013 5.8465 12.1586 5.63597L11.9517 5.77626ZM11.9517 5.77626C12.3018 6.29276 12.8579 6.34682 13.2966 5.90942C13.8721 5.33664 14.0051 4.19211 13.5757 3.49668L12.0767 3.42588C11.7836 3.80418 11.6636 4.2475 11.6671 4.72682C11.6627 5.13993 11.7597 5.49261 11.9517 5.77626Z" stroke="white" stroke-width="0.5"/>
<path d="M9.70211 4.20798L9.89241 4.3701C10.0092 4.23299 10.1304 4.18487 10.2303 4.18469C10.3298 4.18452 10.4503 4.23176 10.5667 4.36924C10.7656 4.6055 10.8363 4.90088 10.8538 5.25871C10.838 5.60464 10.77 5.89454 10.579 6.13073L10.5785 6.1314C10.4587 6.28067 10.3337 6.3313 10.232 6.33144C10.13 6.33159 10.0036 6.28099 9.88174 6.13188L9.88127 6.13131C9.70932 5.92224 9.61144 5.59529 9.61381 5.24719C9.61618 4.89899 9.71855 4.57463 9.89258 4.3699L9.70211 4.20798ZM9.70211 4.20798C10.0114 3.84493 10.4483 3.84227 10.7578 4.20798L9.68818 6.29011C9.24975 5.75702 9.257 4.73158 9.70211 4.20798Z" stroke="white" stroke-width="0.5"/>
<path d="M8.89162 6.85513L8.89154 6.85526C8.82181 6.9805 8.73899 7.0319 8.67296 7.046C8.60916 7.05963 8.51979 7.04742 8.41432 6.9609L8.41405 6.96068C8.17533 6.76539 8.07014 6.4917 8.02814 6.12305C8.04095 6.07314 8.05301 6.0208 8.06407 5.97286C8.07145 5.94084 8.07838 5.91078 8.08478 5.88471C8.10613 5.7977 8.1276 5.72633 8.15642 5.66462C8.21638 5.54069 8.29501 5.49196 8.36116 5.47849C8.42998 5.46447 8.52895 5.47989 8.64124 5.56932L8.64142 5.56947C8.7916 5.68885 8.91326 5.91081 8.96416 6.17194C9.01503 6.43294 8.98599 6.68588 8.89162 6.85513Z" stroke="white" stroke-width="0.5"/>
<path d="M7.5116 8.08883L7.5116 8.08883L7.51103 8.08972C7.4483 8.18847 7.38706 8.20467 7.35185 8.20429C7.31084 8.20385 7.23744 8.17978 7.16146 8.07714C7.07705 7.96228 7.02716 7.78244 7.0332 7.5855C7.03926 7.38829 7.10019 7.2131 7.19043 7.10578L7.19043 7.10578L7.19101 7.10509C7.2626 7.01931 7.33251 6.99795 7.37565 6.99881C7.4139 6.99956 7.46943 7.01802 7.5218 7.10113L7.52186 7.10122C7.56146 7.164 7.59329 7.24013 7.62734 7.33797C7.63775 7.36787 7.64926 7.40273 7.66161 7.44011C7.67604 7.4838 7.69161 7.53095 7.70789 7.57767C7.69188 7.62528 7.6763 7.67409 7.66177 7.71958C7.6481 7.76241 7.63537 7.8023 7.62411 7.83546C7.58869 7.93974 7.5546 8.02176 7.5116 8.08883Z" stroke="white" stroke-width="0.5"/>
<path d="M21.6659 14.8245C21.6461 14.8197 21.6206 14.8138 21.5896 14.8071C21.4886 14.7851 21.345 14.7572 21.1835 14.7298C20.8531 14.6737 20.4802 14.6251 20.2455 14.6251H20.2445C19.4043 14.6229 18.7448 15.2065 18.5135 16.1828L18.5133 16.1835C18.2944 17.0996 18.511 17.9064 19.0025 18.7113L19.0029 18.712C19.1031 18.877 19.2099 19.0455 19.3188 19.2175C19.5982 19.6588 19.8919 20.1225 20.1257 20.6047C20.8339 22.0609 20.7166 23.5347 19.7598 24.864L19.7598 24.8641C19.4841 25.2468 19.0976 25.5538 18.7695 25.8143C18.7278 25.8474 18.687 25.8798 18.6475 25.9114L18.646 25.9127C18.409 26.1008 18.1606 26.2749 17.923 26.4414C17.8843 26.4685 17.8459 26.4954 17.8079 26.5221C17.5318 26.7162 17.2716 26.9041 17.0329 27.112L16.7866 26.8293M21.6659 14.8245L21.1725 30.8397C20.7003 31.7955 20.0333 32.4307 19.0283 32.5997C18.4496 32.6963 17.9061 32.5049 17.2857 32.2329C16.7592 32.0019 16.3819 31.6843 16.1426 31.3081C15.9039 30.9329 15.7878 30.4768 15.8193 29.9424L15.8193 29.9419C15.8849 28.8041 16.2129 27.8279 17.0332 27.1118L16.7866 26.8293M21.6659 14.8245L21.7244 14.8438C23.1628 15.3187 24.4561 16.0013 25.5155 17.0729C26.4657 18.0382 26.9956 19.1512 26.8532 20.512C26.7275 21.7087 26.3087 22.8159 25.6105 23.7817C25.1233 24.4513 24.5904 25.0811 24.0473 25.723C23.8633 25.9405 23.6781 26.1594 23.4931 26.3816C22.6204 27.4246 21.9094 28.5791 21.5068 29.9246L21.5066 29.9256C21.409 30.2547 21.3091 30.5621 21.1728 30.8392L21.6659 14.8245ZM16.7866 26.8293C15.864 27.6348 15.514 28.7235 15.4449 29.9203C15.3737 31.1279 15.9694 32.0649 17.1351 32.5764C17.7569 32.8489 18.3919 33.0861 19.09 32.9696L19.0136 19.4369C19.2888 19.8714 19.5644 20.3065 19.7883 20.7683C20.4367 22.1014 20.3313 23.4281 19.4555 24.6449C19.2124 24.9824 18.8696 25.2552 18.5366 25.5202C18.4951 25.5532 18.4538 25.5861 18.4128 25.619C18.1854 25.7995 17.9472 25.9665 17.7091 26.1333C17.393 26.3548 17.0771 26.5763 16.7866 26.8293Z" stroke="white" stroke-width="0.75"/>
<path d="M21.3032 9.06969L21.3034 9.0699C21.5324 9.46849 21.615 10.048 21.5443 10.6353C21.4737 11.2221 21.2557 11.7705 20.9364 12.1118C20.6163 12.4522 20.2809 12.5575 20.0061 12.511C19.7315 12.4645 19.4513 12.2553 19.2642 11.8284L19.2641 11.8283C18.9976 11.2212 18.9924 10.5848 19.1737 9.83569C19.1877 9.80062 19.2019 9.76353 19.2167 9.72486C19.2563 9.62117 19.3003 9.50621 19.3579 9.3889L19.358 9.38872C19.4237 9.25485 19.5072 9.12356 19.5994 8.99546C19.8802 8.61078 20.2058 8.46293 20.4869 8.47589C20.7672 8.48881 21.071 8.66471 21.3032 9.06969Z" stroke="white" stroke-width="0.5"/>
<path d="M23.0593 10.5958C23.0592 10.5959 23.0592 10.596 23.0591 10.596L22.889 10.4128C22.2919 10.9698 22.1133 12.1076 22.5155 12.812C22.8204 13.3513 23.3724 13.4456 23.8486 13.0429M23.0593 10.5958C22.8112 10.8274 22.6371 11.1948 22.5745 11.5957C22.5119 11.9969 22.5663 12.3968 22.7326 12.688L22.7332 12.6889L22.7332 12.6889C22.8565 12.9072 23.013 13.0089 23.1603 13.0343C23.3082 13.0598 23.4928 13.0163 23.687 12.8522M23.0593 10.5958C23.2797 10.3912 23.4949 10.3431 23.6618 10.3803C23.829 10.4176 24.0056 10.5535 24.1215 10.8363L24.1215 10.8363L24.1219 10.8372C24.2802 11.2194 24.2814 11.619 24.1611 12.0376L24.1611 12.0375L24.1597 12.0429C24.0648 12.403 23.9023 12.6691 23.687 12.8522M23.0593 10.5958L23.8486 13.0429M23.687 12.8522C23.6869 12.8522 23.6868 12.8523 23.6867 12.8524L23.8486 13.0429M23.687 12.8522C23.6871 12.8521 23.6871 12.8521 23.6872 12.852L23.8486 13.0429" stroke="white" stroke-width="0.5"/>
<path d="M25.5577 12.0563L25.5577 12.0563L25.5581 12.056C25.7068 11.9545 25.8352 11.9411 25.9307 11.9677C26.0265 11.9944 26.1306 12.073 26.2071 12.2371C26.3206 12.481 26.333 12.8206 26.2428 13.1564C26.1525 13.4921 25.9712 13.7809 25.7496 13.9368C25.5908 14.0486 25.4558 14.0633 25.3582 14.0361C25.2608 14.0089 25.154 13.9269 25.0776 13.7505C24.9571 13.4719 24.9684 13.1752 25.0443 12.8362C25.157 12.495 25.3017 12.2303 25.5577 12.0563Z" stroke="white" stroke-width="0.5"/>
<path d="M26.5097 14.8989L26.5097 14.8988C26.4634 14.7105 26.5026 14.4591 26.6213 14.2212C26.74 13.9831 26.9167 13.8017 27.0934 13.7267L27.0934 13.7267C27.227 13.67 27.3267 13.6815 27.3888 13.713C27.4483 13.7432 27.5109 13.8105 27.5352 13.9474L27.5352 13.9474L27.5353 13.9483C27.5473 14.0145 27.5493 14.0883 27.5466 14.178C27.5458 14.205 27.5444 14.2366 27.5429 14.2703C27.5407 14.3191 27.5382 14.3726 27.5372 14.4235C27.4 14.7668 27.2254 15.0025 26.9433 15.1281C26.8189 15.1827 26.7291 15.1708 26.6705 15.1404C26.6099 15.1089 26.5437 15.0373 26.5097 14.8989Z" stroke="white" stroke-width="0.5"/>
<path d="M27.6012 15.6983C27.6601 15.613 27.7109 15.5479 27.7661 15.4973L27.7661 15.4973C27.8376 15.4317 27.8952 15.4289 27.9323 15.4385C27.9746 15.4494 28.0367 15.4893 28.083 15.5909L28.3105 15.4871L28.0829 15.5906C28.1409 15.7181 28.1529 15.9033 28.1065 16.0949C28.0601 16.2862 27.9646 16.4462 27.853 16.5345C27.7524 16.6132 27.6752 16.6169 27.6356 16.6065C27.6015 16.5975 27.5469 16.5656 27.5126 16.4542C27.4892 16.377 27.4782 16.2884 27.4717 16.1787C27.4696 16.1432 27.4678 16.1005 27.4659 16.0547C27.464 16.0078 27.462 15.9576 27.4592 15.9086C27.4883 15.8667 27.5165 15.8244 27.5426 15.7853C27.5638 15.7535 27.5836 15.7239 27.6012 15.6983Z" stroke="white" stroke-width="0.5"/>
</svg>
