<?xml version="1.0" encoding="UTF-8"?>
<svg id="Layer_2" data-name="Layer 2" xmlns="http://www.w3.org/2000/svg" viewBox="0 0 40 38.43">
  <defs>
    <style>
      .cls-1 {
        fill: #fff;
        stroke: #fff;
        stroke-miterlimit: 10;
        stroke-width: .25px;
      }

      .cls-2 {
        fill: none;
      }
    </style>
  </defs>
  <g id="Layer_2-2" data-name="Layer 2">
    <g>
      <rect class="cls-2" width="40" height="38.43"/>
      <g>
        <path class="cls-1" d="m27.04,37.03h-14.73l.56-.83c0-.15,0-1.33.39-1.95,0,0-.02-.01-.03-.02-.12-.1-.35-.46-.49-1.84h0c-.08,0-.24,0-.44-.1-.3-.16-.74-.61-1.09-1.79,0-.01-.15-.7-1-1.59h0s0-.02,0-.02c0-.01-.05-.37.13-.92.18-.53.02-2.9.02-2.93l.08-1.24c-.02-.08-.17-.76-.09-1.16.09-.4-.03-1.74-.03-1.75,0,0-.12-.93.28-1.99.39-1.06,1.7-1.79,1.71-1.79h0s.01,0,.01,0c0,0,.94,0,1.48-.11-.13-.21-.58-1-.47-1.82.06-.42.29-.71.54-1.03.31-.4.64-.81.63-1.5-.02-1.24-.22-2.69-.22-2.71,0-.02-.04-1.67.55-2.82.25-.49.5-1.04.72-1.52.32-.69.57-1.23.69-1.37.19-.2.76-.8,1.4-1.06.02,0,.33-.09.51.05.24-.19,1.84-1.34,3.87.24,2.17,1.7,3.26,5.87,3.27,5.91,0,0,.44,1.18.65,1.59.17.32.26.95.32,1.4.02.14.04.26.05.34.06.33.14,1.06.15,1.13.04.09.45,1.07.33,2.23h0c-.12.36-.39,1.32-.27,1.59.19-.02,1.23-.11,1.85.63.68.81.81,1.21.97,2.33l.04.32c.15,1.07.35,2.54.61,3.14h0s.09.72.09.72c.06.04.25.15.32.23h.01v.6c.06.09.42.64.2,1.35-.09.29-.14.66-.2,1.05-.09.6-.19,1.28-.45,1.85-.42.93-1.05,1.17-1.07,1.18h-.01s-2.02.1-2.02.1c-.06.01-.2.06-.21.13,0,.02,0,.05,0,.1-.02.27-.05.91-.32,1.37,0,.12.03.94-.18,1.34.06.08.25.37.25.84,0,.53.19,1.16.19,1.17,0,0,.2.67.37.88l.05.07Zm-14.58-.08h14.41c-.16-.27-.33-.81-.34-.84,0,0-.19-.65-.19-1.19s-.24-.81-.24-.81l-.02-.02.02-.03c.23-.39.18-1.32.18-1.33h0s0-.02,0-.02c.26-.45.3-1.1.32-1.35,0-.05,0-.09,0-.11.02-.14.25-.19.28-.2l2.02-.1c.06-.03.64-.28,1.02-1.13.25-.56.35-1.23.44-1.82.06-.39.11-.77.21-1.06.22-.71-.19-1.28-.2-1.28h0v-.59c-.09-.08-.31-.21-.31-.21h-.02s-.09-.75-.09-.75c-.26-.61-.46-2.08-.61-3.15l-.04-.32c-.15-1.11-.28-1.49-.95-2.29-.65-.78-1.79-.6-1.8-.6h-.03s-.01-.02-.01-.02c-.2-.31.2-1.51.25-1.67.13-1.18-.32-2.17-.33-2.18h0s-.09-.8-.15-1.15c-.02-.08-.03-.2-.05-.34-.06-.42-.15-1.06-.32-1.37-.22-.41-.64-1.55-.66-1.6-.01-.05-1.09-4.19-3.25-5.87-2.13-1.66-3.78-.24-3.8-.22l-.03.03-.03-.03c-.13-.14-.45-.05-.45-.05-.62.25-1.19.84-1.37,1.04-.12.12-.38.69-.68,1.34-.22.49-.48,1.04-.73,1.52-.58,1.14-.54,2.76-.54,2.78,0,.01.2,1.47.22,2.71.01.73-.32,1.15-.65,1.56-.24.31-.47.59-.53.99-.13.9.48,1.8.49,1.81l.03.05h-.06c-.52.14-1.43.14-1.55.14-.12.07-1.3.76-1.67,1.74-.39,1.04-.27,1.94-.27,1.95,0,.06.12,1.36.03,1.78-.08.4.09,1.12.09,1.13h0s-.08,1.25-.08,1.25c0,.09.16,2.4-.02,2.95-.16.47-.14.8-.13.86.85.9,1,1.59,1.01,1.62.34,1.15.75,1.58,1.04,1.74.25.13.42.08.43.08h.05s.01.09.01.09c.19,1.77.5,1.81.5,1.81h.09s-.06.07-.06.07c-.42.61-.4,1.95-.4,1.96h0s-.48.73-.48.73Z"/>
        <path class="cls-1" d="m19.92,14.17c-.26,0-.59-.03-.85-.14-.46-.18-.81-.45-1.12-.69-.07-.05-.13-.1-.2-.15-.38-.28-.7-.86-.72-.88-.02-.03-.42-.83-.44-1.15-.02-.32-.12-.69-.18-.85-.04-.12-.06-.24-.09-.4-.01-.07-.03-.15-.05-.23-.06-.27-.08-1.06-.08-1.09,0-.05.04-1.18.11-1.38.04-.11.09-.21.15-.3.04-.06.08-.13.11-.2.03-.07.08-.16.13-.26.09-.16.19-.36.27-.55.12-.3.46-.61.49-.63.24-.25.56-.38.57-.39h.01s.01,0,.01,0c.61.12,2.24.14,2.26.14h.01s.18.07.57.48c.27.28.37.56.51.96.07.19.15.42.27.68.19.45.4.67.6.88.16.17.31.33.43.58.27.55.61,2.88-.25,4.05-.84,1.15-1.98,1.48-1.99,1.48-.02,0-.24.04-.53.04Zm-1.89-9.2c-.06.03-.33.15-.53.36h0s-.35.31-.46.6c-.08.19-.19.4-.27.56-.05.1-.1.19-.13.25-.04.08-.07.15-.11.21-.05.09-.1.18-.14.29-.05.14-.09.95-.1,1.35,0,0,.03.81.08,1.07.02.09.03.16.05.23.03.15.05.28.09.39.06.17.17.55.18.87.02.31.43,1.11.43,1.11,0,0,.33.58.69.85.07.05.13.1.2.15.32.25.65.5,1.1.68.53.21,1.32.1,1.33.1,0,0,1.13-.33,1.94-1.45.83-1.13.5-3.44.24-3.97-.12-.24-.26-.39-.41-.56-.2-.21-.42-.44-.62-.91-.12-.27-.2-.49-.27-.69-.14-.4-.24-.66-.5-.93-.34-.35-.5-.44-.54-.45-.14,0-1.64-.02-2.25-.14Z"/>
        <path class="cls-1" d="m18.43,4.32c1.47.08,2.41.71,2.97,2.07.15.4.32.79.52,1.16.21.36.44.73.77.99.17.12.37.21.55.32.41.25.83.54,1.07.97.21.5.15,1.29-.15,1.72.26-.5.3-1.16.09-1.69-.02-.03-.06-.1-.08-.13-.32-.42-.79-.7-1.25-.96,0,0-.14-.08-.14-.08-.24-.14-.42-.35-.58-.57-.37-.52-.64-1.12-.85-1.72-.57-1.4-1.45-1.96-2.92-2.09h0Z"/>
        <path class="cls-1" d="m16.11,7.11c.25-.22.45-.49.64-.76.1-.13.18-.28.22-.44.04-.16.09-.34.2-.46.23-.25.54-.41.84-.56,0,0,.23-.1.23-.1.24-.08.5-.08.75-.03,0,0,0,0,0,0-.17,0-.33,0-.49.03-.08.02-.16.03-.23.06l-.22.11c-.29.15-.6.29-.82.53-.12.12-.16.28-.2.43-.05.16-.14.31-.24.44-.21.26-.41.53-.67.74,0,0,0,0,0,0h0Z"/>
        <path class="cls-1" d="m16.38,11.04s0,0,0,0c-.2-.01-.48-.45-.51-.51h0s0-.02,0-.02c0,0-.06-.68-.29-1.3-.25-.66,0-.82.02-.82l.04.07-.02-.04.02.04s-.2.14.02.72c.22.59.29,1.23.3,1.31.11.18.32.45.44.46.02,0,.04,0,.05-.03.15-.19-.01-.62-.01-.62l-.25-.84c-.08-.15-.73-1.32-.71-1.6h.08c-.02.22.5,1.2.7,1.56h0s.25.85.25.85c0,.02.18.47,0,.7-.03.04-.07.06-.11.06Z"/>
        <path class="cls-1" d="m25.32,23.68l.03-.11c.28-1.07-.2-1.34-.21-1.35l-.95-.63s-.58-.42-.75-.56c-.18-.15-.62-.73-.77-.96-.17-.25-.1-1.3-.03-1.43.02-.04.11-.26.44-1.24v-.03c.05-.11.06-.5.06-.64l-.04-.59c-.02-.06-.2-.52-.42-.77-.24-.27-.41-.74-.41-.76h0s-.07-.95.02-1.26c.09-.3.57-2.12.57-2.14l.08.02s-.49,1.84-.57,2.14c-.08.28-.02,1.14-.02,1.22.02.05.18.48.39.72.24.27.43.78.44.8h0s.04.61.04.61c0,.02,0,.53-.05.67v.03c-.26.75-.41,1.18-.45,1.25-.06.11-.12,1.11.03,1.34.17.25.59.8.76.94.17.14.73.55.74.56l.95.63s.5.29.27,1.33c.23-.17.82-.65,1.15-1.19.41-.68.75-1.72.75-1.73,0-.01.35-.87,0-1.62-.17-.36-.34-.52-.49-.67-.18-.17-.34-.32-.42-.71l.08-.02c.08.36.22.5.4.67.16.15.34.32.51.69.37.78.02,1.65,0,1.69,0,0-.34,1.06-.76,1.74-.42.69-1.25,1.27-1.26,1.28l-.09.07Z"/>
        <path class="cls-1" d="m25.36,10.99c0,.37-.04.76.13,1.1,0,0,.09.2.09.2.19.39.39.83.61,1.2.14.26.33.53.42.8-.24-.38-.51-.74-.71-1.15-.11-.24-.26-.58-.37-.82-.05-.13-.13-.29-.17-.42-.05-.3-.03-.6-.01-.9,0,0,0,0,0,0h0Z"/>
        <path class="cls-1" d="m23.11,20.09c.03.35.22.63.42.9,0,0,0,0,0,0-.16-.07-.28-.23-.34-.4-.06-.16-.09-.34-.09-.51h0Z"/>
        <path class="cls-1" d="m27.14,19.38c.11.22.19.45.23.69.04.23.06.52-.05.73,0-.24,0-.48-.02-.72-.02-.24-.1-.49-.16-.7h0Z"/>
        <path class="cls-1" d="m26.03,16.53c-.05.34-.02.73.2,1.01.22.28.49.52.74.76.29.3.29.32-.04.04-.34-.26-.71-.6-.88-1.01-.08-.24-.1-.57-.02-.8h0Z"/>
        <path class="cls-1" d="m15.01,9.44c-.34.38-.41.9-.58,1.36,0,0,0,0,0,0,0-.38.15-.75.34-1.07.07-.11.14-.21.24-.29h0Z"/>
        <path class="cls-1" d="m14.23,13.68c.32-.25.45-.68.51-1.06-.03.31-.1.62-.26.89-.06.09-.12.17-.21.25l-.05-.07h0Z"/>
        <path class="cls-1" d="m17.52,14.69h-.08c.02-.33-.07-1.84-.07-1.85h.08c0,.06.09,1.52.07,1.85Z"/>
        <path class="cls-1" d="m17.41,14.03c-.21-.05-.38.11-.48.28-.11.16-.22.33-.32.5-.21.33-.42.68-.62,1.01-.05.11-.11.23-.13.35,0,.12.01.25.02.38.02.25.04.51.05.76,0,.12.02.45.02.57,0,0,0,.02,0,.02,0,0,0,.02,0,.02,0,0,0,0,0,0,0,0,0-.02,0-.02-.01-.01-.02-.01-.03-.01.68-.57,1.37-1.26,2.04-1.89.39-.32.75.02.91.39,0,0,0,0,0,0-.11-.21-.28-.45-.53-.47-.26-.01-.42.23-.59.39-.36.36-.73.71-1.1,1.05-.22.2-.44.41-.68.58,0,0,0,0-.03,0,0,0-.01,0-.02,0-.02,0-.03-.03-.02-.04,0,0,0-.03,0-.03,0-.12,0-.45,0-.57,0-.25-.03-.51-.04-.76,0-.13-.02-.25-.02-.38.02-.13.08-.24.13-.36.21-.34.42-.67.64-1.01.11-.17.22-.33.33-.5.1-.17.28-.33.49-.27,0,0,0,0,0,0h0Z"/>
        <path class="cls-1" d="m21.7,26.8h-.08s.01-.13.01-.13c.13-2.25-.45-4.5-.65-5.24-.2-.77-.85-2.23-.86-2.25l-.41-1.18c-.01-.22-.04-.66-.06-.76,0-.03-.08-.12-.15-.2-.17-.19-.4-.46-.46-.75-.07-.28-.18-.35-.32-.42-.06-.03-.12-.06-.17-.11-.06-.05-.16-.14-.28-.23-.27-.22-.6-.49-.75-.65-.22-.23-.32-.63-.33-.64l.08-.02s.1.39.31.6c.15.16.49.44.74.65.12.1.22.18.28.24.05.04.1.07.16.1.14.08.28.15.36.48.06.27.28.52.45.71.11.12.16.19.17.24.03.12.05.7.06.77l.41,1.16s.66,1.48.86,2.25c.19.75.78,3.01.65,5.28v.12Z"/>
        <path class="cls-1" d="m23.14,17.36c-.11-.19-.22-.38-.35-.56-.19-.26-.38-.54-.67-.69-.33-.17-.61-.11-.82.19,0,0,0,0,0,0,.05-.1.11-.2.2-.27.3-.22.71-.03.93.21.29.32.55.73.71,1.11h0Z"/>
        <path class="cls-1" d="m20.36,19.55l-.08-.02c.11-.38.44-1.5.47-1.67.01-.08.02-.2.02-.34,0-.17,0-.38.03-.61.05-.43.32-.89.71-1.24.37-.33.75-1.09.76-1.1l.08.04s-.39.78-.78,1.12c-.38.34-.63.78-.68,1.18-.03.22-.03.43-.03.6,0,.15,0,.27-.02.35-.04.21-.47,1.66-.47,1.67Z"/>
        <path class="cls-1" d="m13.9,17.06l-.02-.08s.51-.14.87-.25c.35-.11,1.07-.53,1.08-.54l.04.07s-.73.43-1.09.55c-.36.11-.87.25-.87.25Z"/>
        <path class="cls-1" d="m13.07,17.09c.2.05.39.15.55.28-.09-.05-.18-.09-.27-.13-.09-.03-.19-.06-.29-.06,0,0,.01-.08.01-.08h0Z"/>
        <path class="cls-1" d="m13.47,19.22c.06.4.19.77.34,1.14.13.38.24.76.32,1.15.13.79.12,1.59.25,2.37,0,0,.09.59.09.59.09.59,0,1.19.1,1.78.11.68.32,1.36.62,1.98.05.09.09.18.16.25h0c-.13-.14-.22-.33-.31-.5-.25-.54-.44-1.12-.54-1.71-.1-.59,0-1.19-.09-1.79,0,0-.08-.59-.08-.59-.12-.79-.11-1.59-.23-2.38-.07-.39-.18-.77-.3-1.15-.14-.37-.29-.75-.32-1.15h0Z"/>
        <path class="cls-1" d="m13.47,22.65c.28.44.51.9.7,1.39.19.48.33,1,.32,1.52,0,0,0,0,0,0-.15-1.02-.53-2.02-1.01-2.91h0Z"/>
        <path class="cls-1" d="m23.73,30.96h-.01s-1.13-.35-1.58-.59c-.29-.15-1-.37-1.58-.55-.32-.1-.59-.18-.72-.23-.38-.15-1.73-.6-2.09-.67-.36-.07-.99-.14-1.12-.13l-.63-.05s-.4-.04-.7-.22h-.01c-.06-.11-.27-.43-.29-.54-.03-.07-.28-.71-.32-.85l.08-.02c.04.14.31.84.32.85v.02s.14.28.27.48c.28.17.65.2.65.2l.63.05c.14-.01.79.06,1.13.13.36.07,1.72.52,2.1.67.13.05.4.13.72.23.58.18,1.3.4,1.59.55.42.23,1.47.56,1.56.58h.61c.07,0,.14-.02.17-.03.01-.05,0-.27,0-.46,0-.04-.14-.69-.33-1.21-.19-.51-.67-1.68-.8-1.95-.11-.22-.19-.28-.21-.29h-.07s-.62-.03-.62-.03c-.01,0-1-.09-1.29-.09-.24,0-.87-.1-1.25-.17-.08-.01-.15-.03-.2-.03-.12-.02-.38-.07-.67-.13-.36-.07-.77-.15-1.03-.19-.44-.07-1.01-.03-1.01-.03h0s0,0,0,0c-1.15-.17-1.35-.04-1.36-.03h0s-.99.5-.99.5l-.04-.08.99-.49s.29-.15,1.41.02c.06,0,.59-.04,1.03.03.25.04.67.12,1.03.19.29.06.55.11.67.13.05,0,.12.02.2.03.37.06.99.17,1.23.17.29,0,1.26.09,1.3.09l.71.04s.13.05.26.33c.13.28.61,1.45.8,1.96.19.5.33,1.16.34,1.23.03.48,0,.51-.01.53-.04.04-.16.05-.23.05h-.62Z"/>
        <path class="cls-1" d="m24.72,31.63c-.16,0-.32-.01-.43-.05-.36-.13-.55-.54-.59-.62l.08-.03c.09.21.29.49.54.58.25.09.77.05,1.17-.02.17-.03.65-.18,1.45-.44.04-.01.06-.02.07-.02.05-.03.43-.39.46-.78.03-.43-.08-.81-.15-.95-.06-.13-.48-1.24-.62-1.87-.1-.49-.24-.69-.32-.8-.02-.03-.03-.05-.04-.07-.02-.04-.15-.06-.23-.05-.02,0-2.29,0-2.83.08-.52.07-.67.32-.67.32l-.07-.04s.17-.28.73-.36c.54-.08,2.75-.08,2.84-.08.04,0,.26,0,.31.1,0,.02.02.03.04.06.08.11.22.32.33.83.13.62.55,1.72.61,1.85.07.15.19.55.16.99-.03.45-.48.84-.52.85,0,0-.03.01-.07.02-.8.27-1.29.42-1.46.45-.13.02-.47.07-.78.07Z"/>
        <path class="cls-1" d="m25.7,26.39l-.06-.06c.12-.13.41-.81.51-1.2.09-.37-.01-2.21-.01-2.23h.08c0,.07.11,1.86.01,2.25-.1.38-.39,1.09-.53,1.24Z"/>
        <path class="cls-1" d="m26.4,23.58c.01.26.01.51,0,.77-.01.23-.03.57-.18.75.05-.25.07-.5.11-.75.03-.25.05-.51.06-.76,0,0,0,0,0,0h0Z"/>
        <path class="cls-1" d="m25.61,26.47l-.07-.05.31-.48c.45-.69.83-.96,1.23-1.21.34-.21.51-.26.83-.34.08-.02.17-.05.28-.08.21-.06.33-.17.31-.29-.01-.09-.09-.16-.14-.16-.16,0-.41.08-.41.08-.48.07-.72.28-.93.46-.07.06-.13.12-.2.16-.26.18-.61.64-.62.64l-.07-.05s.36-.47.63-.66c.06-.04.13-.1.19-.16.21-.18.46-.41.96-.48,0,0,.26-.08.43-.08.11,0,.21.1.23.23.01.08,0,.28-.37.38-.11.03-.2.06-.28.08-.32.08-.48.13-.81.33-.38.24-.76.51-1.2,1.18l-.31.48Z"/>
        <path class="cls-1" d="m26.2,26.47l-.07-.05c.08-.11.54-.64.56-.66.18-.21.32-.29.57-.44.07-.04.14-.08.23-.14.23-.14.75-.31,1.21-.47.36-.12.69-.23.76-.28.1-.09.09-.21.07-.25l-.09-.02c-.41-.04-.96.11-.97.11l-.02-.08s.57-.15,1-.11l.14.03v.02c.04.08.06.25-.08.37-.07.06-.35.15-.79.3-.46.15-.97.32-1.2.46-.09.05-.16.1-.23.14-.26.15-.39.23-.55.43,0,0-.48.55-.56.66Z"/>
        <path class="cls-1" d="m26.27,26.5v-.08s.66-.01.66-.01c.31-.34,1.05-.75,1.08-.77.56-.26.92-.26.98-.26.05-.02.39-.15.52-.52.03-.08.02-.13,0-.16-.08-.08-.34-.04-.49,0l-.02-.08s.43-.13.57.02c.06.06.07.14.03.25-.15.44-.56.57-.58.57h0s0,0,0,0c0,0-.37-.02-.94.25,0,0-.78.44-1.07.77h-.01s-.7.03-.7.03Z"/>
        <path class="cls-1" d="m27.14,26.5c-.08,0-.13,0-.13,0v-.08s.45.04.96-.13c.52-.17.91-.47.93-.49,0-.03,0-.21-.01-.37h.08c.03.38,0,.42-.01.43-.03.03-.43.33-.97.51-.36.12-.68.14-.86.14Z"/>
        <path class="cls-1" d="m29.74,25.53c-.29.03-.53.21-.81.29,0,0,0,0,0,0,.1-.12.23-.18.38-.22.14-.04.29-.07.43-.07h0Z"/>
        <path class="cls-1" d="m29.74,24.82c.09-.01.19-.04.28-.03.03,0,.07.02.09.05h0c-.06.03-.12.04-.18.02-.06,0-.12-.02-.19-.03h0Z"/>
        <path class="cls-1" d="m30.12,25.3c.13.13.26.26.37.41.03.05.06.11.07.18h0c-.09-.08-.17-.17-.23-.28-.07-.1-.14-.2-.2-.31,0,0,0,0,0,0h0Z"/>
        <path class="cls-1" d="m30.43,27c.04.22.09.45.07.67-.01.08-.03.15-.07.22h0c0-.13,0-.32,0-.45,0-.15,0-.3,0-.45,0,0,0,0,0,0h0Z"/>
        <path class="cls-1" d="m29.44,25.96l-.39.05c-.13.03-.26.04-.39.02,0,0,0,0,0,0,.12-.08.26-.09.39-.08.13,0,.27,0,.4,0h0Z"/>
        <path class="cls-1" d="m17.68,33.24c-.21,0-.49-.02-.67-.13-.25-.14-.61-.2-.8-.23-.04,0-.06,0-.09-.01-.13-.02-.56,0-.56,0-.01,0-.24-.02-.32-.19-.06-.13-.02-.32.14-.54.45-.66.96-1.57,1.19-2.13.24-.58.22-1.24.22-1.24h.08s.02.68-.23,1.28c-.23.56-.75,1.48-1.2,2.14-.13.2-.18.36-.13.46.06.13.25.15.25.15.01,0,.44-.02.57,0,.02,0,.05,0,.08.01.2.03.56.09.82.24.29.17.9.1.9.1h0s0,0,0,0c0,0,.1,0,.25-.35.11-.24.31-.47.54-.71.17-.18.34-.37.48-.58.32-.47.52-.79.72-1.92h.08c-.21,1.16-.4,1.49-.73,1.97-.14.21-.32.4-.49.59-.22.24-.42.46-.52.68-.17.38-.3.41-.34.4-.03,0-.13.01-.27.01Z"/>
        <path class="cls-1" d="m15.18,32.67c-.18,0-.59-.07-.83-.12-.21-.04-.6-.06-.76-.06-.16,0-.75-.07-.78-.07v-.08s.62.07.78.07c.16,0,.55.02.77.06.44.08.75.13.85.11v.08s-.02,0-.04,0Z"/>
        <path class="cls-1" d="m18.42,32.67v-.08s2.22-.16,2.77-.27l.1-.02c.66-.14,2.43-.5,2.88-.79l.05-.03.04.07-.04.03c-.47.3-2.24.66-2.91.8l-.1.02c-.55.11-2.7.27-2.79.27Z"/>
        <path class="cls-1" d="m24.21,31.33c.16-.15.22-.35.33-.54,0,0,0,0,0,0,.02.12-.02.23-.1.31-.07.09-.15.17-.24.23h0Z"/>
        <path class="cls-1" d="m10.39,21.44c.07.5.22.99.27,1.49-.13-.2-.17-.49-.2-.73-.03-.25-.08-.52-.07-.76h0Z"/>
        <path class="cls-1" d="m10.47,23.8c.06.33.15.64.21.97,0,0,0,0,0,0-.12-.13-.15-.31-.17-.47-.02-.17-.04-.33-.05-.5,0,0,0,0,0,0h0Z"/>
        <path class="cls-1" d="m13.11,28.54c.73-.22,1.57-.34,2.29-.03,0,0,0,0,0,0-.38-.07-.75-.12-1.14-.12-.38,0-.78.07-1.14.14h0Z"/>
        <path class="cls-1" d="m25.62,33.47c.39-.34.7-.76.9-1.23,0,0,0,0,0,0-.01.27-.16.51-.33.71-.16.18-.38.41-.58.53h0Z"/>
        <path class="cls-1" d="m20.88,35.57c-.72,0-2.48-.08-2.57-.09,0,0-.79,0-2.56-.36-1.77-.35-2.41-.82-2.44-.84l.05-.07s.66.48,2.41.83c1.75.35,2.54.36,2.54.36.74.03,2.68.11,2.84.08.04,0,.14-.02.36-.03.85-.07,3.13-.24,3.9-.89.64-.54.75-.64.77-.66h0s.06-.02.07,0c.03.04.03.05-.79.73-.8.67-3.09.85-3.95.91-.18.01-.32.02-.35.03-.04,0-.14.01-.3.01Z"/>
        <path class="cls-1" d="m21.12,35.48c-.04-.4.16-3.04.17-3.15h.08s-.21,2.75-.17,3.15h-.08Z"/>
        <path class="cls-1" d="m19.9,36.99c0-.29-.04-1.07-.09-1.19-.04-.08-.48-.21-.9-.29v-.08c.16.03.9.17.97.34.07.16.09,1.11.09,1.22h-.08Z"/>
        <path class="cls-1" d="m15.04,37.02c-.67,0-2.07-.8-2.13-.84l.04-.07s1.54.88,2.15.83v.08s-.03,0-.06,0Z"/>
        <path class="cls-1" d="m24.39,37.02v-.08c1.13-.08,2.15-.86,2.16-.87l.05.07s-1.06.8-2.21.89Z"/>
      </g>
    </g>
  </g>
</svg>