<?xml version="1.0" encoding="UTF-8"?>
<svg id="Layer_2" data-name="Layer 2" xmlns="http://www.w3.org/2000/svg" viewBox="0 0 30 28.82">
  <defs>
    <style>
      .cls-1 {
        fill: #fff;
        stroke: #fff;
        stroke-miterlimit: 10;
        stroke-width: .25px;
      }

      .cls-2 {
        fill: none;
      }
    </style>
  </defs>
  <g id="Layer_2-2" data-name="Layer 2">
    <rect class="cls-2" width="30" height="28.82"/>
    <g>
      <path class="cls-1" d="m20.28,27.78h-11.05l.42-.62c0-.11,0-1,.29-1.47,0,0-.01,0-.02-.01-.09-.07-.26-.35-.37-1.38h0c-.06,0-.18,0-.33-.08-.23-.12-.56-.45-.82-1.34,0,0-.11-.53-.75-1.19h0s0-.02,0-.02c0-.01-.04-.27.1-.69.14-.4.02-2.18.01-2.19l.06-.93c-.01-.06-.13-.57-.06-.87.06-.3-.02-1.3-.03-1.31,0,0-.09-.7.21-1.49.3-.8,1.28-1.34,1.29-1.35h0s0,0,0,0c0,0,.7,0,1.11-.08-.1-.16-.44-.75-.35-1.36.04-.31.22-.53.41-.77.24-.3.48-.61.47-1.13-.02-.93-.16-2.02-.16-2.03,0-.02-.03-1.25.41-2.12.19-.37.38-.78.54-1.14.24-.52.43-.93.52-1.02.14-.15.57-.6,1.05-.8.01,0,.25-.07.38.04.18-.14,1.38-1.01,2.91.18,1.63,1.27,2.45,4.4,2.46,4.43,0,0,.33.88.49,1.19.13.24.19.71.24,1.05.01.1.03.19.04.25.05.25.11.79.11.85.03.07.34.81.25,1.67h0c-.09.27-.3.99-.2,1.19.14-.02.92-.08,1.39.48.51.61.61.9.73,1.75l.03.24c.11.8.26,1.9.46,2.35h0s.07.54.07.54c.04.03.18.11.24.17h0v.45c.05.07.32.48.15,1.01-.07.22-.11.49-.15.79-.07.45-.14.96-.33,1.38-.32.7-.79.88-.81.88h0s-1.51.08-1.51.08c-.04.01-.15.05-.15.1,0,.01,0,.04,0,.07-.01.2-.04.68-.24,1.03,0,.09.02.71-.14,1,.05.06.18.28.18.63,0,.4.14.87.14.88,0,0,.15.5.28.66l.04.05Zm-10.93-.06h10.81c-.12-.2-.25-.61-.25-.63,0,0-.14-.49-.14-.9s-.18-.6-.18-.61v-.02s0-.02,0-.02c.17-.29.14-.99.14-1h0s0-.02,0-.02c.2-.34.23-.83.24-1.01,0-.04,0-.06,0-.08.01-.1.19-.14.21-.15l1.51-.07s.48-.21.77-.85c.19-.42.26-.92.33-1.37.04-.3.09-.57.15-.79.17-.53-.15-.96-.15-.96h0v-.44c-.07-.06-.23-.16-.23-.16h-.01s-.07-.57-.07-.57c-.2-.46-.35-1.56-.46-2.37l-.03-.24c-.12-.83-.21-1.12-.71-1.72-.49-.58-1.34-.45-1.35-.45h-.02s-.01-.01-.01-.01c-.15-.23.15-1.13.19-1.25.1-.88-.24-1.63-.24-1.64h0s-.07-.6-.11-.86c-.01-.06-.02-.15-.04-.26-.05-.32-.11-.8-.24-1.03-.16-.31-.48-1.17-.49-1.2,0-.03-.82-3.14-2.43-4.4-1.6-1.25-2.83-.18-2.85-.17l-.02.02-.02-.02c-.1-.11-.34-.04-.34-.04-.47.19-.89.63-1.03.78-.09.09-.28.52-.51,1.01-.17.36-.36.78-.54,1.14-.43.85-.41,2.07-.41,2.08,0,0,.15,1.1.16,2.03,0,.54-.24.86-.48,1.17-.18.23-.35.45-.39.74-.1.68.36,1.35.36,1.36l.03.04h-.04c-.39.1-1.08.1-1.16.1-.09.05-.98.57-1.25,1.31-.29.78-.2,1.45-.2,1.46,0,.04.09,1.02.02,1.33-.06.3.06.84.07.85h0s-.06.94-.06.94c0,.07.12,1.8-.02,2.21-.12.35-.1.6-.1.65.64.68.75,1.19.76,1.21.25.86.56,1.19.78,1.3.18.1.32.06.32.06h.04s0,.07,0,.07c.14,1.33.37,1.36.37,1.36h.07s-.04.05-.04.05c-.31.46-.3,1.46-.3,1.47h0s-.36.55-.36.55Z"/>
      <path class="cls-1" d="m14.94,10.62c-.2,0-.44-.02-.64-.1-.34-.14-.61-.34-.84-.52-.05-.04-.1-.08-.15-.11-.29-.21-.53-.64-.54-.66-.01-.03-.32-.62-.33-.86-.01-.24-.09-.52-.13-.64-.03-.09-.05-.18-.07-.3-.01-.05-.02-.11-.03-.17-.04-.2-.06-.79-.06-.82,0-.04.03-.89.08-1.03.03-.09.07-.16.11-.22.03-.05.06-.1.08-.15.02-.05.06-.12.1-.19.06-.12.14-.27.2-.41.09-.23.34-.45.36-.47.18-.19.42-.29.43-.29h0s0,0,0,0c.46.09,1.68.1,1.69.1h.01s.13.05.43.36c.2.21.28.42.39.72.05.15.11.31.2.51.15.34.3.5.45.66.12.13.23.24.32.43.2.42.46,2.16-.19,3.04-.63.86-1.49,1.11-1.5,1.11-.01,0-.18.03-.39.03Zm-1.42-6.9s-.25.11-.4.27h0s-.26.23-.35.45c-.06.14-.14.3-.2.42-.04.08-.07.14-.1.19-.03.06-.06.11-.08.16-.04.07-.08.13-.11.21-.04.11-.07.71-.08,1.01,0,0,.02.61.06.8.01.06.02.12.03.17.02.12.04.21.07.29.05.13.12.41.14.65.01.23.32.83.32.84,0,0,.25.44.52.64.05.04.1.08.15.11.24.18.49.37.83.51.4.16.99.07,1,.07,0,0,.84-.25,1.46-1.09.62-.85.37-2.58.18-2.98-.09-.18-.2-.29-.31-.42-.15-.16-.31-.33-.46-.68-.09-.2-.15-.37-.2-.51-.11-.3-.18-.49-.37-.69-.25-.26-.38-.33-.4-.34-.1,0-1.23-.02-1.69-.1Z"/>
      <path class="cls-1" d="m13.82,3.24c1.1.06,1.8.53,2.23,1.56.11.3.24.59.39.87.15.27.33.55.58.74.13.09.28.16.41.24.31.19.63.4.8.73.15.37.11.97-.12,1.29.2-.38.23-.87.07-1.26-.01-.03-.04-.07-.06-.1-.24-.31-.59-.52-.93-.72,0,0-.1-.06-.1-.06-.18-.1-.32-.26-.44-.42-.28-.39-.48-.84-.64-1.29-.43-1.05-1.09-1.47-2.19-1.57h0Z"/>
      <path class="cls-1" d="m12.09,5.33c.19-.16.33-.37.48-.57.07-.1.13-.21.16-.33.03-.12.07-.25.15-.35.17-.19.4-.31.63-.42,0,0,.17-.08.17-.08.18-.06.38-.06.56-.02,0,0,0,0,0,0-.12,0-.25,0-.37.02-.06.01-.12.03-.17.05l-.16.08c-.21.11-.45.22-.62.39-.09.09-.12.21-.15.33-.04.12-.1.23-.18.33-.15.2-.31.4-.5.55,0,0,0,0,0,0h0Z"/>
      <path class="cls-1" d="m12.28,8.28s0,0,0,0c-.15,0-.36-.34-.38-.38h0s0-.01,0-.01c0,0-.04-.51-.22-.98-.19-.49,0-.61.01-.62l.03.05-.02-.03.02.03s-.15.1.01.54c.17.44.22.92.22.99.08.13.24.34.33.34.02,0,.03,0,.04-.02.11-.14,0-.46-.01-.47l-.19-.63c-.06-.11-.55-.99-.53-1.2h.06c-.01.16.37.9.52,1.17h0s.19.63.19.63c0,.01.13.35,0,.53-.02.03-.05.04-.09.04Z"/>
      <path class="cls-1" d="m18.99,17.76l.02-.08c.21-.8-.15-1.01-.15-1.01l-.71-.47s-.43-.31-.56-.42c-.14-.12-.47-.55-.58-.72-.13-.19-.08-.97-.02-1.07.02-.03.08-.19.33-.93v-.02c.03-.08.04-.37.04-.48l-.03-.44s-.15-.39-.31-.58c-.18-.21-.3-.55-.31-.57h0s-.05-.71.01-.95c.06-.23.43-1.59.43-1.6l.06.02s-.37,1.38-.43,1.6c-.06.21-.02.85-.01.91.01.04.13.36.3.54.18.21.32.59.33.6h0s.03.46.03.46c0,.02,0,.39-.04.5v.02c-.2.57-.31.88-.34.94-.05.08-.09.84.02,1,.13.19.45.6.57.71.12.11.55.42.55.42l.71.47s.38.22.2,1c.17-.13.61-.49.86-.89.31-.51.56-1.29.57-1.3,0,0,.26-.65,0-1.22-.13-.27-.25-.39-.37-.5-.13-.13-.25-.24-.32-.53h.06c.06.26.17.36.3.49.12.11.25.24.38.52.28.59.01,1.24,0,1.26,0,0-.26.79-.57,1.31-.32.52-.94.96-.95.96l-.07.05Z"/>
      <path class="cls-1" d="m19.02,8.25c0,.28-.03.57.09.82,0,0,.07.15.07.15.14.29.29.62.46.9.1.19.25.4.31.6-.18-.29-.39-.56-.53-.86-.08-.18-.2-.43-.28-.62-.04-.09-.1-.22-.12-.32-.04-.23-.02-.45,0-.68,0,0,0,0,0,0h0Z"/>
      <path class="cls-1" d="m17.33,15.07c.02.26.16.48.32.68,0,0,0,0,0,0-.12-.06-.21-.17-.25-.3-.05-.12-.07-.25-.07-.38h0Z"/>
      <path class="cls-1" d="m20.36,14.54c.08.16.14.34.17.52.03.17.04.39-.04.54,0-.18,0-.36-.01-.54-.01-.18-.08-.37-.12-.53h0Z"/>
      <path class="cls-1" d="m19.52,12.4c-.04.26-.02.55.15.76.16.21.37.39.56.57.22.23.22.24-.03.03-.26-.2-.53-.45-.66-.76-.06-.18-.07-.43-.01-.6h0Z"/>
      <path class="cls-1" d="m11.26,7.08c-.26.28-.31.67-.43,1.02,0,0,0,0,0,0,0-.29.11-.56.26-.8.05-.08.11-.16.18-.22h0Z"/>
      <path class="cls-1" d="m10.67,10.26c.24-.19.33-.51.38-.8-.02.23-.07.46-.19.66-.04.07-.09.13-.16.18l-.03-.05h0Z"/>
      <path class="cls-1" d="m13.14,11.02h-.06c.01-.25-.05-1.38-.05-1.39h.06s.06,1.14.05,1.39Z"/>
      <path class="cls-1" d="m13.06,10.53c-.15-.04-.28.08-.36.21-.08.12-.16.25-.24.38-.16.25-.32.51-.47.76-.04.08-.08.17-.09.26,0,.09,0,.19.02.28.01.19.03.38.04.57,0,.09.01.34.01.43,0,0,0,.02,0,.02,0,0,0,.01,0,.01,0,0,0,0,0,0,0,0,0-.01,0-.02,0,0-.01-.01-.02-.01.51-.43,1.03-.95,1.53-1.42.29-.24.56.01.68.3,0,0,0,0,0,0-.08-.16-.21-.34-.4-.36-.2-.01-.32.17-.45.29-.27.27-.55.53-.83.79-.17.15-.33.31-.51.44,0,0,0,0-.02,0,0,0,0,0-.01,0-.01,0-.02-.02-.02-.03,0,0,0-.02,0-.03,0-.09,0-.33,0-.43,0-.19-.02-.38-.03-.57,0-.1-.01-.19-.01-.29.02-.1.06-.18.1-.27.16-.25.32-.51.48-.76.08-.12.16-.25.25-.37.08-.12.21-.24.37-.2,0,0,0,0,0,0h0Z"/>
      <path class="cls-1" d="m16.28,20.1h-.06s0-.1,0-.1c.1-1.69-.34-3.38-.48-3.93-.15-.58-.64-1.67-.65-1.68l-.31-.89c0-.17-.03-.5-.04-.57,0-.02-.06-.09-.12-.15-.13-.15-.3-.35-.35-.56-.05-.21-.14-.26-.24-.32-.04-.02-.09-.05-.13-.09-.04-.04-.12-.1-.21-.18-.2-.17-.45-.37-.56-.49-.17-.18-.24-.47-.25-.48l.06-.02s.07.29.23.45c.11.12.37.33.56.49.09.07.17.14.21.18.04.03.08.06.12.08.1.06.21.12.27.36.05.2.21.39.33.53.08.09.12.14.13.18.02.09.04.52.04.57l.3.87s.5,1.11.65,1.69c.15.56.59,2.26.49,3.96v.09Z"/>
      <path class="cls-1" d="m17.36,13.02c-.08-.14-.17-.28-.26-.42-.14-.19-.28-.41-.5-.51-.24-.13-.45-.09-.61.14,0,0,0,0,0,0,.04-.07.08-.15.15-.2.22-.17.53-.02.7.16.22.24.41.55.53.83h0Z"/>
      <path class="cls-1" d="m15.27,14.66l-.06-.02c.08-.28.33-1.12.35-1.25.01-.06.01-.15.01-.25,0-.13,0-.29.03-.46.04-.32.24-.67.53-.93.28-.25.56-.82.57-.82l.06.03s-.29.59-.58.84c-.28.25-.47.58-.51.89-.02.17-.02.32-.03.45,0,.11,0,.2-.02.26-.03.15-.35,1.24-.35,1.26Z"/>
      <path class="cls-1" d="m10.42,12.79l-.02-.06s.38-.11.65-.19c.26-.08.8-.4.81-.4l.03.05s-.55.32-.82.41c-.27.09-.65.19-.65.19Z"/>
      <path class="cls-1" d="m9.8,12.81c.15.04.29.11.41.21-.07-.04-.13-.07-.2-.1-.07-.02-.14-.04-.22-.05,0,0,0-.06,0-.06h0Z"/>
      <path class="cls-1" d="m10.1,14.41c.05.3.14.58.26.85.09.28.18.57.24.86.1.59.09,1.19.19,1.78,0,0,.06.44.06.44.07.44,0,.9.07,1.34.08.51.24,1.02.47,1.48.03.07.07.13.12.19h0c-.1-.11-.17-.25-.23-.38-.19-.41-.33-.84-.41-1.28-.08-.44,0-.9-.07-1.34,0,0-.06-.44-.06-.44-.09-.59-.08-1.19-.17-1.78-.05-.29-.14-.58-.23-.86-.1-.28-.22-.57-.24-.86h0Z"/>
      <path class="cls-1" d="m10.1,16.99c.21.33.38.68.52,1.04.15.36.25.75.24,1.14,0,0,0,0,0,0-.11-.77-.4-1.51-.76-2.18h0Z"/>
      <path class="cls-1" d="m17.79,23.22h0s-.85-.26-1.18-.44c-.21-.12-.75-.28-1.18-.41-.24-.07-.44-.13-.54-.17-.28-.11-1.3-.45-1.57-.5-.27-.05-.74-.1-.84-.09l-.47-.04s-.3-.03-.52-.17h0c-.05-.08-.2-.32-.21-.4-.02-.05-.21-.53-.24-.64l.06-.02c.03.11.24.63.24.63h0s.1.22.2.37c.21.13.49.15.49.15l.47.04c.1-.01.59.05.85.1.27.05,1.29.39,1.58.5.1.04.3.1.54.17.43.13.98.3,1.2.42.32.17,1.1.42,1.17.44h.46c.05,0,.11-.01.13-.02,0-.04,0-.2,0-.35,0-.03-.11-.52-.25-.91-.14-.38-.5-1.26-.6-1.47-.08-.17-.14-.21-.16-.22h-.05s-.47-.03-.47-.03c0,0-.75-.07-.97-.07-.18,0-.65-.08-.94-.13-.06-.01-.11-.02-.15-.03-.09-.01-.28-.05-.5-.1-.27-.05-.58-.11-.77-.15-.33-.05-.75-.02-.76-.02h0s0,0,0,0c-.86-.13-1.01-.03-1.02-.02h0s-.74.37-.74.37l-.03-.06.74-.37s.22-.11,1.06.01c.04,0,.45-.03.77.02.19.03.5.09.77.15.22.04.41.08.5.1.04,0,.09.01.15.03.28.05.74.13.92.12.22,0,.94.06.97.07l.54.03s.09.04.2.25c.1.21.46,1.09.6,1.47.14.37.25.87.25.92.03.36,0,.39,0,.4-.03.03-.12.04-.17.04h-.46Z"/>
      <path class="cls-1" d="m18.54,23.72c-.12,0-.24-.01-.32-.04-.27-.09-.42-.4-.44-.47l.06-.03c.07.16.22.37.41.43.18.06.58.03.88-.02.12-.02.49-.13,1.09-.33.03,0,.05-.02.05-.02.04-.03.32-.29.35-.58.02-.32-.06-.61-.11-.71-.05-.1-.36-.93-.46-1.4-.08-.37-.18-.52-.24-.6-.01-.02-.02-.04-.03-.05-.02-.03-.11-.04-.18-.04-.02,0-1.72,0-2.12.06-.39.05-.5.24-.5.24l-.05-.03s.13-.21.55-.27c.41-.06,2.06-.06,2.13-.06.03,0,.19,0,.23.07,0,.01.02.03.03.04.06.08.17.24.25.62.1.47.41,1.29.46,1.39.05.11.14.41.12.75-.03.34-.36.63-.39.64,0,0-.02,0-.05.02-.6.2-.97.31-1.1.34-.1.02-.35.05-.59.05Z"/>
      <path class="cls-1" d="m19.27,19.79l-.05-.04c.09-.09.31-.61.38-.9.07-.28,0-1.66,0-1.67h.06c0,.05.08,1.4,0,1.69-.07.29-.29.82-.4.93Z"/>
      <path class="cls-1" d="m19.8,17.68c0,.19,0,.38,0,.58,0,.18-.02.42-.13.56.04-.19.05-.37.08-.56.02-.19.04-.38.04-.57,0,0,0,0,0,0h0Z"/>
      <path class="cls-1" d="m19.21,19.85l-.05-.03.23-.36c.33-.52.63-.72.92-.91.26-.16.38-.19.62-.26.06-.02.13-.03.21-.06.16-.05.25-.13.23-.22,0-.07-.07-.12-.11-.12-.12,0-.31.06-.31.06-.36.05-.54.21-.69.35-.05.04-.1.09-.15.12-.19.13-.46.48-.46.48l-.05-.04s.27-.35.48-.49c.05-.03.09-.07.14-.12.15-.14.35-.31.72-.36,0,0,.19-.06.32-.06.08,0,.16.08.17.17,0,.06,0,.21-.28.29-.08.02-.15.04-.21.06-.24.06-.36.09-.61.25-.29.18-.57.38-.9.89l-.23.36Z"/>
      <path class="cls-1" d="m19.65,19.85l-.05-.04c.06-.08.41-.48.42-.5.13-.16.24-.22.43-.33.05-.03.11-.06.17-.1.17-.11.57-.24.91-.35.27-.09.52-.17.57-.21.08-.07.06-.15.06-.19l-.07-.02c-.31-.03-.72.08-.73.08l-.02-.06s.43-.11.75-.08l.1.03h0c.02.07.04.2-.07.29-.05.05-.26.12-.59.22-.34.11-.73.24-.9.34-.06.04-.12.07-.17.1-.19.11-.29.17-.41.32,0,0-.36.42-.42.49Z"/>
      <path class="cls-1" d="m19.71,19.87v-.06s.5,0,.5,0c.23-.25.79-.57.81-.58.42-.2.69-.2.73-.19.04-.01.29-.11.39-.39.02-.06.02-.1,0-.12-.06-.06-.26-.03-.37,0l-.02-.06s.32-.1.43.01c.04.04.05.11.02.19-.11.33-.42.43-.43.43h0s0,0,0,0c0,0-.27-.02-.71.19,0,0-.58.33-.8.57h0s-.53.02-.53.02Z"/>
      <path class="cls-1" d="m20.35,19.88c-.06,0-.1,0-.1,0v-.06s.34.03.72-.1c.39-.13.68-.35.7-.37,0-.02,0-.16,0-.28h.06c.03.29,0,.31,0,.32-.02.02-.32.25-.73.39-.27.09-.51.11-.64.11Z"/>
      <path class="cls-1" d="m22.31,19.15c-.22.02-.4.16-.61.22,0,0,0,0,0,0,.07-.09.18-.14.28-.17.11-.03.22-.06.33-.05h0Z"/>
      <path class="cls-1" d="m22.31,18.61c.07-.01.14-.03.21-.02.02,0,.05.01.07.04h0s-.09.03-.14.01c-.05,0-.09-.01-.14-.02h0Z"/>
      <path class="cls-1" d="m22.59,18.98c.09.1.2.2.28.31.02.04.05.08.05.13h0c-.07-.06-.13-.13-.17-.21-.05-.08-.1-.15-.15-.23h0Z"/>
      <path class="cls-1" d="m22.83,20.25c.03.17.06.34.05.51,0,.06-.02.11-.05.16h0c0-.1,0-.24,0-.33,0-.11,0-.22,0-.34,0,0,0,0,0,0h0Z"/>
      <path class="cls-1" d="m22.08,19.47l-.29.04c-.1.02-.19.03-.3.02,0,0,0,0,0,0,.09-.06.19-.06.29-.06.1,0,.2,0,.3,0h0Z"/>
      <path class="cls-1" d="m13.26,24.93c-.16,0-.37-.02-.5-.09-.19-.11-.45-.15-.6-.17-.03,0-.05,0-.06-.01-.09-.02-.42,0-.42,0-.01,0-.18-.02-.24-.15-.05-.1-.01-.24.1-.41.34-.49.72-1.18.9-1.59.18-.43.17-.93.17-.93h.06s.01.51-.17.96c-.17.42-.56,1.11-.9,1.61-.1.15-.14.27-.1.35.05.1.18.11.19.11,0,0,.33-.01.43,0,.02,0,.04,0,.06.01.15.02.42.06.62.18.22.12.67.08.68.08h0s0,0,0,0c0,0,.07,0,.19-.27.08-.18.24-.35.4-.53.13-.14.26-.28.36-.43.24-.35.39-.6.54-1.44h.06c-.16.87-.3,1.11-.55,1.48-.11.16-.24.3-.37.44-.16.18-.32.34-.39.51-.13.29-.22.31-.26.3-.02,0-.1,0-.21,0Z"/>
      <path class="cls-1" d="m11.38,24.5c-.14,0-.44-.05-.62-.09-.16-.03-.45-.04-.57-.05-.12,0-.56-.05-.58-.05v-.06s.47.05.58.05c.12,0,.41.02.58.05.33.06.56.09.64.09v.06s-.02,0-.03,0Z"/>
      <path class="cls-1" d="m13.81,24.5v-.06s1.67-.12,2.08-.2l.08-.02c.5-.1,1.82-.37,2.16-.59l.03-.02.03.05-.03.02c-.35.22-1.68.5-2.18.6l-.08.02c-.42.09-2.02.2-2.09.21Z"/>
      <path class="cls-1" d="m18.16,23.5c.12-.11.16-.27.25-.4,0,0,0,0,0,0,.02.09-.02.17-.07.24-.05.07-.11.12-.18.17h0Z"/>
      <path class="cls-1" d="m7.79,16.08c.05.38.16.74.2,1.12-.1-.15-.12-.37-.15-.55-.02-.18-.06-.39-.05-.57h0Z"/>
      <path class="cls-1" d="m7.86,17.85c.05.24.11.48.16.72,0,0,0,0,0,0-.09-.09-.11-.23-.13-.35-.02-.12-.03-.25-.03-.37,0,0,0,0,0,0h0Z"/>
      <path class="cls-1" d="m9.83,21.41c.55-.16,1.18-.26,1.72-.02,0,0,0,0,0,0-.28-.06-.57-.09-.86-.09-.29,0-.59.05-.86.11h0Z"/>
      <path class="cls-1" d="m19.21,25.1c.29-.25.53-.57.67-.93,0,0,0,0,0,0,0,.2-.12.38-.25.53-.12.14-.28.31-.43.39h0Z"/>
      <path class="cls-1" d="m15.66,26.68c-.54,0-1.86-.06-1.93-.06,0,0-.6,0-1.92-.27-1.33-.26-1.81-.62-1.83-.63l.04-.05s.5.36,1.81.62c1.32.26,1.9.27,1.91.27.55.03,2.01.09,2.13.06.03,0,.11-.01.27-.03.64-.05,2.34-.18,2.93-.67.48-.41.57-.48.58-.5h0s.05-.02.06,0c.02.03.03.03-.59.55-.6.5-2.32.63-2.96.68-.13.01-.24.02-.26.02-.03,0-.11,0-.22,0Z"/>
      <path class="cls-1" d="m15.84,26.61c-.03-.3.12-2.28.13-2.37h.06s-.16,2.06-.13,2.36h-.06Z"/>
      <path class="cls-1" d="m14.93,27.75c0-.22-.03-.8-.07-.89-.03-.06-.36-.16-.67-.22v-.06c.12.02.68.13.73.25.05.12.07.83.07.92h-.06Z"/>
      <path class="cls-1" d="m11.28,27.76c-.5,0-1.55-.6-1.6-.63l.03-.05s1.15.66,1.61.62v.06s-.03,0-.04,0Z"/>
      <path class="cls-1" d="m18.29,27.76v-.06c.84-.06,1.61-.65,1.62-.65l.04.05s-.79.6-1.66.66Z"/>
    </g>
  </g>
</svg>