<svg width="30" height="30" viewBox="0 0 30 30" fill="none" xmlns="http://www.w3.org/2000/svg">
<path d="M26.1794 21.3323L18.2704 19.033V18.3551H20.3034C22.0092 18.3551 23.3969 16.9674 23.3969 15.2616V8.39684C23.3969 3.76676 19.6301 0 15.0001 0C10.3701 0 6.60325 3.76676 6.60325 8.39684V15.2616C6.60325 16.9675 7.99099 18.3552 9.69683 18.3552H11.7297V19.0331L3.81571 21.3339C2.62819 21.6946 1.83032 22.7709 1.83032 24.012V29.9634H2.71421V24.012C2.71421 23.1628 3.26013 22.4264 4.06755 22.1811L8.90136 20.7758V26.0449H11.3876L15.0001 30L18.6126 26.0449H21.0989V20.7757L25.9275 22.1796C26.74 22.4264 27.286 23.1628 27.286 24.012V29.9634H28.1699V24.012C28.1699 22.7709 27.3719 21.6946 26.1794 21.3323ZM16.4557 16.8269C16.4467 16.8297 16.4376 16.8325 16.4285 16.8353C16.3628 16.8555 16.2964 16.8744 16.2295 16.8919C16.2221 16.8938 16.2148 16.8959 16.2074 16.8979C16.1367 16.916 16.0654 16.9323 15.9936 16.9473C15.9778 16.9506 15.9619 16.9535 15.946 16.9566C15.8894 16.9678 15.8324 16.978 15.7752 16.9872C15.7559 16.9903 15.7367 16.9936 15.7173 16.9964C15.647 17.0068 15.5762 17.0161 15.505 17.0235C15.4925 17.0248 15.4799 17.0256 15.4673 17.0268C15.406 17.0327 15.3444 17.0373 15.2825 17.0408C15.2622 17.042 15.2419 17.0431 15.2216 17.044C15.148 17.0473 15.0743 17.0496 15 17.0496C14.9257 17.0496 14.8519 17.0473 14.7784 17.044C14.758 17.043 14.7377 17.0419 14.7174 17.0408C14.6555 17.0372 14.5939 17.0326 14.5326 17.0268C14.5201 17.0255 14.5075 17.0248 14.495 17.0235C14.4236 17.0161 14.3529 17.0068 14.2826 16.9964C14.2633 16.9935 14.2441 16.9903 14.2248 16.9872C14.1675 16.978 14.1105 16.9678 14.0539 16.9566C14.038 16.9535 14.0222 16.9506 14.0063 16.9473C13.9345 16.9324 13.8632 16.916 13.7926 16.8979C13.7851 16.896 13.7779 16.8939 13.7704 16.8919C13.7035 16.8744 13.6371 16.8554 13.5714 16.8353C13.5623 16.8325 13.5533 16.8298 13.5443 16.8269C11.5726 16.2068 10.1386 14.362 10.1386 12.1884V9.18328C10.1386 7.5559 11.3551 6.20742 12.9267 5.99959C13.1667 9.01377 15.6963 11.393 18.7711 11.393H19.8613V12.1884C19.8614 14.362 18.4273 16.2068 16.4557 16.8269ZM9.69683 17.4713C8.47837 17.4713 7.48714 16.4801 7.48714 15.2616V8.39684C7.48714 4.25414 10.8574 0.883887 15.0001 0.883887C19.1428 0.883887 22.513 4.25414 22.513 8.39684V15.2616C22.513 16.4801 21.5218 17.4713 20.3034 17.4713H18.2704V16.9092C19.7648 15.8708 20.7453 14.1421 20.7453 12.1884V10.5091H18.7713C16.0258 10.5091 13.7921 8.27543 13.7921 5.5299V5.08799H13.3502C11.0921 5.08799 9.25491 6.92514 9.25491 9.18328V12.1884C9.25491 14.1421 10.2354 15.8707 11.7297 16.9092V17.4713H9.69683ZM11.7773 25.161H9.78524V20.5188L11.8845 19.9085L14.0698 27.6708L11.7773 25.161ZM15 27.714L12.6135 19.2371V17.4155C12.8329 17.5158 13.0583 17.6016 13.2882 17.6732C13.2906 17.6739 13.2931 17.6747 13.2956 17.6755C13.3317 17.6867 13.3681 17.6974 13.4044 17.708C13.417 17.7116 13.4296 17.7154 13.4423 17.7189C13.4724 17.7274 13.5025 17.7355 13.5327 17.7434C13.5519 17.7485 13.5712 17.7536 13.5906 17.7585C13.6162 17.765 13.6419 17.7712 13.6675 17.7773C13.6917 17.7831 13.7161 17.7887 13.7404 17.7942C13.7626 17.7992 13.7849 17.8041 13.8071 17.8088C13.835 17.8147 13.863 17.8203 13.891 17.8259C13.9108 17.8297 13.9305 17.8336 13.9503 17.8372C13.9809 17.8429 14.0117 17.8482 14.0424 17.8535C14.0603 17.8564 14.0781 17.8596 14.096 17.8624C14.1287 17.8676 14.1616 17.8723 14.1944 17.877C14.2109 17.8792 14.2273 17.8817 14.2438 17.8839C14.278 17.8884 14.3124 17.8925 14.3467 17.8964C14.3623 17.8982 14.3778 17.9001 14.3933 17.9018C14.4283 17.9055 14.4635 17.9087 14.4986 17.9117C14.5138 17.913 14.5289 17.9145 14.5441 17.9157C14.5797 17.9186 14.6156 17.9208 14.6514 17.923C14.6662 17.9238 14.6809 17.925 14.6957 17.9258C14.7331 17.9277 14.7705 17.929 14.8081 17.9303C14.8213 17.9307 14.8346 17.9314 14.8478 17.9318C14.8984 17.9331 14.9491 17.9338 15 17.9338C15.0509 17.9338 15.1016 17.9331 15.1523 17.9318C15.1655 17.9314 15.1787 17.9307 15.192 17.9303C15.2295 17.929 15.267 17.9278 15.3044 17.9258C15.3191 17.925 15.3339 17.9238 15.3487 17.923C15.3845 17.9208 15.4203 17.9186 15.4559 17.9157C15.4711 17.9146 15.4863 17.913 15.5014 17.9117C15.5366 17.9087 15.5718 17.9055 15.6068 17.9018C15.6224 17.9002 15.6379 17.8982 15.6534 17.8964C15.6877 17.8925 15.7221 17.8884 15.7563 17.884C15.7728 17.8818 15.7892 17.8794 15.8056 17.877C15.8385 17.8724 15.8713 17.8676 15.9041 17.8624C15.922 17.8596 15.9398 17.8565 15.9577 17.8535C15.9885 17.8483 16.0192 17.843 16.0499 17.8373C16.0696 17.8337 16.0893 17.8298 16.1091 17.8259C16.1372 17.8204 16.1651 17.8148 16.193 17.8088C16.2153 17.8041 16.2375 17.7993 16.2597 17.7943C16.284 17.7888 16.3084 17.7832 16.3326 17.7773C16.3582 17.7712 16.3839 17.765 16.4095 17.7585C16.4288 17.7537 16.4482 17.7486 16.4675 17.7435C16.4976 17.7355 16.5277 17.7275 16.5578 17.719C16.5704 17.7154 16.583 17.7117 16.5957 17.7081C16.6321 17.6975 16.6685 17.6868 16.7048 17.6756C16.707 17.6749 16.7092 17.6742 16.7115 17.6735C16.9414 17.6018 17.1669 17.516 17.3865 17.4156V19.2371L15 27.714ZM20.215 25.161H18.2229L15.9304 27.6708L18.1158 19.9085L20.215 20.5188V25.161Z" fill="white"/>
<path d="M6.83872 26.4868H5.95483V29.9634H6.83872V26.4868Z" fill="white"/>
<path d="M24.045 26.4868H23.1611V29.9634H24.045V26.4868Z" fill="white"/>
</svg>
