<?xml version="1.0" encoding="UTF-8"?>
<svg id="Layer_2" data-name="Layer 2" xmlns="http://www.w3.org/2000/svg" viewBox="0 0 35 33.63">
  <defs>
    <style>
      .cls-1 {
        fill: #fff;
        stroke: #fff;
        stroke-miterlimit: 10;
        stroke-width: .25px;
      }

      .cls-2 {
        fill: none;
      }
    </style>
  </defs>
  <g id="Layer_2-2" data-name="Layer 2">
    <g>
      <rect class="cls-2" width="35" height="33.63"/>
      <g>
        <path class="cls-1" d="m23.66,32.41h-12.89l.49-.73c0-.13,0-1.17.34-1.71,0,0-.01,0-.02-.02-.11-.08-.31-.41-.43-1.61h0c-.07,0-.21,0-.38-.09-.27-.14-.65-.53-.95-1.57,0,0-.13-.62-.87-1.39h0s0-.02,0-.02c0-.01-.05-.32.12-.8.16-.47.02-2.54.02-2.56l.07-1.08c-.02-.07-.15-.66-.08-1.02.07-.35-.03-1.52-.03-1.53,0,0-.1-.81.24-1.74.35-.93,1.49-1.56,1.5-1.57h0s0,0,0,0c0,0,.82,0,1.3-.09-.11-.18-.51-.87-.41-1.59.05-.36.26-.62.47-.9.28-.35.56-.71.55-1.32-.02-1.09-.19-2.36-.19-2.37,0-.02-.03-1.46.48-2.47.22-.43.44-.91.63-1.33.28-.6.5-1.08.61-1.19.16-.17.67-.7,1.23-.93.02,0,.29-.08.45.04.21-.16,1.61-1.18,3.39.21,1.9,1.48,2.86,5.13,2.86,5.17,0,0,.38,1.03.57,1.39.15.28.23.83.28,1.23.02.12.03.22.05.3.05.29.13.93.13.99.03.08.4.94.29,1.95h0c-.11.32-.35,1.15-.24,1.39.16-.02,1.07-.09,1.62.55.6.71.71,1.06.85,2.04l.04.28c.13.94.31,2.22.53,2.75h0s.08.63.08.63c.05.03.22.13.28.2h.01v.52c.05.08.37.56.18,1.18-.08.25-.13.57-.18.92-.08.52-.17,1.12-.39,1.61-.37.82-.92,1.02-.94,1.03h-.01s-1.77.09-1.77.09c-.05.01-.17.06-.18.11,0,.02,0,.04,0,.09-.01.24-.04.8-.28,1.2,0,.1.03.82-.16,1.17.05.07.22.32.22.74,0,.46.16,1.02.16,1.02,0,0,.18.58.32.77l.05.06Zm-12.75-.07h12.61c-.14-.23-.29-.71-.3-.74,0,0-.17-.57-.17-1.04s-.21-.71-.21-.71l-.02-.02v-.02c.21-.34.17-1.16.17-1.16h0s0-.02,0-.02c.23-.39.26-.96.28-1.18,0-.04,0-.08,0-.09.02-.12.22-.17.24-.17l1.77-.09c.05-.02.56-.24.89-.99.22-.49.31-1.08.39-1.6.05-.34.1-.67.18-.93.19-.62-.17-1.12-.17-1.12h0v-.52c-.08-.07-.27-.18-.27-.19h-.02s-.08-.66-.08-.66c-.23-.54-.41-1.82-.54-2.76l-.04-.28c-.14-.97-.25-1.31-.83-2.01-.57-.68-1.56-.53-1.57-.53h-.02s-.01-.02-.01-.02c-.18-.27.17-1.32.22-1.46.11-1.03-.28-1.9-.28-1.91h0s-.08-.7-.13-1c-.01-.07-.03-.18-.05-.3-.05-.37-.13-.93-.28-1.2-.19-.36-.56-1.36-.58-1.4-.01-.04-.96-3.66-2.84-5.13-1.87-1.46-3.31-.21-3.32-.19l-.03.02-.02-.03c-.12-.13-.39-.05-.39-.05-.54.22-1.04.74-1.2.91-.1.11-.33.6-.59,1.17-.2.42-.42.91-.64,1.33-.51.99-.47,2.42-.47,2.43,0,0,.17,1.28.19,2.37.01.63-.28,1-.56,1.36-.21.27-.41.52-.46.86-.11.79.42,1.57.42,1.58l.03.04h-.05c-.46.12-1.26.12-1.36.12-.1.06-1.14.66-1.46,1.53-.34.91-.24,1.7-.24,1.71,0,.05.1,1.19.03,1.55-.07.35.07.98.08.99h0s-.07,1.09-.07,1.09c0,.08.14,2.1-.02,2.58-.14.41-.12.7-.11.76.75.79.88,1.39.88,1.42.29,1.01.66,1.38.91,1.52.22.12.37.07.37.07h.04s0,.08,0,.08c.16,1.55.43,1.58.44,1.58h.08s-.05.06-.05.06c-.37.53-.35,1.71-.35,1.72h0s-.42.64-.42.64Z"/>
        <path class="cls-1" d="m17.43,12.4c-.23,0-.51-.02-.75-.12-.4-.16-.71-.4-.98-.6-.06-.05-.12-.09-.17-.13-.33-.25-.62-.75-.63-.77-.02-.03-.37-.72-.38-1.01-.01-.28-.11-.61-.16-.74-.04-.1-.06-.21-.08-.35-.01-.06-.02-.13-.04-.2-.05-.24-.07-.92-.07-.95,0-.04.04-1.04.1-1.2.03-.1.08-.18.13-.26.03-.06.07-.11.1-.18.03-.06.07-.14.12-.23.08-.14.17-.32.24-.48.11-.27.4-.53.42-.55.21-.22.49-.33.5-.34h.01s.01,0,.01,0c.54.11,1.96.12,1.97.12h.01s.16.06.5.42c.24.25.33.49.45.84.06.17.13.36.23.6.17.39.35.58.53.77.14.15.27.28.38.5.24.49.53,2.52-.22,3.55-.73,1-1.73,1.3-1.74,1.3-.02,0-.21.03-.46.03Zm-1.65-8.05c-.05.02-.29.13-.47.32h0s-.3.27-.41.53c-.07.17-.16.35-.24.49-.05.09-.09.16-.11.22-.03.07-.07.13-.1.18-.05.08-.09.16-.12.25-.04.13-.08.83-.09,1.18,0,0,.02.71.07.94.02.07.03.14.04.2.03.13.05.24.08.34.05.15.15.48.16.76.01.27.37.97.38.98,0,0,.29.51.61.75.06.04.12.09.18.13.28.21.57.44.96.59.47.19,1.16.08,1.16.08,0,0,.99-.29,1.7-1.27.72-.99.44-3.01.21-3.47-.1-.21-.23-.34-.36-.49-.17-.18-.37-.39-.54-.79-.1-.24-.17-.43-.23-.6-.13-.35-.21-.57-.43-.81-.3-.31-.44-.39-.47-.4-.12,0-1.43-.02-1.97-.12Z"/>
        <path class="cls-1" d="m16.13,3.78c1.29.07,2.11.62,2.6,1.81.13.35.28.69.46,1.02.18.32.39.64.68.87.15.1.33.19.48.28.36.22.73.47.94.85.18.43.13,1.13-.14,1.5.23-.44.26-1.02.08-1.48-.02-.03-.05-.09-.07-.11-.28-.37-.69-.61-1.09-.84,0,0-.12-.07-.12-.07-.21-.12-.37-.31-.51-.5-.33-.46-.56-.98-.75-1.51-.5-1.22-1.27-1.72-2.55-1.83h0Z"/>
        <path class="cls-1" d="m14.1,6.22c.22-.19.39-.43.56-.66.08-.12.15-.24.19-.38.03-.14.08-.29.18-.41.2-.22.47-.36.73-.49,0,0,.2-.09.2-.09.21-.07.44-.07.66-.03,0,0,0,0,0,0-.15,0-.29,0-.43.02-.07.01-.14.03-.2.06l-.19.1c-.25.13-.52.26-.72.46-.1.11-.14.24-.18.38-.04.14-.12.27-.21.39-.18.23-.36.46-.59.65,0,0,0,0,0,0h0Z"/>
        <path class="cls-1" d="m14.33,9.66s0,0,0,0c-.18,0-.42-.4-.45-.44h0s0-.02,0-.02c0,0-.05-.6-.26-1.14-.22-.57,0-.71.02-.72l.04.06-.02-.03.02.03s-.18.12.02.63c.19.51.25,1.07.26,1.15.1.15.28.39.39.4.02,0,.03,0,.05-.02.13-.17-.01-.54-.01-.55l-.22-.73c-.07-.13-.64-1.16-.62-1.4h.07c-.02.19.44,1.05.61,1.36h0s.22.74.22.74c0,.01.16.41,0,.61-.03.03-.06.05-.1.05Z"/>
        <path class="cls-1" d="m22.16,20.72l.03-.1c.24-.93-.18-1.18-.18-1.18l-.83-.55s-.5-.37-.65-.49c-.16-.14-.54-.64-.67-.84-.15-.22-.09-1.14-.03-1.25.02-.04.1-.23.38-1.08v-.02c.04-.1.05-.44.05-.56l-.04-.52s-.17-.46-.37-.67c-.21-.24-.36-.65-.36-.66h0s-.06-.83.02-1.1c.08-.26.5-1.85.5-1.87l.07.02s-.43,1.61-.5,1.87c-.07.25-.02,1-.01,1.06.02.04.15.42.35.63.21.24.38.68.38.7h0s.04.53.04.53c0,.02,0,.46-.04.59v.02c-.23.66-.36,1.03-.4,1.1-.05.09-.11.97.02,1.17.15.22.52.7.66.82.15.12.64.49.65.49l.83.55s.44.25.24,1.16c.2-.15.71-.57,1-1.04.36-.59.66-1.5.66-1.51,0-.01.31-.76,0-1.42-.15-.31-.3-.46-.43-.58-.16-.15-.29-.28-.37-.62l.07-.02c.07.32.2.44.35.59.14.13.29.28.45.61.32.69.01,1.44,0,1.47,0,0-.3.93-.67,1.53-.37.6-1.1,1.11-1.1,1.12l-.08.06Z"/>
        <path class="cls-1" d="m22.19,9.62c0,.32-.04.66.11.96,0,0,.08.18.08.18.16.34.34.72.54,1.05.12.23.29.46.37.7-.21-.33-.45-.65-.62-1.01-.1-.21-.23-.51-.32-.72-.04-.11-.12-.25-.15-.37-.05-.26-.03-.53,0-.79,0,0,0,0,0,0h0Z"/>
        <path class="cls-1" d="m20.22,17.58c.02.3.19.55.37.79,0,0,0,0,0,0-.14-.06-.25-.2-.29-.35-.06-.14-.08-.3-.08-.45h0Z"/>
        <path class="cls-1" d="m23.75,16.96c.1.19.16.39.2.61.04.2.05.46-.04.63,0-.21,0-.42-.01-.63-.01-.21-.09-.43-.14-.61h0Z"/>
        <path class="cls-1" d="m22.77,14.46c-.05.3-.02.64.17.88.19.24.43.45.65.66.25.27.25.28-.04.04-.3-.23-.62-.52-.77-.88-.07-.21-.08-.5-.02-.7h0Z"/>
        <path class="cls-1" d="m13.13,8.26c-.3.33-.36.79-.51,1.19,0,0,0,0,0,0,0-.34.13-.65.3-.94.06-.09.13-.18.21-.26h0Z"/>
        <path class="cls-1" d="m12.45,11.97c.28-.22.39-.59.45-.93-.03.27-.09.54-.23.78-.05.08-.1.15-.18.22l-.04-.06h0Z"/>
        <path class="cls-1" d="m15.33,12.86h-.07c.01-.29-.06-1.61-.06-1.62h.07c0,.05.08,1.33.06,1.62Z"/>
        <path class="cls-1" d="m15.24,12.28c-.18-.04-.33.1-.42.24-.1.14-.19.29-.28.44-.18.29-.37.6-.54.89-.04.1-.09.2-.11.31,0,.1.01.22.02.33.02.22.04.44.05.66,0,.11.01.39.01.5,0,0,0,.02,0,.02,0,0,0,.02,0,.02,0,0,0,0,0,0,0,0,0-.01,0-.02,0,0-.01-.01-.02-.01.6-.5,1.2-1.1,1.79-1.65.34-.28.66.01.79.34,0,0,0,0,0,0-.1-.18-.25-.39-.47-.42-.23-.01-.37.2-.52.34-.31.32-.64.62-.96.92-.2.17-.39.36-.6.51,0,0,0,0-.02,0,0,0-.01,0-.01,0-.01,0-.02-.02-.02-.04,0,0,0-.02,0-.03,0-.1,0-.39,0-.5,0-.22-.02-.44-.04-.66,0-.11-.02-.22-.01-.34.02-.12.07-.21.12-.32.18-.3.37-.59.56-.88.09-.15.19-.29.29-.43.09-.15.25-.29.43-.24,0,0,0,0,0,0h0Z"/>
        <path class="cls-1" d="m18.99,23.45h-.07s0-.11,0-.11c.11-1.97-.4-3.94-.56-4.59-.17-.67-.75-1.95-.75-1.96l-.36-1.03c0-.19-.03-.58-.05-.66,0-.03-.07-.1-.13-.18-.15-.17-.35-.4-.41-.65-.06-.25-.16-.3-.28-.37-.05-.03-.1-.06-.15-.1-.05-.05-.14-.12-.25-.21-.23-.19-.52-.43-.66-.57-.2-.21-.28-.55-.29-.56l.07-.02s.09.34.27.53c.13.14.43.38.65.57.1.09.2.16.25.21.04.04.09.06.14.09.12.07.25.14.31.42.05.23.25.46.39.62.09.11.14.17.15.21.02.11.05.61.05.67l.35,1.01s.58,1.29.75,1.97c.17.66.68,2.63.57,4.62v.11Z"/>
        <path class="cls-1" d="m20.25,15.19c-.09-.17-.19-.33-.3-.49-.16-.23-.33-.47-.59-.6-.29-.15-.53-.1-.72.17,0,0,0,0,0,0,.04-.09.1-.17.18-.23.26-.2.62-.03.81.18.25.28.48.64.62.97h0Z"/>
        <path class="cls-1" d="m17.82,17.11l-.07-.02c.1-.33.38-1.31.41-1.46.01-.07.01-.17.02-.3,0-.15,0-.34.03-.53.04-.37.28-.78.62-1.08.33-.29.66-.95.66-.96l.07.03s-.34.68-.68.98c-.33.29-.55.68-.6,1.03-.02.2-.03.38-.03.53,0,.13,0,.24-.02.31-.03.18-.41,1.45-.41,1.46Z"/>
        <path class="cls-1" d="m12.16,14.93l-.02-.07s.45-.12.76-.22c.31-.1.94-.47.94-.47l.04.06s-.64.38-.96.48c-.31.1-.76.22-.76.22Z"/>
        <path class="cls-1" d="m11.44,14.95c.18.04.34.13.48.24-.08-.05-.16-.08-.24-.11-.08-.03-.17-.05-.25-.06,0,0,0-.07,0-.07h0Z"/>
        <path class="cls-1" d="m11.78,16.81c.05.35.16.67.3,1,.11.33.21.66.28,1.01.11.69.11,1.39.22,2.08,0,0,.07.52.07.52.08.52,0,1.05.09,1.56.09.6.28,1.19.54,1.73.04.08.08.15.14.22h0c-.12-.13-.19-.29-.27-.44-.22-.48-.39-.98-.47-1.5-.09-.52,0-1.05-.08-1.56,0,0-.07-.52-.07-.52-.11-.69-.09-1.39-.2-2.08-.06-.34-.16-.68-.27-1.01-.12-.32-.25-.66-.28-1h0Z"/>
        <path class="cls-1" d="m11.79,19.82c.24.38.45.79.61,1.21.17.42.29.87.28,1.33,0,0,0,0,0,0-.13-.89-.46-1.76-.88-2.54h0Z"/>
        <path class="cls-1" d="m20.76,27.09h-.01s-.99-.31-1.38-.52c-.25-.13-.88-.33-1.38-.48-.28-.08-.51-.16-.63-.2-.33-.13-1.51-.52-1.83-.58-.32-.06-.86-.12-.98-.11l-.55-.04s-.35-.03-.61-.19h-.01c-.06-.1-.24-.38-.25-.47-.02-.06-.24-.62-.28-.74l.07-.02c.04.12.27.73.28.74h0c0,.05.12.26.23.43.24.15.57.18.57.18l.55.04c.12-.01.69.06.99.11.32.06,1.51.46,1.84.59.12.05.35.12.63.2.51.15,1.14.35,1.39.49.37.2,1.28.49,1.36.51h.53c.06,0,.13-.01.15-.02.01-.04,0-.24,0-.4,0-.03-.12-.61-.29-1.06-.17-.44-.58-1.47-.7-1.71-.09-.19-.17-.24-.18-.25h-.06s-.54-.03-.54-.03c-.01,0-.87-.08-1.13-.08-.21,0-.76-.09-1.09-.15-.07-.01-.13-.02-.17-.03-.11-.02-.33-.06-.59-.11-.32-.06-.68-.13-.9-.17-.39-.06-.88-.03-.88-.02h0s0,0,0,0c-1.01-.15-1.18-.03-1.19-.03h0s-.87.43-.87.43l-.03-.07.87-.43s.26-.13,1.24.02c.05,0,.52-.04.9.03.22.04.58.11.9.17.26.05.48.09.59.11.04,0,.1.02.18.03.33.06.87.15,1.08.14.26,0,1.1.08,1.13.08l.62.03s.11.04.23.29c.12.24.53,1.27.7,1.72.16.44.29,1.02.3,1.08.03.42,0,.45-.01.46-.03.03-.14.04-.2.05h-.54Z"/>
        <path class="cls-1" d="m21.63,27.67c-.14,0-.28-.01-.38-.05-.31-.11-.49-.47-.52-.54l.07-.03c.08.18.25.43.47.5.22.08.67.04,1.03-.02.15-.02.57-.15,1.27-.39.03-.01.05-.02.06-.02.04-.03.38-.34.4-.68.03-.37-.07-.71-.13-.83-.05-.12-.42-1.09-.54-1.63-.09-.43-.21-.6-.28-.7-.02-.02-.03-.04-.04-.06-.02-.04-.13-.05-.2-.05-.02,0-2,0-2.48.07-.45.06-.59.28-.59.28l-.06-.04s.15-.25.64-.31c.48-.07,2.4-.07,2.48-.07.04,0,.23,0,.27.09,0,.01.02.03.03.05.07.1.19.28.29.72.12.54.48,1.51.53,1.62.06.13.17.48.14.87-.03.39-.42.74-.45.75,0,0-.03,0-.06.02-.7.23-1.13.37-1.28.39-.12.02-.41.06-.68.06Z"/>
        <path class="cls-1" d="m22.49,23.09l-.05-.05c.11-.11.36-.71.45-1.05.08-.33,0-1.93-.01-1.95h.07c0,.06.09,1.63,0,1.97-.08.34-.34.96-.46,1.09Z"/>
        <path class="cls-1" d="m23.1,20.63c.01.22.01.45,0,.67-.01.21-.03.5-.16.65.04-.22.06-.44.1-.66.02-.22.04-.44.05-.67,0,0,0,0,0,0h0Z"/>
        <path class="cls-1" d="m22.41,23.16l-.06-.04.27-.42c.39-.6.73-.84,1.07-1.06.3-.19.44-.22.73-.3.07-.02.15-.04.25-.07.19-.05.29-.15.27-.26-.01-.08-.08-.14-.13-.14-.14,0-.36.07-.36.07-.42.06-.63.24-.81.41-.06.05-.12.1-.17.14-.23.16-.54.56-.54.56l-.06-.04s.32-.41.55-.58c.06-.04.11-.09.17-.14.18-.16.41-.36.84-.42,0,0,.23-.07.38-.07.09,0,.18.09.2.2,0,.07,0,.24-.32.34-.09.03-.18.05-.25.07-.28.07-.42.11-.71.29-.34.21-.67.44-1.05,1.03l-.27.42Z"/>
        <path class="cls-1" d="m22.93,23.16l-.06-.04c.07-.09.47-.56.49-.58.15-.18.28-.26.5-.39.06-.03.12-.07.2-.12.2-.12.66-.28,1.06-.41.31-.1.61-.2.66-.25.09-.08.08-.18.06-.22l-.08-.02c-.36-.04-.84.09-.85.09l-.02-.07s.5-.13.88-.09l.12.03v.02c.03.07.05.22-.07.32-.06.05-.3.13-.69.26-.4.13-.85.28-1.05.4-.08.05-.14.08-.2.12-.22.13-.34.2-.48.37,0,0-.42.49-.49.58Z"/>
        <path class="cls-1" d="m22.99,23.19v-.07s.58-.01.58-.01c.27-.3.92-.66.95-.67.49-.23.8-.23.86-.23.04-.02.34-.13.45-.45.02-.07.02-.12,0-.14-.07-.07-.3-.04-.43,0l-.02-.07s.38-.11.5.02c.05.05.06.12.03.22-.13.39-.49.5-.51.5h0s0,0,0,0c0,0-.32-.02-.83.22,0,0-.68.38-.94.67h-.01s-.61.02-.61.02Z"/>
        <path class="cls-1" d="m23.75,23.19c-.07,0-.11,0-.12,0v-.07s.4.03.84-.12c.45-.15.79-.41.82-.43,0-.02,0-.19-.01-.32h.07c.03.34,0,.37-.01.38-.02.03-.37.29-.85.45-.32.11-.6.12-.75.12Z"/>
        <path class="cls-1" d="m26.02,22.34c-.26.02-.46.19-.71.25,0,0,0,0,0,0,.09-.1.2-.16.33-.2.12-.04.25-.07.38-.06h0Z"/>
        <path class="cls-1" d="m26.02,21.71c.08-.01.17-.03.25-.03.03,0,.06.02.08.05h0c-.06.03-.11.03-.16.02-.05,0-.11-.02-.16-.03h0Z"/>
        <path class="cls-1" d="m26.35,22.14c.11.12.23.23.32.36.03.05.05.1.06.16h0c-.08-.07-.15-.15-.2-.24-.06-.09-.12-.18-.18-.27,0,0,0,0,0,0h0Z"/>
        <path class="cls-1" d="m26.63,23.62c.04.19.08.39.06.59,0,.07-.03.13-.06.19h0c0-.12,0-.28,0-.39,0-.13,0-.26,0-.39,0,0,0,0,0,0h0Z"/>
        <path class="cls-1" d="m25.76,22.72l-.34.05c-.12.02-.23.03-.34.02,0,0,0,0,0,0,.1-.07.22-.07.34-.07.12,0,.23,0,.35,0h0Z"/>
        <path class="cls-1" d="m15.47,29.09c-.18,0-.43-.02-.59-.11-.22-.13-.53-.17-.7-.2-.03,0-.06,0-.07-.01-.11-.02-.49,0-.49,0-.01,0-.21-.02-.28-.17-.06-.12-.02-.28.12-.48.39-.57.84-1.37,1.04-1.86.21-.5.19-1.08.19-1.09h.07s.02.6-.2,1.12c-.2.49-.66,1.29-1.05,1.87-.12.17-.16.31-.11.4.05.11.21.13.22.13.01,0,.38-.02.5,0,.02,0,.04,0,.07.01.17.03.49.08.72.21.25.15.78.09.79.09h0s0,0,0,0c0,0,.09,0,.22-.31.09-.21.28-.41.47-.62.15-.16.3-.32.42-.5.28-.41.45-.69.63-1.68h.07c-.18,1.01-.35,1.3-.64,1.72-.13.18-.28.35-.43.51-.19.21-.37.4-.46.6-.15.33-.26.36-.3.35-.02,0-.12.01-.24.01Z"/>
        <path class="cls-1" d="m13.28,28.59c-.16,0-.52-.06-.73-.1-.19-.04-.53-.05-.66-.05-.14,0-.66-.06-.68-.06v-.07s.55.06.68.06c.14,0,.48.02.68.06.39.07.66.11.75.1v.07s-.02,0-.03,0Z"/>
        <path class="cls-1" d="m16.12,28.59v-.07s1.95-.14,2.43-.24l.09-.02c.58-.12,2.13-.44,2.52-.69l.04-.02.04.06-.04.02c-.41.26-1.96.58-2.55.7l-.09.02c-.48.1-2.36.23-2.44.24Z"/>
        <path class="cls-1" d="m21.19,27.42c.14-.13.19-.31.29-.47,0,0,0,0,0,0,.02.1-.02.2-.09.28-.06.08-.13.15-.21.2h0Z"/>
        <path class="cls-1" d="m9.09,18.76c.06.44.19.86.24,1.3-.11-.18-.14-.43-.17-.64-.02-.22-.07-.46-.06-.66h0Z"/>
        <path class="cls-1" d="m9.16,20.82c.05.28.13.56.19.85,0,0,0,0,0,0-.11-.11-.13-.27-.15-.41-.02-.14-.03-.29-.04-.44,0,0,0,0,0,0h0Z"/>
        <path class="cls-1" d="m11.47,24.98c.64-.19,1.37-.3,2-.02,0,0,0,0,0,0-.33-.07-.66-.11-1-.11-.33,0-.69.06-1,.12h0Z"/>
        <path class="cls-1" d="m22.41,29.28c.34-.3.61-.66.79-1.08,0,0,0,0,0,0,0,.23-.14.45-.29.62-.14.16-.33.36-.5.46h0Z"/>
        <path class="cls-1" d="m18.27,31.12c-.63,0-2.17-.07-2.25-.07,0,0-.69,0-2.24-.31-1.55-.31-2.11-.72-2.14-.74l.04-.06s.58.42,2.11.72c1.53.3,2.22.31,2.23.31.65.03,2.35.1,2.49.07.03,0,.13-.02.32-.03.75-.06,2.73-.21,3.42-.78.56-.47.66-.56.67-.58h0s.05-.02.06,0c.03.04.03.04-.69.64-.7.59-2.7.74-3.46.8-.15.01-.28.02-.3.03-.03,0-.12.01-.26.01Z"/>
        <path class="cls-1" d="m18.48,31.04c-.04-.35.14-2.66.15-2.76h.07s-.18,2.41-.15,2.75h-.07Z"/>
        <path class="cls-1" d="m17.42,32.37c0-.25-.03-.94-.08-1.04-.03-.07-.42-.19-.78-.25v-.07c.14.02.79.15.85.29.06.14.08.97.08,1.07h-.07Z"/>
        <path class="cls-1" d="m13.16,32.39c-.58,0-1.81-.7-1.87-.73l.04-.06s1.35.77,1.88.72v.07s-.03,0-.05,0Z"/>
        <path class="cls-1" d="m21.34,32.39v-.07c.98-.07,1.88-.75,1.89-.76l.04.06s-.92.7-1.94.78Z"/>
      </g>
    </g>
  </g>
</svg>