<svg width="20" height="20" viewBox="0 0 20 20" fill="none" xmlns="http://www.w3.org/2000/svg">
<path fill-rule="evenodd" clip-rule="evenodd" d="M1 3.57143C1 2.15127 2.15127 1 3.57143 1H4.74711C5.48457 1 6.1274 1.50191 6.30627 2.21735L7.25409 6.00865C7.41092 6.63597 7.17652 7.29618 6.65922 7.68416L5.5504 8.51577C5.43526 8.60213 5.41023 8.72858 5.44257 8.81687C6.41587 11.4738 8.52616 13.5841 11.1831 14.5574C11.2714 14.5898 11.3979 14.5647 11.4842 14.4496L12.3158 13.3408C12.7038 12.8235 13.364 12.5891 13.9913 12.7459L17.7826 13.6937C18.4981 13.8726 19 14.5154 19 15.2529V16.4286C19 17.8487 17.8487 19 16.4286 19H14.5C7.04416 19 1 12.9558 1 5.5V3.57143Z" fill="white"/>
</svg>
