<svg width="60" height="60" viewBox="0 0 60 60" fill="none" xmlns="http://www.w3.org/2000/svg">
<path d="M38.7 45C41.25 43.5 41.25 41.25 41.25 39.75C41.25 38.7 41.25 38.1 41.7 37.65C42.15 37.2 43.05 37.05 44.55 37.05C44.7 37.8 44.7 38.4 44.7 39.15C44.7 39.6 45 39.9 45.45 39.9C45.9 39.9 46.2 39.6 46.2 39.15C46.2 29.1 37.95 20.85 27.9 20.85C17.85 20.85 9.60001 29.1 9.60001 39.15C9.60001 49.2 17.85 57.45 27.9 57.45C32.1 57.45 36 56.1 39.3 53.55C39.6 53.25 39.75 52.8 39.45 52.5C39.3 52.35 39 52.2 38.85 52.2C38.7 52.05 38.85 51.9 39 51.6C39.6 49.95 39.15 48.3 38.7 47.1C38.25 45.6 38.25 45.3 38.7 45ZM28.2 22.5C29.85 22.5 31.5 22.8 33.15 23.25C33.75 25.35 33.9 26.85 33.3 27.75C32.85 28.5 31.95 28.8 31.05 28.95C30.9 28.95 30.6 29.1 30.45 29.1C30 29.25 29.25 29.55 29.1 30.15C28.8 30.9 29.1 31.65 29.4 32.1C29.85 32.85 30.75 33.6 31.8 34.2C32.25 34.5 32.85 34.95 33.3 35.25C33.6 35.4 33.6 35.55 33.6 35.55C33.6 35.55 33.45 35.7 33 35.85C32.85 35.85 32.4 35.85 31.95 35.85C30.75 35.85 29.1 36 27.75 36.3C27.3 36.45 25.95 36.75 25.65 37.95C25.5 38.85 25.95 39.75 27 40.65C28.05 41.55 29.7 43.35 29.55 44.4C29.55 44.55 29.4 44.85 28.95 45.15C27.3 46.05 26.25 45.15 25.35 44.1C24.9 43.65 24.45 42.75 24 41.85C22.95 39.9 21.9 37.8 20.4 37.2C20.25 37.2 20.1 37.05 19.95 37.05C19.05 36.75 17.4 36.45 17.25 32.1C17.25 31.2 16.2 29.25 15.45 28.2C18.3 24.9 22.95 22.5 28.2 22.5ZM21.3 54.15C21.45 54.3 21.6 54.3 21.75 54.6C19.95 53.85 18.45 52.8 16.95 51.6C18 51.3 19.5 51 20.1 51.45C20.4 51.75 20.55 52.35 20.4 52.8C20.4 53.55 21 54 21.3 54.15ZM37.95 43.65C36.3 44.7 36.9 46.2 37.35 47.55C37.8 48.6 38.1 49.8 37.65 51C37.35 51.6 37.2 52.35 37.65 52.95C34.8 54.9 31.65 55.95 28.2 55.95C26.55 55.95 24.9 55.65 23.4 55.2C23.4 53.7 22.8 53.1 22.05 52.65C22.05 51.45 21.75 50.7 21.15 50.1C19.95 49.05 18 49.65 16.65 49.95C16.35 49.95 16.05 50.1 15.75 50.1C13.2 47.1 11.55 43.2 11.55 39C11.55 35.55 12.6 32.4 14.25 29.85C14.85 30.75 15.45 32.1 15.45 32.55C15.75 38.1 18.3 38.7 19.35 39C19.5 39 19.5 39 19.65 39C20.55 39.45 21.6 41.4 22.5 42.9C23.1 43.95 23.55 44.85 24 45.45C24.6 46.05 25.8 47.4 27.6 47.4C28.2 47.4 28.8 47.25 29.55 46.8C30.6 46.2 30.9 45.45 31.05 44.85C31.35 42.6 28.5 40.2 28.05 39.6C27.15 38.85 27.15 38.4 27.15 38.4C27.15 38.4 27.3 38.1 28.2 37.95C29.4 37.65 31.05 37.5 32.1 37.5C32.7 37.5 33.15 37.5 33.3 37.35C34.2 37.2 34.95 36.6 35.1 35.85C35.25 35.4 35.25 34.65 34.35 33.9C33.9 33.45 33.3 33.15 32.85 32.7C32.1 32.1 31.2 31.5 30.9 31.05C30.75 30.75 30.75 30.6 30.75 30.45C30.75 30.45 30.9 30.3 31.2 30.3C31.35 30.3 31.5 30.15 31.8 30.15C32.85 29.85 34.2 29.55 35.1 28.05C35.7 27 35.85 25.35 35.4 23.4C40.2 25.5 43.8 29.85 45 34.95C43.2 34.95 42 35.25 41.25 36C40.35 36.9 40.35 37.95 40.35 39.15C39.75 41.1 39.75 42.6 37.95 43.65ZM48.3 21.75C52.35 26.55 54.75 32.7 54.75 39C54.75 39.45 54.45 39.75 54 39.75C53.55 39.75 53.25 39.45 53.25 39C53.25 33 51.15 27.3 47.25 22.8C46.95 22.5 46.95 21.9 47.4 21.6C47.55 21.45 48 21.45 48.3 21.75ZM10.2 56.7C10.5 57 10.5 57.45 10.2 57.9C10.05 58.05 9.90001 58.2 9.60001 58.2C9.45001 58.2 9.15 58.05 9 57.9C4.2 52.95 1.5 46.35 1.5 39.3C1.5 35.55 2.25 31.8 3.75 28.5C5.25 25.2 7.35002 22.2 10.05 19.8C10.35 19.5 10.95 19.5 11.25 19.8C11.55 20.1 11.55 20.7 11.25 21C6.15 25.8 3.15001 32.4 3.15001 39.45C3.15001 45.75 5.55 51.9 10.2 56.7ZM18.3 15.3C18.15 14.85 18.3 14.4 18.75 14.25C21.75 13.05 24.9 12.6 28.2 12.6C28.65 12.6 29.1 12.6 29.55 12.6C30 12.6 30.3 13.05 30.3 13.5C30.3 13.95 29.85 14.25 29.4 14.25C25.95 14.1 22.5 14.55 19.35 15.9C19.2 15.9 19.2 15.9 19.05 15.9C18.75 15.75 18.45 15.6 18.3 15.3ZM14.55 8.7H16.35C16.8 8.7 17.1 9 17.1 9.45C17.1 9.9 16.8 10.2 16.35 10.2H14.55C14.1 10.2 13.8 9.9 13.8 9.45C13.8 9 14.25 8.7 14.55 8.7ZM13.65 12.6L15 13.95C15.3 14.25 15.3 14.7 15 15.15C14.85 15.3 14.7 15.45 14.4 15.45C14.1 15.45 13.95 15.3 13.8 15.15L12.45 13.8C12.15 13.5 12.15 13.05 12.45 12.6C12.9 12.3 13.35 12.3 13.65 12.6ZM12.45 6.3C12.15 6 12.15 5.55001 12.45 5.10001L13.8 3.75C14.1 3.45 14.55 3.45 15 3.75C15.3 4.05 15.3 4.5 15 4.95L13.65 6.3C13.5 6.45 13.35 6.60001 13.05 6.60001C12.75 6.60001 12.6 6.45 12.45 6.3ZM6.15001 12.6C6.45001 12.9 6.45001 13.35 6.15001 13.8L4.80002 15.15C4.65002 15.3 4.5 15.45 4.2 15.45C3.9 15.45 3.75001 15.3 3.60001 15.15C3.30001 14.85 3.30001 14.4 3.60001 13.95L4.95 12.6C5.4 12.3 5.85001 12.3 6.15001 12.6ZM3.75 4.95C3.45 4.65 3.45 4.2 3.75 3.75C4.05 3.45 4.5 3.45 4.95 3.75L6.30002 5.10001C6.60002 5.40001 6.60002 5.85 6.30002 6.3C6.15002 6.45 6 6.60001 5.7 6.60001C5.4 6.60001 5.25001 6.45 5.10001 6.3L3.75 4.95ZM8.55002 4.2V2.40001C8.55002 1.95001 8.85002 1.65001 9.30002 1.65001C9.75002 1.65001 10.05 1.95001 10.05 2.40001V4.2C10.05 4.65 9.75002 4.95 9.30002 4.95C8.85002 4.95 8.55002 4.65 8.55002 4.2ZM1.5 9.45C1.5 9 1.8 8.7 2.25 8.7H4.05002C4.50002 8.7 4.80002 9 4.80002 9.45C4.80002 9.9 4.50002 10.2 4.05002 10.2H2.25C1.8 10.2 1.5 9.9 1.5 9.45ZM9.30002 13.95C9.75002 13.95 10.05 14.25 10.05 14.7V16.5C10.05 16.95 9.75002 17.25 9.30002 17.25C8.85002 17.25 8.55002 16.95 8.55002 16.5V14.7C8.55002 14.25 8.85002 13.95 9.30002 13.95ZM9.30002 13.35C11.4 13.35 13.2 11.55 13.2 9.45C13.2 7.35 11.4 5.55 9.30002 5.55C7.20002 5.55 5.40001 7.35 5.40001 9.45C5.40001 11.55 7.20002 13.35 9.30002 13.35ZM9.30002 7.2C10.5 7.2 11.55 8.25 11.55 9.45C11.55 10.65 10.5 11.7 9.30002 11.7C8.10002 11.7 7.05002 10.65 7.05002 9.45C7.05002 8.1 8.10002 7.2 9.30002 7.2ZM38.25 19.5H52.05C55.35 19.5 58.05 16.8 58.05 13.5C58.05 10.2 55.35 7.5 52.05 7.5H50.1C49.65 4.05 46.8 1.5 43.2 1.5C41.4 1.5 39.6 2.25001 38.25 3.60001C37.05 4.80001 36.45 6.3 36.3 7.95C33.9 8.85 32.25 11.1 32.25 13.65C32.25 16.8 34.95 19.5 38.25 19.5ZM37.2 9.3C37.5 9.15 37.8 8.85 37.8 8.55C37.8 7.05 38.4 5.7 39.3 4.8C40.35 3.75 41.7 3.3 43.05 3.3C45.9 3.3 48.3 5.7 48.3 8.55C48.3 9 48.6 9.3 49.05 9.3H51.75C54.15 9.3 56.1 11.25 56.1 13.65C56.1 16.05 54.15 18 51.75 18H37.95C35.55 18 33.6 16.05 33.6 13.65C33.9 11.55 35.25 9.75 37.2 9.3Z" fill="#BD0324"/>
</svg>
