<svg width="60" height="60" viewBox="0 0 60 60" fill="none" xmlns="http://www.w3.org/2000/svg">
<path d="M52.2002 33.75H45.7502C45.3002 31.5 43.3502 29.85 41.1002 29.85C40.8002 29.85 40.3502 29.85 40.0502 30C39.1502 28.8 37.6502 28.05 36.0002 28.05C35.2502 28.05 34.6502 28.2 34.0502 28.5C33.4502 27.75 32.7002 27.3 31.8002 27C32.2502 25.35 33.0002 23.85 33.9002 22.5C35.7002 23.55 37.3502 24 38.7002 24C39.3002 24 39.9002 23.85 40.3502 23.7C43.2002 22.8 44.5502 19.35 45.7502 16.2C46.6502 13.95 47.5502 11.55 48.9002 10.8C49.2002 10.65 49.5002 10.2 49.3502 9.75C49.2002 9.3 48.9002 9.15 48.4502 9C39.1502 8.7 34.0502 12.15 32.5502 15.3C31.6502 17.25 31.6502 19.2 32.7002 21C32.2502 21.6 31.8002 22.35 31.3502 23.1C30.7502 20.4 29.8502 17.85 28.8002 15.6C30.3002 13.8 30.7502 11.7 29.8502 9.6C28.6502 6.15 23.8502 2.4 14.7002 1.5C14.2502 1.5 13.9502 1.65 13.8002 2.1C13.6502 2.55 13.8002 2.85 14.1002 3.15C15.3002 4.05 16.0502 6.45 16.6502 8.85C17.5502 12.15 18.4502 15.6 21.1502 16.95C21.9002 17.25 22.6502 17.4 23.4002 17.4C24.6002 17.4 25.8002 17.1 27.3002 16.5C28.6502 19.2 29.7002 22.5 30.1502 26.25C30.1502 26.4 30.1502 26.4 30.1502 26.55H30.0002C28.3502 26.55 26.8502 27.3 25.8002 28.5C25.2002 28.2 24.4502 28.05 23.7002 28.05C22.2002 28.05 20.7002 28.8 19.6502 30C19.3502 29.85 18.9002 29.85 18.6002 29.85C16.2002 29.85 14.2502 31.5 13.9502 33.75H7.35018C6.90018 33.75 6.4502 34.2 6.4502 34.65C6.4502 47.55 16.9502 58.05 29.8502 58.05C42.7502 58.05 53.2502 47.55 53.2502 34.65C53.1002 34.05 52.8002 33.75 52.2002 33.75ZM21.9002 15.3C19.9502 14.4 19.2002 11.4 18.4502 8.4C18.0002 6.6 17.5502 4.8 16.8002 3.45C23.8502 4.5 27.3002 7.65 28.3502 10.05C28.8002 11.4 28.6502 12.6 27.9002 13.8C26.4002 11.55 24.7502 9.9 22.9502 9C22.5002 8.85 21.9002 9 21.7502 9.45C21.6002 9.9 21.7502 10.5 22.2002 10.65C23.8502 11.4 25.2002 12.9 26.5502 14.85C24.4502 15.75 22.9502 15.9 21.9002 15.3ZM34.0502 16.2C35.2502 13.8 39.1502 11.1 46.2002 10.8C45.3002 12 44.7002 13.8 44.1002 15.45C43.0502 18.3 42.0002 21.15 39.9002 21.9C38.7002 22.35 37.0502 21.9 35.1002 20.85C36.6002 19.2 38.4002 17.85 40.0502 17.25C40.5002 17.1 40.8002 16.5 40.6502 16.05C40.5002 15.6 39.9002 15.3 39.4502 15.45C37.3502 16.2 35.4002 17.55 33.9002 19.35C33.4502 18.45 33.4502 17.25 34.0502 16.2ZM18.6002 31.65C19.0502 31.65 19.3502 31.65 19.6502 31.8C20.1002 31.95 20.5502 31.8 20.7002 31.35C21.3002 30.3 22.3502 29.7 23.5502 29.7C24.1502 29.7 24.9002 29.85 25.3502 30.3C25.5002 30.45 25.8002 30.45 26.1002 30.45C26.4002 30.45 26.5502 30.3 26.7002 30C27.4502 28.95 28.5002 28.2 29.8502 28.2C31.0502 28.2 32.2502 28.8 33.0002 29.85C33.3002 30.3 33.7502 30.45 34.2002 30.15C34.8002 29.85 35.4002 29.7 36.0002 29.7C37.2002 29.7 38.2502 30.3 38.8502 31.35C39.0002 31.8 39.6002 31.95 39.9002 31.8C40.2002 31.65 40.6502 31.65 40.9502 31.65C42.3002 31.65 43.5002 32.55 43.8002 33.75H15.7502C16.0502 32.55 17.2502 31.65 18.6002 31.65ZM29.4002 36C29.7002 36.45 30.0002 36.9 30.3002 37.35C31.3502 38.7 31.5002 39.3 31.5002 39.45C31.3502 39.6 31.0502 39.6 30.7502 39.75C29.5502 40.2 27.3002 40.8 27.1502 44.4C26.8502 46.05 26.4002 46.35 25.9502 46.8C25.3502 47.4 24.9002 48 24.6002 49.5C24.6002 49.8 24.3002 49.95 24.0002 50.1C23.8502 50.1 23.8502 50.1 23.8502 50.1C23.4002 49.65 23.2502 49.05 23.1002 48C22.9502 46.65 22.6502 44.85 20.8502 42.6C20.1002 41.7 20.1002 40.8 20.1002 39.9C20.1002 38.7 20.1002 37.35 18.1502 36.15C17.8502 36 17.5502 35.7 17.2502 35.55H28.9502C29.2502 35.7 29.2502 35.85 29.4002 36ZM29.8502 56.25C18.3002 56.25 8.70019 47.1 8.25019 35.55H14.5502C15.4502 36.3 16.3502 37.05 17.5502 37.65C18.6002 38.25 18.6002 38.85 18.6002 39.9C18.6002 40.95 18.6002 42.15 19.8002 43.65C21.3002 45.45 21.4502 46.8 21.6002 48.15C21.7502 49.2 21.9002 50.25 22.8002 51.3C23.2502 51.75 23.7002 51.9 24.1502 51.9C24.3002 51.9 24.4502 51.9 24.6002 51.9C25.5002 51.75 26.2502 50.85 26.4002 49.95C26.7002 48.75 26.8502 48.6 27.3002 48.15C27.7502 47.55 28.3502 46.95 28.9502 44.85V44.7C28.9502 42.3 30.0002 42 31.2002 41.55C31.9502 41.25 32.8502 41.1 33.1502 40.2C33.4502 39.3 33.0002 38.25 31.6502 36.45C31.5002 36.15 31.3502 36 31.2002 35.7H42.3002C42.1502 36 41.8502 36.45 41.7002 36.75C40.8002 37.95 39.7502 39.6 40.0502 41.85C40.3502 44.1 42.0002 46.8 45.1502 49.95C41.2502 53.7 35.8502 56.25 29.8502 56.25ZM46.3502 48.45C43.5002 45.75 42.0002 43.35 41.7002 41.4C41.5502 39.75 42.3002 38.7 43.0502 37.5C43.5002 36.9 43.9502 36.15 44.2502 35.4H51.4502C51.1502 40.5 49.3502 44.85 46.3502 48.45Z" fill="#BD0324"/>
</svg>
