<svg width="60" height="60" viewBox="0 0 60 60" fill="none" xmlns="http://www.w3.org/2000/svg">
<path d="M55.7999 54.3001L48.9 36.1501C48.75 35.7001 48.3 35.4001 47.85 35.4001H37.35L41.2499 28.5001C41.8499 27.3001 42.75 25.5001 43.35 24.3001C43.35 24.1501 44.4 21.6001 44.4 18.9001C44.4 10.5001 37.7999 3.6001 29.5499 3.6001C21.2999 3.6001 14.7 10.5001 14.7 18.9001C14.7 21.7501 15.75 24.1501 15.75 24.3001C16.2 25.5001 17.1 27.4501 17.85 28.5001L21.7499 35.4001H11.25C10.8 35.4001 10.35 35.7001 10.2 36.1501L3.29994 54.3001C3.14994 54.6001 3.14995 55.0501 3.44995 55.3501C3.59995 55.6501 4.04996 55.8001 4.34996 55.8001H54.45C54.75 55.8001 55.2 55.6501 55.35 55.3501C55.8 55.0501 55.9499 54.7501 55.7999 54.3001ZM19.95 27.3001C19.35 26.2501 18.45 24.4501 18 23.4001C18 23.4001 17.1 21.1501 17.1 18.9001C17.1 11.7001 22.65 5.8501 29.7 5.8501C36.6 5.8501 42.2999 11.7001 42.2999 18.9001C42.2999 21.3001 41.4 23.4001 41.4 23.4001C40.95 24.4501 40.05 26.2501 39.45 27.3001L34.4999 35.8501L29.85 44.1001C29.85 44.2501 29.7 44.2501 29.7 44.2501L29.5499 44.1001L24.9 35.8501L19.95 27.3001ZM6.29994 53.5501L12.2999 37.6501H23.2499L27.6 45.3001L28.65 47.2501C29.1 48.0001 30.3 48.0001 30.6 47.2501L31.65 45.3001L35.9999 37.6501H46.95L52.95 53.5501H6.29994Z" fill="white"/>
<path d="M37.6501 18.3001C37.6501 13.9501 34.0501 10.3501 29.7001 10.3501C25.3501 10.3501 21.75 13.9501 21.75 18.3001C21.75 22.6501 25.3501 26.2501 29.7001 26.2501C34.0501 26.2501 37.6501 22.6501 37.6501 18.3001ZM24 18.3001C24 15.1501 26.5501 12.6001 29.7001 12.6001C32.8501 12.6001 35.4001 15.1501 35.4001 18.3001C35.4001 21.4501 32.8501 24.0001 29.7001 24.0001C26.5501 24.0001 24 21.4501 24 18.3001Z" fill="white"/>
</svg>
