<svg width="60" height="60" viewBox="0 0 60 60" fill="none" xmlns="http://www.w3.org/2000/svg">
<path d="M52.1999 56.55H47.8499V55.05C47.8499 52.35 45.5998 50.1 42.8998 50.1H41.5499V49.65C41.5499 46.95 39.2999 44.7 36.5999 44.7H30.4499C30.5999 40.05 32.0998 35.55 35.3998 32.1C37.4998 34.65 40.9499 35.1 43.7999 33.45C49.3499 30.15 50.6999 22.65 50.8499 22.35C50.8499 21.9 50.6999 21.6 50.2499 21.45C49.9499 21.3 42.5999 19.05 37.1999 22.2C34.1999 24 32.9998 27.45 34.6498 30.6C32.8498 32.4 31.3499 34.65 30.2999 37.05C30.1499 35.55 29.8499 32.25 29.8499 32.25C29.9999 27.9 30.7499 24 31.6499 21.15C34.1999 21.6 36.7498 20.4 37.6498 18C38.6998 14.7 37.4999 10.8 35.6999 8.1C35.5499 7.8 35.0998 7.65 34.6498 7.8C32.6998 8.7 30.7499 10.05 29.3999 11.7C28.0499 8.55 25.3499 6 21.2999 4.2C17.8499 2.55 13.3499 1.65 9.14988 1.5C8.69988 1.5 8.39987 1.8 8.24987 2.25C8.09987 3.9 7.94985 5.7 7.94985 7.35C7.94985 8.4 9.59986 8.4 9.59986 7.35C9.59986 6 9.59987 4.65 9.74987 3.3C13.4999 3.45 17.3999 4.35 20.3999 5.85C23.2499 7.2 26.8499 9.6 28.0499 13.65C27.1499 15.15 26.8499 16.95 27.5999 18.6C27.1499 19.5 26.6999 20.25 26.0999 20.85C25.1999 19.2 24.1499 17.7 22.9499 16.2L23.3999 12.6C23.5499 11.55 21.8999 11.4 21.7499 12.45L21.4499 14.55C20.5499 13.5 19.6499 12.6 18.5999 11.55C17.8499 10.8 16.6499 12 17.3999 12.75C20.5499 15.9 22.9499 18.75 24.7499 22.05C23.6999 22.8 22.4999 23.4 21.1499 23.55C18.5999 24 16.1999 22.95 14.3999 20.85C12.2999 18.6 10.9499 15.45 10.1999 11.7C10.0499 10.65 8.39989 10.95 8.54989 12C9.29989 16.05 10.7999 19.35 13.1999 21.9C15.1499 24 17.5499 25.2 20.0999 25.2C22.0499 25.2 23.9999 24.6 25.6499 23.4C25.9499 24 26.0999 24.45 26.3999 25.05C28.1999 29.7 28.9499 35.7 29.0999 44.7H22.7999C20.0999 44.7 17.8499 46.95 17.8499 49.65V50.1H16.4999C13.7999 50.1 11.5499 52.35 11.5499 55.05V56.55H7.19985C6.14985 56.55 6.14985 58.2 7.19985 58.2H35.5499C36.5999 58.2 36.5999 56.55 35.5499 56.55H13.1999V55.05C13.1999 53.25 14.6999 51.9 16.3499 51.9H18.5999C19.0499 51.9 19.4999 51.6 19.4999 51V49.8C19.4999 48 20.9999 46.65 22.6499 46.65H36.7499C38.5499 46.65 39.8998 48.15 39.8998 49.8V51C39.8998 51.45 40.1999 51.9 40.7999 51.9H43.0499C44.8499 51.9 46.1999 53.4 46.1999 55.05V56.55H40.4999C39.4499 56.55 39.4499 58.2 40.4999 58.2H52.0499C53.2499 58.2 53.2499 56.55 52.1999 56.55ZM37.7999 24.15C41.0999 22.05 45.4499 22.2 49.0499 23.1C48.5999 25.05 46.9499 30 43.0499 32.25C41.2499 34.05 38.0999 32.85 36.7499 31.2C37.4999 30.45 38.3999 29.85 39.4499 29.25L41.2499 30C42.1499 30.45 42.8999 28.95 41.9999 28.5L41.2499 28.2C41.9999 27.75 42.8999 27.3 43.7999 27C44.8499 26.55 44.0999 25.05 43.1999 25.5C40.6499 26.7 38.0999 28.05 35.9999 29.85C34.9499 27.3 36.1499 25.2 37.7999 24.15ZM34.6498 10.05C35.3998 11.4 37.0498 14.7 36.1498 17.7C35.5498 19.5 33.8999 20.4 32.0999 20.1C32.8499 17.85 33.4499 16.5 33.4499 16.5C33.8999 15.6 32.3999 14.85 31.9499 15.75C31.9499 15.9 31.3499 17.25 30.5999 19.5C29.2499 18.75 28.7999 17.25 29.2499 15.75C29.9999 12.75 33.2998 10.8 34.6498 10.05ZM26.9999 22.5C27.7499 21.9 28.3499 21 28.7999 20.25C29.0999 20.55 29.5499 20.85 29.9999 21.15C29.5499 22.95 29.0999 24.9 28.6499 27.3C28.1999 25.65 27.5999 24 26.9999 22.5Z" fill="#BD0324"/>
<path d="M23.6999 50.4C24.7499 50.4 24.7499 48.75 23.6999 48.75C22.6499 48.75 22.6499 50.4 23.6999 50.4Z" fill="#BD0324"/>
<path d="M29.85 53.2501C30.9 53.2501 30.9 51.6001 29.85 51.6001C28.8 51.6001 28.8 53.2501 29.85 53.2501Z" fill="#BD0324"/>
<path d="M16.4999 55.3501C17.5499 55.3501 17.5499 53.7001 16.4999 53.7001C15.4499 53.7001 15.4499 55.3501 16.4999 55.3501Z" fill="#BD0324"/>
<path d="M43.4999 53.7001C42.4499 53.7001 42.4499 55.3501 43.4999 55.3501C44.5499 55.3501 44.5499 53.7001 43.4999 53.7001Z" fill="#BD0324"/>
</svg>
