<svg width="60" height="60" viewBox="0 0 60 60" fill="none" xmlns="http://www.w3.org/2000/svg">
<path d="M54.05 18.389H49.55C50 17.039 51.05 16.139 52.4 15.689C52.85 15.539 53.15 15.089 53 14.639C52.85 14.189 52.4 13.889 51.95 14.039C50.6 14.489 49.4 15.239 48.65 16.289C47.75 15.239 46.7 14.339 45.35 14.039C44.9 13.889 44.45 14.189 44.3 14.639C44.15 15.089 44.45 15.539 44.9 15.689C46.25 16.139 47.3 17.039 47.75 18.389H37.1C37.55 17.039 38.6 16.139 39.95 15.689C40.4 15.539 40.7 15.089 40.55 14.639C40.4 14.189 39.95 13.889 39.5 14.039C38.15 14.489 36.95 15.239 36.2 16.289C35.3 15.239 34.25 14.339 32.9 14.039C32.45 13.889 32 14.189 31.85 14.639C31.7 15.089 32 15.539 32.45 15.689C33.8 16.139 34.85 17.039 35.3 18.389H24.65C25.1 17.039 26.15 16.139 27.5 15.689C27.95 15.539 28.25 15.089 28.1 14.639C27.95 14.189 27.5 13.889 27.05 14.039C25.7 14.489 24.5 15.239 23.75 16.289C22.85 15.239 21.8 14.339 20.45 14.039C20 13.889 19.55 14.189 19.4 14.639C19.25 15.089 19.55 15.539 20 15.689C21.35 16.139 22.4 17.039 22.85 18.389H12.2C12.65 17.039 13.7 16.139 15.05 15.689C15.5 15.539 15.8 15.089 15.65 14.639C15.5 14.189 15.05 13.889 14.6 14.039C13.25 14.489 12.05 15.239 11.3 16.289C10.4 15.239 9.35 14.339 8 14.039C7.55 13.889 7.09998 14.189 6.94998 14.639C6.79998 15.089 7.09997 15.539 7.54997 15.689C8.89997 16.139 9.95001 17.039 10.4 18.389H5.90001C5.45001 18.389 5 18.839 5 19.289V44.339C5 44.789 5.45001 45.239 5.90001 45.239H54.05C54.5 45.239 54.95 44.789 54.95 44.339V19.289C54.95 18.839 54.5 18.389 54.05 18.389ZM53.15 43.439H6.79997V38.939C7.99997 38.489 9.04997 37.889 9.79997 36.989C9.94997 36.839 10.25 37.439 10.4 37.439C12.5 39.389 15.65 39.239 17.6 37.139L17.75 36.989C17.9 36.839 18.2 37.439 18.35 37.439C20.45 39.389 23.75 39.239 25.7 37.139C25.7 37.139 25.7 36.989 25.85 36.989C26 36.839 26.3 37.439 26.45 37.439C28.4 39.239 31.4 39.239 33.35 37.439C33.5 37.289 33.8 36.839 33.95 36.989C35.75 39.089 39.05 39.389 41.15 37.589C41.15 37.589 41.3 37.589 41.3 37.439C41.45 37.289 41.75 36.839 41.9 36.989C43.7 39.089 47 39.389 49.25 37.589C49.4 37.439 49.55 37.289 49.7 37.139L49.85 36.989H50C50.75 37.889 51.8 38.639 53 38.939V43.439H53.15ZM53.15 36.989C52.55 36.689 51.95 36.239 51.5 35.789C50.75 35.039 49.55 34.889 48.8 35.639L48.65 35.789C48.05 36.539 47 36.989 46.1 36.989C45.2 36.989 44.15 36.539 43.55 35.789C42.8 34.889 41.45 34.889 40.7 35.639C40.55 35.789 40.4 35.939 40.4 36.089C39.05 37.289 36.95 37.289 35.6 35.789C35.6 35.789 35.6 35.789 35.6 35.639C34.85 34.739 33.5 34.739 32.75 35.489C32.6 35.639 32.45 35.789 32.45 35.939C31.1 37.139 29.15 37.139 27.95 35.939C27.35 35.039 26.15 34.739 25.1 35.339C24.95 35.489 24.8 35.489 24.65 35.639C23.45 36.989 21.35 37.289 20 36.089C20 36.089 20 36.089 19.85 36.089C19.25 35.189 18.05 34.889 17 35.489C16.85 35.639 16.7 35.639 16.55 35.789C15.35 37.139 13.25 37.439 11.9 36.239C11.75 36.089 11.6 35.939 11.45 35.789C10.7 35.039 9.5 34.889 8.75 35.639L8.59999 35.789C8.14999 36.239 7.54998 36.689 6.94998 36.989V27.239H53.3V36.989H53.15ZM53.15 25.589H6.79997V20.189H53.15V25.589Z" fill="white"/>
<path d="M34.0998 33.239C35.4498 33.239 36.4998 32.189 36.6498 30.839C36.6498 29.789 35.1498 27.689 34.6998 27.089C34.3998 26.789 33.9498 26.789 33.6498 26.939C33.6498 26.939 33.4998 26.939 33.4998 27.089C33.0498 27.689 31.5498 29.789 31.5498 30.839C31.6998 32.189 32.7498 33.239 34.0998 33.239ZM34.0998 28.739C34.5498 29.339 34.9998 30.089 35.1498 30.839C35.1498 31.439 34.5498 31.889 33.9498 31.739C33.4998 31.739 33.0498 31.289 33.0498 30.839C33.3498 30.089 33.6498 29.339 34.0998 28.739Z" fill="white"/>
<path d="M25.55 36.6891C26.9 36.6891 27.95 35.6391 28.1 34.2891C28.1 33.2391 26.6 31.1391 26.15 30.5391C25.85 30.2391 25.4 30.2391 25.1 30.3891C25.1 30.3891 24.95 30.3891 24.95 30.5391C24.5 31.1391 23 33.2391 23 34.2891C23.15 35.6391 24.2 36.8391 25.55 36.6891ZM25.55 32.3391C26 32.9391 26.45 33.6891 26.6 34.4391C26.6 35.0391 26 35.4891 25.4 35.3391C24.95 35.3391 24.5 34.8891 24.5 34.4391C24.8 33.6891 25.1 32.9391 25.55 32.3391Z" fill="white"/>
<path d="M17.0002 33.089C18.3502 33.089 19.4002 32.039 19.5502 30.689C19.5502 29.639 18.0502 27.539 17.6002 26.939C17.3002 26.639 16.8502 26.639 16.5502 26.789C16.5502 26.789 16.4002 26.789 16.4002 26.939C15.9502 27.539 14.4502 29.639 14.4502 30.689C14.6002 32.039 15.6502 33.089 17.0002 33.089ZM17.0002 28.589C17.4502 29.189 17.9002 29.939 18.0502 30.689C18.0502 31.289 17.6002 31.739 17.0002 31.589C16.4002 31.589 15.9502 31.139 15.9502 30.689C16.2502 29.939 16.5502 29.339 17.0002 28.589Z" fill="white"/>
<path d="M42.6499 36.6891C43.9999 36.6891 45.0498 35.6391 45.1998 34.2891C45.1998 33.2391 43.6999 31.1391 43.2499 30.5391C42.9499 30.2391 42.4998 30.2391 42.1998 30.3891C42.1998 30.3891 42.0498 30.3891 42.0498 30.5391C41.5998 31.1391 40.0999 33.2391 40.0999 34.2891C40.2499 35.6391 41.2999 36.8391 42.6499 36.6891ZM42.6499 32.3391C43.0999 32.9391 43.5498 33.6891 43.6998 34.4391C43.6998 35.0391 43.0999 35.4891 42.4999 35.3391C42.0499 35.3391 41.5999 34.8891 41.5999 34.4391C41.8999 33.6891 42.1999 32.9391 42.6499 32.3391Z" fill="white"/>
</svg>
