<svg width="20" height="20" viewBox="0 0 20 20" fill="none" xmlns="http://www.w3.org/2000/svg">
<path fill-rule="evenodd" clip-rule="evenodd" d="M9.13738 17.8834C9.16117 17.8973 9.17988 17.9079 9.19312 17.9154L9.21513 17.9277C9.39072 18.0244 9.60854 18.0237 9.7843 17.928L9.80688 17.9154C9.82012 17.9079 9.83882 17.8973 9.86262 17.8834C9.91021 17.8558 9.97822 17.8155 10.0637 17.7627C10.2347 17.6571 10.476 17.5014 10.7642 17.2972C11.3398 16.8894 12.1077 16.2844 12.8773 15.4942C14.409 13.9213 16 11.5581 16 8.51898C16 4.91865 13.0899 2 9.5 2C5.91015 2 3 4.91865 3 8.51898C3 11.5581 4.59098 13.9213 6.12272 15.4942C6.89232 16.2844 7.66023 16.8894 8.23576 17.2972C8.52401 17.5014 8.76533 17.6571 8.93627 17.7627C9.02178 17.8155 9.08978 17.8558 9.13738 17.8834ZM9.5 10.8895C10.8054 10.8895 11.8636 9.8282 11.8636 8.51898C11.8636 7.20977 10.8054 6.14844 9.5 6.14844C8.1946 6.14844 7.13636 7.20977 7.13636 8.51898C7.13636 9.8282 8.1946 10.8895 9.5 10.8895Z" fill="white"/>
</svg>
