<svg width="60" height="60" viewBox="0 0 60 60" fill="none" xmlns="http://www.w3.org/2000/svg">
<path d="M24.9297 52.3419C16.4953 52.3419 9.63062 45.4772 9.63062 37.0428C9.63062 28.6085 16.4953 21.7437 24.9297 21.7437C33.3641 21.7437 40.2288 28.6085 40.2288 37.0428C40.2288 45.4772 33.3641 52.3419 24.9297 52.3419ZM24.9297 23.3134C17.3534 23.3134 11.2003 29.477 11.2003 37.0428C11.2003 44.6191 17.3639 50.7722 24.9297 50.7722C32.506 50.7722 38.6591 44.6087 38.6591 37.0428C38.6591 29.477 32.506 23.3134 24.9297 23.3134Z" fill="#BD0324"/>
<path d="M19.2356 51.1818C19.1309 51.1818 19.0263 51.1608 18.9321 51.119C13.2813 48.7121 9.62915 43.1869 9.62915 37.0442C9.62915 33.6851 10.6965 30.4935 12.7266 27.825C14.6835 25.2403 17.4671 23.3044 20.5541 22.3835C20.7738 22.3207 21.0041 22.3521 21.1924 22.4672C21.3808 22.5823 21.5168 22.7811 21.5482 23.0009C21.7261 24.0369 21.8098 25.9519 20.3553 27.1553C19.7902 27.6262 19.2251 27.9297 18.7228 28.1913C17.6868 28.7459 17.1113 29.0598 17.0485 30.3993C16.9752 32.1573 15.8555 32.7119 15.1021 33.0887C14.3905 33.4444 14.1812 33.57 14.2126 34.2293C14.244 34.9723 14.6312 35.1816 15.7195 35.6106C16.6194 35.9664 17.7287 36.4059 18.3147 37.6302C18.5658 38.1744 19.0891 38.4046 19.6855 38.6872C20.3343 38.9802 21.0668 39.315 21.3598 40.1208C21.5901 40.7696 21.4645 41.5544 20.9622 42.5904C20.8157 42.8939 20.6692 43.1764 20.5436 43.438C19.2669 46.0123 19.1518 46.3367 19.853 47.6343C20.4494 48.7331 20.4704 49.8842 19.9157 50.805C19.7588 51.0457 19.5076 51.1818 19.2356 51.1818ZM20.0727 24.1938C14.7986 26.1926 11.1988 31.3411 11.1988 37.0442C11.1988 42.2555 14.1289 46.975 18.7333 49.3086C18.7228 49.0261 18.6391 48.7121 18.4612 48.3877C17.3519 46.3367 17.8333 45.3635 19.1204 42.7474C19.246 42.4858 19.3925 42.2032 19.539 41.8998C19.9471 41.0626 19.9053 40.7487 19.8739 40.644C19.8111 40.4557 19.4135 40.2778 19.0263 40.0999C18.3356 39.7859 17.3833 39.3569 16.881 38.2895C16.5671 37.6302 15.9078 37.3686 15.1335 37.0547C14.1184 36.657 12.7266 36.1024 12.6429 34.2921C12.5592 32.5759 13.6684 32.0317 14.401 31.6655C15.0707 31.3306 15.4474 31.1527 15.4788 30.326C15.5834 28.0971 16.8497 27.4064 17.9798 26.81C18.4403 26.5693 18.9112 26.3077 19.3507 25.9414C19.8948 25.5019 20.0622 24.8217 20.0727 24.1938Z" fill="#BD0324"/>
<path d="M35.4673 47.8107C35.394 47.8107 35.3208 47.8002 35.2475 47.7793C33.615 47.3084 31.9617 45.362 31.7838 43.6877C31.6686 42.5889 32.0349 41.8354 32.3593 41.1657C32.6628 40.5378 32.9035 40.0356 32.7988 39.2402C32.7465 38.8531 32.6732 38.6752 32.6105 38.6333C32.4849 38.5496 32.0977 38.5182 31.7314 38.4868C31.114 38.4345 30.2769 38.3612 29.199 38.0368C27.8596 37.6392 26.991 37.0008 26.5515 36.08C25.8713 34.6777 26.3945 32.972 26.9282 31.6326C27.891 29.2153 30.6327 29.2153 32.2651 29.2257C32.6 29.2257 33.0604 29.2257 33.2174 29.1943C33.2488 29.1525 33.3116 29.0164 33.3011 28.7444C33.3011 28.2839 33.0814 27.6351 32.6314 27.2375C32.6 27.2061 32.4116 27.0805 31.7 27.2584C31.0931 27.4049 30.3815 27.7084 29.7536 27.9805C29.0316 28.2944 28.4561 28.5351 27.9956 28.5874C27.1166 28.692 26.3422 28.3781 25.955 27.7712C25.5783 27.1747 25.6306 26.3899 26.1015 25.6259C26.3841 25.1655 26.3736 25.019 26.3632 24.9771C26.3318 24.883 26.1539 24.6004 24.9923 24.0144C24.4586 23.7423 24.0505 23.397 23.7784 22.9994C23.6215 22.7587 23.6005 22.4552 23.7261 22.2041C23.8517 21.9529 24.1133 21.7855 24.3958 21.775C24.6051 21.7645 24.7725 21.7645 24.9295 21.7645C33.3639 21.7645 40.2286 28.6293 40.2286 37.0636C40.2286 40.9983 38.7426 44.7341 36.0323 47.5804C35.8858 47.727 35.6765 47.8107 35.4673 47.8107ZM32.15 30.7954C30.4548 30.7954 28.906 30.921 28.3933 32.2186C27.7863 33.7359 27.6503 34.751 27.9747 35.3998C28.2154 35.9021 28.77 36.2683 29.6595 36.5299C30.5803 36.802 31.3024 36.8648 31.8779 36.9171C32.9767 37.0113 34.1173 37.116 34.358 39.031C34.515 40.2972 34.1069 41.1553 33.772 41.8459C33.4999 42.4215 33.2802 42.8714 33.343 43.5202C33.4371 44.3992 34.358 45.5922 35.2475 46.084C37.445 43.583 38.6485 40.3913 38.6485 37.0427C38.6485 33.2022 37.0683 29.728 34.5255 27.2375C34.8289 27.8863 34.944 28.6083 34.8289 29.2676C34.7138 29.9373 34.3371 30.4396 33.8034 30.6489C33.4267 30.7954 32.9349 30.7954 32.2651 30.7954C32.2337 30.7954 32.1919 30.7954 32.15 30.7954ZM27.1375 23.4912C27.5038 23.8051 27.7654 24.14 27.87 24.5481C28.0689 25.2702 27.734 25.9399 27.4305 26.4422C27.2631 26.7143 27.2526 26.8817 27.2736 26.9235C27.305 26.9759 27.5038 27.0596 27.8073 27.0282C28.0479 26.9968 28.6235 26.7561 29.1258 26.5364C30.2036 26.0759 31.4594 25.5318 32.5058 25.605C30.9152 24.5481 29.0944 23.8051 27.1375 23.4912Z" fill="#BD0324"/>
<path d="M45.072 24.5892C45.0092 24.5892 44.9464 24.5787 44.8836 24.5682C42.1629 23.888 40.0386 21.8475 39.191 19.1162C38.3538 16.4059 38.9817 13.5177 40.8757 11.3725C43.0105 8.95521 44.6325 6.54838 45.6894 4.2148C45.9092 3.72297 46.3801 3.4195 46.9137 3.4195C47.4474 3.4195 47.9183 3.72297 48.1381 4.2148C49.195 6.54838 50.817 8.96568 52.9518 11.3725C54.8458 13.5073 55.4737 16.4059 54.6365 19.1162C53.768 21.8475 51.6437 23.888 48.9229 24.5682C48.5044 24.6729 48.0753 24.4217 47.9707 23.9927C47.866 23.5741 48.1172 23.1451 48.5462 23.0404C50.7228 22.4963 52.439 20.8533 53.1192 18.6453C53.8098 16.4373 53.3076 14.1665 51.7588 12.4085C49.6554 10.0226 48.023 7.63669 46.9033 5.29264C45.7836 7.63669 44.1511 10.0226 42.0478 12.4085C40.499 14.1561 40.0072 16.4269 40.6874 18.6453C41.3676 20.8533 43.0837 22.4963 45.2604 23.0404C45.6789 23.1451 45.9405 23.5741 45.8359 23.9927C45.7417 24.3485 45.4278 24.5892 45.072 24.5892Z" fill="#BD0324"/>
<path d="M24.9288 57C20.8686 57 17.0072 55.8384 13.7632 53.6409C10.739 51.5794 8.32168 48.6912 6.7834 45.2902C5.25559 41.8683 4.6905 38.1325 5.16141 34.4804C5.6637 30.5772 7.35895 26.9041 10.0588 23.8485C15.741 17.4233 20.0628 10.9981 22.8778 4.74033C23.244 3.9241 24.0394 3.41134 24.9288 3.41134C25.8288 3.41134 26.6136 3.9241 26.9799 4.74033C29.8053 10.9876 34.1167 17.4128 39.7989 23.8485C42.6661 27.082 44.3823 30.9853 44.78 35.1397C44.8218 35.5687 44.5079 35.9559 44.0684 35.9978C43.6393 36.0396 43.2522 35.7257 43.2103 35.2862C42.8545 31.4666 41.2639 27.8773 38.6269 24.8949C32.84 18.3546 28.4344 11.7934 25.5462 5.3996C25.3788 5.02288 25.023 4.99148 24.9184 4.99148C24.8137 4.99148 24.4684 5.02288 24.2905 5.3996C21.4023 11.7934 17.0072 18.3546 11.2099 24.8949C6.34389 30.3888 5.1928 37.9546 8.20657 44.6414C11.2099 51.2969 17.6037 55.4303 24.9184 55.4303C35.7073 55.4303 42.3836 46.8599 43.1894 38.8023C43.2312 38.3732 43.6184 38.0593 44.0475 38.1011C44.4765 38.143 44.7904 38.5302 44.7486 38.9592C44.2881 43.7415 42.122 48.2098 38.6792 51.5375C36.9002 53.2537 34.8596 54.5827 32.5993 55.514C30.2029 56.4977 27.6182 57 24.9288 57Z" fill="#BD0324"/>
</svg>
